solid OpenSCAD_Model
  facet normal 0 0 -1
    outer loop
      vertex -6 0 0
      vertex -5.70634 1.8541 0
      vertex -5.70634 -1.8541 0
    endloop
  endfacet
  facet normal 0 0 -1
    outer loop
      vertex -5.70634 -1.8541 0
      vertex -5.70634 1.8541 0
      vertex -4.8541 3.52671 0
    endloop
  endfacet
  facet normal 0 0 -1
    outer loop
      vertex -5.70634 -1.8541 0
      vertex -4.8541 3.52671 0
      vertex -3.52671 4.8541 0
    endloop
  endfacet
  facet normal 0 0 -1
    outer loop
      vertex -5.70634 -1.8541 0
      vertex -3.52671 4.8541 0
      vertex -1.8541 5.70634 0
    endloop
  endfacet
  facet normal 0 0 -1
    outer loop
      vertex -5.70634 -1.8541 0
      vertex -1.8541 5.70634 0
      vertex 0 6 0
    endloop
  endfacet
  facet normal 0 0 -1
    outer loop
      vertex 1.69894 1.23435 0
      vertex 0 6 0
      vertex 20 6 0
    endloop
  endfacet
  facet normal 0 0 -1
    outer loop
      vertex 2.1 0 0
      vertex 21.8541 5.70634 0
      vertex 23.5267 4.8541 0
    endloop
  endfacet
  facet normal 0 0 -1
    outer loop
      vertex 21.2343 1.69894 0
      vertex 24.8541 3.52671 0
      vertex 25.7063 1.8541 0
    endloop
  endfacet
  facet normal 0 0 -1
    outer loop
      vertex 21.9972 0.648936 0
      vertex 25.7063 1.8541 0
      vertex 22.1 0 0
    endloop
  endfacet
  facet normal 0 0 -1
    outer loop
      vertex 21.9972 -0.648936 0
      vertex 26 0 0
      vertex 25.7063 -1.8541 0
    endloop
  endfacet
  facet normal 0 0 -1
    outer loop
      vertex 20 -2.1 0
      vertex 25.7063 -1.8541 0
      vertex 24.8541 -3.52671 0
    endloop
  endfacet
  facet normal 0 0 -1
    outer loop
      vertex -5.70634 -1.8541 0
      vertex 24.8541 -3.52671 0
      vertex 23.5267 -4.8541 0
    endloop
  endfacet
  facet normal 0 0 -1
    outer loop
      vertex -5.70634 -1.8541 0
      vertex 23.5267 -4.8541 0
      vertex 21.8541 -5.70634 0
    endloop
  endfacet
  facet normal 0 0 -1
    outer loop
      vertex -5.70634 -1.8541 0
      vertex 21.8541 -5.70634 0
      vertex 20 -6 0
    endloop
  endfacet
  facet normal 0 0 -1
    outer loop
      vertex -5.70634 -1.8541 0
      vertex 20 -6 0
      vertex 0 -6 0
    endloop
  endfacet
  facet normal 0 0 -1
    outer loop
      vertex -5.70634 -1.8541 0
      vertex 0 -6 0
      vertex -1.8541 -5.70634 0
    endloop
  endfacet
  facet normal 0 0 -1
    outer loop
      vertex -5.70634 -1.8541 0
      vertex -1.8541 -5.70634 0
      vertex -3.52671 -4.8541 0
    endloop
  endfacet
  facet normal 0 0 -1
    outer loop
      vertex -5.70634 -1.8541 0
      vertex -3.52671 -4.8541 0
      vertex -4.8541 -3.52671 0
    endloop
  endfacet
  facet normal 0 0 -1
    outer loop
      vertex 18.0028 -0.648936 0
      vertex 1.23435 -1.69894 0
      vertex 1.69894 -1.23435 0
    endloop
  endfacet
  facet normal 0 0 -1
    outer loop
      vertex -5.70634 -1.8541 0
      vertex -2.1 0 0
      vertex -1.99722 -0.648936 0
    endloop
  endfacet
  facet normal 0 0 -1
    outer loop
      vertex -1.23435 -1.69894 0
      vertex -5.70634 -1.8541 0
      vertex -1.69894 -1.23435 0
    endloop
  endfacet
  facet normal 0 0 -1
    outer loop
      vertex -0.648936 -1.99722 0
      vertex -5.70634 -1.8541 0
      vertex -1.23435 -1.69894 0
    endloop
  endfacet
  facet normal 0 0 -1
    outer loop
      vertex 0.648936 -1.99722 0
      vertex 24.8541 -3.52671 0
      vertex 0 -2.1 0
    endloop
  endfacet
  facet normal 0 0 -1
    outer loop
      vertex -5.70634 -1.8541 0
      vertex -0.648936 -1.99722 0
      vertex 0 -2.1 0
    endloop
  endfacet
  facet normal 0 0 -1
    outer loop
      vertex -5.70634 -1.8541 0
      vertex 0 -2.1 0
      vertex 24.8541 -3.52671 0
    endloop
  endfacet
  facet normal 0 0 -1
    outer loop
      vertex 19.3511 -1.99722 0
      vertex 1.23435 -1.69894 0
      vertex 18.7657 -1.69894 0
    endloop
  endfacet
  facet normal 0 0 -1
    outer loop
      vertex 2.1 0 0
      vertex 24.8541 3.52671 0
      vertex 1.99722 -0.648936 0
    endloop
  endfacet
  facet normal 0 0 -1
    outer loop
      vertex 1.69894 1.23435 0
      vertex 20 6 0
      vertex 1.99722 0.648936 0
    endloop
  endfacet
  facet normal 0 0 -1
    outer loop
      vertex 1.23435 1.69894 0
      vertex 0 6 0
      vertex 1.69894 1.23435 0
    endloop
  endfacet
  facet normal 0 0 -1
    outer loop
      vertex -1.69894 1.23435 0
      vertex 0 6 0
      vertex -1.23435 1.69894 0
    endloop
  endfacet
  facet normal 0 0 -1
    outer loop
      vertex 0.648936 1.99722 0
      vertex 0 6 0
      vertex 1.23435 1.69894 0
    endloop
  endfacet
  facet normal 0 0 -1
    outer loop
      vertex 0 2.1 0
      vertex 0 6 0
      vertex 0.648936 1.99722 0
    endloop
  endfacet
  facet normal 0 0 -1
    outer loop
      vertex -0.648936 1.99722 0
      vertex 0 6 0
      vertex 0 2.1 0
    endloop
  endfacet
  facet normal 0 0 -1
    outer loop
      vertex -1.23435 1.69894 0
      vertex 0 6 0
      vertex -0.648936 1.99722 0
    endloop
  endfacet
  facet normal 0 0 -1
    outer loop
      vertex 18.0028 -0.648936 0
      vertex 1.69894 -1.23435 0
      vertex 17.9 0 0
    endloop
  endfacet
  facet normal 0 0 -1
    outer loop
      vertex -5.70634 -1.8541 0
      vertex 0 6 0
      vertex -1.69894 1.23435 0
    endloop
  endfacet
  facet normal 0 0 -1
    outer loop
      vertex -5.70634 -1.8541 0
      vertex -1.69894 1.23435 0
      vertex -1.99722 0.648936 0
    endloop
  endfacet
  facet normal 0 0 -1
    outer loop
      vertex -5.70634 -1.8541 0
      vertex -1.99722 0.648936 0
      vertex -2.1 0 0
    endloop
  endfacet
  facet normal 0 0 -1
    outer loop
      vertex 21.2343 1.69894 0
      vertex 25.7063 1.8541 0
      vertex 21.6989 1.23435 0
    endloop
  endfacet
  facet normal 0 0 -1
    outer loop
      vertex 22.1 0 0
      vertex 25.7063 1.8541 0
      vertex 26 0 0
    endloop
  endfacet
  facet normal 0 0 -1
    outer loop
      vertex 19.3511 -1.99722 0
      vertex 0.648936 -1.99722 0
      vertex 1.23435 -1.69894 0
    endloop
  endfacet
  facet normal 0 0 -1
    outer loop
      vertex 1.23435 -1.69894 0
      vertex 18.0028 -0.648936 0
      vertex 18.3011 -1.23435 0
    endloop
  endfacet
  facet normal 0 0 -1
    outer loop
      vertex 1.23435 -1.69894 0
      vertex 18.3011 -1.23435 0
      vertex 18.7657 -1.69894 0
    endloop
  endfacet
  facet normal 0 0 -1
    outer loop
      vertex 21.2343 -1.69894 0
      vertex 25.7063 -1.8541 0
      vertex 20.6489 -1.99722 0
    endloop
  endfacet
  facet normal 0 0 -1
    outer loop
      vertex 0.648936 -1.99722 0
      vertex 19.3511 -1.99722 0
      vertex 24.8541 -3.52671 0
    endloop
  endfacet
  facet normal 0 0 -1
    outer loop
      vertex 20.6489 -1.99722 0
      vertex 25.7063 -1.8541 0
      vertex 20 -2.1 0
    endloop
  endfacet
  facet normal 0 0 -1
    outer loop
      vertex 19.3511 -1.99722 0
      vertex 20 -2.1 0
      vertex 24.8541 -3.52671 0
    endloop
  endfacet
  facet normal 0 0 -1
    outer loop
      vertex 21.6989 -1.23435 0
      vertex 25.7063 -1.8541 0
      vertex 21.2343 -1.69894 0
    endloop
  endfacet
  facet normal 0 0 -1
    outer loop
      vertex 21.9972 -0.648936 0
      vertex 25.7063 -1.8541 0
      vertex 21.6989 -1.23435 0
    endloop
  endfacet
  facet normal 0 0 -1
    outer loop
      vertex 22.1 0 0
      vertex 26 0 0
      vertex 21.9972 -0.648936 0
    endloop
  endfacet
  facet normal 0 0 -1
    outer loop
      vertex 20.6489 1.99722 0
      vertex 24.8541 3.52671 0
      vertex 21.2343 1.69894 0
    endloop
  endfacet
  facet normal 0 0 -1
    outer loop
      vertex 18.7657 1.69894 0
      vertex 1.99722 -0.648936 0
      vertex 19.3511 1.99722 0
    endloop
  endfacet
  facet normal 0 0 -1
    outer loop
      vertex 20 2.1 0
      vertex 24.8541 3.52671 0
      vertex 20.6489 1.99722 0
    endloop
  endfacet
  facet normal 0 0 -1
    outer loop
      vertex 1.99722 -0.648936 0
      vertex 24.8541 3.52671 0
      vertex 20 2.1 0
    endloop
  endfacet
  facet normal 0 0 -1
    outer loop
      vertex 1.99722 -0.648936 0
      vertex 20 2.1 0
      vertex 19.3511 1.99722 0
    endloop
  endfacet
  facet normal 0 0 -1
    outer loop
      vertex 18.3011 1.23435 0
      vertex 1.99722 -0.648936 0
      vertex 18.7657 1.69894 0
    endloop
  endfacet
  facet normal 0 0 -1
    outer loop
      vertex 18.0028 0.648936 0
      vertex 1.99722 -0.648936 0
      vertex 18.3011 1.23435 0
    endloop
  endfacet
  facet normal 0 0 -1
    outer loop
      vertex 18.0028 0.648936 0
      vertex 1.69894 -1.23435 0
      vertex 1.99722 -0.648936 0
    endloop
  endfacet
  facet normal 0 0 -1
    outer loop
      vertex 1.69894 -1.23435 0
      vertex 18.0028 0.648936 0
      vertex 17.9 0 0
    endloop
  endfacet
  facet normal 0 0 -1
    outer loop
      vertex -1.69894 -1.23435 0
      vertex -5.70634 -1.8541 0
      vertex -1.99722 -0.648936 0
    endloop
  endfacet
  facet normal 0 0 -1
    outer loop
      vertex 21.6989 1.23435 0
      vertex 25.7063 1.8541 0
      vertex 21.9972 0.648936 0
    endloop
  endfacet
  facet normal 0 0 -1
    outer loop
      vertex 2.1 0 0
      vertex 23.5267 4.8541 0
      vertex 24.8541 3.52671 0
    endloop
  endfacet
  facet normal 0 0 -1
    outer loop
      vertex 1.99722 0.648936 0
      vertex 20 6 0
      vertex 21.8541 5.70634 0
    endloop
  endfacet
  facet normal 0 0 -1
    outer loop
      vertex 1.99722 0.648936 0
      vertex 21.8541 5.70634 0
      vertex 2.1 0 0
    endloop
  endfacet
  facet normal -0.987688 0.156435 0
    outer loop
      vertex -6 0 0
      vertex -6 0 3
      vertex -5.70634 1.8541 0
    endloop
  endfacet
  facet normal -0.987688 0.156435 0
    outer loop
      vertex -5.70634 1.8541 0
      vertex -6 0 3
      vertex -5.70634 1.8541 3
    endloop
  endfacet
  facet normal -0.987688 -0.156435 0
    outer loop
      vertex -6 0 0
      vertex -5.70634 -1.8541 0
      vertex -6 0 3
    endloop
  endfacet
  facet normal -0.987688 -0.156435 0
    outer loop
      vertex -6 0 3
      vertex -5.70634 -1.8541 0
      vertex -5.70634 -1.8541 3
    endloop
  endfacet
  facet normal -0.891007 -0.45399 0
    outer loop
      vertex -5.70634 -1.8541 0
      vertex -4.8541 -3.52671 0
      vertex -5.70634 -1.8541 3
    endloop
  endfacet
  facet normal -0.891007 -0.45399 0
    outer loop
      vertex -5.70634 -1.8541 3
      vertex -4.8541 -3.52671 0
      vertex -4.8541 -3.52671 3
    endloop
  endfacet
  facet normal -0.707107 -0.707107 0
    outer loop
      vertex -4.8541 -3.52671 3
      vertex -4.8541 -3.52671 0
      vertex -3.52671 -4.8541 0
    endloop
  endfacet
  facet normal -0.707107 -0.707107 0
    outer loop
      vertex -3.52671 -4.8541 3
      vertex -4.8541 -3.52671 3
      vertex -3.52671 -4.8541 0
    endloop
  endfacet
  facet normal -0.45399 -0.891007 0
    outer loop
      vertex -3.52671 -4.8541 3
      vertex -3.52671 -4.8541 0
      vertex -1.8541 -5.70634 0
    endloop
  endfacet
  facet normal -0.45399 -0.891007 0
    outer loop
      vertex -1.8541 -5.70634 3
      vertex -3.52671 -4.8541 3
      vertex -1.8541 -5.70634 0
    endloop
  endfacet
  facet normal -0.156435 -0.987688 0
    outer loop
      vertex -1.8541 -5.70634 3
      vertex -1.8541 -5.70634 0
      vertex 0 -6 0
    endloop
  endfacet
  facet normal -0.156435 -0.987688 0
    outer loop
      vertex 0 -6 3
      vertex -1.8541 -5.70634 3
      vertex 0 -6 0
    endloop
  endfacet
  facet normal 0 -1 0
    outer loop
      vertex 0 -6 3
      vertex 0 -6 0
      vertex 20 -6 0
    endloop
  endfacet
  facet normal 0 -1 0
    outer loop
      vertex 20 -6 3
      vertex 0 -6 3
      vertex 20 -6 0
    endloop
  endfacet
  facet normal 0.156435 -0.987688 0
    outer loop
      vertex 20 -6 3
      vertex 20 -6 0
      vertex 21.8541 -5.70634 0
    endloop
  endfacet
  facet normal 0.156435 -0.987688 0
    outer loop
      vertex 21.8541 -5.70634 3
      vertex 20 -6 3
      vertex 21.8541 -5.70634 0
    endloop
  endfacet
  facet normal 0.45399 -0.891007 0
    outer loop
      vertex 21.8541 -5.70634 3
      vertex 21.8541 -5.70634 0
      vertex 23.5267 -4.8541 0
    endloop
  endfacet
  facet normal 0.45399 -0.891007 0
    outer loop
      vertex 23.5267 -4.8541 3
      vertex 21.8541 -5.70634 3
      vertex 23.5267 -4.8541 0
    endloop
  endfacet
  facet normal 0.707107 -0.707107 0
    outer loop
      vertex 23.5267 -4.8541 3
      vertex 23.5267 -4.8541 0
      vertex 24.8541 -3.52671 0
    endloop
  endfacet
  facet normal 0.707107 -0.707107 0
    outer loop
      vertex 24.8541 -3.52671 3
      vertex 23.5267 -4.8541 3
      vertex 24.8541 -3.52671 0
    endloop
  endfacet
  facet normal 0.891007 -0.45399 0
    outer loop
      vertex 24.8541 -3.52671 3
      vertex 24.8541 -3.52671 0
      vertex 25.7063 -1.8541 0
    endloop
  endfacet
  facet normal 0.891007 -0.45399 0
    outer loop
      vertex 25.7063 -1.8541 3
      vertex 24.8541 -3.52671 3
      vertex 25.7063 -1.8541 0
    endloop
  endfacet
  facet normal 0.987688 -0.156435 0
    outer loop
      vertex 25.7063 -1.8541 3
      vertex 25.7063 -1.8541 0
      vertex 26 0 0
    endloop
  endfacet
  facet normal 0.987688 -0.156435 0
    outer loop
      vertex 26 0 3
      vertex 25.7063 -1.8541 3
      vertex 26 0 0
    endloop
  endfacet
  facet normal 0.987688 0.156435 0
    outer loop
      vertex 26 0 0
      vertex 25.7063 1.8541 0
      vertex 25.7063 1.8541 3
    endloop
  endfacet
  facet normal 0.987688 0.156435 0
    outer loop
      vertex 26 0 3
      vertex 26 0 0
      vertex 25.7063 1.8541 3
    endloop
  endfacet
  facet normal 0.891007 0.45399 0
    outer loop
      vertex 25.7063 1.8541 0
      vertex 24.8541 3.52671 0
      vertex 24.8541 3.52671 3
    endloop
  endfacet
  facet normal 0.891007 0.45399 0
    outer loop
      vertex 25.7063 1.8541 3
      vertex 25.7063 1.8541 0
      vertex 24.8541 3.52671 3
    endloop
  endfacet
  facet normal 0.707107 0.707107 0
    outer loop
      vertex 24.8541 3.52671 0
      vertex 23.5267 4.8541 0
      vertex 23.5267 4.8541 3
    endloop
  endfacet
  facet normal 0.707107 0.707107 0
    outer loop
      vertex 24.8541 3.52671 3
      vertex 24.8541 3.52671 0
      vertex 23.5267 4.8541 3
    endloop
  endfacet
  facet normal 0.45399 0.891007 0
    outer loop
      vertex 21.8541 5.70634 0
      vertex 21.8541 5.70634 3
      vertex 23.5267 4.8541 0
    endloop
  endfacet
  facet normal 0.45399 0.891007 0
    outer loop
      vertex 23.5267 4.8541 0
      vertex 21.8541 5.70634 3
      vertex 23.5267 4.8541 3
    endloop
  endfacet
  facet normal 0.156435 0.987688 0
    outer loop
      vertex 20 6 0
      vertex 20 6 3
      vertex 21.8541 5.70634 0
    endloop
  endfacet
  facet normal 0.156435 0.987688 0
    outer loop
      vertex 21.8541 5.70634 0
      vertex 20 6 3
      vertex 21.8541 5.70634 3
    endloop
  endfacet
  facet normal 0 1 0
    outer loop
      vertex 0 6 0
      vertex 0 6 3
      vertex 20 6 0
    endloop
  endfacet
  facet normal 0 1 0
    outer loop
      vertex 20 6 0
      vertex 0 6 3
      vertex 20 6 3
    endloop
  endfacet
  facet normal -0.156435 0.987688 0
    outer loop
      vertex -1.8541 5.70634 0
      vertex -1.8541 5.70634 3
      vertex 0 6 0
    endloop
  endfacet
  facet normal -0.156435 0.987688 0
    outer loop
      vertex 0 6 0
      vertex -1.8541 5.70634 3
      vertex 0 6 3
    endloop
  endfacet
  facet normal -0.45399 0.891007 0
    outer loop
      vertex -3.52671 4.8541 0
      vertex -3.52671 4.8541 3
      vertex -1.8541 5.70634 0
    endloop
  endfacet
  facet normal -0.45399 0.891007 0
    outer loop
      vertex -1.8541 5.70634 0
      vertex -3.52671 4.8541 3
      vertex -1.8541 5.70634 3
    endloop
  endfacet
  facet normal -0.707107 0.707107 0
    outer loop
      vertex -4.8541 3.52671 0
      vertex -4.8541 3.52671 3
      vertex -3.52671 4.8541 0
    endloop
  endfacet
  facet normal -0.707107 0.707107 0
    outer loop
      vertex -3.52671 4.8541 0
      vertex -4.8541 3.52671 3
      vertex -3.52671 4.8541 3
    endloop
  endfacet
  facet normal -0.891007 0.45399 0
    outer loop
      vertex -5.70634 1.8541 0
      vertex -5.70634 1.8541 3
      vertex -4.8541 3.52671 0
    endloop
  endfacet
  facet normal -0.891007 0.45399 0
    outer loop
      vertex -4.8541 3.52671 0
      vertex -5.70634 1.8541 3
      vertex -4.8541 3.52671 3
    endloop
  endfacet
  facet normal 0.987688 -0.156434 0
    outer loop
      vertex -1.99722 0.648936 0
      vertex -1.99722 0.648936 3
      vertex -2.1 0 3
    endloop
  endfacet
  facet normal 0.987688 -0.156434 0
    outer loop
      vertex -2.1 0 0
      vertex -1.99722 0.648936 0
      vertex -2.1 0 3
    endloop
  endfacet
  facet normal 0.987688 0.156434 0
    outer loop
      vertex -2.1 0 3
      vertex -1.99722 -0.648936 3
      vertex -1.99722 -0.648936 0
    endloop
  endfacet
  facet normal 0.987688 0.156434 0
    outer loop
      vertex -2.1 0 0
      vertex -2.1 0 3
      vertex -1.99722 -0.648936 0
    endloop
  endfacet
  facet normal 0.891006 -0.453991 0
    outer loop
      vertex -1.69894 1.23435 0
      vertex -1.69894 1.23435 3
      vertex -1.99722 0.648936 3
    endloop
  endfacet
  facet normal 0.891006 -0.453991 0
    outer loop
      vertex -1.99722 0.648936 0
      vertex -1.69894 1.23435 0
      vertex -1.99722 0.648936 3
    endloop
  endfacet
  facet normal 0.707107 -0.707107 0
    outer loop
      vertex -1.23435 1.69894 0
      vertex -1.23435 1.69894 3
      vertex -1.69894 1.23435 3
    endloop
  endfacet
  facet normal 0.707107 -0.707107 0
    outer loop
      vertex -1.69894 1.23435 0
      vertex -1.23435 1.69894 0
      vertex -1.69894 1.23435 3
    endloop
  endfacet
  facet normal 0.453991 -0.891006 0
    outer loop
      vertex -0.648936 1.99722 0
      vertex -0.648936 1.99722 3
      vertex -1.23435 1.69894 3
    endloop
  endfacet
  facet normal 0.453991 -0.891006 0
    outer loop
      vertex -1.23435 1.69894 0
      vertex -0.648936 1.99722 0
      vertex -1.23435 1.69894 3
    endloop
  endfacet
  facet normal 0.156434 -0.987688 0
    outer loop
      vertex 0 2.1 0
      vertex 0 2.1 3
      vertex -0.648936 1.99722 3
    endloop
  endfacet
  facet normal 0.156434 -0.987688 0
    outer loop
      vertex -0.648936 1.99722 0
      vertex 0 2.1 0
      vertex -0.648936 1.99722 3
    endloop
  endfacet
  facet normal -0.156434 -0.987688 0
    outer loop
      vertex 0.648936 1.99722 0
      vertex 0.648936 1.99722 3
      vertex 0 2.1 3
    endloop
  endfacet
  facet normal -0.156434 -0.987688 0
    outer loop
      vertex 0 2.1 0
      vertex 0.648936 1.99722 0
      vertex 0 2.1 3
    endloop
  endfacet
  facet normal -0.453991 -0.891006 0
    outer loop
      vertex 1.23435 1.69894 0
      vertex 1.23435 1.69894 3
      vertex 0.648936 1.99722 3
    endloop
  endfacet
  facet normal -0.453991 -0.891006 0
    outer loop
      vertex 0.648936 1.99722 0
      vertex 1.23435 1.69894 0
      vertex 0.648936 1.99722 3
    endloop
  endfacet
  facet normal -0.707107 -0.707107 0
    outer loop
      vertex 1.69894 1.23435 0
      vertex 1.69894 1.23435 3
      vertex 1.23435 1.69894 3
    endloop
  endfacet
  facet normal -0.707107 -0.707107 0
    outer loop
      vertex 1.23435 1.69894 0
      vertex 1.69894 1.23435 0
      vertex 1.23435 1.69894 3
    endloop
  endfacet
  facet normal -0.891006 -0.453991 0
    outer loop
      vertex 1.99722 0.648936 3
      vertex 1.69894 1.23435 3
      vertex 1.99722 0.648936 0
    endloop
  endfacet
  facet normal -0.891006 -0.453991 0
    outer loop
      vertex 1.99722 0.648936 0
      vertex 1.69894 1.23435 3
      vertex 1.69894 1.23435 0
    endloop
  endfacet
  facet normal -0.987688 -0.156434 0
    outer loop
      vertex 2.1 0 3
      vertex 1.99722 0.648936 3
      vertex 2.1 0 0
    endloop
  endfacet
  facet normal -0.987688 -0.156434 0
    outer loop
      vertex 2.1 0 0
      vertex 1.99722 0.648936 3
      vertex 1.99722 0.648936 0
    endloop
  endfacet
  facet normal -0.987688 0.156434 0
    outer loop
      vertex 2.1 0 3
      vertex 2.1 0 0
      vertex 1.99722 -0.648936 3
    endloop
  endfacet
  facet normal -0.987688 0.156434 0
    outer loop
      vertex 1.99722 -0.648936 3
      vertex 2.1 0 0
      vertex 1.99722 -0.648936 0
    endloop
  endfacet
  facet normal -0.891006 0.453991 0
    outer loop
      vertex 1.99722 -0.648936 3
      vertex 1.99722 -0.648936 0
      vertex 1.69894 -1.23435 3
    endloop
  endfacet
  facet normal -0.891006 0.453991 0
    outer loop
      vertex 1.69894 -1.23435 3
      vertex 1.99722 -0.648936 0
      vertex 1.69894 -1.23435 0
    endloop
  endfacet
  facet normal -0.707107 0.707107 0
    outer loop
      vertex 1.69894 -1.23435 3
      vertex 1.69894 -1.23435 0
      vertex 1.23435 -1.69894 3
    endloop
  endfacet
  facet normal -0.707107 0.707107 0
    outer loop
      vertex 1.23435 -1.69894 3
      vertex 1.69894 -1.23435 0
      vertex 1.23435 -1.69894 0
    endloop
  endfacet
  facet normal -0.453991 0.891006 0
    outer loop
      vertex 1.23435 -1.69894 3
      vertex 1.23435 -1.69894 0
      vertex 0.648936 -1.99722 3
    endloop
  endfacet
  facet normal -0.453991 0.891006 0
    outer loop
      vertex 0.648936 -1.99722 3
      vertex 1.23435 -1.69894 0
      vertex 0.648936 -1.99722 0
    endloop
  endfacet
  facet normal -0.156434 0.987688 0
    outer loop
      vertex 0.648936 -1.99722 3
      vertex 0.648936 -1.99722 0
      vertex 0 -2.1 3
    endloop
  endfacet
  facet normal -0.156434 0.987688 0
    outer loop
      vertex 0 -2.1 3
      vertex 0.648936 -1.99722 0
      vertex 0 -2.1 0
    endloop
  endfacet
  facet normal 0.156434 0.987688 0
    outer loop
      vertex 0 -2.1 3
      vertex 0 -2.1 0
      vertex -0.648936 -1.99722 3
    endloop
  endfacet
  facet normal 0.156434 0.987688 0
    outer loop
      vertex -0.648936 -1.99722 3
      vertex 0 -2.1 0
      vertex -0.648936 -1.99722 0
    endloop
  endfacet
  facet normal 0.453991 0.891006 0
    outer loop
      vertex -0.648936 -1.99722 3
      vertex -0.648936 -1.99722 0
      vertex -1.23435 -1.69894 3
    endloop
  endfacet
  facet normal 0.453991 0.891006 0
    outer loop
      vertex -1.23435 -1.69894 3
      vertex -0.648936 -1.99722 0
      vertex -1.23435 -1.69894 0
    endloop
  endfacet
  facet normal 0.707107 0.707107 0
    outer loop
      vertex -1.23435 -1.69894 3
      vertex -1.23435 -1.69894 0
      vertex -1.69894 -1.23435 3
    endloop
  endfacet
  facet normal 0.707107 0.707107 0
    outer loop
      vertex -1.69894 -1.23435 3
      vertex -1.23435 -1.69894 0
      vertex -1.69894 -1.23435 0
    endloop
  endfacet
  facet normal 0.891006 0.453991 0
    outer loop
      vertex -1.99722 -0.648936 3
      vertex -1.69894 -1.23435 3
      vertex -1.69894 -1.23435 0
    endloop
  endfacet
  facet normal 0.891006 0.453991 0
    outer loop
      vertex -1.99722 -0.648936 0
      vertex -1.99722 -0.648936 3
      vertex -1.69894 -1.23435 0
    endloop
  endfacet
  facet normal 0.987688 0.156434 0
    outer loop
      vertex 17.9 0 3
      vertex 18.0028 -0.648936 3
      vertex 18.0028 -0.648936 0
    endloop
  endfacet
  facet normal 0.987688 0.156434 0
    outer loop
      vertex 17.9 0 0
      vertex 17.9 0 3
      vertex 18.0028 -0.648936 0
    endloop
  endfacet
  facet normal 0.987688 -0.156434 0
    outer loop
      vertex 18.0028 0.648936 0
      vertex 18.0028 0.648936 3
      vertex 17.9 0 3
    endloop
  endfacet
  facet normal 0.987688 -0.156434 0
    outer loop
      vertex 17.9 0 0
      vertex 18.0028 0.648936 0
      vertex 17.9 0 3
    endloop
  endfacet
  facet normal 0.891006 -0.453991 0
    outer loop
      vertex 18.3011 1.23435 0
      vertex 18.3011 1.23435 3
      vertex 18.0028 0.648936 3
    endloop
  endfacet
  facet normal 0.891006 -0.453991 0
    outer loop
      vertex 18.0028 0.648936 0
      vertex 18.3011 1.23435 0
      vertex 18.0028 0.648936 3
    endloop
  endfacet
  facet normal 0.707107 -0.707107 0
    outer loop
      vertex 18.7657 1.69894 0
      vertex 18.7657 1.69894 3
      vertex 18.3011 1.23435 3
    endloop
  endfacet
  facet normal 0.707107 -0.707107 0
    outer loop
      vertex 18.3011 1.23435 0
      vertex 18.7657 1.69894 0
      vertex 18.3011 1.23435 3
    endloop
  endfacet
  facet normal 0.453991 -0.891006 0
    outer loop
      vertex 19.3511 1.99722 0
      vertex 19.3511 1.99722 3
      vertex 18.7657 1.69894 3
    endloop
  endfacet
  facet normal 0.453991 -0.891006 0
    outer loop
      vertex 18.7657 1.69894 0
      vertex 19.3511 1.99722 0
      vertex 18.7657 1.69894 3
    endloop
  endfacet
  facet normal 0.156434 -0.987688 0
    outer loop
      vertex 20 2.1 0
      vertex 20 2.1 3
      vertex 19.3511 1.99722 3
    endloop
  endfacet
  facet normal 0.156434 -0.987688 0
    outer loop
      vertex 19.3511 1.99722 0
      vertex 20 2.1 0
      vertex 19.3511 1.99722 3
    endloop
  endfacet
  facet normal -0.156434 -0.987688 0
    outer loop
      vertex 20.6489 1.99722 0
      vertex 20.6489 1.99722 3
      vertex 20 2.1 3
    endloop
  endfacet
  facet normal -0.156434 -0.987688 0
    outer loop
      vertex 20 2.1 0
      vertex 20.6489 1.99722 0
      vertex 20 2.1 3
    endloop
  endfacet
  facet normal -0.453991 -0.891006 0
    outer loop
      vertex 21.2343 1.69894 0
      vertex 21.2343 1.69894 3
      vertex 20.6489 1.99722 3
    endloop
  endfacet
  facet normal -0.453991 -0.891006 0
    outer loop
      vertex 20.6489 1.99722 0
      vertex 21.2343 1.69894 0
      vertex 20.6489 1.99722 3
    endloop
  endfacet
  facet normal -0.707107 -0.707107 0
    outer loop
      vertex 21.6989 1.23435 0
      vertex 21.6989 1.23435 3
      vertex 21.2343 1.69894 3
    endloop
  endfacet
  facet normal -0.707107 -0.707107 0
    outer loop
      vertex 21.2343 1.69894 0
      vertex 21.6989 1.23435 0
      vertex 21.2343 1.69894 3
    endloop
  endfacet
  facet normal -0.891006 -0.453991 0
    outer loop
      vertex 21.9972 0.648936 3
      vertex 21.6989 1.23435 3
      vertex 21.9972 0.648936 0
    endloop
  endfacet
  facet normal -0.891006 -0.453991 0
    outer loop
      vertex 21.9972 0.648936 0
      vertex 21.6989 1.23435 3
      vertex 21.6989 1.23435 0
    endloop
  endfacet
  facet normal -0.987688 -0.156434 0
    outer loop
      vertex 22.1 0 3
      vertex 21.9972 0.648936 3
      vertex 22.1 0 0
    endloop
  endfacet
  facet normal -0.987688 -0.156434 0
    outer loop
      vertex 22.1 0 0
      vertex 21.9972 0.648936 3
      vertex 21.9972 0.648936 0
    endloop
  endfacet
  facet normal -0.987688 0.156434 0
    outer loop
      vertex 22.1 0 3
      vertex 22.1 0 0
      vertex 21.9972 -0.648936 3
    endloop
  endfacet
  facet normal -0.987688 0.156434 0
    outer loop
      vertex 21.9972 -0.648936 3
      vertex 22.1 0 0
      vertex 21.9972 -0.648936 0
    endloop
  endfacet
  facet normal -0.891006 0.453991 0
    outer loop
      vertex 21.9972 -0.648936 3
      vertex 21.9972 -0.648936 0
      vertex 21.6989 -1.23435 3
    endloop
  endfacet
  facet normal -0.891006 0.453991 0
    outer loop
      vertex 21.6989 -1.23435 3
      vertex 21.9972 -0.648936 0
      vertex 21.6989 -1.23435 0
    endloop
  endfacet
  facet normal -0.707107 0.707107 0
    outer loop
      vertex 21.6989 -1.23435 3
      vertex 21.6989 -1.23435 0
      vertex 21.2343 -1.69894 3
    endloop
  endfacet
  facet normal -0.707107 0.707107 0
    outer loop
      vertex 21.2343 -1.69894 3
      vertex 21.6989 -1.23435 0
      vertex 21.2343 -1.69894 0
    endloop
  endfacet
  facet normal -0.453991 0.891006 0
    outer loop
      vertex 21.2343 -1.69894 3
      vertex 21.2343 -1.69894 0
      vertex 20.6489 -1.99722 3
    endloop
  endfacet
  facet normal -0.453991 0.891006 0
    outer loop
      vertex 20.6489 -1.99722 3
      vertex 21.2343 -1.69894 0
      vertex 20.6489 -1.99722 0
    endloop
  endfacet
  facet normal -0.156434 0.987688 0
    outer loop
      vertex 20.6489 -1.99722 3
      vertex 20.6489 -1.99722 0
      vertex 20 -2.1 3
    endloop
  endfacet
  facet normal -0.156434 0.987688 0
    outer loop
      vertex 20 -2.1 3
      vertex 20.6489 -1.99722 0
      vertex 20 -2.1 0
    endloop
  endfacet
  facet normal 0.156434 0.987688 0
    outer loop
      vertex 20 -2.1 3
      vertex 20 -2.1 0
      vertex 19.3511 -1.99722 3
    endloop
  endfacet
  facet normal 0.156434 0.987688 0
    outer loop
      vertex 19.3511 -1.99722 3
      vertex 20 -2.1 0
      vertex 19.3511 -1.99722 0
    endloop
  endfacet
  facet normal 0.453991 0.891006 0
    outer loop
      vertex 19.3511 -1.99722 3
      vertex 19.3511 -1.99722 0
      vertex 18.7657 -1.69894 3
    endloop
  endfacet
  facet normal 0.453991 0.891006 0
    outer loop
      vertex 18.7657 -1.69894 3
      vertex 19.3511 -1.99722 0
      vertex 18.7657 -1.69894 0
    endloop
  endfacet
  facet normal 0.707107 0.707107 0
    outer loop
      vertex 18.7657 -1.69894 3
      vertex 18.7657 -1.69894 0
      vertex 18.3011 -1.23435 3
    endloop
  endfacet
  facet normal 0.707107 0.707107 0
    outer loop
      vertex 18.3011 -1.23435 3
      vertex 18.7657 -1.69894 0
      vertex 18.3011 -1.23435 0
    endloop
  endfacet
  facet normal 0.891006 0.453991 0
    outer loop
      vertex 18.0028 -0.648936 3
      vertex 18.3011 -1.23435 3
      vertex 18.3011 -1.23435 0
    endloop
  endfacet
  facet normal 0.891006 0.453991 0
    outer loop
      vertex 18.0028 -0.648936 0
      vertex 18.0028 -0.648936 3
      vertex 18.3011 -1.23435 0
    endloop
  endfacet
  facet normal 0 0 1
    outer loop
      vertex -5.70634 1.8541 3
      vertex -6 0 3
      vertex -5.70634 -1.8541 3
    endloop
  endfacet
  facet normal 0 0 1
    outer loop
      vertex -3.52671 -4.8541 3
      vertex -5.70634 1.8541 3
      vertex -4.8541 -3.52671 3
    endloop
  endfacet
  facet normal 0 0 1
    outer loop
      vertex -4.8541 -3.52671 3
      vertex -5.70634 1.8541 3
      vertex -5.70634 -1.8541 3
    endloop
  endfacet
  facet normal 0 0 1
    outer loop
      vertex -1.8541 -5.70634 3
      vertex -5.70634 1.8541 3
      vertex -3.52671 -4.8541 3
    endloop
  endfacet
  facet normal 0 0 1
    outer loop
      vertex 0 -6 3
      vertex -5.70634 1.8541 3
      vertex -1.8541 -5.70634 3
    endloop
  endfacet
  facet normal 0 0 1
    outer loop
      vertex -1.99722 -0.648936 3
      vertex -5.70634 1.8541 3
      vertex 0 -6 3
    endloop
  endfacet
  facet normal 0 0 1
    outer loop
      vertex -1.69894 1.23435 3
      vertex -1.23435 1.69894 3
      vertex -5.70634 1.8541 3
    endloop
  endfacet
  facet normal 0 0 1
    outer loop
      vertex 1.99722 0.648936 3
      vertex 23.5267 -4.8541 3
      vertex 24.8541 -3.52671 3
    endloop
  endfacet
  facet normal 0 0 1
    outer loop
      vertex 18.7657 1.69894 3
      vertex 0.648936 1.99722 3
      vertex 1.23435 1.69894 3
    endloop
  endfacet
  facet normal 0 0 1
    outer loop
      vertex 23.5267 4.8541 3
      vertex -5.70634 1.8541 3
      vertex 24.8541 3.52671 3
    endloop
  endfacet
  facet normal 0 0 1
    outer loop
      vertex 21.8541 5.70634 3
      vertex -5.70634 1.8541 3
      vertex 23.5267 4.8541 3
    endloop
  endfacet
  facet normal 0 0 1
    outer loop
      vertex 20 6 3
      vertex -5.70634 1.8541 3
      vertex 21.8541 5.70634 3
    endloop
  endfacet
  facet normal 0 0 1
    outer loop
      vertex 0 6 3
      vertex -5.70634 1.8541 3
      vertex 20 6 3
    endloop
  endfacet
  facet normal 0 0 1
    outer loop
      vertex -1.8541 5.70634 3
      vertex -5.70634 1.8541 3
      vertex 0 6 3
    endloop
  endfacet
  facet normal 0 0 1
    outer loop
      vertex -3.52671 4.8541 3
      vertex -5.70634 1.8541 3
      vertex -1.8541 5.70634 3
    endloop
  endfacet
  facet normal 0 0 1
    outer loop
      vertex -4.8541 3.52671 3
      vertex -5.70634 1.8541 3
      vertex -3.52671 4.8541 3
    endloop
  endfacet
  facet normal 0 0 1
    outer loop
      vertex -1.69894 -1.23435 3
      vertex -1.99722 -0.648936 3
      vertex 0 -6 3
    endloop
  endfacet
  facet normal 0 0 1
    outer loop
      vertex -2.1 0 3
      vertex -5.70634 1.8541 3
      vertex -1.99722 -0.648936 3
    endloop
  endfacet
  facet normal 0 0 1
    outer loop
      vertex -1.99722 0.648936 3
      vertex -5.70634 1.8541 3
      vertex -2.1 0 3
    endloop
  endfacet
  facet normal 0 0 1
    outer loop
      vertex 2.1 0 3
      vertex 1.99722 -0.648936 3
      vertex 20 -6 3
    endloop
  endfacet
  facet normal 0 0 1
    outer loop
      vertex 18.3011 -1.23435 3
      vertex 18.0028 -0.648936 3
      vertex 1.69894 1.23435 3
    endloop
  endfacet
  facet normal 0 0 1
    outer loop
      vertex 17.9 0 3
      vertex 1.23435 1.69894 3
      vertex 1.69894 1.23435 3
    endloop
  endfacet
  facet normal 0 0 1
    outer loop
      vertex 0 2.1 3
      vertex 0.648936 1.99722 3
      vertex 24.8541 3.52671 3
    endloop
  endfacet
  facet normal 0 0 1
    outer loop
      vertex 1.99722 0.648936 3
      vertex 2.1 0 3
      vertex 23.5267 -4.8541 3
    endloop
  endfacet
  facet normal 0 0 1
    outer loop
      vertex 0 2.1 3
      vertex -5.70634 1.8541 3
      vertex -0.648936 1.99722 3
    endloop
  endfacet
  facet normal 0 0 1
    outer loop
      vertex 24.8541 3.52671 3
      vertex -5.70634 1.8541 3
      vertex 0 2.1 3
    endloop
  endfacet
  facet normal 0 0 1
    outer loop
      vertex 21.2343 1.69894 3
      vertex 21.6989 1.23435 3
      vertex 25.7063 1.8541 3
    endloop
  endfacet
  facet normal 0 0 1
    outer loop
      vertex -1.23435 1.69894 3
      vertex -0.648936 1.99722 3
      vertex -5.70634 1.8541 3
    endloop
  endfacet
  facet normal 0 0 1
    outer loop
      vertex 20 -2.1 3
      vertex 1.99722 0.648936 3
      vertex 24.8541 -3.52671 3
    endloop
  endfacet
  facet normal 0 0 1
    outer loop
      vertex 23.5267 -4.8541 3
      vertex 2.1 0 3
      vertex 21.8541 -5.70634 3
    endloop
  endfacet
  facet normal 0 0 1
    outer loop
      vertex 1.69894 -1.23435 3
      vertex 1.23435 -1.69894 3
      vertex 20 -6 3
    endloop
  endfacet
  facet normal 0 0 1
    outer loop
      vertex 20 -6 3
      vertex 1.23435 -1.69894 3
      vertex 0 -6 3
    endloop
  endfacet
  facet normal 0 0 1
    outer loop
      vertex 19.3511 -1.99722 3
      vertex 18.7657 -1.69894 3
      vertex 1.99722 0.648936 3
    endloop
  endfacet
  facet normal 0 0 1
    outer loop
      vertex 1.23435 -1.69894 3
      vertex 0.648936 -1.99722 3
      vertex 0 -6 3
    endloop
  endfacet
  facet normal 0 0 1
    outer loop
      vertex 0.648936 -1.99722 3
      vertex 0 -2.1 3
      vertex 0 -6 3
    endloop
  endfacet
  facet normal 0 0 1
    outer loop
      vertex 0 -2.1 3
      vertex -0.648936 -1.99722 3
      vertex 0 -6 3
    endloop
  endfacet
  facet normal 0 0 1
    outer loop
      vertex -0.648936 -1.99722 3
      vertex -1.23435 -1.69894 3
      vertex 0 -6 3
    endloop
  endfacet
  facet normal 0 0 1
    outer loop
      vertex -1.23435 -1.69894 3
      vertex -1.69894 -1.23435 3
      vertex 0 -6 3
    endloop
  endfacet
  facet normal 0 0 1
    outer loop
      vertex 21.6989 -1.23435 3
      vertex 21.2343 -1.69894 3
      vertex 25.7063 -1.8541 3
    endloop
  endfacet
  facet normal 0 0 1
    outer loop
      vertex 17.9 0 3
      vertex 1.69894 1.23435 3
      vertex 18.0028 -0.648936 3
    endloop
  endfacet
  facet normal 0 0 1
    outer loop
      vertex 21.9972 -0.648936 3
      vertex 21.6989 -1.23435 3
      vertex 25.7063 -1.8541 3
    endloop
  endfacet
  facet normal 0 0 1
    outer loop
      vertex 22.1 0 3
      vertex 21.9972 -0.648936 3
      vertex 26 0 3
    endloop
  endfacet
  facet normal 0 0 1
    outer loop
      vertex 18.3011 1.23435 3
      vertex 1.23435 1.69894 3
      vertex 18.0028 0.648936 3
    endloop
  endfacet
  facet normal 0 0 1
    outer loop
      vertex 18.7657 1.69894 3
      vertex 1.23435 1.69894 3
      vertex 18.3011 1.23435 3
    endloop
  endfacet
  facet normal 0 0 1
    outer loop
      vertex 20.6489 1.99722 3
      vertex 21.2343 1.69894 3
      vertex 25.7063 1.8541 3
    endloop
  endfacet
  facet normal 0 0 1
    outer loop
      vertex 24.8541 3.52671 3
      vertex 0.648936 1.99722 3
      vertex 19.3511 1.99722 3
    endloop
  endfacet
  facet normal 0 0 1
    outer loop
      vertex 24.8541 3.52671 3
      vertex 20 2.1 3
      vertex 25.7063 1.8541 3
    endloop
  endfacet
  facet normal 0 0 1
    outer loop
      vertex 24.8541 3.52671 3
      vertex 19.3511 1.99722 3
      vertex 20 2.1 3
    endloop
  endfacet
  facet normal 0 0 1
    outer loop
      vertex 20 2.1 3
      vertex 20.6489 1.99722 3
      vertex 25.7063 1.8541 3
    endloop
  endfacet
  facet normal 0 0 1
    outer loop
      vertex 21.6989 1.23435 3
      vertex 21.9972 0.648936 3
      vertex 25.7063 1.8541 3
    endloop
  endfacet
  facet normal 0 0 1
    outer loop
      vertex 21.9972 0.648936 3
      vertex 22.1 0 3
      vertex 26 0 3
    endloop
  endfacet
  facet normal 0 0 1
    outer loop
      vertex 25.7063 1.8541 3
      vertex 21.9972 0.648936 3
      vertex 26 0 3
    endloop
  endfacet
  facet normal 0 0 1
    outer loop
      vertex 18.7657 1.69894 3
      vertex 19.3511 1.99722 3
      vertex 0.648936 1.99722 3
    endloop
  endfacet
  facet normal 0 0 1
    outer loop
      vertex 26 0 3
      vertex 21.9972 -0.648936 3
      vertex 25.7063 -1.8541 3
    endloop
  endfacet
  facet normal 0 0 1
    outer loop
      vertex 25.7063 -1.8541 3
      vertex 21.2343 -1.69894 3
      vertex 24.8541 -3.52671 3
    endloop
  endfacet
  facet normal 0 0 1
    outer loop
      vertex 21.2343 -1.69894 3
      vertex 20.6489 -1.99722 3
      vertex 24.8541 -3.52671 3
    endloop
  endfacet
  facet normal 0 0 1
    outer loop
      vertex 20.6489 -1.99722 3
      vertex 20 -2.1 3
      vertex 24.8541 -3.52671 3
    endloop
  endfacet
  facet normal 0 0 1
    outer loop
      vertex 19.3511 -1.99722 3
      vertex 1.99722 0.648936 3
      vertex 20 -2.1 3
    endloop
  endfacet
  facet normal 0 0 1
    outer loop
      vertex 18.7657 -1.69894 3
      vertex 18.3011 -1.23435 3
      vertex 1.99722 0.648936 3
    endloop
  endfacet
  facet normal 0 0 1
    outer loop
      vertex 17.9 0 3
      vertex 18.0028 0.648936 3
      vertex 1.23435 1.69894 3
    endloop
  endfacet
  facet normal 0 0 1
    outer loop
      vertex 2.1 0 3
      vertex 20 -6 3
      vertex 21.8541 -5.70634 3
    endloop
  endfacet
  facet normal 0 0 1
    outer loop
      vertex 18.3011 -1.23435 3
      vertex 1.69894 1.23435 3
      vertex 1.99722 0.648936 3
    endloop
  endfacet
  facet normal 0 0 1
    outer loop
      vertex 1.99722 -0.648936 3
      vertex 1.69894 -1.23435 3
      vertex 20 -6 3
    endloop
  endfacet
  facet normal 0 0 1
    outer loop
      vertex -1.99722 0.648936 3
      vertex -1.69894 1.23435 3
      vertex -5.70634 1.8541 3
    endloop
  endfacet
endsolid OpenSCAD_Model
