solid buishouder
facet normal 1.0 -0.0 -0.0
outer loop
vertex 40.0 40.0 0.0
vertex 40.0 0.0 30.0
vertex 40.0 0.0 0.0
endloop
endfacet
facet normal 1.0 -0.0 -0.0
outer loop
vertex 40.0 0.0 30.0
vertex 40.0 40.0 0.0
vertex 40.0 40.0 30.0
endloop
endfacet
facet normal 0.0 0.0 1.0
outer loop
vertex 0.0 0.0 30.0
vertex 1.49933239221189 20.4706070346348 30.0
vertex 0.0 40.0 30.0
endloop
endfacet
facet normal 0.0 0.0 1.0
outer loop
vertex 1.49933239221189 20.4706070346348 30.0
vertex 0.0 0.0 30.0
vertex 2.00792529072515 15.6662463647802 30.0
endloop
endfacet
facet normal 0.0 0.0 1.0
outer loop
vertex 2.00792529072515 15.6662463647802 30.0
vertex 0.0 0.0 30.0
vertex 3.74264834736621 11.1572238432994 30.0
endloop
endfacet
facet normal 0.0 0.0 1.0
outer loop
vertex 3.74264834736621 11.1572238432994 30.0
vertex 0.0 0.0 30.0
vertex 6.58528305259036 7.25082190351909 30.0
endloop
endfacet
facet normal 0.0 0.0 1.0
outer loop
vertex 6.58528305259036 7.25082190351909 30.0
vertex 0.0 0.0 30.0
vertex 10.3421085489125 4.21325538200102 30.0
endloop
endfacet
facet normal 0.0 0.0 1.0
outer loop
vertex 10.3421085489125 4.21325538200102 30.0
vertex 0.0 0.0 30.0
vertex 14.7571033872061 2.25152941737058 30.0
endloop
endfacet
facet normal 0.0 0.0 1.0
outer loop
vertex 14.7571033872061 2.25152941737058 30.0
vertex 0.0 0.0 30.0
vertex 19.5293929653652 1.49933239221189 30.0
endloop
endfacet
facet normal 0.0 0.0 1.0
outer loop
vertex 19.5293929653652 1.49933239221189 30.0
vertex 0.0 0.0 30.0
vertex 40.0 0.0 30.0
endloop
endfacet
facet normal 0.0 0.0 1.0
outer loop
vertex 19.5293929653652 1.49933239221189 30.0
vertex 40.0 0.0 30.0
vertex 24.3337536352198 2.00792529072516 30.0
endloop
endfacet
facet normal 0.0 0.0 1.0
outer loop
vertex 24.3337536352198 2.00792529072516 30.0
vertex 40.0 0.0 30.0
vertex 28.8427761567006 3.74264834736621 30.0
endloop
endfacet
facet normal 0.0 0.0 1.0
outer loop
vertex 28.8427761567006 3.74264834736621 30.0
vertex 40.0 0.0 30.0
vertex 32.7491780964809 6.58528305259036 30.0
endloop
endfacet
facet normal 0.0 0.0 1.0
outer loop
vertex 32.7491780964809 6.58528305259036 30.0
vertex 40.0 0.0 30.0
vertex 35.786744617999 10.3421085489125 30.0
endloop
endfacet
facet normal 0.0 0.0 1.0
outer loop
vertex 35.786744617999 10.3421085489125 30.0
vertex 40.0 0.0 30.0
vertex 37.7484705826294 14.7571033872061 30.0
endloop
endfacet
facet normal 0.0 0.0 1.0
outer loop
vertex 37.7484705826294 14.7571033872061 30.0
vertex 40.0 0.0 30.0
vertex 38.5006676077881 19.5293929653652 30.0
endloop
endfacet
facet normal 0.0 0.0 1.0
outer loop
vertex 0.0 40.0 30.0
vertex 20.4706070346348 38.5006676077881 30.0
vertex 40.0 40.0 30.0
endloop
endfacet
facet normal 0.0 0.0 1.0
outer loop
vertex 20.4706070346348 38.5006676077881 30.0
vertex 0.0 40.0 30.0
vertex 15.6662463647802 37.9920747092748 30.0
endloop
endfacet
facet normal 0.0 0.0 1.0
outer loop
vertex 15.6662463647802 37.9920747092748 30.0
vertex 0.0 40.0 30.0
vertex 11.1572238432994 36.2573516526338 30.0
endloop
endfacet
facet normal 0.0 0.0 1.0
outer loop
vertex 11.1572238432994 36.2573516526338 30.0
vertex 0.0 40.0 30.0
vertex 7.25082190351909 33.4147169474097 30.0
endloop
endfacet
facet normal 0.0 0.0 1.0
outer loop
vertex 7.25082190351909 33.4147169474097 30.0
vertex 0.0 40.0 30.0
vertex 4.21325538200102 29.6578914510875 30.0
endloop
endfacet
facet normal 0.0 0.0 1.0
outer loop
vertex 4.21325538200102 29.6578914510875 30.0
vertex 0.0 40.0 30.0
vertex 2.25152941737057 25.2428966127939 30.0
endloop
endfacet
facet normal 0.0 0.0 1.0
outer loop
vertex 2.25152941737057 25.2428966127939 30.0
vertex 0.0 40.0 30.0
vertex 1.49933239221189 20.4706070346348 30.0
endloop
endfacet
facet normal 0.0 0.0 1.0
outer loop
vertex 40.0 40.0 30.0
vertex 20.4706070346348 38.5006676077881 30.0
vertex 25.2428966127939 37.7484705826294 30.0
endloop
endfacet
facet normal 0.0 0.0 1.0
outer loop
vertex 40.0 40.0 30.0
vertex 25.2428966127939 37.7484705826294 30.0
vertex 29.6578914510875 35.786744617999 30.0
endloop
endfacet
facet normal 0.0 0.0 1.0
outer loop
vertex 40.0 40.0 30.0
vertex 29.6578914510875 35.786744617999 30.0
vertex 33.4147169474096 32.7491780964809 30.0
endloop
endfacet
facet normal 0.0 0.0 1.0
outer loop
vertex 40.0 40.0 30.0
vertex 33.4147169474096 32.7491780964809 30.0
vertex 36.2573516526338 28.8427761567006 30.0
endloop
endfacet
facet normal 0.0 0.0 1.0
outer loop
vertex 40.0 40.0 30.0
vertex 36.2573516526338 28.8427761567006 30.0
vertex 37.9920747092748 24.3337536352198 30.0
endloop
endfacet
facet normal 0.0 0.0 1.0
outer loop
vertex 40.0 40.0 30.0
vertex 37.9920747092748 24.3337536352198 30.0
vertex 38.5006676077881 19.5293929653652 30.0
endloop
endfacet
facet normal 0.0 0.0 1.0
outer loop
vertex 40.0 40.0 30.0
vertex 38.5006676077881 19.5293929653652 30.0
vertex 40.0 0.0 30.0
endloop
endfacet
facet normal 0.0 0.0 1.0
outer loop
vertex 2.00792529072515 15.6662463647802 20.0
vertex 2.25152941737057 25.2428966127939 20.0
vertex 1.49933239221189 20.4706070346348 20.0
endloop
endfacet
facet normal 0.0 0.0 1.0
outer loop
vertex 2.25152941737057 25.2428966127939 20.0
vertex 2.00792529072515 15.6662463647802 20.0
vertex 3.74264834736621 11.1572238432994 20.0
endloop
endfacet
facet normal 0.0 0.0 1.0
outer loop
vertex 2.25152941737057 25.2428966127939 20.0
vertex 3.74264834736621 11.1572238432994 20.0
vertex 4.21325538200102 29.6578914510875 20.0
endloop
endfacet
facet normal 0.0 0.0 1.0
outer loop
vertex 4.21325538200102 29.6578914510875 20.0
vertex 3.74264834736621 11.1572238432994 20.0
vertex 6.58528305259036 7.25082190351909 20.0
endloop
endfacet
facet normal 0.0 0.0 1.0
outer loop
vertex 4.21325538200102 29.6578914510875 20.0
vertex 6.58528305259036 7.25082190351909 20.0
vertex 7.25082190351909 33.4147169474097 20.0
endloop
endfacet
facet normal 0.0 0.0 1.0
outer loop
vertex 7.25082190351909 33.4147169474097 20.0
vertex 6.58528305259036 7.25082190351909 20.0
vertex 10.3421085489125 4.21325538200102 20.0
endloop
endfacet
facet normal 0.0 0.0 1.0
outer loop
vertex 7.25082190351909 33.4147169474097 20.0
vertex 10.3421085489125 4.21325538200102 20.0
vertex 11.1572238432994 36.2573516526338 20.0
endloop
endfacet
facet normal 0.0 0.0 1.0
outer loop
vertex 11.1572238432994 36.2573516526338 20.0
vertex 10.3421085489125 4.21325538200102 20.0
vertex 14.7571033872061 2.25152941737058 20.0
endloop
endfacet
facet normal 0.0 0.0 1.0
outer loop
vertex 11.1572238432994 36.2573516526338 20.0
vertex 14.7571033872061 2.25152941737058 20.0
vertex 15.6662463647802 37.9920747092748 20.0
endloop
endfacet
facet normal 0.0 0.0 1.0
outer loop
vertex 15.6662463647802 37.9920747092748 20.0
vertex 14.7571033872061 2.25152941737058 20.0
vertex 19.5293929653652 1.49933239221189 20.0
endloop
endfacet
facet normal 0.0 0.0 1.0
outer loop
vertex 15.6662463647802 37.9920747092748 20.0
vertex 19.5293929653652 1.49933239221189 20.0
vertex 20.4706070346348 38.5006676077881 20.0
endloop
endfacet
facet normal 0.0 0.0 1.0
outer loop
vertex 20.4706070346348 38.5006676077881 20.0
vertex 19.5293929653652 1.49933239221189 20.0
vertex 24.3337536352198 2.00792529072516 20.0
endloop
endfacet
facet normal 0.0 0.0 1.0
outer loop
vertex 20.4706070346348 38.5006676077881 20.0
vertex 24.3337536352198 2.00792529072516 20.0
vertex 25.2428966127939 37.7484705826294 20.0
endloop
endfacet
facet normal 0.0 0.0 1.0
outer loop
vertex 25.2428966127939 37.7484705826294 20.0
vertex 24.3337536352198 2.00792529072516 20.0
vertex 28.8427761567006 3.74264834736621 20.0
endloop
endfacet
facet normal 0.0 0.0 1.0
outer loop
vertex 25.2428966127939 37.7484705826294 20.0
vertex 28.8427761567006 3.74264834736621 20.0
vertex 29.6578914510875 35.786744617999 20.0
endloop
endfacet
facet normal 0.0 0.0 1.0
outer loop
vertex 29.6578914510875 35.786744617999 20.0
vertex 28.8427761567006 3.74264834736621 20.0
vertex 32.7491780964809 6.58528305259036 20.0
endloop
endfacet
facet normal 0.0 0.0 1.0
outer loop
vertex 29.6578914510875 35.786744617999 20.0
vertex 32.7491780964809 6.58528305259036 20.0
vertex 33.4147169474096 32.7491780964809 20.0
endloop
endfacet
facet normal 0.0 0.0 1.0
outer loop
vertex 33.4147169474096 32.7491780964809 20.0
vertex 32.7491780964809 6.58528305259036 20.0
vertex 35.786744617999 10.3421085489125 20.0
endloop
endfacet
facet normal 0.0 0.0 1.0
outer loop
vertex 33.4147169474096 32.7491780964809 20.0
vertex 35.786744617999 10.3421085489125 20.0
vertex 36.2573516526338 28.8427761567006 20.0
endloop
endfacet
facet normal 0.0 0.0 1.0
outer loop
vertex 36.2573516526338 28.8427761567006 20.0
vertex 35.786744617999 10.3421085489125 20.0
vertex 37.7484705826294 14.7571033872061 20.0
endloop
endfacet
facet normal 0.0 0.0 1.0
outer loop
vertex 36.2573516526338 28.8427761567006 20.0
vertex 37.7484705826294 14.7571033872061 20.0
vertex 37.9920747092748 24.3337536352198 20.0
endloop
endfacet
facet normal 0.0 0.0 1.0
outer loop
vertex 37.9920747092748 24.3337536352198 20.0
vertex 37.7484705826294 14.7571033872061 20.0
vertex 38.5006676077881 19.5293929653652 20.0
endloop
endfacet
facet normal 0.808577032368426 0.588390331944934 0.0
outer loop
vertex 3.74264834736621 11.1572238432994 20.0
vertex 6.58528305259036 7.25082190351909 30.0
vertex 6.58528305259036 7.25082190351909 20.0
endloop
endfacet
facet normal 0.808577032368426 0.588390331944934 0.0
outer loop
vertex 6.58528305259036 7.25082190351909 30.0
vertex 3.74264834736621 11.1572238432994 20.0
vertex 3.74264834736621 11.1572238432994 30.0
endloop
endfacet
facet normal 0.628738814247292 0.777616552973835 0.0
outer loop
vertex 6.58528305259036 7.25082190351909 30.0
vertex 10.3421085489125 4.21325538200102 20.0
vertex 6.58528305259036 7.25082190351909 20.0
endloop
endfacet
facet normal 0.628738814247292 0.777616552973835 0.0
outer loop
vertex 10.3421085489125 4.21325538200102 20.0
vertex 6.58528305259036 7.25082190351909 30.0
vertex 10.3421085489125 4.21325538200102 30.0
endloop
endfacet
facet normal 0.406053084975224 0.913849490989683 0.0
outer loop
vertex 10.3421085489125 4.21325538200102 30.0
vertex 14.7571033872061 2.25152941737058 20.0
vertex 10.3421085489125 4.21325538200102 20.0
endloop
endfacet
facet normal 0.406053084975224 0.913849490989683 0.0
outer loop
vertex 14.7571033872061 2.25152941737058 20.0
vertex 10.3421085489125 4.21325538200102 30.0
vertex 14.7571033872061 2.25152941737058 30.0
endloop
endfacet
facet normal 0.155695508996542 0.987805096402275 0.0
outer loop
vertex 14.7571033872061 2.25152941737058 30.0
vertex 19.5293929653652 1.49933239221189 20.0
vertex 14.7571033872061 2.25152941737058 20.0
endloop
endfacet
facet normal 0.155695508996542 0.987805096402275 0.0
outer loop
vertex 19.5293929653652 1.49933239221189 20.0
vertex 14.7571033872061 2.25152941737058 30.0
vertex 19.5293929653652 1.49933239221189 30.0
endloop
endfacet
facet normal -0.105272458621258 0.994443416920156 -0.0
outer loop
vertex 19.5293929653652 1.49933239221189 30.0
vertex 24.3337536352198 2.00792529072516 20.0
vertex 19.5293929653652 1.49933239221189 20.0
endloop
endfacet
facet normal -0.105272458621258 0.994443416920156 -0.0
outer loop
vertex 24.3337536352198 2.00792529072516 20.0
vertex 19.5293929653652 1.49933239221189 30.0
vertex 24.3337536352198 2.00792529072516 30.0
endloop
endfacet
facet normal -0.359066282154982 0.933312061970378 -0.0
outer loop
vertex 24.3337536352198 2.00792529072516 30.0
vertex 28.8427761567006 3.74264834736621 20.0
vertex 24.3337536352198 2.00792529072516 20.0
endloop
endfacet
facet normal -0.359066282154982 0.933312061970378 -0.0
outer loop
vertex 28.8427761567006 3.74264834736621 20.0
vertex 24.3337536352198 2.00792529072516 30.0
vertex 28.8427761567006 3.74264834736621 30.0
endloop
endfacet
facet normal -0.588390331944934 0.808577032368426 -0.0
outer loop
vertex 28.8427761567006 3.74264834736621 30.0
vertex 32.7491780964809 6.58528305259036 20.0
vertex 28.8427761567006 3.74264834736621 20.0
endloop
endfacet
facet normal -0.588390331944934 0.808577032368426 -0.0
outer loop
vertex 32.7491780964809 6.58528305259036 20.0
vertex 28.8427761567006 3.74264834736621 30.0
vertex 32.7491780964809 6.58528305259036 30.0
endloop
endfacet
facet normal -0.777616552973835 0.628738814247292 -0.0
outer loop
vertex 35.786744617999 10.3421085489125 30.0
vertex 32.7491780964809 6.58528305259036 20.0
vertex 32.7491780964809 6.58528305259036 30.0
endloop
endfacet
facet normal -0.777616552973835 0.628738814247292 -0.0
outer loop
vertex 32.7491780964809 6.58528305259036 20.0
vertex 35.786744617999 10.3421085489125 30.0
vertex 35.786744617999 10.3421085489125 20.0
endloop
endfacet
facet normal -0.913849490989684 0.406053084975223 -0.0
outer loop
vertex 37.7484705826294 14.7571033872061 30.0
vertex 35.786744617999 10.3421085489125 20.0
vertex 35.786744617999 10.3421085489125 30.0
endloop
endfacet
facet normal -0.913849490989684 0.406053084975223 -0.0
outer loop
vertex 35.786744617999 10.3421085489125 20.0
vertex 37.7484705826294 14.7571033872061 30.0
vertex 37.7484705826294 14.7571033872061 20.0
endloop
endfacet
facet normal -0.987805096402275 0.155695508996543 -0.0
outer loop
vertex 38.5006676077881 19.5293929653652 30.0
vertex 37.7484705826294 14.7571033872061 20.0
vertex 37.7484705826294 14.7571033872061 30.0
endloop
endfacet
facet normal -0.987805096402275 0.155695508996543 -0.0
outer loop
vertex 37.7484705826294 14.7571033872061 20.0
vertex 38.5006676077881 19.5293929653652 30.0
vertex 38.5006676077881 19.5293929653652 20.0
endloop
endfacet
facet normal -0.994443416920156 -0.105272458621258 -0.0
outer loop
vertex 37.9920747092748 24.3337536352198 30.0
vertex 38.5006676077881 19.5293929653652 20.0
vertex 38.5006676077881 19.5293929653652 30.0
endloop
endfacet
facet normal -0.994443416920156 -0.105272458621258 -0.0
outer loop
vertex 38.5006676077881 19.5293929653652 20.0
vertex 37.9920747092748 24.3337536352198 30.0
vertex 37.9920747092748 24.3337536352198 20.0
endloop
endfacet
facet normal -0.933312061970379 -0.35906628215498 -0.0
outer loop
vertex 36.2573516526338 28.8427761567006 30.0
vertex 37.9920747092748 24.3337536352198 20.0
vertex 37.9920747092748 24.3337536352198 30.0
endloop
endfacet
facet normal -0.933312061970379 -0.35906628215498 -0.0
outer loop
vertex 37.9920747092748 24.3337536352198 20.0
vertex 36.2573516526338 28.8427761567006 30.0
vertex 36.2573516526338 28.8427761567006 20.0
endloop
endfacet
facet normal -0.808577032368426 -0.588390331944934 -0.0
outer loop
vertex 33.4147169474096 32.7491780964809 30.0
vertex 36.2573516526338 28.8427761567006 20.0
vertex 36.2573516526338 28.8427761567006 30.0
endloop
endfacet
facet normal -0.808577032368426 -0.588390331944934 -0.0
outer loop
vertex 36.2573516526338 28.8427761567006 20.0
vertex 33.4147169474096 32.7491780964809 30.0
vertex 33.4147169474096 32.7491780964809 20.0
endloop
endfacet
facet normal -0.628738814247294 -0.777616552973834 -0.0
outer loop
vertex 33.4147169474096 32.7491780964809 30.0
vertex 29.6578914510875 35.786744617999 20.0
vertex 33.4147169474096 32.7491780964809 20.0
endloop
endfacet
facet normal -0.628738814247294 -0.777616552973834 -0.0
outer loop
vertex 29.6578914510875 35.786744617999 20.0
vertex 33.4147169474096 32.7491780964809 30.0
vertex 29.6578914510875 35.786744617999 30.0
endloop
endfacet
facet normal -0.406053084975223 -0.913849490989684 -0.0
outer loop
vertex 29.6578914510875 35.786744617999 30.0
vertex 25.2428966127939 37.7484705826294 20.0
vertex 29.6578914510875 35.786744617999 20.0
endloop
endfacet
facet normal -0.406053084975223 -0.913849490989684 -0.0
outer loop
vertex 25.2428966127939 37.7484705826294 20.0
vertex 29.6578914510875 35.786744617999 30.0
vertex 25.2428966127939 37.7484705826294 30.0
endloop
endfacet
facet normal -0.155695508996544 -0.987805096402275 -0.0
outer loop
vertex 25.2428966127939 37.7484705826294 30.0
vertex 20.4706070346348 38.5006676077881 20.0
vertex 25.2428966127939 37.7484705826294 20.0
endloop
endfacet
facet normal -0.155695508996544 -0.987805096402275 -0.0
outer loop
vertex 20.4706070346348 38.5006676077881 20.0
vertex 25.2428966127939 37.7484705826294 30.0
vertex 20.4706070346348 38.5006676077881 30.0
endloop
endfacet
facet normal 0.105272458621259 -0.994443416920156 -0.0
outer loop
vertex 20.4706070346348 38.5006676077881 30.0
vertex 15.6662463647802 37.9920747092748 20.0
vertex 20.4706070346348 38.5006676077881 20.0
endloop
endfacet
facet normal 0.105272458621259 -0.994443416920156 -0.0
outer loop
vertex 15.6662463647802 37.9920747092748 20.0
vertex 20.4706070346348 38.5006676077881 30.0
vertex 15.6662463647802 37.9920747092748 30.0
endloop
endfacet
facet normal 0.359066282154982 -0.933312061970378 -0.0
outer loop
vertex 15.6662463647802 37.9920747092748 30.0
vertex 11.1572238432994 36.2573516526338 20.0
vertex 15.6662463647802 37.9920747092748 20.0
endloop
endfacet
facet normal 0.359066282154982 -0.933312061970378 -0.0
outer loop
vertex 11.1572238432994 36.2573516526338 20.0
vertex 15.6662463647802 37.9920747092748 30.0
vertex 11.1572238432994 36.2573516526338 30.0
endloop
endfacet
facet normal 0.588390331944932 -0.808577032368427 -0.0
outer loop
vertex 11.1572238432994 36.2573516526338 30.0
vertex 7.25082190351909 33.4147169474097 20.0
vertex 11.1572238432994 36.2573516526338 20.0
endloop
endfacet
facet normal 0.588390331944932 -0.808577032368427 -0.0
outer loop
vertex 7.25082190351909 33.4147169474097 20.0
vertex 11.1572238432994 36.2573516526338 30.0
vertex 7.25082190351909 33.4147169474097 30.0
endloop
endfacet
facet normal 0.777616552973835 -0.628738814247292 -0.0
outer loop
vertex 7.25082190351909 33.4147169474097 20.0
vertex 4.21325538200102 29.6578914510875 30.0
vertex 4.21325538200102 29.6578914510875 20.0
endloop
endfacet
facet normal 0.777616552973835 -0.628738814247292 -0.0
outer loop
vertex 4.21325538200102 29.6578914510875 30.0
vertex 7.25082190351909 33.4147169474097 20.0
vertex 7.25082190351909 33.4147169474097 30.0
endloop
endfacet
facet normal 0.913849490989684 -0.406053084975222 -0.0
outer loop
vertex 4.21325538200102 29.6578914510875 20.0
vertex 2.25152941737057 25.2428966127939 30.0
vertex 2.25152941737057 25.2428966127939 20.0
endloop
endfacet
facet normal 0.913849490989684 -0.406053084975222 -0.0
outer loop
vertex 2.25152941737057 25.2428966127939 30.0
vertex 4.21325538200102 29.6578914510875 20.0
vertex 4.21325538200102 29.6578914510875 30.0
endloop
endfacet
facet normal 0.987805096402275 -0.155695508996543 -0.0
outer loop
vertex 2.25152941737057 25.2428966127939 20.0
vertex 1.49933239221189 20.4706070346348 30.0
vertex 1.49933239221189 20.4706070346348 20.0
endloop
endfacet
facet normal 0.987805096402275 -0.155695508996543 -0.0
outer loop
vertex 1.49933239221189 20.4706070346348 30.0
vertex 2.25152941737057 25.2428966127939 20.0
vertex 2.25152941737057 25.2428966127939 30.0
endloop
endfacet
facet normal 0.994443416920156 0.105272458621256 0.0
outer loop
vertex 1.49933239221189 20.4706070346348 20.0
vertex 2.00792529072515 15.6662463647802 30.0
vertex 2.00792529072515 15.6662463647802 20.0
endloop
endfacet
facet normal 0.994443416920156 0.105272458621256 0.0
outer loop
vertex 2.00792529072515 15.6662463647802 30.0
vertex 1.49933239221189 20.4706070346348 20.0
vertex 1.49933239221189 20.4706070346348 30.0
endloop
endfacet
facet normal 0.933312061970378 0.359066282154982 0.0
outer loop
vertex 2.00792529072515 15.6662463647802 20.0
vertex 3.74264834736621 11.1572238432994 30.0
vertex 3.74264834736621 11.1572238432994 20.0
endloop
endfacet
facet normal 0.933312061970378 0.359066282154982 0.0
outer loop
vertex 3.74264834736621 11.1572238432994 30.0
vertex 2.00792529072515 15.6662463647802 20.0
vertex 2.00792529072515 15.6662463647802 30.0
endloop
endfacet
facet normal -1.0 0.0 0.0
outer loop
vertex 0.0 40.0 30.0
vertex 0.0 0.0 0.0
vertex 0.0 0.0 30.0
endloop
endfacet
facet normal -1.0 0.0 0.0
outer loop
vertex 0.0 0.0 0.0
vertex 0.0 40.0 30.0
vertex 0.0 40.0 0.0
endloop
endfacet
facet normal 5.16468296538997e-020 -1.0 -4.69994049587972e-017
outer loop
vertex 40.0 0.0 0.0
vertex 38.9647707556965 2.8199664825479e-015 1.16069137129753
vertex 38.8837312064864 2.8199664825479e-015 -3.07724182209124e-019
endloop
endfacet
facet normal 5.16468296538997e-020 -1.0 -4.69994049587972e-017
outer loop
vertex 38.9647707556965 2.8199664825479e-015 1.16069137129753
vertex 40.0 0.0 0.0
vertex 40.0 0.0 30.0
endloop
endfacet
facet normal 5.16468296538997e-020 -1.0 -4.69994049587972e-017
outer loop
vertex 38.9647707556965 2.8199664825479e-015 1.16069137129753
vertex 40.0 0.0 30.0
vertex 38.0188567941558 2.8199664825479e-015 6.02423849235922
endloop
endfacet
facet normal 5.16468296538997e-020 -1.0 -4.69994049587972e-017
outer loop
vertex 38.0188567941558 2.8199664825479e-015 6.02423849235922
vertex 40.0 0.0 30.0
vertex 35.846395447572 2.8199664825479e-015 10.4772437156914
endloop
endfacet
facet normal 5.16468296538997e-020 -1.0 -4.69994049587972e-017
outer loop
vertex 35.846395447572 2.8199664825479e-015 10.4772437156914
vertex 40.0 0.0 30.0
vertex 32.5954363665525 2.8199664825479e-015 14.2162420942631
endloop
endfacet
facet normal 5.16468296538997e-020 -1.0 -4.69994049587972e-017
outer loop
vertex 32.5954363665525 2.8199664825479e-015 14.2162420942631
vertex 40.0 0.0 30.0
vertex 28.4875270400051 2.8199664825479e-015 16.9864270675617
endloop
endfacet
facet normal 5.16468296538997e-020 -1.0 -4.69994049587972e-017
outer loop
vertex 28.4875270400051 2.8199664825479e-015 16.9864270675617
vertex 40.0 0.0 30.0
vertex 23.8026146998927 2.8199664825479e-015 18.5990151076039
endloop
endfacet
facet normal 5.16468296538997e-020 -1.0 -4.69994049587972e-017
outer loop
vertex 23.8026146998927 2.8199664825479e-015 18.5990151076039
vertex 40.0 0.0 30.0
vertex 18.8599683800103 2.8199664825479e-015 18.9441110043887
endloop
endfacet
facet normal 5.16468296538997e-020 -1.0 -4.69994049587972e-017
outer loop
vertex 1.20088270226307 2.8199664825479e-015 0.620085428840416
vertex 0.0 0.0 0.0
vertex 1.20088270226307 2.8199664825479e-015 -2.04391973609623e-017
endloop
endfacet
facet normal 5.16468296538997e-020 -1.0 -4.69994049587972e-017
outer loop
vertex 0.0 0.0 0.0
vertex 1.20088270226307 2.8199664825479e-015 0.620085428840416
vertex 0.0 0.0 30.0
endloop
endfacet
facet normal 5.16468296538997e-020 -1.0 -4.69994049587972e-017
outer loop
vertex 0.0 0.0 30.0
vertex 1.20088270226307 2.8199664825479e-015 0.620085428840416
vertex 1.42164464370389 2.8199664825479e-015 3.78195494858486
endloop
endfacet
facet normal 5.16468296538997e-020 -1.0 -4.69994049587972e-017
outer loop
vertex 0.0 0.0 30.0
vertex 1.42164464370389 2.8199664825479e-015 3.78195494858486
vertex 3.03423268374612 2.8199664825479e-015 8.46686728869727
endloop
endfacet
facet normal 5.16468296538997e-020 -1.0 -4.69994049587972e-017
outer loop
vertex 0.0 0.0 30.0
vertex 3.03423268374612 2.8199664825479e-015 8.46686728869727
vertex 5.80441765704467 2.8199664825479e-015 12.5747766152447
endloop
endfacet
facet normal 5.16468296538997e-020 -1.0 -4.69994049587972e-017
outer loop
vertex 0.0 0.0 30.0
vertex 5.80441765704467 2.8199664825479e-015 12.5747766152447
vertex 9.54341603561639 2.8199664825479e-015 15.8257356962641
endloop
endfacet
facet normal 5.16468296538997e-020 -1.0 -4.69994049587972e-017
outer loop
vertex 0.0 0.0 30.0
vertex 9.54341603561639 2.8199664825479e-015 15.8257356962641
vertex 13.9964212589486 2.8199664825479e-015 17.998197042848
endloop
endfacet
facet normal 5.16468296538997e-020 -1.0 -4.69994049587972e-017
outer loop
vertex 0.0 0.0 30.0
vertex 13.9964212589486 2.8199664825479e-015 17.998197042848
vertex 18.8599683800103 2.8199664825479e-015 18.9441110043887
endloop
endfacet
facet normal 5.16468296538997e-020 -1.0 -4.69994049587972e-017
outer loop
vertex 0.0 0.0 30.0
vertex 18.8599683800103 2.8199664825479e-015 18.9441110043887
vertex 40.0 0.0 30.0
endloop
endfacet
facet normal 2.75672117681007e-019 0.0 -1.0
outer loop
vertex 40.0 40.0 0.0
vertex 38.8837312064864 2.8199664825479e-015 -3.07724182209124e-019
vertex 38.8837312064864 40.0 -3.07724182209124e-019
endloop
endfacet
facet normal 2.75672117681007e-019 0.0 -1.0
outer loop
vertex 38.8837312064864 2.8199664825479e-015 -3.07724182209124e-019
vertex 40.0 40.0 0.0
vertex 40.0 0.0 0.0
endloop
endfacet
facet normal 1.80835685012229e-031 1.0 -1.65452842582027e-031
outer loop
vertex 0.0 40.0 0.0
vertex 1.20088270226307 40.0 -2.04391973609623e-017
vertex 0.0413195026156239 40.0 -4.40619762898109e-017
endloop
endfacet
facet normal 1.80835685012229e-031 1.0 -1.65452842582027e-031
outer loop
vertex 1.20088270226307 40.0 -2.04391973609623e-017
vertex 0.0 40.0 0.0
vertex 1.20088270226307 40.0 0.620085428840416
endloop
endfacet
facet normal 1.80835685012229e-031 1.0 -1.65452842582027e-031
outer loop
vertex 1.20088270226307 40.0 0.620085428840416
vertex 0.0 40.0 0.0
vertex 0.0 40.0 30.0
endloop
endfacet
facet normal 1.80835685012229e-031 1.0 -1.65452842582027e-031
outer loop
vertex 1.20088270226307 40.0 0.620085428840416
vertex 0.0 40.0 30.0
vertex 1.42164464370389 40.0 3.78195494858486
endloop
endfacet
facet normal 1.80835685012229e-031 1.0 -1.65452842582027e-031
outer loop
vertex 1.42164464370389 40.0 3.78195494858486
vertex 0.0 40.0 30.0
vertex 3.03423268374612 40.0 8.46686728869727
endloop
endfacet
facet normal 1.80835685012229e-031 1.0 -1.65452842582027e-031
outer loop
vertex 3.03423268374612 40.0 8.46686728869727
vertex 0.0 40.0 30.0
vertex 5.80441765704467 40.0 12.5747766152447
endloop
endfacet
facet normal 1.80835685012229e-031 1.0 -1.65452842582027e-031
outer loop
vertex 5.80441765704467 40.0 12.5747766152447
vertex 0.0 40.0 30.0
vertex 9.54341603561639 40.0 15.8257356962641
endloop
endfacet
facet normal 1.80835685012229e-031 1.0 -1.65452842582027e-031
outer loop
vertex 9.54341603561639 40.0 15.8257356962641
vertex 0.0 40.0 30.0
vertex 13.9964212589486 40.0 17.998197042848
endloop
endfacet
facet normal 1.80835685012229e-031 1.0 -1.65452842582027e-031
outer loop
vertex 13.9964212589486 40.0 17.998197042848
vertex 0.0 40.0 30.0
vertex 18.8599683800103 40.0 18.9441110043887
endloop
endfacet
facet normal 1.80835685012229e-031 1.0 -1.65452842582027e-031
outer loop
vertex 38.9647707556965 40.0 1.16069137129753
vertex 40.0 40.0 0.0
vertex 38.8837312064864 40.0 -3.07724182209124e-019
endloop
endfacet
facet normal 1.80835685012229e-031 1.0 -1.65452842582027e-031
outer loop
vertex 40.0 40.0 0.0
vertex 38.9647707556965 40.0 1.16069137129753
vertex 40.0 40.0 30.0
endloop
endfacet
facet normal 1.80835685012229e-031 1.0 -1.65452842582027e-031
outer loop
vertex 40.0 40.0 30.0
vertex 38.9647707556965 40.0 1.16069137129753
vertex 38.0188567941558 40.0 6.02423849235922
endloop
endfacet
facet normal 1.80835685012229e-031 1.0 -1.65452842582027e-031
outer loop
vertex 40.0 40.0 30.0
vertex 38.0188567941558 40.0 6.02423849235922
vertex 35.846395447572 40.0 10.4772437156914
endloop
endfacet
facet normal 1.80835685012229e-031 1.0 -1.65452842582027e-031
outer loop
vertex 40.0 40.0 30.0
vertex 35.846395447572 40.0 10.4772437156914
vertex 32.5954363665525 40.0 14.2162420942631
endloop
endfacet
facet normal 1.80835685012229e-031 1.0 -1.65452842582027e-031
outer loop
vertex 40.0 40.0 30.0
vertex 32.5954363665525 40.0 14.2162420942631
vertex 28.4875270400051 40.0 16.9864270675617
endloop
endfacet
facet normal 1.80835685012229e-031 1.0 -1.65452842582027e-031
outer loop
vertex 40.0 40.0 30.0
vertex 28.4875270400051 40.0 16.9864270675617
vertex 23.8026146998927 40.0 18.5990151076039
endloop
endfacet
facet normal 1.80835685012229e-031 1.0 -1.65452842582027e-031
outer loop
vertex 40.0 40.0 30.0
vertex 23.8026146998927 40.0 18.5990151076039
vertex 18.8599683800103 40.0 18.9441110043887
endloop
endfacet
facet normal 1.80835685012229e-031 1.0 -1.65452842582027e-031
outer loop
vertex 40.0 40.0 30.0
vertex 18.8599683800103 40.0 18.9441110043887
vertex 0.0 40.0 30.0
endloop
endfacet
facet normal -0.997571454610672 0.0 0.0696505057120837
outer loop
vertex 38.9647707556965 40.0 1.16069137129753
vertex 38.8837312064864 2.8199664825479e-015 -3.07724182209124e-019
vertex 38.9647707556965 2.8199664825479e-015 1.16069137129753
endloop
endfacet
facet normal -0.997571454610672 0.0 0.0696505057120837
outer loop
vertex 38.8837312064864 2.8199664825479e-015 -3.07724182209124e-019
vertex 38.9647707556965 40.0 1.16069137129753
vertex 38.8837312064864 40.0 -3.07724182209124e-019
endloop
endfacet
facet normal 1.0 -0.0 -0.0
outer loop
vertex 1.20088270226307 40.0 -2.04391973609623e-017
vertex 1.20088270226307 2.8199664825479e-015 0.620085428840416
vertex 1.20088270226307 2.8199664825479e-015 -2.04391973609623e-017
endloop
endfacet
facet normal 1.0 -0.0 -0.0
outer loop
vertex 1.20088270226307 2.8199664825479e-015 0.620085428840416
vertex 1.20088270226307 40.0 -2.04391973609623e-017
vertex 1.20088270226307 40.0 0.620085428840416
endloop
endfacet
facet normal 0.997571454610672 -0.0 -0.0696505057120739
outer loop
vertex 1.20088270226307 40.0 0.620085428840416
vertex 1.42164464370389 2.8199664825479e-015 3.78195494858486
vertex 1.20088270226307 2.8199664825479e-015 0.620085428840416
endloop
endfacet
facet normal 0.997571454610672 -0.0 -0.0696505057120739
outer loop
vertex 1.42164464370389 2.8199664825479e-015 3.78195494858486
vertex 1.20088270226307 40.0 0.620085428840416
vertex 1.42164464370389 40.0 3.78195494858486
endloop
endfacet
facet normal 0.945553154197894 -0.0 -0.325467713585255
outer loop
vertex 1.42164464370389 40.0 3.78195494858486
vertex 3.03423268374612 2.8199664825479e-015 8.46686728869727
vertex 1.42164464370389 2.8199664825479e-015 3.78195494858486
endloop
endfacet
facet normal 0.945553154197894 -0.0 -0.325467713585255
outer loop
vertex 3.03423268374612 2.8199664825479e-015 8.46686728869727
vertex 1.42164464370389 40.0 3.78195494858486
vertex 3.03423268374612 40.0 8.46686728869727
endloop
endfacet
facet normal 0.829096968927 -0.0 -0.559104834638425
outer loop
vertex 3.03423268374612 40.0 8.46686728869727
vertex 5.80441765704467 2.8199664825479e-015 12.5747766152447
vertex 3.03423268374612 2.8199664825479e-015 8.46686728869727
endloop
endfacet
facet normal 0.829096968927 -0.0 -0.559104834638425
outer loop
vertex 5.80441765704467 2.8199664825479e-015 12.5747766152447
vertex 3.03423268374612 40.0 8.46686728869727
vertex 5.80441765704467 40.0 12.5747766152447
endloop
endfacet
facet normal 0.656139195371255 -0.0 -0.754639885175414
outer loop
vertex 9.54341603561639 40.0 15.8257356962641
vertex 5.80441765704467 2.8199664825479e-015 12.5747766152447
vertex 5.80441765704467 40.0 12.5747766152447
endloop
endfacet
facet normal 0.656139195371255 -0.0 -0.754639885175414
outer loop
vertex 5.80441765704467 2.8199664825479e-015 12.5747766152447
vertex 9.54341603561639 40.0 15.8257356962641
vertex 9.54341603561639 2.8199664825479e-015 15.8257356962641
endloop
endfacet
facet normal 0.438466619972247 -0.0 -0.898747474639074
outer loop
vertex 13.9964212589486 40.0 17.998197042848
vertex 9.54341603561639 2.8199664825479e-015 15.8257356962641
vertex 9.54341603561639 40.0 15.8257356962641
endloop
endfacet
facet normal 0.438466619972247 -0.0 -0.898747474639074
outer loop
vertex 9.54341603561639 2.8199664825479e-015 15.8257356962641
vertex 13.9964212589486 40.0 17.998197042848
vertex 13.9964212589486 2.8199664825479e-015 17.998197042848
endloop
endfacet
facet normal 0.19091326902248 -0.0 -0.981606908956508
outer loop
vertex 18.8599683800103 40.0 18.9441110043887
vertex 13.9964212589486 2.8199664825479e-015 17.998197042848
vertex 13.9964212589486 40.0 17.998197042848
endloop
endfacet
facet normal 0.19091326902248 -0.0 -0.981606908956508
outer loop
vertex 13.9964212589486 2.8199664825479e-015 17.998197042848
vertex 18.8599683800103 40.0 18.9441110043887
vertex 18.8599683800103 2.8199664825479e-015 18.9441110043887
endloop
endfacet
facet normal -0.0696505057120762 -0.0 -0.997571454610672
outer loop
vertex 23.8026146998927 40.0 18.5990151076039
vertex 18.8599683800103 2.8199664825479e-015 18.9441110043887
vertex 18.8599683800103 40.0 18.9441110043887
endloop
endfacet
facet normal -0.0696505057120762 -0.0 -0.997571454610672
outer loop
vertex 18.8599683800103 2.8199664825479e-015 18.9441110043887
vertex 23.8026146998927 40.0 18.5990151076039
vertex 23.8026146998927 2.8199664825479e-015 18.5990151076039
endloop
endfacet
facet normal -0.325467713585254 -0.0 -0.945553154197894
outer loop
vertex 28.4875270400051 40.0 16.9864270675617
vertex 23.8026146998927 2.8199664825479e-015 18.5990151076039
vertex 23.8026146998927 40.0 18.5990151076039
endloop
endfacet
facet normal -0.325467713585254 -0.0 -0.945553154197894
outer loop
vertex 23.8026146998927 2.8199664825479e-015 18.5990151076039
vertex 28.4875270400051 40.0 16.9864270675617
vertex 28.4875270400051 2.8199664825479e-015 16.9864270675617
endloop
endfacet
facet normal -0.559104834638426 -0.0 -0.829096968927
outer loop
vertex 32.5954363665525 40.0 14.2162420942631
vertex 28.4875270400051 2.8199664825479e-015 16.9864270675617
vertex 28.4875270400051 40.0 16.9864270675617
endloop
endfacet
facet normal -0.559104834638426 -0.0 -0.829096968927
outer loop
vertex 28.4875270400051 2.8199664825479e-015 16.9864270675617
vertex 32.5954363665525 40.0 14.2162420942631
vertex 32.5954363665525 2.8199664825479e-015 14.2162420942631
endloop
endfacet
facet normal -0.754639885175415 -0.0 -0.656139195371254
outer loop
vertex 32.5954363665525 40.0 14.2162420942631
vertex 35.846395447572 2.8199664825479e-015 10.4772437156914
vertex 32.5954363665525 2.8199664825479e-015 14.2162420942631
endloop
endfacet
facet normal -0.754639885175415 -0.0 -0.656139195371254
outer loop
vertex 35.846395447572 2.8199664825479e-015 10.4772437156914
vertex 32.5954363665525 40.0 14.2162420942631
vertex 35.846395447572 40.0 10.4772437156914
endloop
endfacet
facet normal -0.898747474639075 -0.0 -0.438466619972246
outer loop
vertex 35.846395447572 40.0 10.4772437156914
vertex 38.0188567941558 2.8199664825479e-015 6.02423849235922
vertex 35.846395447572 2.8199664825479e-015 10.4772437156914
endloop
endfacet
facet normal -0.898747474639075 -0.0 -0.438466619972246
outer loop
vertex 38.0188567941558 2.8199664825479e-015 6.02423849235922
vertex 35.846395447572 40.0 10.4772437156914
vertex 38.0188567941558 40.0 6.02423849235922
endloop
endfacet
facet normal -0.981606908956508 -0.0 -0.190913269022481
outer loop
vertex 38.0188567941558 40.0 6.02423849235922
vertex 38.9647707556965 2.8199664825479e-015 1.16069137129753
vertex 38.0188567941558 2.8199664825479e-015 6.02423849235922
endloop
endfacet
facet normal -0.981606908956508 -0.0 -0.190913269022481
outer loop
vertex 38.9647707556965 2.8199664825479e-015 1.16069137129753
vertex 38.0188567941558 40.0 6.02423849235922
vertex 38.9647707556965 40.0 1.16069137129753
endloop
endfacet
facet normal -7.22822240242689e-018 -3.15698622337156e-019 -1.0
outer loop
vertex 0.0413195026156239 40.0 -4.40619762898109e-017
vertex 0.0 0.0 0.0
vertex 0.0 40.0 0.0
endloop
endfacet
facet normal -7.22822240242689e-018 -3.15698622337156e-019 -1.0
outer loop
vertex 0.0 0.0 0.0
vertex 0.0413195026156239 40.0 -4.40619762898109e-017
vertex 1.20088270226307 2.8199664825479e-015 -2.04391973609623e-017
endloop
endfacet
facet normal -7.22822240242689e-018 -3.15698622337156e-019 -1.0
outer loop
vertex 1.20088270226307 2.8199664825479e-015 -2.04391973609623e-017
vertex 0.0413195026156239 40.0 -4.40619762898109e-017
vertex 1.20088270226307 40.0 -2.04391973609623e-017
endloop
endfacet
endsolid buishouder
