solid hoekhouder
facet normal 0.0 -1.0 0.0
outer loop
vertex 40.0 0.0 30.0
vertex 30.0 0.0 0.0
vertex 40.0 0.0 0.0
endloop
endfacet
facet normal 0.0 -1.0 0.0
outer loop
vertex 30.0 0.0 0.0
vertex 40.0 0.0 30.0
vertex 20.0 0.0 10.0
endloop
endfacet
facet normal 0.0 -1.0 0.0
outer loop
vertex 20.0 0.0 10.0
vertex 0.0 0.0 0.0
vertex 10.0 0.0 0.0
endloop
endfacet
facet normal 0.0 -1.0 0.0
outer loop
vertex 0.0 0.0 0.0
vertex 20.0 0.0 10.0
vertex 0.0 0.0 30.0
endloop
endfacet
facet normal 0.0 -1.0 0.0
outer loop
vertex 0.0 0.0 30.0
vertex 20.0 0.0 10.0
vertex 40.0 0.0 30.0
endloop
endfacet
facet normal -0.0 1.0 -0.0
outer loop
vertex 0.0 40.0 30.0
vertex 10.0 40.0 0.0
vertex 0.0 40.0 0.0
endloop
endfacet
facet normal -0.0 1.0 -0.0
outer loop
vertex 10.0 40.0 0.0
vertex 0.0 40.0 30.0
vertex 20.0 40.0 10.0
endloop
endfacet
facet normal -0.0 1.0 -0.0
outer loop
vertex 20.0 40.0 10.0
vertex 40.0 40.0 0.0
vertex 30.0 40.0 0.0
endloop
endfacet
facet normal -0.0 1.0 -0.0
outer loop
vertex 40.0 40.0 0.0
vertex 20.0 40.0 10.0
vertex 40.0 40.0 30.0
endloop
endfacet
facet normal -0.0 1.0 -0.0
outer loop
vertex 40.0 40.0 30.0
vertex 20.0 40.0 10.0
vertex 0.0 40.0 30.0
endloop
endfacet
facet normal 0.0 0.0 -1.0
outer loop
vertex 10.0 40.0 0.0
vertex 0.0 0.0 0.0
vertex 0.0 40.0 0.0
endloop
endfacet
facet normal 0.0 0.0 -1.0
outer loop
vertex 0.0 0.0 0.0
vertex 10.0 40.0 0.0
vertex 10.0 0.0 0.0
endloop
endfacet
facet normal 0.707106781186548 0.0 -0.707106781186548
outer loop
vertex 10.0 40.0 0.0
vertex 20.0 0.0 10.0
vertex 10.0 0.0 0.0
endloop
endfacet
facet normal 0.707106781186548 0.0 -0.707106781186548
outer loop
vertex 20.0 0.0 10.0
vertex 10.0 40.0 0.0
vertex 20.0 40.0 10.0
endloop
endfacet
facet normal -0.707106781186547 0.0 -0.707106781186548
outer loop
vertex 30.0 40.0 0.0
vertex 20.0 0.0 10.0
vertex 20.0 40.0 10.0
endloop
endfacet
facet normal -0.707106781186547 0.0 -0.707106781186548
outer loop
vertex 20.0 0.0 10.0
vertex 30.0 40.0 0.0
vertex 30.0 0.0 0.0
endloop
endfacet
facet normal 0.0 0.0 -1.0
outer loop
vertex 40.0 40.0 0.0
vertex 30.0 0.0 0.0
vertex 30.0 40.0 0.0
endloop
endfacet
facet normal 0.0 0.0 -1.0
outer loop
vertex 30.0 0.0 0.0
vertex 40.0 40.0 0.0
vertex 40.0 0.0 0.0
endloop
endfacet
facet normal -1.0 -0.0 -0.0
outer loop
vertex 0.0 40.0 30.0
vertex 0.0 0.0 0.0
vertex 0.0 0.0 30.0
endloop
endfacet
facet normal -1.0 -0.0 -0.0
outer loop
vertex 0.0 0.0 0.0
vertex 0.0 40.0 30.0
vertex 0.0 40.0 0.0
endloop
endfacet
facet normal 1.0 0.0 -0.0
outer loop
vertex 40.0 40.0 0.0
vertex 40.0 0.0 30.0
vertex 40.0 0.0 0.0
endloop
endfacet
facet normal 1.0 0.0 -0.0
outer loop
vertex 40.0 0.0 30.0
vertex 40.0 40.0 0.0
vertex 40.0 40.0 30.0
endloop
endfacet
facet normal 0.0 0.0 1.0
outer loop
vertex 0.0 0.0 30.0
vertex 1.33916980001201 18.734353641918 30.0
vertex 0.0 40.0 30.0
endloop
endfacet
facet normal 0.0 0.0 1.0
outer loop
vertex 1.33916980001201 18.734353641918 30.0
vertex 0.0 0.0 30.0
vertex 2.30259555167288 13.9477012425987 30.0
endloop
endfacet
facet normal 0.0 0.0 1.0
outer loop
vertex 2.30259555167288 13.9477012425987 30.0
vertex 0.0 0.0 30.0
vertex 4.47207017014356 9.57350300169974 30.0
endloop
endfacet
facet normal 0.0 0.0 1.0
outer loop
vertex 4.47207017014356 9.57350300169974 30.0
vertex 0.0 0.0 30.0
vertex 7.6997475454016 5.90985330063395 30.0
endloop
endfacet
facet normal 0.0 0.0 1.0
outer loop
vertex 7.6997475454016 5.90985330063395 30.0
vertex 0.0 0.0 30.0
vertex 11.7656667983123 3.20642381206156 30.0
endloop
endfacet
facet normal 0.0 0.0 1.0
outer loop
vertex 11.7656667983123 3.20642381206156 30.0
vertex 0.0 0.0 30.0
vertex 16.392742251039 1.64744878800034 30.0
endloop
endfacet
facet normal 0.0 0.0 1.0
outer loop
vertex 16.392742251039 1.64744878800034 30.0
vertex 0.0 0.0 30.0
vertex 40.0 0.0 30.0
endloop
endfacet
facet normal 0.0 0.0 1.0
outer loop
vertex 16.392742251039 1.64744878800034 30.0
vertex 40.0 0.0 30.0
vertex 21.265646358082 1.33916980001201 30.0
endloop
endfacet
facet normal 0.0 0.0 1.0
outer loop
vertex 21.265646358082 1.33916980001201 30.0
vertex 40.0 0.0 30.0
vertex 26.0522987574013 2.30259555167286 30.0
endloop
endfacet
facet normal 0.0 0.0 1.0
outer loop
vertex 26.0522987574013 2.30259555167286 30.0
vertex 40.0 0.0 30.0
vertex 30.4264969983003 4.47207017014357 30.0
endloop
endfacet
facet normal 0.0 0.0 1.0
outer loop
vertex 30.4264969983003 4.47207017014357 30.0
vertex 40.0 0.0 30.0
vertex 34.090146699366 7.6997475454016 30.0
endloop
endfacet
facet normal 0.0 0.0 1.0
outer loop
vertex 34.090146699366 7.6997475454016 30.0
vertex 40.0 0.0 30.0
vertex 36.7935761879384 11.7656667983123 30.0
endloop
endfacet
facet normal 0.0 0.0 1.0
outer loop
vertex 36.7935761879384 11.7656667983123 30.0
vertex 40.0 0.0 30.0
vertex 38.3525512119997 16.3927422510389 30.0
endloop
endfacet
facet normal 0.0 0.0 1.0
outer loop
vertex 38.3525512119997 16.3927422510389 30.0
vertex 40.0 0.0 30.0
vertex 38.660830199988 21.265646358082 30.0
endloop
endfacet
facet normal 0.0 0.0 1.0
outer loop
vertex 0.0 40.0 30.0
vertex 18.734353641918 38.660830199988 30.0
vertex 40.0 40.0 30.0
endloop
endfacet
facet normal 0.0 0.0 1.0
outer loop
vertex 18.734353641918 38.660830199988 30.0
vertex 0.0 40.0 30.0
vertex 13.9477012425987 37.6974044483271 30.0
endloop
endfacet
facet normal 0.0 0.0 1.0
outer loop
vertex 13.9477012425987 37.6974044483271 30.0
vertex 0.0 40.0 30.0
vertex 9.57350300169972 35.5279298298564 30.0
endloop
endfacet
facet normal 0.0 0.0 1.0
outer loop
vertex 9.57350300169972 35.5279298298564 30.0
vertex 0.0 40.0 30.0
vertex 5.90985330063395 32.3002524545984 30.0
endloop
endfacet
facet normal 0.0 0.0 1.0
outer loop
vertex 5.90985330063395 32.3002524545984 30.0
vertex 0.0 40.0 30.0
vertex 3.20642381206156 28.2343332016877 30.0
endloop
endfacet
facet normal 0.0 0.0 1.0
outer loop
vertex 3.20642381206156 28.2343332016877 30.0
vertex 0.0 40.0 30.0
vertex 1.64744878800034 23.6072577489611 30.0
endloop
endfacet
facet normal 0.0 0.0 1.0
outer loop
vertex 1.64744878800034 23.6072577489611 30.0
vertex 0.0 40.0 30.0
vertex 1.33916980001201 18.734353641918 30.0
endloop
endfacet
facet normal 0.0 0.0 1.0
outer loop
vertex 40.0 40.0 30.0
vertex 18.734353641918 38.660830199988 30.0
vertex 23.6072577489611 38.3525512119997 30.0
endloop
endfacet
facet normal 0.0 0.0 1.0
outer loop
vertex 40.0 40.0 30.0
vertex 23.6072577489611 38.3525512119997 30.0
vertex 28.2343332016877 36.7935761879384 30.0
endloop
endfacet
facet normal 0.0 0.0 1.0
outer loop
vertex 40.0 40.0 30.0
vertex 28.2343332016877 36.7935761879384 30.0
vertex 32.3002524545984 34.0901466993661 30.0
endloop
endfacet
facet normal 0.0 0.0 1.0
outer loop
vertex 40.0 40.0 30.0
vertex 32.3002524545984 34.0901466993661 30.0
vertex 35.5279298298564 30.4264969983003 30.0
endloop
endfacet
facet normal 0.0 0.0 1.0
outer loop
vertex 40.0 40.0 30.0
vertex 35.5279298298564 30.4264969983003 30.0
vertex 37.6974044483271 26.0522987574013 30.0
endloop
endfacet
facet normal 0.0 0.0 1.0
outer loop
vertex 40.0 40.0 30.0
vertex 37.6974044483271 26.0522987574013 30.0
vertex 38.660830199988 21.265646358082 30.0
endloop
endfacet
facet normal 0.0 0.0 1.0
outer loop
vertex 40.0 40.0 30.0
vertex 38.660830199988 21.265646358082 30.0
vertex 40.0 0.0 30.0
endloop
endfacet
facet normal 0.0 0.0 1.0
outer loop
vertex 2.30259555167288 13.9477012425987 20.0
vertex 1.64744878800034 23.6072577489611 20.0
vertex 1.33916980001201 18.734353641918 20.0
endloop
endfacet
facet normal 0.0 0.0 1.0
outer loop
vertex 1.64744878800034 23.6072577489611 20.0
vertex 2.30259555167288 13.9477012425987 20.0
vertex 3.20642381206156 28.2343332016877 20.0
endloop
endfacet
facet normal 0.0 0.0 1.0
outer loop
vertex 3.20642381206156 28.2343332016877 20.0
vertex 2.30259555167288 13.9477012425987 20.0
vertex 4.47207017014356 9.57350300169974 20.0
endloop
endfacet
facet normal 0.0 0.0 1.0
outer loop
vertex 3.20642381206156 28.2343332016877 20.0
vertex 4.47207017014356 9.57350300169974 20.0
vertex 5.90985330063395 32.3002524545984 20.0
endloop
endfacet
facet normal 0.0 0.0 1.0
outer loop
vertex 5.90985330063395 32.3002524545984 20.0
vertex 4.47207017014356 9.57350300169974 20.0
vertex 7.6997475454016 5.90985330063395 20.0
endloop
endfacet
facet normal 0.0 0.0 1.0
outer loop
vertex 5.90985330063395 32.3002524545984 20.0
vertex 7.6997475454016 5.90985330063395 20.0
vertex 9.57350300169972 35.5279298298564 20.0
endloop
endfacet
facet normal 0.0 0.0 1.0
outer loop
vertex 9.57350300169972 35.5279298298564 20.0
vertex 7.6997475454016 5.90985330063395 20.0
vertex 11.7656667983123 3.20642381206156 20.0
endloop
endfacet
facet normal 0.0 0.0 1.0
outer loop
vertex 9.57350300169972 35.5279298298564 20.0
vertex 11.7656667983123 3.20642381206156 20.0
vertex 13.9477012425987 37.6974044483271 20.0
endloop
endfacet
facet normal 0.0 0.0 1.0
outer loop
vertex 13.9477012425987 37.6974044483271 20.0
vertex 11.7656667983123 3.20642381206156 20.0
vertex 16.392742251039 1.64744878800034 20.0
endloop
endfacet
facet normal 0.0 0.0 1.0
outer loop
vertex 13.9477012425987 37.6974044483271 20.0
vertex 16.392742251039 1.64744878800034 20.0
vertex 18.734353641918 38.660830199988 20.0
endloop
endfacet
facet normal 0.0 0.0 1.0
outer loop
vertex 18.734353641918 38.660830199988 20.0
vertex 16.392742251039 1.64744878800034 20.0
vertex 21.265646358082 1.33916980001201 20.0
endloop
endfacet
facet normal 0.0 0.0 1.0
outer loop
vertex 18.734353641918 38.660830199988 20.0
vertex 21.265646358082 1.33916980001201 20.0
vertex 23.6072577489611 38.3525512119997 20.0
endloop
endfacet
facet normal 0.0 0.0 1.0
outer loop
vertex 23.6072577489611 38.3525512119997 20.0
vertex 21.265646358082 1.33916980001201 20.0
vertex 26.0522987574013 2.30259555167286 20.0
endloop
endfacet
facet normal 0.0 0.0 1.0
outer loop
vertex 23.6072577489611 38.3525512119997 20.0
vertex 26.0522987574013 2.30259555167286 20.0
vertex 28.2343332016877 36.7935761879384 20.0
endloop
endfacet
facet normal 0.0 0.0 1.0
outer loop
vertex 28.2343332016877 36.7935761879384 20.0
vertex 26.0522987574013 2.30259555167286 20.0
vertex 30.4264969983003 4.47207017014357 20.0
endloop
endfacet
facet normal 0.0 0.0 1.0
outer loop
vertex 28.2343332016877 36.7935761879384 20.0
vertex 30.4264969983003 4.47207017014357 20.0
vertex 32.3002524545984 34.0901466993661 20.0
endloop
endfacet
facet normal 0.0 0.0 1.0
outer loop
vertex 32.3002524545984 34.0901466993661 20.0
vertex 30.4264969983003 4.47207017014357 20.0
vertex 34.090146699366 7.6997475454016 20.0
endloop
endfacet
facet normal 0.0 0.0 1.0
outer loop
vertex 32.3002524545984 34.0901466993661 20.0
vertex 34.090146699366 7.6997475454016 20.0
vertex 35.5279298298564 30.4264969983003 20.0
endloop
endfacet
facet normal 0.0 0.0 1.0
outer loop
vertex 35.5279298298564 30.4264969983003 20.0
vertex 34.090146699366 7.6997475454016 20.0
vertex 36.7935761879384 11.7656667983123 20.0
endloop
endfacet
facet normal 0.0 0.0 1.0
outer loop
vertex 35.5279298298564 30.4264969983003 20.0
vertex 36.7935761879384 11.7656667983123 20.0
vertex 37.6974044483271 26.0522987574013 20.0
endloop
endfacet
facet normal 0.0 0.0 1.0
outer loop
vertex 37.6974044483271 26.0522987574013 20.0
vertex 36.7935761879384 11.7656667983123 20.0
vertex 38.3525512119997 16.3927422510389 20.0
endloop
endfacet
facet normal 0.0 0.0 1.0
outer loop
vertex 37.6974044483271 26.0522987574013 20.0
vertex 38.3525512119997 16.3927422510389 20.0
vertex 38.660830199988 21.265646358082 20.0
endloop
endfacet
facet normal -0.444323567761482 0.895866377944673 -0.0
outer loop
vertex 26.0522987574013 2.30259555167286 30.0
vertex 30.4264969983003 4.47207017014357 20.0
vertex 26.0522987574013 2.30259555167286 20.0
endloop
endfacet
facet normal -0.444323567761482 0.895866377944673 -0.0
outer loop
vertex 30.4264969983003 4.47207017014357 20.0
vertex 26.0522987574013 2.30259555167286 30.0
vertex 30.4264969983003 4.47207017014357 30.0
endloop
endfacet
facet normal -0.661050889808811 0.750341069836231 -0.0
outer loop
vertex 30.4264969983003 4.47207017014357 30.0
vertex 34.090146699366 7.6997475454016 20.0
vertex 30.4264969983003 4.47207017014357 20.0
endloop
endfacet
facet normal -0.661050889808811 0.750341069836231 -0.0
outer loop
vertex 34.090146699366 7.6997475454016 20.0
vertex 30.4264969983003 4.47207017014357 30.0
vertex 34.090146699366 7.6997475454016 30.0
endloop
endfacet
facet normal -0.832728686153915 0.553681257815699 -0.0
outer loop
vertex 36.7935761879384 11.7656667983123 30.0
vertex 34.090146699366 7.6997475454016 20.0
vertex 34.090146699366 7.6997475454016 30.0
endloop
endfacet
facet normal -0.832728686153915 0.553681257815699 -0.0
outer loop
vertex 34.090146699366 7.6997475454016 20.0
vertex 36.7935761879384 11.7656667983123 30.0
vertex 36.7935761879384 11.7656667983123 20.0
endloop
endfacet
facet normal -0.947657398686854 0.319288983076563 -0.0
outer loop
vertex 38.3525512119997 16.3927422510389 30.0
vertex 36.7935761879384 11.7656667983123 20.0
vertex 36.7935761879384 11.7656667983123 30.0
endloop
endfacet
facet normal -0.947657398686854 0.319288983076563 -0.0
outer loop
vertex 36.7935761879384 11.7656667983123 20.0
vertex 38.3525512119997 16.3927422510389 30.0
vertex 38.3525512119997 16.3927422510389 20.0
endloop
endfacet
facet normal -0.998004825577179 0.0631376917907578 -0.0
outer loop
vertex 38.660830199988 21.265646358082 30.0
vertex 38.3525512119997 16.3927422510389 20.0
vertex 38.3525512119997 16.3927422510389 30.0
endloop
endfacet
facet normal -0.998004825577179 0.0631376917907578 -0.0
outer loop
vertex 38.3525512119997 16.3927422510389 20.0
vertex 38.660830199988 21.265646358082 30.0
vertex 38.660830199988 21.265646358082 20.0
endloop
endfacet
facet normal -0.980339872885375 -0.197316328850622 -0.0
outer loop
vertex 37.6974044483271 26.0522987574013 30.0
vertex 38.660830199988 21.265646358082 20.0
vertex 38.660830199988 21.265646358082 30.0
endloop
endfacet
facet normal -0.980339872885375 -0.197316328850622 -0.0
outer loop
vertex 38.660830199988 21.265646358082 20.0
vertex 37.6974044483271 26.0522987574013 30.0
vertex 37.6974044483271 26.0522987574013 20.0
endloop
endfacet
facet normal -0.895866377944673 -0.444323567761483 -0.0
outer loop
vertex 35.5279298298564 30.4264969983003 30.0
vertex 37.6974044483271 26.0522987574013 20.0
vertex 37.6974044483271 26.0522987574013 30.0
endloop
endfacet
facet normal -0.895866377944673 -0.444323567761483 -0.0
outer loop
vertex 37.6974044483271 26.0522987574013 20.0
vertex 35.5279298298564 30.4264969983003 30.0
vertex 35.5279298298564 30.4264969983003 20.0
endloop
endfacet
facet normal -0.75034106983623 -0.661050889808812 -0.0
outer loop
vertex 32.3002524545984 34.0901466993661 30.0
vertex 35.5279298298564 30.4264969983003 20.0
vertex 35.5279298298564 30.4264969983003 30.0
endloop
endfacet
facet normal -0.75034106983623 -0.661050889808812 -0.0
outer loop
vertex 35.5279298298564 30.4264969983003 20.0
vertex 32.3002524545984 34.0901466993661 30.0
vertex 32.3002524545984 34.0901466993661 20.0
endloop
endfacet
facet normal -0.553681257815699 -0.832728686153915 -0.0
outer loop
vertex 32.3002524545984 34.0901466993661 30.0
vertex 28.2343332016877 36.7935761879384 20.0
vertex 32.3002524545984 34.0901466993661 20.0
endloop
endfacet
facet normal -0.553681257815699 -0.832728686153915 -0.0
outer loop
vertex 28.2343332016877 36.7935761879384 20.0
vertex 32.3002524545984 34.0901466993661 30.0
vertex 28.2343332016877 36.7935761879384 30.0
endloop
endfacet
facet normal -0.319288983076565 -0.947657398686853 -0.0
outer loop
vertex 28.2343332016877 36.7935761879384 30.0
vertex 23.6072577489611 38.3525512119997 20.0
vertex 28.2343332016877 36.7935761879384 20.0
endloop
endfacet
facet normal -0.319288983076565 -0.947657398686853 -0.0
outer loop
vertex 23.6072577489611 38.3525512119997 20.0
vertex 28.2343332016877 36.7935761879384 30.0
vertex 23.6072577489611 38.3525512119997 30.0
endloop
endfacet
facet normal -0.0631376917907566 -0.998004825577179 -0.0
outer loop
vertex 23.6072577489611 38.3525512119997 30.0
vertex 18.734353641918 38.660830199988 20.0
vertex 23.6072577489611 38.3525512119997 20.0
endloop
endfacet
facet normal -0.0631376917907566 -0.998004825577179 -0.0
outer loop
vertex 18.734353641918 38.660830199988 20.0
vertex 23.6072577489611 38.3525512119997 30.0
vertex 18.734353641918 38.660830199988 30.0
endloop
endfacet
facet normal 0.19731632885062 -0.980339872885375 -0.0
outer loop
vertex 18.734353641918 38.660830199988 30.0
vertex 13.9477012425987 37.6974044483271 20.0
vertex 18.734353641918 38.660830199988 20.0
endloop
endfacet
facet normal 0.19731632885062 -0.980339872885375 -0.0
outer loop
vertex 13.9477012425987 37.6974044483271 20.0
vertex 18.734353641918 38.660830199988 30.0
vertex 13.9477012425987 37.6974044483271 30.0
endloop
endfacet
facet normal 0.444323567761483 -0.895866377944673 -0.0
outer loop
vertex 13.9477012425987 37.6974044483271 30.0
vertex 9.57350300169972 35.5279298298564 20.0
vertex 13.9477012425987 37.6974044483271 20.0
endloop
endfacet
facet normal 0.444323567761483 -0.895866377944673 -0.0
outer loop
vertex 9.57350300169972 35.5279298298564 20.0
vertex 13.9477012425987 37.6974044483271 30.0
vertex 9.57350300169972 35.5279298298564 30.0
endloop
endfacet
facet normal 0.66105088980881 -0.750341069836231 -0.0
outer loop
vertex 9.57350300169972 35.5279298298564 30.0
vertex 5.90985330063395 32.3002524545984 20.0
vertex 9.57350300169972 35.5279298298564 20.0
endloop
endfacet
facet normal 0.66105088980881 -0.750341069836231 -0.0
outer loop
vertex 5.90985330063395 32.3002524545984 20.0
vertex 9.57350300169972 35.5279298298564 30.0
vertex 5.90985330063395 32.3002524545984 30.0
endloop
endfacet
facet normal 0.832728686153916 -0.553681257815697 -0.0
outer loop
vertex 5.90985330063395 32.3002524545984 20.0
vertex 3.20642381206156 28.2343332016877 30.0
vertex 3.20642381206156 28.2343332016877 20.0
endloop
endfacet
facet normal 0.832728686153916 -0.553681257815697 -0.0
outer loop
vertex 3.20642381206156 28.2343332016877 30.0
vertex 5.90985330063395 32.3002524545984 20.0
vertex 5.90985330063395 32.3002524545984 30.0
endloop
endfacet
facet normal 0.947657398686853 -0.319288983076565 -0.0
outer loop
vertex 3.20642381206156 28.2343332016877 20.0
vertex 1.64744878800034 23.6072577489611 30.0
vertex 1.64744878800034 23.6072577489611 20.0
endloop
endfacet
facet normal 0.947657398686853 -0.319288983076565 -0.0
outer loop
vertex 1.64744878800034 23.6072577489611 30.0
vertex 3.20642381206156 28.2343332016877 20.0
vertex 3.20642381206156 28.2343332016877 30.0
endloop
endfacet
facet normal 0.998004825577179 -0.0631376917907581 -0.0
outer loop
vertex 1.64744878800034 23.6072577489611 20.0
vertex 1.33916980001201 18.734353641918 30.0
vertex 1.33916980001201 18.734353641918 20.0
endloop
endfacet
facet normal 0.998004825577179 -0.0631376917907581 -0.0
outer loop
vertex 1.33916980001201 18.734353641918 30.0
vertex 1.64744878800034 23.6072577489611 20.0
vertex 1.64744878800034 23.6072577489611 30.0
endloop
endfacet
facet normal 0.980339872885375 0.197316328850622 0.0
outer loop
vertex 1.33916980001201 18.734353641918 20.0
vertex 2.30259555167288 13.9477012425987 30.0
vertex 2.30259555167288 13.9477012425987 20.0
endloop
endfacet
facet normal 0.980339872885375 0.197316328850622 0.0
outer loop
vertex 2.30259555167288 13.9477012425987 30.0
vertex 1.33916980001201 18.734353641918 20.0
vertex 1.33916980001201 18.734353641918 30.0
endloop
endfacet
facet normal 0.895866377944673 0.444323567761482 0.0
outer loop
vertex 2.30259555167288 13.9477012425987 20.0
vertex 4.47207017014356 9.57350300169974 30.0
vertex 4.47207017014356 9.57350300169974 20.0
endloop
endfacet
facet normal 0.895866377944673 0.444323567761482 0.0
outer loop
vertex 4.47207017014356 9.57350300169974 30.0
vertex 2.30259555167288 13.9477012425987 20.0
vertex 2.30259555167288 13.9477012425987 30.0
endloop
endfacet
facet normal 0.750341069836232 0.66105088980881 0.0
outer loop
vertex 4.47207017014356 9.57350300169974 20.0
vertex 7.6997475454016 5.90985330063395 30.0
vertex 7.6997475454016 5.90985330063395 20.0
endloop
endfacet
facet normal 0.750341069836232 0.66105088980881 0.0
outer loop
vertex 7.6997475454016 5.90985330063395 30.0
vertex 4.47207017014356 9.57350300169974 20.0
vertex 4.47207017014356 9.57350300169974 30.0
endloop
endfacet
facet normal 0.553681257815697 0.832728686153916 0.0
outer loop
vertex 7.6997475454016 5.90985330063395 30.0
vertex 11.7656667983123 3.20642381206156 20.0
vertex 7.6997475454016 5.90985330063395 20.0
endloop
endfacet
facet normal 0.553681257815697 0.832728686153916 0.0
outer loop
vertex 11.7656667983123 3.20642381206156 20.0
vertex 7.6997475454016 5.90985330063395 30.0
vertex 11.7656667983123 3.20642381206156 30.0
endloop
endfacet
facet normal 0.319288983076563 0.947657398686854 0.0
outer loop
vertex 11.7656667983123 3.20642381206156 30.0
vertex 16.392742251039 1.64744878800034 20.0
vertex 11.7656667983123 3.20642381206156 20.0
endloop
endfacet
facet normal 0.319288983076563 0.947657398686854 0.0
outer loop
vertex 16.392742251039 1.64744878800034 20.0
vertex 11.7656667983123 3.20642381206156 30.0
vertex 16.392742251039 1.64744878800034 30.0
endloop
endfacet
facet normal 0.0631376917907573 0.998004825577179 0.0
outer loop
vertex 16.392742251039 1.64744878800034 30.0
vertex 21.265646358082 1.33916980001201 20.0
vertex 16.392742251039 1.64744878800034 20.0
endloop
endfacet
facet normal 0.0631376917907573 0.998004825577179 0.0
outer loop
vertex 21.265646358082 1.33916980001201 20.0
vertex 16.392742251039 1.64744878800034 30.0
vertex 21.265646358082 1.33916980001201 30.0
endloop
endfacet
facet normal -0.197316328850621 0.980339872885375 -0.0
outer loop
vertex 21.265646358082 1.33916980001201 30.0
vertex 26.0522987574013 2.30259555167286 20.0
vertex 21.265646358082 1.33916980001201 20.0
endloop
endfacet
facet normal -0.197316328850621 0.980339872885375 -0.0
outer loop
vertex 26.0522987574013 2.30259555167286 20.0
vertex 21.265646358082 1.33916980001201 30.0
vertex 26.0522987574013 2.30259555167286 30.0
endloop
endfacet
endsolid hoekhouder
