solid pb-Y-BarEnds-x4
facet normal 7.12022123228377e-017 -1.4836105032331e-017 -1.0
outer loop
vertex -5.57281261449654 -1.53744572628511e-011 -9.71099520241658e-012
vertex 0.34898148115397 -9.80000000001541 -9.71073083055884e-012
vertex -5.57281261449651 -9.80000000001542 -9.71822136652811e-012
endloop
endfacet
facet normal 7.12022123228377e-017 -1.4836105032331e-017 -1.0
outer loop
vertex 0.34898148115397 -9.80000000001541 -9.71073083055884e-012
vertex -5.57281261449654 -1.53744572628511e-011 -9.71099520241658e-012
vertex 5.11167478525932 -9.12402156848139 -9.71055458265368e-012
endloop
endfacet
facet normal 7.12022123228377e-017 -1.4836105032331e-017 -1.0
outer loop
vertex 5.11167478525932 -9.12402156848139 -9.71055458265368e-012
vertex -5.57281261449654 -1.53744572628511e-011 -9.71099520241658e-012
vertex 5.77913300017048 -8.25417308749787 -9.70650088083502e-012
endloop
endfacet
facet normal 7.12022123228377e-017 -1.4836105032331e-017 -1.0
outer loop
vertex 5.77913300017048 -8.25417308749787 -9.70650088083502e-012
vertex -5.57281261449654 -1.53744572628511e-011 -9.71099520241658e-012
vertex 6.64898148115397 -7.5867148725867 -9.71214081380012e-012
endloop
endfacet
facet normal 7.12022123228377e-017 -1.4836105032331e-017 -1.0
outer loop
vertex 6.64898148115397 -7.5867148725867 -9.71214081380012e-012
vertex -5.57281261449654 -1.53744572628511e-011 -9.71099520241658e-012
vertex 7.66194149172338 -7.16713309806726 -9.71187644194238e-012
endloop
endfacet
facet normal 7.12022123228377e-017 -1.4836105032331e-017 -1.0
outer loop
vertex 7.66194149172338 -7.16713309806726 -9.71187644194238e-012
vertex -5.57281261449654 -1.53744572628511e-011 -9.71099520241658e-012
vertex 7.66194149172336 -1.53462575980257e-011 -9.71196456589496e-012
endloop
endfacet
facet normal 7.12022123228377e-017 -1.4836105032331e-017 -1.0
outer loop
vertex 1.47436808936468 -15.4240215684814 -9.70676525269276e-012
vertex 7.66194149172339 -15.2809100388954 -9.7122289377527e-012
vertex 8.74898148115398 -15.4240215684813 -9.71055458265368e-012
endloop
endfacet
facet normal 7.12022123228377e-017 -1.4836105032331e-017 -1.0
outer loop
vertex 7.66194149172339 -15.2809100388954 -9.7122289377527e-012
vertex 1.47436808936468 -15.4240215684814 -9.70676525269276e-012
vertex 0.635204540325792 -13.3981015473425 -9.71240518565786e-012
endloop
endfacet
facet normal 7.12022123228377e-017 -1.4836105032331e-017 -1.0
outer loop
vertex 7.66194149172339 -15.2809100388954 -9.7122289377527e-012
vertex 0.635204540325792 -13.3981015473425 -9.71240518565786e-012
vertex 6.64898148115396 -14.861328264376 -9.7122289377527e-012
endloop
endfacet
facet normal 7.12022123228377e-017 -1.4836105032331e-017 -1.0
outer loop
vertex 6.64898148115396 -14.861328264376 -9.7122289377527e-012
vertex 0.635204540325792 -13.3981015473425 -9.71240518565786e-012
vertex 5.77913300017048 -14.1938700494649 -9.70641275688244e-012
endloop
endfacet
facet normal 7.12022123228377e-017 -1.4836105032331e-017 -1.0
outer loop
vertex 5.77913300017048 -14.1938700494649 -9.70641275688244e-012
vertex 0.635204540325792 -13.3981015473425 -9.71240518565786e-012
vertex 5.11167478525932 -13.3240215684814 -9.71064270660626e-012
endloop
endfacet
facet normal 7.12022123228377e-017 -1.4836105032331e-017 -1.0
outer loop
vertex 5.11167478525932 -13.3240215684814 -9.71064270660626e-012
vertex 0.635204540325792 -13.3981015473425 -9.71240518565786e-012
vertex 0.348981481153973 -11.2240215684814 -9.71099520241658e-012
endloop
endfacet
facet normal 7.12022123228377e-017 -1.4836105032331e-017 -1.0
outer loop
vertex 5.11167478525932 -13.3240215684814 -9.71064270660626e-012
vertex 0.348981481153973 -11.2240215684814 -9.71099520241658e-012
vertex 4.69209301073989 -12.311061557912 -9.71205268984754e-012
endloop
endfacet
facet normal 7.12022123228377e-017 -1.4836105032331e-017 -1.0
outer loop
vertex 4.69209301073989 -12.311061557912 -9.71205268984754e-012
vertex 0.348981481153973 -11.2240215684814 -9.71099520241658e-012
vertex 4.54898148115397 -11.2240215684813 -9.7122289377527e-012
endloop
endfacet
facet normal 7.12022123228377e-017 -1.4836105032331e-017 -1.0
outer loop
vertex 4.54898148115397 -11.2240215684813 -9.7122289377527e-012
vertex 0.348981481153973 -11.2240215684814 -9.71099520241658e-012
vertex 0.34898148115397 -9.80000000001541 -9.71073083055884e-012
endloop
endfacet
facet normal 7.12022123228377e-017 -1.4836105032331e-017 -1.0
outer loop
vertex 4.54898148115397 -11.2240215684813 -9.7122289377527e-012
vertex 0.34898148115397 -9.80000000001541 -9.71073083055884e-012
vertex 4.69209301073988 -10.1369815790508 -9.7122289377527e-012
endloop
endfacet
facet normal 7.12022123228377e-017 -1.4836105032331e-017 -1.0
outer loop
vertex 4.69209301073988 -10.1369815790508 -9.7122289377527e-012
vertex 0.34898148115397 -9.80000000001541 -9.71073083055884e-012
vertex 5.11167478525932 -9.12402156848139 -9.71055458265368e-012
endloop
endfacet
facet normal 7.12022123228377e-017 -1.4836105032331e-017 -1.0
outer loop
vertex 9.33602147058454 -1.53434376315431e-011 -9.70465027783085e-012
vertex 9.83602147058456 -7.16713309806727 -9.70473840178343e-012
vertex 9.33602147058456 -7.16713309806727 -9.70500277364117e-012
endloop
endfacet
facet normal 7.12022123228377e-017 -1.4836105032331e-017 -1.0
outer loop
vertex 9.83602147058456 -7.16713309806727 -9.70473840178343e-012
vertex 9.33602147058454 -1.53434376315431e-011 -9.70465027783085e-012
vertex 17.148981481154 -1.53406176650606e-011 -9.71425578866203e-012
endloop
endfacet
facet normal 7.12022123228377e-017 -1.4836105032331e-017 -1.0
outer loop
vertex 6.57490150229281 -19.3377985093095 -9.70667712874018e-012
vertex 10.9230614600152 -19.3377985093095 -9.71196456589496e-012
vertex 8.74898148115398 -19.6240215684813 -9.71081895451142e-012
endloop
endfacet
facet normal 7.12022123228377e-017 -1.4836105032331e-017 -1.0
outer loop
vertex 10.9230614600152 -19.3377985093095 -9.71196456589496e-012
vertex 6.57490150229281 -19.3377985093095 -9.70667712874018e-012
vertex 12.948981481154 -18.4986349602706 -9.71046645870111e-012
endloop
endfacet
facet normal 7.12022123228377e-017 -1.4836105032331e-017 -1.0
outer loop
vertex 12.948981481154 -18.4986349602706 -9.71046645870111e-012
vertex 6.57490150229281 -19.3377985093095 -9.70667712874018e-012
vertex 4.54898148115398 -18.4986349602706 -9.71214081380012e-012
endloop
endfacet
facet normal 7.12022123228377e-017 -1.4836105032331e-017 -1.0
outer loop
vertex 12.948981481154 -18.4986349602706 -9.71046645870111e-012
vertex 4.54898148115398 -18.4986349602706 -9.71214081380012e-012
vertex 14.688678443121 -17.1637185304483 -9.7117883179898e-012
endloop
endfacet
facet normal 7.12022123228377e-017 -1.4836105032331e-017 -1.0
outer loop
vertex 14.688678443121 -17.1637185304483 -9.7117883179898e-012
vertex 4.54898148115398 -18.4986349602706 -9.71214081380012e-012
vertex 2.80928451918696 -17.1637185304483 -9.70535526945149e-012
endloop
endfacet
facet normal 7.12022123228377e-017 -1.4836105032331e-017 -1.0
outer loop
vertex 14.688678443121 -17.1637185304483 -9.7117883179898e-012
vertex 2.80928451918696 -17.1637185304483 -9.70535526945149e-012
vertex 1.47436808936468 -15.4240215684814 -9.70676525269276e-012
endloop
endfacet
facet normal 7.12022123228377e-017 -1.4836105032331e-017 -1.0
outer loop
vertex 14.688678443121 -17.1637185304483 -9.7117883179898e-012
vertex 1.47436808936468 -15.4240215684814 -9.70676525269276e-012
vertex 16.0235948729432 -15.4240215684813 -9.71196456589496e-012
endloop
endfacet
facet normal 7.12022123228377e-017 -1.4836105032331e-017 -1.0
outer loop
vertex 16.0235948729432 -15.4240215684813 -9.71196456589496e-012
vertex 1.47436808936468 -15.4240215684814 -9.70676525269276e-012
vertex 8.74898148115398 -15.4240215684813 -9.71055458265368e-012
endloop
endfacet
facet normal 7.12022123228377e-017 -1.4836105032331e-017 -1.0
outer loop
vertex 16.0235948729432 -15.4240215684813 -9.71196456589496e-012
vertex 8.74898148115398 -15.4240215684813 -9.71055458265368e-012
vertex 9.83602147058458 -15.2809100388954 -9.70509089759375e-012
endloop
endfacet
facet normal 7.12022123228377e-017 -1.4836105032331e-017 -1.0
outer loop
vertex 16.0235948729432 -15.4240215684813 -9.71196456589496e-012
vertex 9.83602147058458 -15.2809100388954 -9.70509089759375e-012
vertex 16.8627584219822 -13.3981015473425 -9.71046645870111e-012
endloop
endfacet
facet normal 7.12022123228377e-017 -1.4836105032331e-017 -1.0
outer loop
vertex 16.8627584219822 -13.3981015473425 -9.71046645870111e-012
vertex 9.83602147058458 -15.2809100388954 -9.70509089759375e-012
vertex 10.848981481154 -14.861328264376 -9.70623650897728e-012
endloop
endfacet
facet normal 7.12022123228377e-017 -1.4836105032331e-017 -1.0
outer loop
vertex 16.8627584219822 -13.3981015473425 -9.71046645870111e-012
vertex 10.848981481154 -14.861328264376 -9.70623650897728e-012
vertex 11.7188299621375 -14.1938700494649 -9.71205268984754e-012
endloop
endfacet
facet normal 7.12022123228377e-017 -1.4836105032331e-017 -1.0
outer loop
vertex 16.8627584219822 -13.3981015473425 -9.71046645870111e-012
vertex 11.7188299621375 -14.1938700494649 -9.71205268984754e-012
vertex 12.3862881770486 -13.3240215684813 -9.71205268984754e-012
endloop
endfacet
facet normal 7.12022123228377e-017 -1.4836105032331e-017 -1.0
outer loop
vertex 16.8627584219822 -13.3981015473425 -9.71046645870111e-012
vertex 12.3862881770486 -13.3240215684813 -9.71205268984754e-012
vertex 17.148981481154 -11.2240215684813 -9.71302205332591e-012
endloop
endfacet
facet normal 7.12022123228377e-017 -1.4836105032331e-017 -1.0
outer loop
vertex 17.148981481154 -11.2240215684813 -9.71302205332591e-012
vertex 12.3862881770486 -13.3240215684813 -9.71205268984754e-012
vertex 12.8058699515681 -12.3110615579119 -9.7061483850247e-012
endloop
endfacet
facet normal 7.12022123228377e-017 -1.4836105032331e-017 -1.0
outer loop
vertex 17.148981481154 -11.2240215684813 -9.71302205332591e-012
vertex 12.8058699515681 -12.3110615579119 -9.7061483850247e-012
vertex 12.948981481154 -11.2240215684813 -9.71055458265368e-012
endloop
endfacet
facet normal 7.12022123228377e-017 -1.4836105032331e-017 -1.0
outer loop
vertex 17.148981481154 -11.2240215684813 -9.71302205332591e-012
vertex 12.948981481154 -11.2240215684813 -9.71055458265368e-012
vertex 17.148981481154 -1.53406176650606e-011 -9.71425578866203e-012
endloop
endfacet
facet normal 7.12022123228377e-017 -1.4836105032331e-017 -1.0
outer loop
vertex 17.148981481154 -1.53406176650606e-011 -9.71425578866203e-012
vertex 12.948981481154 -11.2240215684813 -9.71055458265368e-012
vertex 12.8058699515681 -10.1369815790508 -9.70632463292986e-012
endloop
endfacet
facet normal 7.12022123228377e-017 -1.4836105032331e-017 -1.0
outer loop
vertex 17.148981481154 -1.53406176650606e-011 -9.71425578866203e-012
vertex 12.8058699515681 -10.1369815790508 -9.70632463292986e-012
vertex 12.3862881770486 -9.12402156848134 -9.71196456589496e-012
endloop
endfacet
facet normal 7.12022123228377e-017 -1.4836105032331e-017 -1.0
outer loop
vertex 17.148981481154 -1.53406176650606e-011 -9.71425578866203e-012
vertex 12.3862881770486 -9.12402156848134 -9.71196456589496e-012
vertex 11.7188299621375 -8.25417308749791 -9.71196456589496e-012
endloop
endfacet
facet normal 7.12022123228377e-017 -1.4836105032331e-017 -1.0
outer loop
vertex 17.148981481154 -1.53406176650606e-011 -9.71425578866203e-012
vertex 11.7188299621375 -8.25417308749791 -9.71196456589496e-012
vertex 10.848981481154 -7.58671487258671 -9.70632463292986e-012
endloop
endfacet
facet normal 7.12022123228377e-017 -1.4836105032331e-017 -1.0
outer loop
vertex 17.148981481154 -1.53406176650606e-011 -9.71425578866203e-012
vertex 10.848981481154 -7.58671487258671 -9.70632463292986e-012
vertex 9.83602147058456 -7.16713309806727 -9.70473840178343e-012
endloop
endfacet
facet normal -6.85327061910647e-017 1.0 1.65336672878795e-017
outer loop
vertex 9.33602147058454 -1.53434376315431e-011 -9.70465027783085e-012
vertex 17.1489814811539 -1.53406176650606e-011 7.99999999999029
vertex 17.148981481154 -1.53406176650606e-011 -9.71425578866203e-012
endloop
endfacet
facet normal -6.85327061910647e-017 1.0 1.65336672878795e-017
outer loop
vertex 17.1489814811539 -1.53406176650606e-011 7.99999999999029
vertex 9.33602147058454 -1.53434376315431e-011 -9.70465027783085e-012
vertex 9.33602147058454 -1.53434376315431e-011 7.99999999999029
endloop
endfacet
facet normal 0.99144486137381 -0.130526192220051 1.49178796062e-016
outer loop
vertex 17.148981481154 -11.2240215684813 7.99999999999029
vertex 16.8627584219822 -13.3981015473425 -9.71046645870111e-012
vertex 17.148981481154 -11.2240215684813 -9.71302205332591e-012
endloop
endfacet
facet normal 0.965925826289068 -0.258819045102522 8.71491200328114e-017
outer loop
vertex 16.8627584219822 -13.3981015473425 -9.71046645870111e-012
vertex 17.148981481154 -11.2240215684813 7.99999999999029
vertex 16.8627584219821 -13.3981015473425 7.9999999999903
endloop
endfacet
facet normal 0.965925826289068 -0.258819045102522 8.71491200328114e-017
outer loop
vertex 16.8627584219822 -13.3981015473425 -9.71046645870111e-012
vertex 16.0235948729433 -15.4240215684813 7.99999999999029
vertex 16.0235948729432 -15.4240215684813 -9.71196456589496e-012
endloop
endfacet
facet normal 0.866025403784437 -0.500000000000002 1.98127889649076e-017
outer loop
vertex 16.0235948729433 -15.4240215684813 7.99999999999029
vertex 16.8627584219822 -13.3981015473425 -9.71046645870111e-012
vertex 16.8627584219821 -13.3981015473425 7.9999999999903
endloop
endfacet
facet normal 0.866025403784437 -0.500000000000002 1.98127889649076e-017
outer loop
vertex 16.0235948729433 -15.4240215684813 7.99999999999029
vertex 14.688678443121 -17.1637185304483 -9.7117883179898e-012
vertex 16.0235948729432 -15.4240215684813 -9.71196456589496e-012
endloop
endfacet
facet normal 0.707106781186551 -0.707106781186544 1.12358480104094e-017
outer loop
vertex 14.688678443121 -17.1637185304483 -9.7117883179898e-012
vertex 16.0235948729433 -15.4240215684813 7.99999999999029
vertex 14.688678443121 -17.1637185304483 7.99999999999029
endloop
endfacet
facet normal 0.707106781186551 -0.707106781186544 1.12358480104094e-017
outer loop
vertex 14.688678443121 -17.1637185304483 7.99999999999029
vertex 12.948981481154 -18.4986349602706 -9.71046645870111e-012
vertex 14.688678443121 -17.1637185304483 -9.7117883179898e-012
endloop
endfacet
facet normal 0.500000000000004 -0.866025403784436 1.89320258211822e-018
outer loop
vertex 12.948981481154 -18.4986349602706 -9.71046645870111e-012
vertex 14.688678443121 -17.1637185304483 7.99999999999029
vertex 12.948981481154 -18.4986349602706 7.99999999999029
endloop
endfacet
facet normal 0.258819045102517 -0.965925826289069 -7.57846147347937e-018
outer loop
vertex 10.9230614600152 -19.3377985093095 7.99999999999029
vertex 12.948981481154 -18.4986349602706 -9.71046645870111e-012
vertex 12.948981481154 -18.4986349602706 7.99999999999029
endloop
endfacet
facet normal 0.500000000000004 -0.866025403784436 1.89320258211822e-018
outer loop
vertex 12.948981481154 -18.4986349602706 -9.71046645870111e-012
vertex 10.9230614600152 -19.3377985093095 7.99999999999029
vertex 10.9230614600152 -19.3377985093095 -9.71196456589496e-012
endloop
endfacet
facet normal 0.258819045102517 -0.965925826289069 -7.57846147347937e-018
outer loop
vertex 10.9230614600152 -19.3377985093095 7.99999999999029
vertex 8.74898148115398 -19.6240215684813 -9.71081895451142e-012
vertex 10.9230614600152 -19.3377985093095 -9.71196456589496e-012
endloop
endfacet
facet normal 1.96349014720884e-015 -1.0 -1.65336659036968e-017
outer loop
vertex 8.74898148115398 -19.6240215684813 -9.71081895451142e-012
vertex 10.9230614600152 -19.3377985093095 7.99999999999029
vertex 8.74898148115398 -19.6240215684813 7.99999999999029
endloop
endfacet
facet normal -0.258819045102513 -0.96592582628907 -2.43621283256401e-017
outer loop
vertex 6.57490150229281 -19.3377985093095 7.99999999999029
vertex 8.74898148115398 -19.6240215684813 -9.71081895451142e-012
vertex 8.74898148115398 -19.6240215684813 7.99999999999029
endloop
endfacet
facet normal 1.96349014720884e-015 -1.0 -1.65336659036968e-017
outer loop
vertex 8.74898148115398 -19.6240215684813 -9.71081895451142e-012
vertex 6.57490150229281 -19.3377985093095 7.99999999999029
vertex 6.57490150229281 -19.3377985093095 -9.70667712874018e-012
endloop
endfacet
facet normal -0.500000000000002 -0.866025403784438 -3.05303519625477e-017
outer loop
vertex 4.54898148115398 -18.4986349602706 7.99999999999029
vertex 6.57490150229281 -19.3377985093095 -9.70667712874018e-012
vertex 6.57490150229281 -19.3377985093095 7.99999999999029
endloop
endfacet
facet normal -0.258819045102514 -0.96592582628907 -2.43621283256401e-017
outer loop
vertex 6.57490150229281 -19.3377985093095 -9.70667712874018e-012
vertex 4.54898148115398 -18.4986349602706 7.99999999999029
vertex 4.54898148115398 -18.4986349602706 -9.71214081380012e-012
endloop
endfacet
facet normal -0.70710678118655 -0.707106781186546 -3.46179825672617e-017
outer loop
vertex 2.80928451918697 -17.1637185304483 7.99999999999029
vertex 4.54898148115398 -18.4986349602706 -9.71214081380012e-012
vertex 4.54898148115398 -18.4986349602706 7.99999999999029
endloop
endfacet
facet normal -0.500000000000002 -0.866025403784438 -3.05303519625477e-017
outer loop
vertex 4.54898148115398 -18.4986349602706 -9.71214081380012e-012
vertex 2.80928451918697 -17.1637185304483 7.99999999999029
vertex 2.80928451918696 -17.1637185304483 -9.70535526945149e-012
endloop
endfacet
facet normal -0.707106781186549 -0.707106781186546 -3.46179825672617e-017
outer loop
vertex 2.80928451918696 -17.1637185304483 -9.70535526945149e-012
vertex 1.47436808936469 -15.4240215684814 7.99999999999029
vertex 1.47436808936468 -15.4240215684814 -9.70676525269276e-012
endloop
endfacet
facet normal -0.866025403784438 -0.500000000000002 -3.63464548687191e-017
outer loop
vertex 1.47436808936469 -15.4240215684814 7.99999999999029
vertex 2.80928451918696 -17.1637185304483 -9.70535526945149e-012
vertex 2.80928451918697 -17.1637185304483 7.99999999999029
endloop
endfacet
facet normal -0.866025403784438 -0.500000000000002 -3.63464548687191e-017
outer loop
vertex 1.47436808936468 -15.4240215684814 -9.70676525269276e-012
vertex 0.635204540325803 -13.3981015473425 7.99999999999029
vertex 0.635204540325792 -13.3981015473425 -9.71240518565786e-012
endloop
endfacet
facet normal -0.965925826289068 -0.258819045102521 2.5667947058586e-016
outer loop
vertex 0.635204540325803 -13.3981015473425 7.99999999999029
vertex 1.47436808936468 -15.4240215684814 -9.70676525269276e-012
vertex 1.47436808936469 -15.4240215684814 7.99999999999029
endloop
endfacet
facet normal -0.965925826289068 -0.258819045102521 2.5667947058586e-016
outer loop
vertex 0.635204540325803 -13.3981015473425 7.99999999999029
vertex 0.348981481153973 -11.2240215684814 -9.71099520241658e-012
vertex 0.635204540325792 -13.3981015473425 -9.71240518565786e-012
endloop
endfacet
facet normal -0.99144486137381 -0.130526192220053 5.45249702697742e-016
outer loop
vertex 0.348981481153973 -11.2240215684814 -9.71099520241658e-012
vertex 0.635204540325803 -13.3981015473425 7.99999999999029
vertex 0.348981481153975 -11.2240215684814 7.99999999999029
endloop
endfacet
facet normal 1.0 2.94926536928364e-015 3.24235545447421e-017
outer loop
vertex 7.66194149172336 -1.53462575980257e-011 -9.71196456589496e-012
vertex 7.66194149171516 -3.95000000001536 2.43250694413397
vertex 7.66194149172338 -7.16713309806726 -9.71187644194238e-012
endloop
endfacet
facet normal 1.0 2.94926536928364e-015 3.24235545447421e-017
outer loop
vertex 7.66194149171516 -3.95000000001536 2.43250694413397
vertex 7.66194149172336 -1.53462575980257e-011 -9.71196456589496e-012
vertex 7.66194149171516 -3.55649711576094 2.73445232706996
endloop
endfacet
facet normal 1.0 2.94926536928364e-015 3.24235545447421e-017
outer loop
vertex 7.66194149171516 -3.55649711576094 2.73445232706996
vertex 7.66194149172336 -1.53462575980257e-011 -9.71196456589496e-012
vertex 7.66194149171515 -3.25455173282492 3.1279552113244
endloop
endfacet
facet normal 1.0 2.94926536928364e-015 3.24235545447421e-017
outer loop
vertex 7.66194149171515 -3.25455173282492 3.1279552113244
vertex 7.66194149172336 -1.53462575980257e-011 -9.71196456589496e-012
vertex 7.66194149172336 -1.53462575980257e-011 7.99999999999029
endloop
endfacet
facet normal 1.0 2.94926536928364e-015 3.24235545447421e-017
outer loop
vertex 7.66194149172338 -7.16713309806726 -9.71187644194238e-012
vertex 7.66194149171516 -3.95000000001536 2.43250694413397
vertex 7.66194149171516 -4.4082438143206 2.24269614137517
endloop
endfacet
facet normal 1.0 2.94926536928364e-015 3.24235545447421e-017
outer loop
vertex 7.66194149172338 -7.16713309806726 -9.71187644194238e-012
vertex 7.66194149171516 -4.4082438143206 2.24269614137517
vertex 7.66194149171517 -4.90000000001537 2.1779552113244
endloop
endfacet
facet normal 1.0 2.94926536928364e-015 3.24235545447421e-017
outer loop
vertex 7.66194149171515 -3.25455173282492 3.1279552113244
vertex 7.66194149172336 -1.53462575980257e-011 7.99999999999029
vertex 7.66194149171517 -3.06474093006613 3.58619902562961
endloop
endfacet
facet normal 1.0 2.94926536928364e-015 3.24235545447421e-017
outer loop
vertex 7.66194149171517 -3.06474093006613 3.58619902562961
vertex 7.66194149172336 -1.53462575980257e-011 7.99999999999029
vertex 7.66194149171516 -3.00000000001535 4.0779552113244
endloop
endfacet
facet normal 1.0 2.94926536928364e-015 3.24235545447421e-017
outer loop
vertex 7.66194149171516 -3.00000000001535 4.0779552113244
vertex 7.66194149172336 -1.53462575980257e-011 7.99999999999029
vertex 7.66194149171517 -3.06474093006613 4.56971139701919
endloop
endfacet
facet normal 1.0 2.94926536928364e-015 3.24235545447421e-017
outer loop
vertex 7.66194149171517 -3.06474093006613 4.56971139701919
vertex 7.66194149172336 -1.53462575980257e-011 7.99999999999029
vertex 7.66194149171516 -3.55649711576097 5.977955211324
endloop
endfacet
facet normal 1.0 2.94926536928364e-015 3.24235545447421e-017
outer loop
vertex 7.66194149171516 -3.55649711576097 5.977955211324
vertex 7.66194149172336 -1.53462575980257e-011 7.99999999999029
vertex 7.66194149171516 -6.14990237916217 5.9779552113244
endloop
endfacet
facet normal 1.0 2.94926536928364e-015 3.24235545447421e-017
outer loop
vertex 7.66194149172338 -7.16713309806726 -9.71187644194238e-012
vertex 7.66194149171517 -6.80000000001539 4.0779552113244
vertex 7.66194149172338 -7.16713309806726 7.99999999999029
endloop
endfacet
facet normal 1.0 2.94926536928364e-015 3.24235545447421e-017
outer loop
vertex 7.66194149171517 -6.80000000001539 4.0779552113244
vertex 7.66194149172338 -7.16713309806726 -9.71187644194238e-012
vertex 7.66194149171518 -6.73525906996462 3.58619902562961
endloop
endfacet
facet normal 1.0 2.94926536928364e-015 3.24235545447421e-017
outer loop
vertex 7.66194149171518 -6.73525906996462 3.58619902562961
vertex 7.66194149172338 -7.16713309806726 -9.71187644194238e-012
vertex 7.66194149171516 -6.54544826720583 3.1279552113244
endloop
endfacet
facet normal 1.0 2.94926536928364e-015 3.24235545447421e-017
outer loop
vertex 7.66194149171516 -6.54544826720583 3.1279552113244
vertex 7.66194149172338 -7.16713309806726 -9.71187644194238e-012
vertex 7.66194149171516 -6.2435028842698 2.73445232706996
endloop
endfacet
facet normal 1.0 2.94926536928364e-015 3.24235545447421e-017
outer loop
vertex 7.66194149171516 -6.2435028842698 2.73445232706996
vertex 7.66194149172338 -7.16713309806726 -9.71187644194238e-012
vertex 7.66194149171516 -5.85000000001538 2.43250694413397
endloop
endfacet
facet normal 1.0 2.94926536928364e-015 3.24235545447421e-017
outer loop
vertex 7.66194149171516 -5.85000000001538 2.43250694413397
vertex 7.66194149172338 -7.16713309806726 -9.71187644194238e-012
vertex 7.66194149171516 -5.39175618571014 2.24269614137517
endloop
endfacet
facet normal 1.0 2.94926536928364e-015 3.24235545447421e-017
outer loop
vertex 7.66194149171516 -5.39175618571014 2.24269614137517
vertex 7.66194149172338 -7.16713309806726 -9.71187644194238e-012
vertex 7.66194149171517 -4.90000000001537 2.1779552113244
endloop
endfacet
facet normal 1.0 2.94926536928364e-015 3.24235545447421e-017
outer loop
vertex 7.66194149172338 -7.16713309806726 7.99999999999029
vertex 7.66194149171517 -6.80000000001539 4.0779552113244
vertex 7.66194149171517 -6.73525906996462 4.56971139701919
endloop
endfacet
facet normal 1.0 2.94926536928364e-015 3.24235545447421e-017
outer loop
vertex 7.66194149172338 -7.16713309806726 7.99999999999029
vertex 7.66194149171517 -6.73525906996462 4.56971139701919
vertex 7.66194149171516 -6.14990237916217 5.9779552113244
endloop
endfacet
facet normal 1.0 2.94926536928364e-015 3.24235545447421e-017
outer loop
vertex 7.66194149172338 -7.16713309806726 7.99999999999029
vertex 7.66194149171516 -6.14990237916217 5.9779552113244
vertex 7.66194149172336 -1.53462575980257e-011 7.99999999999029
endloop
endfacet
facet normal 0.500000000000005 -0.866025403784436 1.89320258211827e-018
outer loop
vertex 6.64898148115397 -7.5867148725867 7.99999999999029
vertex 7.66194149172338 -7.16713309806726 -9.71187644194238e-012
vertex 7.66194149172338 -7.16713309806726 7.99999999999029
endloop
endfacet
facet normal 0.382683432365085 -0.923879532511289 -2.86715838311156e-018
outer loop
vertex 7.66194149172338 -7.16713309806726 -9.71187644194238e-012
vertex 6.64898148115397 -7.5867148725867 7.99999999999029
vertex 6.64898148115397 -7.5867148725867 -9.71214081380012e-012
endloop
endfacet
facet normal 0.707106781186553 -0.707106781186542 1.12358480104094e-017
outer loop
vertex 5.77913300017048 -8.25417308749787 7.99999999999029
vertex 6.64898148115397 -7.5867148725867 -9.71214081380012e-012
vertex 6.64898148115397 -7.5867148725867 7.99999999999029
endloop
endfacet
facet normal 0.500000000000005 -0.866025403784436 1.89320258211825e-018
outer loop
vertex 6.64898148115397 -7.5867148725867 -9.71214081380012e-012
vertex 5.77913300017048 -8.25417308749787 7.99999999999029
vertex 5.77913300017048 -8.25417308749787 -9.70650088083502e-012
endloop
endfacet
facet normal 0.707106781186553 -0.707106781186542 1.12358480104094e-017
outer loop
vertex 5.77913300017048 -8.25417308749787 -9.70650088083502e-012
vertex 5.11167478525932 -9.12402156848139 7.99999999999029
vertex 5.11167478525932 -9.12402156848139 -9.71055458265368e-012
endloop
endfacet
facet normal 0.866025403784441 -0.499999999999997 1.98127889649078e-017
outer loop
vertex 5.11167478525932 -9.12402156848139 7.99999999999029
vertex 5.77913300017048 -8.25417308749787 -9.70650088083502e-012
vertex 5.77913300017048 -8.25417308749787 7.99999999999029
endloop
endfacet
facet normal 0.866025403784441 -0.499999999999996 1.98127889649078e-017
outer loop
vertex 5.11167478525932 -9.12402156848139 -9.71055458265368e-012
vertex 4.69209301073989 -10.1369815790508 7.99999999999029
vertex 4.69209301073988 -10.1369815790508 -9.7122289377527e-012
endloop
endfacet
facet normal 0.96592582628907 -0.258819045102514 2.70395210936298e-017
outer loop
vertex 4.69209301073989 -10.1369815790508 7.99999999999029
vertex 5.11167478525932 -9.12402156848139 -9.71055458265368e-012
vertex 5.11167478525932 -9.12402156848139 7.99999999999029
endloop
endfacet
facet normal 0.96592582628907 -0.258819045102514 2.70395210936298e-017
outer loop
vertex 4.69209301073989 -10.1369815790508 7.99999999999029
vertex 4.54898148115397 -11.2240215684813 -9.7122289377527e-012
vertex 4.69209301073988 -10.1369815790508 -9.7122289377527e-012
endloop
endfacet
facet normal 1.0 -9.32620568876406e-016 3.2423554544742e-017
outer loop
vertex 4.54898148115397 -11.2240215684813 -9.7122289377527e-012
vertex 4.69209301073989 -10.1369815790508 7.99999999999029
vertex 4.54898148115398 -11.2240215684813 7.99999999999029
endloop
endfacet
facet normal 1.0 -9.2370945898076e-016 3.2423554544742e-017
outer loop
vertex 4.54898148115398 -11.2240215684813 7.99999999999029
vertex 4.69209301073989 -12.311061557912 -9.71205268984754e-012
vertex 4.54898148115397 -11.2240215684813 -9.7122289377527e-012
endloop
endfacet
facet normal 0.96592582628907 0.258819045102515 3.55979763360876e-017
outer loop
vertex 4.69209301073989 -12.311061557912 -9.71205268984754e-012
vertex 4.54898148115398 -11.2240215684813 7.99999999999029
vertex 4.69209301073989 -12.311061557912 7.99999999999029
endloop
endfacet
facet normal 0.96592582628907 0.258819045102515 3.55979763360877e-017
outer loop
vertex 4.69209301073989 -12.311061557912 7.99999999999029
vertex 5.11167478525932 -13.3240215684814 -9.71064270660626e-012
vertex 4.69209301073989 -12.311061557912 -9.71205268984754e-012
endloop
endfacet
facet normal 0.866025403784433 0.50000000000001 3.63464548685663e-017
outer loop
vertex 5.11167478525932 -13.3240215684814 -9.71064270660626e-012
vertex 4.69209301073989 -12.311061557912 7.99999999999029
vertex 5.11167478525932 -13.3240215684814 7.99999999999029
endloop
endfacet
facet normal 0.866025403784433 0.500000000000011 3.63464548685663e-017
outer loop
vertex 5.11167478525932 -13.3240215684814 7.99999999999029
vertex 5.77913300017048 -14.1938700494649 -9.70641275688244e-012
vertex 5.11167478525932 -13.3240215684814 -9.71064270660626e-012
endloop
endfacet
facet normal 0.707106781186546 0.707106781186549 3.46179825671088e-017
outer loop
vertex 5.77913300017048 -14.1938700494649 -9.70641275688244e-012
vertex 5.11167478525932 -13.3240215684814 7.99999999999029
vertex 5.77913300017049 -14.1938700494649 7.99999999999029
endloop
endfacet
facet normal 0.707106781186546 0.707106781186549 3.46179825671088e-017
outer loop
vertex 5.77913300017048 -14.1938700494649 -9.70641275688244e-012
vertex 6.64898148115396 -14.861328264376 7.99999999999029
vertex 6.64898148115396 -14.861328264376 -9.7122289377527e-012
endloop
endfacet
facet normal 0.500000000000008 0.866025403784434 3.05303519625478e-017
outer loop
vertex 6.64898148115396 -14.861328264376 7.99999999999029
vertex 5.77913300017048 -14.1938700494649 -9.70641275688244e-012
vertex 5.77913300017049 -14.1938700494649 7.99999999999029
endloop
endfacet
facet normal 0.500000000000007 0.866025403784435 3.05303519625478e-017
outer loop
vertex 6.64898148115396 -14.861328264376 -9.7122289377527e-012
vertex 7.66194149172339 -15.2809100388954 7.99999999999029
vertex 7.66194149172339 -15.2809100388954 -9.7122289377527e-012
endloop
endfacet
facet normal 0.258819045102511 0.965925826289071 2.43621283256019e-017
outer loop
vertex 7.66194149172339 -15.2809100388954 7.99999999999029
vertex 6.64898148115396 -14.861328264376 -9.7122289377527e-012
vertex 6.64898148115396 -14.861328264376 7.99999999999029
endloop
endfacet
facet normal -1.44664577326132e-015 1.0 1.65336659036968e-017
outer loop
vertex 8.74898148115398 -15.4240215684813 -9.71055458265368e-012
vertex 7.66194149172339 -15.2809100388954 7.99999999999029
vertex 8.74898148115398 -15.4240215684813 7.99999999999029
endloop
endfacet
facet normal 0.258819045102511 0.965925826289071 2.43621283256019e-017
outer loop
vertex 7.66194149172339 -15.2809100388954 7.99999999999029
vertex 8.74898148115398 -15.4240215684813 -9.71055458265368e-012
vertex 7.66194149172339 -15.2809100388954 -9.7122289377527e-012
endloop
endfacet
facet normal -1.44664577326132e-015 1.0 1.65336659036968e-017
outer loop
vertex 8.74898148115398 -15.4240215684813 -9.71055458265368e-012
vertex 9.83602147058458 -15.2809100388954 7.99999999999029
vertex 9.83602147058458 -15.2809100388954 -9.70509089759375e-012
endloop
endfacet
facet normal -0.258819045102519 0.965925826289069 7.57846147344111e-018
outer loop
vertex 9.83602147058458 -15.2809100388954 7.99999999999029
vertex 8.74898148115398 -15.4240215684813 -9.71055458265368e-012
vertex 8.74898148115398 -15.4240215684813 7.99999999999029
endloop
endfacet
facet normal -0.258819045102519 0.965925826289069 7.57846147344112e-018
outer loop
vertex 9.83602147058458 -15.2809100388954 -9.70509089759375e-012
vertex 10.848981481154 -14.861328264376 7.99999999999029
vertex 10.848981481154 -14.861328264376 -9.70623650897728e-012
endloop
endfacet
facet normal -0.499999999999994 0.866025403784442 -1.89320258219418e-018
outer loop
vertex 10.848981481154 -14.861328264376 7.99999999999029
vertex 9.83602147058458 -15.2809100388954 -9.70509089759375e-012
vertex 9.83602147058458 -15.2809100388954 7.99999999999029
endloop
endfacet
facet normal -0.499999999999995 0.866025403784442 -1.8932025821942e-018
outer loop
vertex 10.848981481154 -14.861328264376 -9.70623650897728e-012
vertex 11.7188299621375 -14.1938700494649 7.99999999999029
vertex 11.7188299621375 -14.1938700494649 -9.71205268984754e-012
endloop
endfacet
facet normal -0.707106781186541 0.707106781186554 -1.12358480104089e-017
outer loop
vertex 11.7188299621375 -14.1938700494649 7.99999999999029
vertex 10.848981481154 -14.861328264376 -9.70623650897728e-012
vertex 10.848981481154 -14.861328264376 7.99999999999029
endloop
endfacet
facet normal -0.707106781186541 0.707106781186554 -1.12358480104089e-017
outer loop
vertex 11.7188299621375 -14.1938700494649 7.99999999999029
vertex 12.3862881770486 -13.3240215684813 -9.71205268984754e-012
vertex 11.7188299621375 -14.1938700494649 -9.71205268984754e-012
endloop
endfacet
facet normal -0.866025403784441 0.499999999999997 -1.98127889649078e-017
outer loop
vertex 12.3862881770486 -13.3240215684813 -9.71205268984754e-012
vertex 11.7188299621375 -14.1938700494649 7.99999999999029
vertex 12.3862881770486 -13.3240215684813 7.99999999999029
endloop
endfacet
facet normal -0.866025403784441 0.499999999999996 -1.98127889649078e-017
outer loop
vertex 12.3862881770486 -13.3240215684813 7.99999999999029
vertex 12.8058699515681 -12.3110615579119 -9.7061483850247e-012
vertex 12.3862881770486 -13.3240215684813 -9.71205268984754e-012
endloop
endfacet
facet normal -0.965925826289071 0.258819045102512 -2.70395210936298e-017
outer loop
vertex 12.8058699515681 -12.3110615579119 -9.7061483850247e-012
vertex 12.3862881770486 -13.3240215684813 7.99999999999029
vertex 12.8058699515681 -12.3110615579119 7.99999999999029
endloop
endfacet
facet normal -0.965925826289071 0.258819045102512 -2.70395210936298e-017
outer loop
vertex 12.8058699515681 -12.3110615579119 -9.7061483850247e-012
vertex 12.948981481154 -11.2240215684813 7.99999999999029
vertex 12.948981481154 -11.2240215684813 -9.71055458265368e-012
endloop
endfacet
facet normal -1.0 -4.47642313778125e-015 -3.24235545447421e-017
outer loop
vertex 12.948981481154 -11.2240215684813 7.99999999999029
vertex 12.8058699515681 -12.3110615579119 -9.7061483850247e-012
vertex 12.8058699515681 -12.3110615579119 7.99999999999029
endloop
endfacet
facet normal -1.0 -4.47642313778125e-015 -3.24235545447421e-017
outer loop
vertex 12.948981481154 -11.2240215684813 7.99999999999029
vertex 12.8058699515681 -10.1369815790508 -9.70632463292986e-012
vertex 12.948981481154 -11.2240215684813 -9.71055458265368e-012
endloop
endfacet
facet normal -0.965925826289069 -0.258819045102518 -3.55979763360877e-017
outer loop
vertex 12.8058699515681 -10.1369815790508 -9.70632463292986e-012
vertex 12.948981481154 -11.2240215684813 7.99999999999029
vertex 12.8058699515681 -10.1369815790508 7.99999999999029
endloop
endfacet
facet normal -0.965925826289069 -0.258819045102518 -3.55979763360877e-017
outer loop
vertex 12.8058699515681 -10.1369815790508 -9.70632463292986e-012
vertex 12.3862881770486 -9.12402156848134 7.99999999999029
vertex 12.3862881770486 -9.12402156848134 -9.71196456589496e-012
endloop
endfacet
facet normal -0.866025403784437 -0.500000000000003 -3.63464548685663e-017
outer loop
vertex 12.3862881770486 -9.12402156848134 7.99999999999029
vertex 12.8058699515681 -10.1369815790508 -9.70632463292986e-012
vertex 12.8058699515681 -10.1369815790508 7.99999999999029
endloop
endfacet
facet normal -0.866025403784437 -0.500000000000003 -3.63464548685663e-017
outer loop
vertex 12.3862881770486 -9.12402156848134 7.99999999999029
vertex 11.7188299621375 -8.25417308749791 -9.71196456589496e-012
vertex 12.3862881770486 -9.12402156848134 -9.71196456589496e-012
endloop
endfacet
facet normal -0.707106781186555 -0.70710678118654 -3.4617982567109e-017
outer loop
vertex 11.7188299621375 -8.25417308749791 -9.71196456589496e-012
vertex 12.3862881770486 -9.12402156848134 7.99999999999029
vertex 11.7188299621375 -8.25417308749791 6.4361796935622
endloop
endfacet
facet normal -0.707106781186555 -0.70710678118654 -3.4617982567109e-017
outer loop
vertex 11.7188299621375 -8.25417308749791 6.4361796935622
vertex 12.3862881770486 -9.12402156848134 7.99999999999029
vertex 11.7188299621375 -8.25417308749791 7.99999999999029
endloop
endfacet
facet normal -0.500000000000014 -0.866025403784431 -3.05303519626243e-017
outer loop
vertex 10.848981481154 -7.58671487258671 7.99999999999029
vertex 11.7188299621375 -8.25417308749791 6.4361796935622
vertex 11.7188299621375 -8.25417308749791 7.99999999999029
endloop
endfacet
facet normal -0.707106781186555 -0.70710678118654 -3.4617982567109e-017
outer loop
vertex 11.7188299621375 -8.25417308749791 6.4361796935622
vertex 10.848981481154 -7.58671487258671 -9.70632463292986e-012
vertex 11.7188299621375 -8.25417308749791 -9.71196456589496e-012
endloop
endfacet
facet normal -0.500000000000014 -0.866025403784431 -3.05303519626244e-017
outer loop
vertex 10.848981481154 -7.58671487258671 -9.70632463292986e-012
vertex 11.7188299621375 -8.25417308749791 6.4361796935622
vertex 10.848981481154 -7.58671487258671 7.99999999999029
endloop
endfacet
facet normal -0.382683432365089 -0.923879532511287 -2.76830726684285e-017
outer loop
vertex 9.83602147058456 -7.16713309806727 7.99999999999029
vertex 10.848981481154 -7.58671487258671 -9.70632463292986e-012
vertex 10.848981481154 -7.58671487258671 7.99999999999029
endloop
endfacet
facet normal -0.500000000000014 -0.866025403784431 -3.05303519626244e-017
outer loop
vertex 10.848981481154 -7.58671487258671 -9.70632463292986e-012
vertex 9.83602147058456 -7.16713309806727 7.99999999999029
vertex 9.83602147058456 -7.16713309806727 -9.70473840178343e-012
endloop
endfacet
facet normal -2.37036998142938e-016 1.0 6.3140024870329e-016
outer loop
vertex 17.1489814811457 -6.8000000000154 4.0779552113244
vertex 9.33602147057636 -6.73525906996462 4.56971139701919
vertex 17.1489814811457 -6.73525906996462 4.56971139701919
endloop
endfacet
facet normal -2.26586402366253e-016 0.991444861373809 -0.13052619222006
outer loop
vertex 9.33602147057636 -6.73525906996462 4.56971139701919
vertex 17.1489814811457 -6.8000000000154 4.0779552113244
vertex 9.33602147057636 -6.8000000000154 4.0779552113244
endloop
endfacet
facet normal -2.16294132560697e-016 0.965925826289069 0.258819045102519
outer loop
vertex 9.33602147057636 -6.73525906996462 3.58619902562961
vertex 17.1489814811457 -6.8000000000154 4.0779552113244
vertex 17.1489814811458 -6.73525906996462 3.58619902562961
endloop
endfacet
facet normal -2.37036998142938e-016 1.0 6.3140024870329e-016
outer loop
vertex 17.1489814811457 -6.8000000000154 4.0779552113244
vertex 9.33602147057636 -6.73525906996462 3.58619902562961
vertex 9.33602147057636 -6.8000000000154 4.0779552113244
endloop
endfacet
facet normal -1.57115528189789e-016 0.866025403784429 0.500000000000016
outer loop
vertex 17.1489814811458 -6.54544826720583 3.1279552113244
vertex 9.33602147057636 -6.73525906996462 3.58619902562961
vertex 17.1489814811458 -6.73525906996462 3.58619902562961
endloop
endfacet
facet normal -2.16294132560697e-016 0.965925826289069 0.258819045102519
outer loop
vertex 9.33602147057636 -6.73525906996462 3.58619902562961
vertex 17.1489814811458 -6.54544826720583 3.1279552113244
vertex 9.33602147057635 -6.54544826720583 3.1279552113244
endloop
endfacet
facet normal -9.42094011064237e-017 0.707106781186538 0.707106781186557
outer loop
vertex 17.1489814811457 -6.24350288426981 2.73445232706996
vertex 9.33602147057635 -6.54544826720583 3.1279552113244
vertex 17.1489814811458 -6.54544826720583 3.1279552113244
endloop
endfacet
facet normal -1.57115528189788e-016 0.866025403784428 0.500000000000018
outer loop
vertex 9.33602147057635 -6.54544826720583 3.1279552113244
vertex 17.1489814811457 -6.24350288426981 2.73445232706996
vertex 9.33602147057634 -6.24350288426981 2.73445232706996
endloop
endfacet
facet normal -2.45061911113736e-017 0.500000000000001 0.866025403784438
outer loop
vertex 17.1489814811458 -5.85000000001539 2.43250694413397
vertex 9.33602147057634 -6.24350288426981 2.73445232706996
vertex 17.1489814811457 -6.24350288426981 2.73445232706996
endloop
endfacet
facet normal -9.42094011064237e-017 0.707106781186538 0.707106781186557
outer loop
vertex 9.33602147057634 -6.24350288426981 2.73445232706996
vertex 17.1489814811458 -5.85000000001539 2.43250694413397
vertex 9.33602147057635 -5.85000000001539 2.43250694413397
endloop
endfacet
facet normal 4.66522263354756e-017 0.258819045102512 0.965925826289071
outer loop
vertex 17.1489814811457 -5.39175618571015 2.24269614137517
vertex 9.33602147057635 -5.85000000001539 2.43250694413397
vertex 17.1489814811458 -5.85000000001539 2.43250694413397
endloop
endfacet
facet normal -2.45061911113738e-017 0.500000000000001 0.866025403784438
outer loop
vertex 9.33602147057635 -5.85000000001539 2.43250694413397
vertex 17.1489814811457 -5.39175618571015 2.24269614137517
vertex 9.33602147057634 -5.39175618571015 2.24269614137517
endloop
endfacet
facet normal 1.59047893674997e-016 1.17132982531047e-016 1.0
outer loop
vertex 17.1489814811458 -4.90000000001538 2.1779552113244
vertex 9.33602147057634 -5.39175618571015 2.24269614137517
vertex 17.1489814811457 -5.39175618571015 2.24269614137517
endloop
endfacet
facet normal 4.66522263354757e-017 0.258819045102512 0.965925826289071
outer loop
vertex 9.33602147057634 -5.39175618571015 2.24269614137517
vertex 17.1489814811458 -4.90000000001538 2.1779552113244
vertex 9.33602147057635 -4.90000000001538 2.1779552113244
endloop
endfacet
facet normal 2.62178070872946e-016 -0.258819045102512 0.965925826289071
outer loop
vertex 17.1489814811457 -4.40824381432061 2.24269614137517
vertex 9.33602147057635 -4.90000000001538 2.1779552113244
vertex 17.1489814811458 -4.90000000001538 2.1779552113244
endloop
endfacet
facet normal 1.59047893674998e-016 -8.18533556511869e-016 1.0
outer loop
vertex 9.33602147057635 -4.90000000001538 2.1779552113244
vertex 17.1489814811457 -4.40824381432061 2.24269614137517
vertex 9.33602147057634 -4.40824381432061 2.24269614137517
endloop
endfacet
facet normal 2.48090888160685e-016 -0.500000000000001 0.866025403784438
outer loop
vertex 17.1489814811457 -3.95000000001537 2.43250694413397
vertex 9.33602147057634 -4.40824381432061 2.24269614137517
vertex 17.1489814811457 -4.40824381432061 2.24269614137517
endloop
endfacet
facet normal 2.62178070872946e-016 -0.258819045102513 0.96592582628907
outer loop
vertex 9.33602147057634 -4.40824381432061 2.24269614137517
vertex 17.1489814811457 -3.95000000001537 2.43250694413397
vertex 9.33602147057634 -3.95000000001537 2.43250694413397
endloop
endfacet
facet normal 2.67549662169531e-016 -0.707106781186539 0.707106781186556
outer loop
vertex 17.1489814811457 -3.55649711576095 2.73445232706996
vertex 9.33602147057634 -3.95000000001537 2.43250694413397
vertex 17.1489814811457 -3.95000000001537 2.43250694413397
endloop
endfacet
facet normal 2.48090888160685e-016 -0.5 0.866025403784439
outer loop
vertex 9.33602147057634 -3.95000000001537 2.43250694413397
vertex 17.1489814811457 -3.55649711576095 2.73445232706996
vertex 9.33602147057635 -3.55649711576095 2.73445232706996
endloop
endfacet
facet normal 3.01512352713234e-016 -0.866025403784429 0.500000000000017
outer loop
vertex 9.33602147057634 -3.25455173282492 3.1279552113244
vertex 17.1489814811457 -3.55649711576095 2.73445232706996
vertex 17.1489814811457 -3.25455173282492 3.1279552113244
endloop
endfacet
facet normal 2.67549662169531e-016 -0.707106781186539 0.707106781186556
outer loop
vertex 17.1489814811457 -3.55649711576095 2.73445232706996
vertex 9.33602147057634 -3.25455173282492 3.1279552113244
vertex 9.33602147057635 -3.55649711576095 2.73445232706996
endloop
endfacet
facet normal 2.64252591149146e-016 -0.965925826289069 0.258819045102519
outer loop
vertex 9.33602147057635 -3.06474093006613 3.58619902562961
vertex 17.1489814811457 -3.25455173282492 3.1279552113244
vertex 17.1489814811458 -3.06474093006613 3.58619902562961
endloop
endfacet
facet normal 3.01512352713234e-016 -0.86602540378443 0.500000000000016
outer loop
vertex 17.1489814811457 -3.25455173282492 3.1279552113244
vertex 9.33602147057635 -3.06474093006613 3.58619902562961
vertex 9.33602147057634 -3.25455173282492 3.1279552113244
endloop
endfacet
facet normal 3.18068967016297e-016 -1.0 1.19537727990431e-015
outer loop
vertex 17.1489814811457 -3.00000000001536 4.0779552113244
vertex 9.33602147057635 -3.06474093006613 3.58619902562961
vertex 17.1489814811458 -3.06474093006613 3.58619902562961
endloop
endfacet
facet normal 2.64252591149146e-016 -0.965925826289069 0.258819045102519
outer loop
vertex 9.33602147057635 -3.06474093006613 3.58619902562961
vertex 17.1489814811457 -3.00000000001536 4.0779552113244
vertex 9.33602147057635 -3.00000000001536 4.0779552113244
endloop
endfacet
facet normal 3.8111769247775e-016 -0.991444861373809 -0.130526192220059
outer loop
vertex 9.33602147057635 -3.06474093006613 4.56971139701919
vertex 17.1489814811457 -3.00000000001536 4.0779552113244
vertex 17.1489814811457 -3.06474093006613 4.56971139701919
endloop
endfacet
facet normal 3.18068967016297e-016 -1.0 1.19537727990431e-015
outer loop
vertex 17.1489814811457 -3.00000000001536 4.0779552113244
vertex 9.33602147057635 -3.06474093006613 4.56971139701919
vertex 9.33602147057635 -3.00000000001536 4.0779552113244
endloop
endfacet
facet normal -5.69021647689642e-017 -8.58872158318401e-018 1.0
outer loop
vertex 16.0235948729433 -15.4240215684813 7.99999999999029
vertex 9.83602147058458 -15.2809100388954 7.99999999999029
vertex 8.74898148115398 -15.4240215684813 7.99999999999029
endloop
endfacet
facet normal -5.69021647689642e-017 -8.58872158318401e-018 1.0
outer loop
vertex 9.83602147058458 -15.2809100388954 7.99999999999029
vertex 16.0235948729433 -15.4240215684813 7.99999999999029
vertex 16.8627584219821 -13.3981015473425 7.9999999999903
endloop
endfacet
facet normal -5.69021647689642e-017 -8.58872158318401e-018 1.0
outer loop
vertex 9.83602147058458 -15.2809100388954 7.99999999999029
vertex 16.8627584219821 -13.3981015473425 7.9999999999903
vertex 10.848981481154 -14.861328264376 7.99999999999029
endloop
endfacet
facet normal -5.69021647689642e-017 -8.58872158318401e-018 1.0
outer loop
vertex 10.848981481154 -14.861328264376 7.99999999999029
vertex 16.8627584219821 -13.3981015473425 7.9999999999903
vertex 11.7188299621375 -14.1938700494649 7.99999999999029
endloop
endfacet
facet normal -5.69021647689642e-017 -8.58872158318401e-018 1.0
outer loop
vertex 11.7188299621375 -14.1938700494649 7.99999999999029
vertex 16.8627584219821 -13.3981015473425 7.9999999999903
vertex 12.3862881770486 -13.3240215684813 7.99999999999029
endloop
endfacet
facet normal -5.69021647689642e-017 -8.58872158318401e-018 1.0
outer loop
vertex 12.3862881770486 -13.3240215684813 7.99999999999029
vertex 16.8627584219821 -13.3981015473425 7.9999999999903
vertex 17.148981481154 -11.2240215684813 7.99999999999029
endloop
endfacet
facet normal -5.69021647689642e-017 -8.58872158318401e-018 1.0
outer loop
vertex 12.3862881770486 -13.3240215684813 7.99999999999029
vertex 17.148981481154 -11.2240215684813 7.99999999999029
vertex 12.8058699515681 -12.3110615579119 7.99999999999029
endloop
endfacet
facet normal -5.69021647689642e-017 -8.58872158318401e-018 1.0
outer loop
vertex 12.8058699515681 -12.3110615579119 7.99999999999029
vertex 17.148981481154 -11.2240215684813 7.99999999999029
vertex 12.948981481154 -11.2240215684813 7.99999999999029
endloop
endfacet
facet normal -5.69021647689642e-017 -8.58872158318401e-018 1.0
outer loop
vertex 12.948981481154 -11.2240215684813 7.99999999999029
vertex 17.148981481154 -11.2240215684813 7.99999999999029
vertex 17.1489814811539 -1.53406176650606e-011 7.99999999999029
endloop
endfacet
facet normal -5.69021647689642e-017 -8.58872158318401e-018 1.0
outer loop
vertex 12.948981481154 -11.2240215684813 7.99999999999029
vertex 17.1489814811539 -1.53406176650606e-011 7.99999999999029
vertex 12.8058699515681 -10.1369815790508 7.99999999999029
endloop
endfacet
facet normal -5.69021647689642e-017 -8.58872158318401e-018 1.0
outer loop
vertex 12.8058699515681 -10.1369815790508 7.99999999999029
vertex 17.1489814811539 -1.53406176650606e-011 7.99999999999029
vertex 12.3862881770486 -9.12402156848134 7.99999999999029
endloop
endfacet
facet normal -5.69021647689642e-017 -8.58872158318401e-018 1.0
outer loop
vertex 12.3862881770486 -9.12402156848134 7.99999999999029
vertex 17.1489814811539 -1.53406176650606e-011 7.99999999999029
vertex 11.7188299621375 -8.25417308749791 7.99999999999029
endloop
endfacet
facet normal -5.69021647689642e-017 -8.58872158318401e-018 1.0
outer loop
vertex 11.7188299621375 -8.25417308749791 7.99999999999029
vertex 17.1489814811539 -1.53406176650606e-011 7.99999999999029
vertex 10.848981481154 -7.58671487258671 7.99999999999029
endloop
endfacet
facet normal -5.69021647689642e-017 -8.58872158318401e-018 1.0
outer loop
vertex 10.848981481154 -7.58671487258671 7.99999999999029
vertex 17.1489814811539 -1.53406176650606e-011 7.99999999999029
vertex 9.83602147058456 -7.16713309806727 7.99999999999029
endloop
endfacet
facet normal -5.69021647689642e-017 -8.58872158318401e-018 1.0
outer loop
vertex 9.83602147058456 -7.16713309806727 7.99999999999029
vertex 9.33602147058454 -1.53434376315431e-011 7.99999999999029
vertex 9.33602147058456 -7.16713309806727 7.99999999999029
endloop
endfacet
facet normal -5.69021647689642e-017 -8.58872158318401e-018 1.0
outer loop
vertex 9.33602147058454 -1.53434376315431e-011 7.99999999999029
vertex 9.83602147058456 -7.16713309806727 7.99999999999029
vertex 17.1489814811539 -1.53406176650606e-011 7.99999999999029
endloop
endfacet
facet normal -5.69021647689642e-017 -8.58872158318401e-018 1.0
outer loop
vertex 10.9230614600152 -19.3377985093095 7.99999999999029
vertex 6.57490150229281 -19.3377985093095 7.99999999999029
vertex 8.74898148115398 -19.6240215684813 7.99999999999029
endloop
endfacet
facet normal -5.69021647689642e-017 -8.58872158318401e-018 1.0
outer loop
vertex 6.57490150229281 -19.3377985093095 7.99999999999029
vertex 10.9230614600152 -19.3377985093095 7.99999999999029
vertex 12.948981481154 -18.4986349602706 7.99999999999029
endloop
endfacet
facet normal -5.69021647689642e-017 -8.58872158318401e-018 1.0
outer loop
vertex 6.57490150229281 -19.3377985093095 7.99999999999029
vertex 12.948981481154 -18.4986349602706 7.99999999999029
vertex 4.54898148115398 -18.4986349602706 7.99999999999029
endloop
endfacet
facet normal -5.69021647689642e-017 -8.58872158318401e-018 1.0
outer loop
vertex 4.54898148115398 -18.4986349602706 7.99999999999029
vertex 12.948981481154 -18.4986349602706 7.99999999999029
vertex 14.688678443121 -17.1637185304483 7.99999999999029
endloop
endfacet
facet normal -5.69021647689642e-017 -8.58872158318401e-018 1.0
outer loop
vertex 4.54898148115398 -18.4986349602706 7.99999999999029
vertex 14.688678443121 -17.1637185304483 7.99999999999029
vertex 2.80928451918697 -17.1637185304483 7.99999999999029
endloop
endfacet
facet normal -5.69021647689642e-017 -8.58872158318401e-018 1.0
outer loop
vertex 2.80928451918697 -17.1637185304483 7.99999999999029
vertex 14.688678443121 -17.1637185304483 7.99999999999029
vertex 1.47436808936469 -15.4240215684814 7.99999999999029
endloop
endfacet
facet normal -5.69021647689642e-017 -8.58872158318401e-018 1.0
outer loop
vertex 1.47436808936469 -15.4240215684814 7.99999999999029
vertex 14.688678443121 -17.1637185304483 7.99999999999029
vertex 16.0235948729433 -15.4240215684813 7.99999999999029
endloop
endfacet
facet normal -5.69021647689642e-017 -8.58872158318401e-018 1.0
outer loop
vertex 1.47436808936469 -15.4240215684814 7.99999999999029
vertex 16.0235948729433 -15.4240215684813 7.99999999999029
vertex 8.74898148115398 -15.4240215684813 7.99999999999029
endloop
endfacet
facet normal -5.69021647689642e-017 -8.58872158318401e-018 1.0
outer loop
vertex 1.47436808936469 -15.4240215684814 7.99999999999029
vertex 8.74898148115398 -15.4240215684813 7.99999999999029
vertex 7.66194149172339 -15.2809100388954 7.99999999999029
endloop
endfacet
facet normal -5.69021647689642e-017 -8.58872158318401e-018 1.0
outer loop
vertex 1.47436808936469 -15.4240215684814 7.99999999999029
vertex 7.66194149172339 -15.2809100388954 7.99999999999029
vertex 0.635204540325803 -13.3981015473425 7.99999999999029
endloop
endfacet
facet normal -5.69021647689642e-017 -8.58872158318401e-018 1.0
outer loop
vertex 0.635204540325803 -13.3981015473425 7.99999999999029
vertex 7.66194149172339 -15.2809100388954 7.99999999999029
vertex 6.64898148115396 -14.861328264376 7.99999999999029
endloop
endfacet
facet normal -5.69021647689642e-017 -8.58872158318401e-018 1.0
outer loop
vertex 0.635204540325803 -13.3981015473425 7.99999999999029
vertex 6.64898148115396 -14.861328264376 7.99999999999029
vertex 5.77913300017049 -14.1938700494649 7.99999999999029
endloop
endfacet
facet normal -5.69021647689642e-017 -8.58872158318401e-018 1.0
outer loop
vertex 0.635204540325803 -13.3981015473425 7.99999999999029
vertex 5.77913300017049 -14.1938700494649 7.99999999999029
vertex 5.11167478525932 -13.3240215684814 7.99999999999029
endloop
endfacet
facet normal -5.69021647689642e-017 -8.58872158318401e-018 1.0
outer loop
vertex 0.635204540325803 -13.3981015473425 7.99999999999029
vertex 5.11167478525932 -13.3240215684814 7.99999999999029
vertex 0.348981481153975 -11.2240215684814 7.99999999999029
endloop
endfacet
facet normal -5.69021647689642e-017 -8.58872158318401e-018 1.0
outer loop
vertex 0.348981481153975 -11.2240215684814 7.99999999999029
vertex 5.11167478525932 -13.3240215684814 7.99999999999029
vertex 4.69209301073989 -12.311061557912 7.99999999999029
endloop
endfacet
facet normal -5.69021647689642e-017 -8.58872158318401e-018 1.0
outer loop
vertex 0.348981481153975 -11.2240215684814 7.99999999999029
vertex 4.69209301073989 -12.311061557912 7.99999999999029
vertex 4.54898148115398 -11.2240215684813 7.99999999999029
endloop
endfacet
facet normal -5.69021647689642e-017 -8.58872158318401e-018 1.0
outer loop
vertex 0.348981481153975 -11.2240215684814 7.99999999999029
vertex 4.54898148115398 -11.2240215684813 7.99999999999029
vertex 0.348981481153973 -9.80000000001541 7.99999999999029
endloop
endfacet
facet normal -5.69021647689642e-017 -8.58872158318401e-018 1.0
outer loop
vertex 0.348981481153973 -9.80000000001541 7.99999999999029
vertex 4.54898148115398 -11.2240215684813 7.99999999999029
vertex 4.69209301073989 -10.1369815790508 7.99999999999029
endloop
endfacet
facet normal -5.69021647689642e-017 -8.58872158318401e-018 1.0
outer loop
vertex 0.348981481153973 -9.80000000001541 7.99999999999029
vertex 4.69209301073989 -10.1369815790508 7.99999999999029
vertex 5.11167478525932 -9.12402156848139 7.99999999999029
endloop
endfacet
facet normal -5.69021647689642e-017 -8.58872158318401e-018 1.0
outer loop
vertex 0.348981481153973 -9.80000000001541 7.99999999999029
vertex -5.57281261449653 -1.53744572628511e-011 7.99999999999029
vertex -5.57281261449651 -9.80000000001542 7.99999999999029
endloop
endfacet
facet normal -5.69021647689642e-017 -8.58872158318401e-018 1.0
outer loop
vertex -5.57281261449653 -1.53744572628511e-011 7.99999999999029
vertex 0.348981481153973 -9.80000000001541 7.99999999999029
vertex 5.11167478525932 -9.12402156848139 7.99999999999029
endloop
endfacet
facet normal -5.69021647689642e-017 -8.58872158318401e-018 1.0
outer loop
vertex -5.57281261449653 -1.53744572628511e-011 7.99999999999029
vertex 5.11167478525932 -9.12402156848139 7.99999999999029
vertex 5.77913300017048 -8.25417308749787 7.99999999999029
endloop
endfacet
facet normal -5.69021647689642e-017 -8.58872158318401e-018 1.0
outer loop
vertex -5.57281261449653 -1.53744572628511e-011 7.99999999999029
vertex 5.77913300017048 -8.25417308749787 7.99999999999029
vertex 6.64898148115397 -7.5867148725867 7.99999999999029
endloop
endfacet
facet normal -5.69021647689642e-017 -8.58872158318401e-018 1.0
outer loop
vertex -5.57281261449653 -1.53744572628511e-011 7.99999999999029
vertex 6.64898148115397 -7.5867148725867 7.99999999999029
vertex 7.66194149172338 -7.16713309806726 7.99999999999029
endloop
endfacet
facet normal -5.69021647689642e-017 -8.58872158318401e-018 1.0
outer loop
vertex -5.57281261449653 -1.53744572628511e-011 7.99999999999029
vertex 7.66194149172338 -7.16713309806726 7.99999999999029
vertex 7.66194149172336 -1.53462575980257e-011 7.99999999999029
endloop
endfacet
facet normal 1.77635683940025e-015 -1.0 -1.65336659036586e-017
outer loop
vertex 9.33602147058456 -7.16713309806727 7.99999999999029
vertex 9.83602147058456 -7.16713309806727 -9.70473840178343e-012
vertex 9.83602147058456 -7.16713309806727 7.99999999999029
endloop
endfacet
facet normal 1.77635683940025e-015 -1.0 -1.65336659036586e-017
outer loop
vertex 9.83602147058456 -7.16713309806727 -9.70473840178343e-012
vertex 9.33602147058456 -7.16713309806727 7.99999999999029
vertex 9.33602147058456 -7.16713309806727 -9.70500277364117e-012
endloop
endfacet
facet normal 2.12845229167973e-015 -0.965925826289069 0.258819045102518
outer loop
vertex -5.57281261450474 -3.06474093006616 3.58619902562961
vertex 7.66194149171515 -3.25455173282492 3.1279552113244
vertex 7.66194149171517 -3.06474093006613 3.58619902562961
endloop
endfacet
facet normal 1.92297414453974e-015 -0.866025403784429 0.500000000000016
outer loop
vertex 7.66194149171515 -3.25455173282492 3.1279552113244
vertex -5.57281261450474 -3.06474093006616 3.58619902562961
vertex -5.57281261450473 -3.25455173282495 3.1279552113244
endloop
endfacet
facet normal 1.92297414453974e-015 -0.866025403784429 0.500000000000018
outer loop
vertex -5.57281261450473 -3.25455173282495 3.1279552113244
vertex 7.66194149171516 -3.55649711576094 2.73445232706996
vertex 7.66194149171515 -3.25455173282492 3.1279552113244
endloop
endfacet
facet normal 1.55247693135004e-015 -0.707106781186537 0.707106781186558
outer loop
vertex 7.66194149171516 -3.55649711576094 2.73445232706996
vertex -5.57281261450473 -3.25455173282495 3.1279552113244
vertex -5.57281261450474 -3.55649711576097 2.73445232706996
endloop
endfacet
facet normal 1.10572151339768e-015 -0.5 0.866025403784439
outer loop
vertex 7.66194149171516 -3.95000000001536 2.43250694413397
vertex -5.57281261450474 -3.55649711576097 2.73445232706996
vertex -5.57281261450474 -3.9500000000154 2.43250694413397
endloop
endfacet
facet normal 1.55247693135004e-015 -0.707106781186537 0.707106781186558
outer loop
vertex -5.57281261450474 -3.55649711576097 2.73445232706996
vertex 7.66194149171516 -3.95000000001536 2.43250694413397
vertex 7.66194149171516 -3.55649711576094 2.73445232706996
endloop
endfacet
facet normal 6.29616148033262e-016 -0.258819045102511 0.965925826289071
outer loop
vertex 7.66194149171516 -4.4082438143206 2.24269614137517
vertex -5.57281261450474 -3.9500000000154 2.43250694413397
vertex -5.57281261450475 -4.40824381432064 2.24269614137517
endloop
endfacet
facet normal 1.10572151339768e-015 -0.5 0.866025403784439
outer loop
vertex -5.57281261450474 -3.9500000000154 2.43250694413397
vertex 7.66194149171516 -4.4082438143206 2.24269614137517
vertex 7.66194149171516 -3.95000000001536 2.43250694413397
endloop
endfacet
facet normal 9.1551859676263e-017 -9.67336549644818e-017 1.0
outer loop
vertex 7.66194149171517 -4.90000000001537 2.1779552113244
vertex -5.57281261450475 -4.40824381432064 2.24269614137517
vertex -5.57281261450473 -4.9000000000154 2.1779552113244
endloop
endfacet
facet normal 6.29616148033265e-016 -0.258819045102513 0.965925826289071
outer loop
vertex -5.57281261450475 -4.40824381432064 2.24269614137517
vertex 7.66194149171517 -4.90000000001537 2.1779552113244
vertex 7.66194149171516 -4.4082438143206 2.24269614137517
endloop
endfacet
facet normal -4.76908052889226e-016 0.258819045102512 0.965925826289071
outer loop
vertex 7.66194149171516 -5.39175618571014 2.24269614137517
vertex -5.57281261450473 -4.9000000000154 2.1779552113244
vertex -5.57281261450474 -5.39175618571017 2.24269614137517
endloop
endfacet
facet normal 9.15518596762642e-017 -6.58133578390223e-016 1.0
outer loop
vertex -5.57281261450473 -4.9000000000154 2.1779552113244
vertex 7.66194149171516 -5.39175618571014 2.24269614137517
vertex 7.66194149171517 -4.90000000001537 2.1779552113244
endloop
endfacet
facet normal -1.01377432706544e-015 0.5 0.866025403784439
outer loop
vertex 7.66194149171516 -5.85000000001538 2.43250694413397
vertex -5.57281261450474 -5.39175618571017 2.24269614137517
vertex -5.57281261450474 -5.85000000001541 2.43250694413397
endloop
endfacet
facet normal -4.76908052889231e-016 0.258819045102514 0.96592582628907
outer loop
vertex -5.57281261450474 -5.39175618571017 2.24269614137517
vertex 7.66194149171516 -5.85000000001538 2.43250694413397
vertex 7.66194149171516 -5.39175618571014 2.24269614137517
endloop
endfacet
facet normal -1.481186380455e-015 0.707106781186537 0.707106781186558
outer loop
vertex 7.66194149171516 -6.2435028842698 2.73445232706996
vertex -5.57281261450474 -5.85000000001541 2.43250694413397
vertex -5.57281261450473 -6.24350288426984 2.73445232706996
endloop
endfacet
facet normal -1.01377432706544e-015 0.5 0.866025403784439
outer loop
vertex -5.57281261450474 -5.85000000001541 2.43250694413397
vertex 7.66194149171516 -6.2435028842698 2.73445232706996
vertex 7.66194149171516 -5.85000000001538 2.43250694413397
endloop
endfacet
facet normal -1.481186380455e-015 0.707106781186537 0.707106781186558
outer loop
vertex -5.57281261450473 -6.24350288426984 2.73445232706996
vertex 7.66194149171516 -6.54544826720583 3.1279552113244
vertex 7.66194149171516 -6.2435028842698 2.73445232706996
endloop
endfacet
facet normal -1.84721622551824e-015 0.86602540378443 0.500000000000016
outer loop
vertex 7.66194149171516 -6.54544826720583 3.1279552113244
vertex -5.57281261450473 -6.24350288426984 2.73445232706996
vertex -5.57281261450473 -6.54544826720586 3.1279552113244
endloop
endfacet
facet normal -1.84721622551824e-015 0.86602540378443 0.500000000000016
outer loop
vertex 7.66194149171516 -6.54544826720583 3.1279552113244
vertex -5.57281261450473 -6.73525906996465 3.58619902562961
vertex 7.66194149171518 -6.73525906996462 3.58619902562961
endloop
endfacet
facet normal -2.09507645796773e-015 0.965925826289069 0.258819045102518
outer loop
vertex -5.57281261450473 -6.73525906996465 3.58619902562961
vertex 7.66194149171516 -6.54544826720583 3.1279552113244
vertex -5.57281261450473 -6.54544826720586 3.1279552113244
endloop
endfacet
facet normal -2.09507645796773e-015 0.965925826289069 0.258819045102518
outer loop
vertex -5.57281261450473 -6.73525906996465 3.58619902562961
vertex 7.66194149171517 -6.80000000001539 4.0779552113244
vertex 7.66194149171518 -6.73525906996462 3.58619902562961
endloop
endfacet
facet normal -2.17919054052667e-015 1.0 2.30400303399183e-016
outer loop
vertex 7.66194149171517 -6.80000000001539 4.0779552113244
vertex -5.57281261450473 -6.73525906996465 3.58619902562961
vertex -5.57281261450473 -6.80000000001542 4.0779552113244
endloop
endfacet
facet normal -2.17919054052667e-015 1.0 2.30400303399183e-016
outer loop
vertex 7.66194149171517 -6.80000000001539 4.0779552113244
vertex -5.57281261450473 -6.73525906996465 4.56971139701919
vertex 7.66194149171517 -6.73525906996462 4.56971139701919
endloop
endfacet
facet normal -2.15165929775276e-015 0.991444861373809 -0.130526192220059
outer loop
vertex -5.57281261450473 -6.73525906996465 4.56971139701919
vertex 7.66194149171517 -6.80000000001539 4.0779552113244
vertex -5.57281261450473 -6.80000000001542 4.0779552113244
endloop
endfacet
facet normal -2.61184671914924e-015 1.0 7.14106694213054e-017
outer loop
vertex -5.57281261449654 -1.53744572628511e-011 -9.71099520241658e-012
vertex 7.66194149172336 -1.53462575980257e-011 7.99999999999029
vertex 7.66194149172336 -1.53462575980257e-011 -9.71196456589496e-012
endloop
endfacet
facet normal -2.61184671914924e-015 1.0 7.14106694213054e-017
outer loop
vertex 7.66194149172336 -1.53462575980257e-011 7.99999999999029
vertex -5.57281261449654 -1.53744572628511e-011 -9.71099520241658e-012
vertex -5.57281261449653 -1.53744572628511e-011 7.99999999999029
endloop
endfacet
facet normal -2.61184671914924e-015 1.0 7.14106694213054e-017
outer loop
vertex -5.57281261449653 -1.53744572628511e-011 7.99999999999029
vertex -5.57281261449654 -1.53744572628511e-011 -9.71099520241658e-012
vertex -5.57281261450474 -1.53857371287813e-011 4.54678873035333
endloop
endfacet
facet normal -2.61184671914924e-015 1.0 7.14106694213054e-017
outer loop
vertex -5.57281261450474 -1.53857371287813e-011 4.54678873035333
vertex -5.57281261449654 -1.53744572628511e-011 -9.71099520241658e-012
vertex -5.57281261450474 -1.53857371287813e-011 4.0779552113244
endloop
endfacet
facet normal -1.0 -2.03875971098967e-015 -7.46701999770876e-014
outer loop
vertex -5.57281261449651 -9.80000000001542 -9.71822136652811e-012
vertex -5.57281261450474 -5.85000000001541 2.43250694413397
vertex -5.57281261449654 -1.53744572628511e-011 -9.71099520241658e-012
endloop
endfacet
facet normal -1.0 -2.03875971098967e-015 -7.46701999770876e-014
outer loop
vertex -5.57281261450474 -5.85000000001541 2.43250694413397
vertex -5.57281261449651 -9.80000000001542 -9.71822136652811e-012
vertex -5.57281261450473 -9.80000000001542 4.0779552113244
endloop
endfacet
facet normal -1.0 -2.03875971098967e-015 -7.46701999770876e-014
outer loop
vertex -5.57281261449654 -1.53744572628511e-011 -9.71099520241658e-012
vertex -5.57281261450474 -5.85000000001541 2.43250694413397
vertex -5.57281261450474 -5.39175618571017 2.24269614137517
endloop
endfacet
facet normal -1.0 -2.03875971098967e-015 -7.46701999770876e-014
outer loop
vertex -5.57281261449654 -1.53744572628511e-011 -9.71099520241658e-012
vertex -5.57281261450474 -5.39175618571017 2.24269614137517
vertex -5.57281261450473 -4.9000000000154 2.1779552113244
endloop
endfacet
facet normal -1.0 -2.03875971098967e-015 -7.46701999770876e-014
outer loop
vertex -5.57281261450474 -5.85000000001541 2.43250694413397
vertex -5.57281261450473 -9.80000000001542 4.0779552113244
vertex -5.57281261450473 -6.24350288426984 2.73445232706996
endloop
endfacet
facet normal -1.0 -2.03875971098967e-015 -7.46701999770876e-014
outer loop
vertex -5.57281261450473 -6.24350288426984 2.73445232706996
vertex -5.57281261450473 -9.80000000001542 4.0779552113244
vertex -5.57281261450473 -6.54544826720586 3.1279552113244
endloop
endfacet
facet normal -1.0 -2.03875971098967e-015 -7.46701999770876e-014
outer loop
vertex -5.57281261450473 -6.54544826720586 3.1279552113244
vertex -5.57281261450473 -9.80000000001542 4.0779552113244
vertex -5.57281261450473 -6.73525906996465 3.58619902562961
endloop
endfacet
facet normal -1.0 -2.03875971098967e-015 -7.46701999770876e-014
outer loop
vertex -5.57281261450473 -6.73525906996465 3.58619902562961
vertex -5.57281261450473 -9.80000000001542 4.0779552113244
vertex -5.57281261450473 -6.80000000001542 4.0779552113244
endloop
endfacet
facet normal -1.0 -2.03875971098967e-015 -7.46701999770876e-014
outer loop
vertex -5.57281261450473 -6.80000000001542 4.0779552113244
vertex -5.57281261450473 -9.80000000001542 4.0779552113244
vertex -5.57281261450473 -9.80000000001542 4.4779552113244
endloop
endfacet
facet normal -1.0 -2.03875971098967e-015 -7.46701999770876e-014
outer loop
vertex -5.57281261450473 -6.80000000001542 4.0779552113244
vertex -5.57281261450473 -9.80000000001542 4.4779552113244
vertex -5.57281261450473 -6.73525906996465 4.56971139701919
endloop
endfacet
facet normal -1.0 -2.03875971098967e-015 -7.46701999770876e-014
outer loop
vertex -5.57281261450473 -6.73525906996465 4.56971139701919
vertex -5.57281261450473 -9.80000000001542 4.4779552113244
vertex -5.57281261449651 -9.80000000001542 7.99999999999029
endloop
endfacet
facet normal -1.0 -2.03875971098967e-015 -7.46701999770876e-014
outer loop
vertex -5.57281261450473 -6.73525906996465 4.56971139701919
vertex -5.57281261449651 -9.80000000001542 7.99999999999029
vertex -5.57281261450473 -6.14705231709658 5.9779552113244
endloop
endfacet
facet normal -1.0 -2.03875971098967e-015 -7.46701999770876e-014
outer loop
vertex -5.57281261450473 -6.14705231709658 5.9779552113244
vertex -5.57281261449651 -9.80000000001542 7.99999999999029
vertex -5.57281261450473 -3.6000000000154 5.9779552113244
endloop
endfacet
facet normal -1.0 -2.03875971098967e-015 -7.46701999770876e-014
outer loop
vertex -5.57281261449654 -1.53744572628511e-011 -9.71099520241658e-012
vertex -5.57281261450474 -3.9500000000154 2.43250694413397
vertex -5.57281261450474 -1.53857371287813e-011 4.0779552113244
endloop
endfacet
facet normal -1.0 -2.03875971098967e-015 -7.46701999770876e-014
outer loop
vertex -5.57281261450474 -3.9500000000154 2.43250694413397
vertex -5.57281261449654 -1.53744572628511e-011 -9.71099520241658e-012
vertex -5.57281261450475 -4.40824381432064 2.24269614137517
endloop
endfacet
facet normal -1.0 -2.03875971098967e-015 -7.46701999770876e-014
outer loop
vertex -5.57281261450475 -4.40824381432064 2.24269614137517
vertex -5.57281261449654 -1.53744572628511e-011 -9.71099520241658e-012
vertex -5.57281261450473 -4.9000000000154 2.1779552113244
endloop
endfacet
facet normal -1.0 -2.03875971098967e-015 -7.46701999770876e-014
outer loop
vertex -5.57281261450474 -1.53857371287813e-011 4.0779552113244
vertex -5.57281261450474 -3.9500000000154 2.43250694413397
vertex -5.57281261450474 -3.55649711576097 2.73445232706996
endloop
endfacet
facet normal -1.0 -2.03875971098967e-015 -7.46701999770876e-014
outer loop
vertex -5.57281261450474 -1.53857371287813e-011 4.0779552113244
vertex -5.57281261450474 -3.55649711576097 2.73445232706996
vertex -5.57281261450473 -3.25455173282495 3.1279552113244
endloop
endfacet
facet normal -1.0 -2.03875971098967e-015 -7.46701999770876e-014
outer loop
vertex -5.57281261450474 -1.53857371287813e-011 4.0779552113244
vertex -5.57281261450473 -3.25455173282495 3.1279552113244
vertex -5.57281261450474 -3.06474093006616 3.58619902562961
endloop
endfacet
facet normal -1.0 -2.03875971098967e-015 -7.46701999770876e-014
outer loop
vertex -5.57281261450474 -1.53857371287813e-011 4.0779552113244
vertex -5.57281261450474 -3.06474093006616 3.58619902562961
vertex -5.57281261450474 -3.00000000001539 4.0779552113244
endloop
endfacet
facet normal -1.0 -2.03875971098967e-015 -7.46701999770876e-014
outer loop
vertex -5.57281261450474 -1.53857371287813e-011 4.0779552113244
vertex -5.57281261450474 -3.00000000001539 4.0779552113244
vertex -5.57281261450474 -3.06474093006616 4.56971139701919
endloop
endfacet
facet normal -1.0 -2.03875971098967e-015 -7.46701999770876e-014
outer loop
vertex -5.57281261450474 -1.53857371287813e-011 4.0779552113244
vertex -5.57281261450474 -3.06474093006616 4.56971139701919
vertex -5.57281261450474 -1.53857371287813e-011 4.54678873035333
endloop
endfacet
facet normal -1.0 -2.03875971098967e-015 -7.46701999770876e-014
outer loop
vertex -5.57281261450474 -1.53857371287813e-011 4.54678873035333
vertex -5.57281261450474 -3.06474093006616 4.56971139701919
vertex -5.57281261449653 -1.53744572628511e-011 7.99999999999029
endloop
endfacet
facet normal -1.0 -2.03875971098967e-015 -7.46701999770876e-014
outer loop
vertex -5.57281261449653 -1.53744572628511e-011 7.99999999999029
vertex -5.57281261450474 -3.06474093006616 4.56971139701919
vertex -5.57281261450473 -3.55649711576099 5.97795521132084
endloop
endfacet
facet normal -1.0 -2.03875971098967e-015 -7.46701999770876e-014
outer loop
vertex -5.57281261449653 -1.53744572628511e-011 7.99999999999029
vertex -5.57281261450473 -3.55649711576099 5.97795521132084
vertex -5.57281261450473 -3.6000000000154 5.9779552113244
endloop
endfacet
facet normal -1.0 -2.03875971098967e-015 -7.46701999770876e-014
outer loop
vertex -5.57281261449653 -1.53744572628511e-011 7.99999999999029
vertex -5.57281261450473 -3.6000000000154 5.9779552113244
vertex -5.57281261449651 -9.80000000001542 7.99999999999029
endloop
endfacet
facet normal 2.03237554865046e-015 -1.0 -1.65336671911408e-017
outer loop
vertex -5.57281261449651 -9.80000000001542 7.99999999999029
vertex 0.34898148115397 -9.80000000001541 -9.71073083055884e-012
vertex 0.348981481153973 -9.80000000001541 7.99999999999029
endloop
endfacet
facet normal 2.03237554865046e-015 -1.0 -1.65336671911408e-017
outer loop
vertex 0.34898148115397 -9.80000000001541 -9.71073083055884e-012
vertex -5.57281261449651 -9.80000000001542 7.99999999999029
vertex -5.57281261449651 -9.80000000001542 -9.71822136652811e-012
endloop
endfacet
facet normal 2.03237554865046e-015 -1.0 -1.65336671911408e-017
outer loop
vertex -5.57281261449651 -9.80000000001542 -9.71822136652811e-012
vertex -5.57281261449651 -9.80000000001542 7.99999999999029
vertex -5.57281261450473 -9.80000000001542 4.4779552113244
endloop
endfacet
facet normal 2.03237554865046e-015 -1.0 -1.65336671911408e-017
outer loop
vertex -5.57281261449651 -9.80000000001542 -9.71822136652811e-012
vertex -5.57281261450473 -9.80000000001542 4.4779552113244
vertex -5.57281261450473 -9.80000000001542 4.0779552113244
endloop
endfacet
facet normal -1.0 -1.79427486374601e-015 3.74957492506715e-016
outer loop
vertex 0.348981481153975 -11.2240215684814 7.99999999999029
vertex 0.34898148115397 -9.80000000001541 -9.71073083055884e-012
vertex 0.348981481153973 -11.2240215684814 -9.71099520241658e-012
endloop
endfacet
facet normal -1.0 -1.79427486374601e-015 3.74957492506715e-016
outer loop
vertex 0.34898148115397 -9.80000000001541 -9.71073083055884e-012
vertex 0.348981481153975 -11.2240215684814 7.99999999999029
vertex 0.348981481153973 -9.80000000001541 7.99999999999029
endloop
endfacet
facet normal 1.42411372405699e-015 -0.944094147250552 -0.329675963830022
outer loop
vertex 17.1489814811457 -3.55649711576095 5.9779552113244
vertex 9.33602147057635 -3.06474093006613 4.56971139701919
vertex 17.1489814811457 -3.06474093006613 4.56971139701919
endloop
endfacet
facet normal 1.42411372405699e-015 -0.944094147250552 -0.329675963830022
outer loop
vertex 9.33602147057635 -3.06474093006613 4.56971139701919
vertex 17.1489814811457 -3.55649711576095 5.9779552113244
vertex 9.33602147057636 -3.55649711576097 5.97795521132441
endloop
endfacet
facet normal 1.94908226295736e-015 9.32173590501255e-015 -1.0
outer loop
vertex 9.33602147057636 -3.55649711576097 5.97795521132441
vertex 17.1489814811457 -6.15194538295141 5.9779552113244
vertex 9.33602147057635 -6.15194538295142 5.97795521132436
endloop
endfacet
facet normal 1.94908226295736e-015 9.32173590501255e-015 -1.0
outer loop
vertex 17.1489814811457 -6.15194538295141 5.9779552113244
vertex 9.33602147057636 -3.55649711576097 5.97795521132441
vertex 17.1489814811457 -3.55649711576095 5.9779552113244
endloop
endfacet
facet normal 1.0 2.40446648471462e-015 5.61167270022473e-016
outer loop
vertex 17.148981481154 -1.53406176650606e-011 -9.71425578866203e-012
vertex 17.1489814811457 -4.40824381432061 2.24269614137517
vertex 17.148981481154 -11.2240215684813 -9.71302205332591e-012
endloop
endfacet
facet normal 1.0 2.40446648471462e-015 5.61167270022473e-016
outer loop
vertex 17.1489814811457 -4.40824381432061 2.24269614137517
vertex 17.148981481154 -1.53406176650606e-011 -9.71425578866203e-012
vertex 17.1489814811457 -3.95000000001537 2.43250694413397
endloop
endfacet
facet normal 1.0 2.40446648471462e-015 5.61167270022473e-016
outer loop
vertex 17.1489814811457 -3.95000000001537 2.43250694413397
vertex 17.148981481154 -1.53406176650606e-011 -9.71425578866203e-012
vertex 17.1489814811457 -3.55649711576095 2.73445232706996
endloop
endfacet
facet normal 1.0 2.40446648471462e-015 5.61167270022473e-016
outer loop
vertex 17.1489814811457 -3.55649711576095 2.73445232706996
vertex 17.148981481154 -1.53406176650606e-011 -9.71425578866203e-012
vertex 17.1489814811457 -3.25455173282492 3.1279552113244
endloop
endfacet
facet normal 1.0 2.40446648471462e-015 5.61167270022473e-016
outer loop
vertex 17.1489814811457 -3.25455173282492 3.1279552113244
vertex 17.148981481154 -1.53406176650606e-011 -9.71425578866203e-012
vertex 17.1489814811539 -1.53406176650606e-011 7.99999999999029
endloop
endfacet
facet normal 1.0 2.40446648471462e-015 5.61167270022473e-016
outer loop
vertex 17.148981481154 -11.2240215684813 -9.71302205332591e-012
vertex 17.1489814811457 -4.40824381432061 2.24269614137517
vertex 17.1489814811458 -4.90000000001538 2.1779552113244
endloop
endfacet
facet normal 1.0 2.40446648471462e-015 5.61167270022473e-016
outer loop
vertex 17.1489814811457 -3.25455173282492 3.1279552113244
vertex 17.1489814811539 -1.53406176650606e-011 7.99999999999029
vertex 17.1489814811458 -3.06474093006613 3.58619902562961
endloop
endfacet
facet normal 1.0 2.40446648471462e-015 5.61167270022473e-016
outer loop
vertex 17.1489814811458 -3.06474093006613 3.58619902562961
vertex 17.1489814811539 -1.53406176650606e-011 7.99999999999029
vertex 17.1489814811457 -3.00000000001536 4.0779552113244
endloop
endfacet
facet normal 1.0 2.40446648471462e-015 5.61167270022473e-016
outer loop
vertex 17.1489814811457 -3.00000000001536 4.0779552113244
vertex 17.1489814811539 -1.53406176650606e-011 7.99999999999029
vertex 17.1489814811457 -3.06474093006613 4.56971139701919
endloop
endfacet
facet normal 1.0 2.40446648471462e-015 5.61167270022473e-016
outer loop
vertex 17.1489814811457 -3.06474093006613 4.56971139701919
vertex 17.1489814811539 -1.53406176650606e-011 7.99999999999029
vertex 17.1489814811457 -3.55649711576095 5.9779552113244
endloop
endfacet
facet normal 1.0 2.40446648471462e-015 5.61167270022473e-016
outer loop
vertex 17.1489814811457 -3.55649711576095 5.9779552113244
vertex 17.1489814811539 -1.53406176650606e-011 7.99999999999029
vertex 17.1489814811457 -6.15194538295141 5.9779552113244
endloop
endfacet
facet normal 1.0 2.40446648471462e-015 5.61167270022473e-016
outer loop
vertex 17.148981481154 -11.2240215684813 -9.71302205332591e-012
vertex 17.1489814811457 -6.24350288426981 2.73445232706996
vertex 17.148981481154 -11.2240215684813 7.99999999999029
endloop
endfacet
facet normal 1.0 2.40446648471462e-015 5.61167270022473e-016
outer loop
vertex 17.1489814811457 -6.24350288426981 2.73445232706996
vertex 17.148981481154 -11.2240215684813 -9.71302205332591e-012
vertex 17.1489814811458 -5.85000000001539 2.43250694413397
endloop
endfacet
facet normal 1.0 2.40446648471462e-015 5.61167270022473e-016
outer loop
vertex 17.1489814811458 -5.85000000001539 2.43250694413397
vertex 17.148981481154 -11.2240215684813 -9.71302205332591e-012
vertex 17.1489814811457 -5.39175618571015 2.24269614137517
endloop
endfacet
facet normal 1.0 2.40446648471462e-015 5.61167270022473e-016
outer loop
vertex 17.1489814811457 -5.39175618571015 2.24269614137517
vertex 17.148981481154 -11.2240215684813 -9.71302205332591e-012
vertex 17.1489814811458 -4.90000000001538 2.1779552113244
endloop
endfacet
facet normal 1.0 2.40446648471462e-015 5.61167270022473e-016
outer loop
vertex 17.148981481154 -11.2240215684813 7.99999999999029
vertex 17.1489814811457 -6.24350288426981 2.73445232706996
vertex 17.1489814811458 -6.54544826720583 3.1279552113244
endloop
endfacet
facet normal 1.0 2.40446648471462e-015 5.61167270022473e-016
outer loop
vertex 17.148981481154 -11.2240215684813 7.99999999999029
vertex 17.1489814811458 -6.54544826720583 3.1279552113244
vertex 17.1489814811458 -6.73525906996462 3.58619902562961
endloop
endfacet
facet normal 1.0 2.40446648471462e-015 5.61167270022473e-016
outer loop
vertex 17.148981481154 -11.2240215684813 7.99999999999029
vertex 17.1489814811458 -6.73525906996462 3.58619902562961
vertex 17.1489814811457 -6.8000000000154 4.0779552113244
endloop
endfacet
facet normal 1.0 2.40446648471462e-015 5.61167270022473e-016
outer loop
vertex 17.148981481154 -11.2240215684813 7.99999999999029
vertex 17.1489814811457 -6.8000000000154 4.0779552113244
vertex 17.1489814811457 -6.73525906996462 4.56971139701919
endloop
endfacet
facet normal 1.0 2.40446648471462e-015 5.61167270022473e-016
outer loop
vertex 17.148981481154 -11.2240215684813 7.99999999999029
vertex 17.1489814811457 -6.73525906996462 4.56971139701919
vertex 17.1489814811457 -6.54544826720583 5.0279552113244
endloop
endfacet
facet normal 1.0 2.40446648471462e-015 5.61167270022473e-016
outer loop
vertex 17.148981481154 -11.2240215684813 7.99999999999029
vertex 17.1489814811457 -6.54544826720583 5.0279552113244
vertex 17.1489814811457 -6.15194538295141 5.9779552113244
endloop
endfacet
facet normal 1.0 2.40446648471462e-015 5.61167270022473e-016
outer loop
vertex 17.148981481154 -11.2240215684813 7.99999999999029
vertex 17.1489814811457 -6.15194538295141 5.9779552113244
vertex 17.1489814811539 -1.53406176650606e-011 7.99999999999029
endloop
endfacet
facet normal -8.46602304593097e-017 0.923879532511292 -0.382683432365077
outer loop
vertex 9.33602147057636 -6.73525906996462 4.56971139701919
vertex 17.1489814811457 -6.54544826720583 5.0279552113244
vertex 17.1489814811457 -6.73525906996462 4.56971139701919
endloop
endfacet
facet normal -8.46602304593097e-017 0.923879532511292 -0.382683432365077
outer loop
vertex 17.1489814811457 -6.54544826720583 5.0279552113244
vertex 9.33602147057636 -6.73525906996462 4.56971139701919
vertex 9.33602147057636 -6.54544826720583 5.0279552113244
endloop
endfacet
facet normal 6.62761673187778e-017 0.923879532511292 -0.382683432365077
outer loop
vertex 9.33602147057636 -6.54544826720583 5.0279552113244
vertex 17.1489814811457 -6.15194538295141 5.9779552113244
vertex 17.1489814811457 -6.54544826720583 5.0279552113244
endloop
endfacet
facet normal 6.62761673187778e-017 0.923879532511292 -0.382683432365077
outer loop
vertex 17.1489814811457 -6.15194538295141 5.9779552113244
vertex 9.33602147057636 -6.54544826720583 5.0279552113244
vertex 9.33602147057635 -6.15194538295142 5.97795521132436
endloop
endfacet
facet normal 2.1933602022484e-015 -1.0 -4.17533611207768e-016
outer loop
vertex 7.66194149171516 -3.00000000001535 4.0779552113244
vertex -5.57281261450474 -3.06474093006616 3.58619902562961
vertex 7.66194149171517 -3.06474093006613 3.58619902562961
endloop
endfacet
facet normal 2.12845229167973e-015 -0.965925826289069 0.258819045102518
outer loop
vertex -5.57281261450474 -3.06474093006616 3.58619902562961
vertex 7.66194149171516 -3.00000000001535 4.0779552113244
vertex -5.57281261450474 -3.00000000001539 4.0779552113244
endloop
endfacet
facet normal 2.18348893506839e-015 -0.991444861373809 -0.13052619222006
outer loop
vertex -5.57281261450474 -3.06474093006616 4.56971139701919
vertex 7.66194149171516 -3.00000000001535 4.0779552113244
vertex 7.66194149171517 -3.06474093006613 4.56971139701919
endloop
endfacet
facet normal 2.1933602022484e-015 -1.0 -4.17533611207768e-016
outer loop
vertex 7.66194149171516 -3.00000000001535 4.0779552113244
vertex -5.57281261450474 -3.06474093006616 4.56971139701919
vertex -5.57281261450474 -3.00000000001539 4.0779552113244
endloop
endfacet
facet normal 9.93904970433184e-005 0.923073784785087 -0.384622903587481
outer loop
vertex -5.57281261450473 -6.73525906996465 4.56971139701919
vertex 7.66194149171516 -6.14990237916217 5.9779552113244
vertex 7.66194149171517 -6.73525906996462 4.56971139701919
endloop
endfacet
facet normal 9.93904970433184e-005 0.923073784785087 -0.384622903587481
outer loop
vertex 7.66194149171516 -6.14990237916217 5.9779552113244
vertex -5.57281261450473 -6.73525906996465 4.56971139701919
vertex -5.57281261450473 -6.14705231709658 5.9779552113244
endloop
endfacet
facet normal 5.94669502913594e-014 -4.70176517238209e-013 -1.0
outer loop
vertex -5.57281261450473 -6.14705231709658 5.9779552113244
vertex 7.66194149171516 -3.55649711576097 5.977955211324
vertex 7.66194149171516 -6.14990237916217 5.9779552113244
endloop
endfacet
facet normal 5.94669502913594e-014 -4.70176517238209e-013 -1.0
outer loop
vertex 7.66194149171516 -3.55649711576097 5.977955211324
vertex -5.57281261450473 -6.14705231709658 5.9779552113244
vertex -5.57281261450473 -3.6000000000154 5.9779552113244
endloop
endfacet
facet normal 5.94669502913594e-014 -4.70176517238209e-013 -1.0
outer loop
vertex 7.66194149171516 -3.55649711576097 5.977955211324
vertex -5.57281261450473 -3.6000000000154 5.9779552113244
vertex -5.57281261450473 -3.55649711576099 5.97795521132084
endloop
endfacet
facet normal 4.12911082773961e-014 -0.944094147250405 -0.329675963830443
outer loop
vertex 7.66194149171516 -3.55649711576097 5.977955211324
vertex -5.57281261450474 -3.06474093006616 4.56971139701919
vertex 7.66194149171517 -3.06474093006613 4.56971139701919
endloop
endfacet
facet normal 4.12911082773961e-014 -0.944094147250405 -0.329675963830443
outer loop
vertex -5.57281261450474 -3.06474093006616 4.56971139701919
vertex 7.66194149171516 -3.55649711576097 5.977955211324
vertex -5.57281261450473 -3.55649711576099 5.97795521132084
endloop
endfacet
facet normal -1.0 6.13742160546355e-013 -2.74094249688387e-014
outer loop
vertex 9.33602147058456 -7.16713309806727 -9.70500277364117e-012
vertex 9.33602147057635 -5.85000000001539 2.43250694413397
vertex 9.33602147058454 -1.53434376315431e-011 -9.70465027783085e-012
endloop
endfacet
facet normal -1.0 6.13742160546355e-013 -2.74094249688387e-014
outer loop
vertex 9.33602147057635 -5.85000000001539 2.43250694413397
vertex 9.33602147058456 -7.16713309806727 -9.70500277364117e-012
vertex 9.33602147057634 -6.24350288426981 2.73445232706996
endloop
endfacet
facet normal -1.0 6.13742160546355e-013 -2.74094249688387e-014
outer loop
vertex 9.33602147057634 -6.24350288426981 2.73445232706996
vertex 9.33602147058456 -7.16713309806727 -9.70500277364117e-012
vertex 9.33602147057635 -6.54544826720583 3.1279552113244
endloop
endfacet
facet normal -1.0 6.13742160546355e-013 -2.74094249688387e-014
outer loop
vertex 9.33602147057635 -6.54544826720583 3.1279552113244
vertex 9.33602147058456 -7.16713309806727 -9.70500277364117e-012
vertex 9.33602147057636 -6.73525906996462 3.58619902562961
endloop
endfacet
facet normal -1.0 6.13742160546355e-013 -2.74094249688387e-014
outer loop
vertex 9.33602147057636 -6.73525906996462 3.58619902562961
vertex 9.33602147058456 -7.16713309806727 -9.70500277364117e-012
vertex 9.33602147057636 -6.8000000000154 4.0779552113244
endloop
endfacet
facet normal -1.0 6.13742160546355e-013 -2.74094249688387e-014
outer loop
vertex 9.33602147057636 -6.8000000000154 4.0779552113244
vertex 9.33602147058456 -7.16713309806727 -9.70500277364117e-012
vertex 9.33602147058456 -7.16713309806727 7.99999999999029
endloop
endfacet
facet normal -1.0 6.13742160546355e-013 -2.74094249688387e-014
outer loop
vertex 9.33602147058454 -1.53434376315431e-011 -9.70465027783085e-012
vertex 9.33602147057635 -5.85000000001539 2.43250694413397
vertex 9.33602147057634 -5.39175618571015 2.24269614137517
endloop
endfacet
facet normal -1.0 6.13742160546355e-013 -2.74094249688387e-014
outer loop
vertex 9.33602147058454 -1.53434376315431e-011 -9.70465027783085e-012
vertex 9.33602147057634 -5.39175618571015 2.24269614137517
vertex 9.33602147057635 -4.90000000001538 2.1779552113244
endloop
endfacet
facet normal -1.0 6.13742160546355e-013 -2.74094249688387e-014
outer loop
vertex 9.33602147057636 -6.8000000000154 4.0779552113244
vertex 9.33602147058456 -7.16713309806727 7.99999999999029
vertex 9.33602147057636 -6.73525906996462 4.56971139701919
endloop
endfacet
facet normal -1.0 6.13742160546355e-013 -2.74094249688387e-014
outer loop
vertex 9.33602147057636 -6.73525906996462 4.56971139701919
vertex 9.33602147058456 -7.16713309806727 7.99999999999029
vertex 9.33602147057636 -6.54544826720583 5.0279552113244
endloop
endfacet
facet normal -1.0 6.13742160546355e-013 -2.74094249688387e-014
outer loop
vertex 9.33602147057636 -6.54544826720583 5.0279552113244
vertex 9.33602147058456 -7.16713309806727 7.99999999999029
vertex 9.33602147057635 -6.15194538295142 5.97795521132436
endloop
endfacet
facet normal -1.0 6.13742160546355e-013 -2.74094249688387e-014
outer loop
vertex 9.33602147057635 -6.15194538295142 5.97795521132436
vertex 9.33602147058456 -7.16713309806727 7.99999999999029
vertex 9.33602147057636 -3.55649711576097 5.97795521132441
endloop
endfacet
facet normal -1.0 6.13742160546355e-013 -2.74094249688387e-014
outer loop
vertex 9.33602147058454 -1.53434376315431e-011 -9.70465027783085e-012
vertex 9.33602147057634 -3.25455173282492 3.1279552113244
vertex 9.33602147058454 -1.53434376315431e-011 7.99999999999029
endloop
endfacet
facet normal -1.0 6.13742160546355e-013 -2.74094249688387e-014
outer loop
vertex 9.33602147057634 -3.25455173282492 3.1279552113244
vertex 9.33602147058454 -1.53434376315431e-011 -9.70465027783085e-012
vertex 9.33602147057635 -3.55649711576095 2.73445232706996
endloop
endfacet
facet normal -1.0 6.13742160546355e-013 -2.74094249688387e-014
outer loop
vertex 9.33602147057635 -3.55649711576095 2.73445232706996
vertex 9.33602147058454 -1.53434376315431e-011 -9.70465027783085e-012
vertex 9.33602147057634 -3.95000000001537 2.43250694413397
endloop
endfacet
facet normal -1.0 6.13742160546355e-013 -2.74094249688387e-014
outer loop
vertex 9.33602147057634 -3.95000000001537 2.43250694413397
vertex 9.33602147058454 -1.53434376315431e-011 -9.70465027783085e-012
vertex 9.33602147057634 -4.40824381432061 2.24269614137517
endloop
endfacet
facet normal -1.0 6.13742160546355e-013 -2.74094249688387e-014
outer loop
vertex 9.33602147057634 -4.40824381432061 2.24269614137517
vertex 9.33602147058454 -1.53434376315431e-011 -9.70465027783085e-012
vertex 9.33602147057635 -4.90000000001538 2.1779552113244
endloop
endfacet
facet normal -1.0 6.13742160546355e-013 -2.74094249688387e-014
outer loop
vertex 9.33602147058454 -1.53434376315431e-011 7.99999999999029
vertex 9.33602147057634 -3.25455173282492 3.1279552113244
vertex 9.33602147057635 -3.06474093006613 3.58619902562961
endloop
endfacet
facet normal -1.0 6.13742160546355e-013 -2.74094249688387e-014
outer loop
vertex 9.33602147058454 -1.53434376315431e-011 7.99999999999029
vertex 9.33602147057635 -3.06474093006613 3.58619902562961
vertex 9.33602147057635 -3.00000000001536 4.0779552113244
endloop
endfacet
facet normal -1.0 6.13742160546355e-013 -2.74094249688387e-014
outer loop
vertex 9.33602147058454 -1.53434376315431e-011 7.99999999999029
vertex 9.33602147057635 -3.00000000001536 4.0779552113244
vertex 9.33602147057635 -3.06474093006613 4.56971139701919
endloop
endfacet
facet normal -1.0 6.13742160546355e-013 -2.74094249688387e-014
outer loop
vertex 9.33602147058454 -1.53434376315431e-011 7.99999999999029
vertex 9.33602147057635 -3.06474093006613 4.56971139701919
vertex 9.33602147057636 -3.55649711576097 5.97795521132441
endloop
endfacet
facet normal -1.0 6.13742160546355e-013 -2.74094249688387e-014
outer loop
vertex 9.33602147058454 -1.53434376315431e-011 7.99999999999029
vertex 9.33602147057636 -3.55649711576097 5.97795521132441
vertex 9.33602147058456 -7.16713309806727 7.99999999999029
endloop
endfacet
endsolid pb-Y-BarEnds-x4
