  0
SECTION
  2
BLOCKS
  0
ENDSEC
  0
SECTION
  2
ENTITIES
  0
LINE
  8
0
 10
-137
 11
-137
 20
-136
 21
136
  0
LINE
  8
0
 10
-137
 11
-136.781
 20
136
 21
138.079
  0
LINE
  8
0
 10
-136.781
 11
-136.135
 20
138.079
 21
140.067
  0
LINE
  8
0
 10
-136.135
 11
-135.09
 20
140.067
 21
141.878
  0
LINE
  8
0
 10
-135.09
 11
-133.691
 20
141.878
 21
143.431
  0
LINE
  8
0
 10
-133.691
 11
-132
 20
143.431
 21
144.66
  0
LINE
  8
0
 10
-132
 11
-130.09
 20
144.66
 21
145.511
  0
LINE
  8
0
 10
-130.09
 11
-128.045
 20
145.511
 21
145.945
  0
LINE
  8
0
 10
-128.045
 11
128.045
 20
145.945
 21
145.945
  0
LINE
  8
0
 10
128.045
 11
130.09
 20
145.945
 21
145.511
  0
LINE
  8
0
 10
130.09
 11
132
 20
145.511
 21
144.66
  0
LINE
  8
0
 10
132
 11
133.691
 20
144.66
 21
143.431
  0
LINE
  8
0
 10
133.691
 11
135.09
 20
143.431
 21
141.878
  0
LINE
  8
0
 10
135.09
 11
136.135
 20
141.878
 21
140.067
  0
LINE
  8
0
 10
136.135
 11
136.781
 20
140.067
 21
138.079
  0
LINE
  8
0
 10
136.781
 11
137
 20
138.079
 21
136
  0
LINE
  8
0
 10
137
 11
137
 20
136
 21
-136
  0
LINE
  8
0
 10
137
 11
136.781
 20
-136
 21
-138.079
  0
LINE
  8
0
 10
136.781
 11
136.135
 20
-138.079
 21
-140.067
  0
LINE
  8
0
 10
136.135
 11
135.09
 20
-140.067
 21
-141.878
  0
LINE
  8
0
 10
135.09
 11
133.691
 20
-141.878
 21
-143.431
  0
LINE
  8
0
 10
133.691
 11
132
 20
-143.431
 21
-144.66
  0
LINE
  8
0
 10
132
 11
130.09
 20
-144.66
 21
-145.511
  0
LINE
  8
0
 10
130.09
 11
128.045
 20
-145.511
 21
-145.945
  0
LINE
  8
0
 10
128.045
 11
-128.045
 20
-145.945
 21
-145.945
  0
LINE
  8
0
 10
-128.045
 11
-130.09
 20
-145.945
 21
-145.511
  0
LINE
  8
0
 10
-130.09
 11
-132
 20
-145.511
 21
-144.66
  0
LINE
  8
0
 10
-132
 11
-133.691
 20
-144.66
 21
-143.431
  0
LINE
  8
0
 10
-133.691
 11
-135.09
 20
-143.431
 21
-141.878
  0
LINE
  8
0
 10
-135.09
 11
-136.135
 20
-141.878
 21
-140.067
  0
LINE
  8
0
 10
-136.135
 11
-136.781
 20
-140.067
 21
-138.079
  0
LINE
  8
0
 10
-136.781
 11
-137
 20
-138.079
 21
-136
  0
LINE
  8
0
 10
-128.553
 11
-128.345
 20
-136
 21
-135.224
  0
LINE
  8
0
 10
-128.345
 11
-127.776
 20
-135.224
 21
-134.655
  0
LINE
  8
0
 10
-127.776
 11
-127
 20
-134.655
 21
-134.447
  0
LINE
  8
0
 10
-127
 11
-126.224
 20
-134.447
 21
-134.655
  0
LINE
  8
0
 10
-126.224
 11
-125.655
 20
-134.655
 21
-135.224
  0
LINE
  8
0
 10
-125.655
 11
-125.447
 20
-135.224
 21
-136
  0
LINE
  8
0
 10
-125.447
 11
-125.655
 20
-136
 21
-136.776
  0
LINE
  8
0
 10
-125.655
 11
-126.224
 20
-136.776
 21
-137.345
  0
LINE
  8
0
 10
-126.224
 11
-127
 20
-137.345
 21
-137.553
  0
LINE
  8
0
 10
-127
 11
-127.776
 20
-137.553
 21
-137.345
  0
LINE
  8
0
 10
-127.776
 11
-128.345
 20
-137.345
 21
-136.776
  0
LINE
  8
0
 10
-128.345
 11
-128.553
 20
-136.776
 21
-136
  0
LINE
  8
0
 10
-128.553
 11
-128.345
 20
136
 21
136.776
  0
LINE
  8
0
 10
-128.345
 11
-127.776
 20
136.776
 21
137.345
  0
LINE
  8
0
 10
-127.776
 11
-127
 20
137.345
 21
137.553
  0
LINE
  8
0
 10
-127
 11
-126.224
 20
137.553
 21
137.345
  0
LINE
  8
0
 10
-126.224
 11
-125.655
 20
137.345
 21
136.776
  0
LINE
  8
0
 10
-125.655
 11
-125.447
 20
136.776
 21
136
  0
LINE
  8
0
 10
-125.447
 11
-125.655
 20
136
 21
135.224
  0
LINE
  8
0
 10
-125.655
 11
-126.224
 20
135.224
 21
134.655
  0
LINE
  8
0
 10
-126.224
 11
-127
 20
134.655
 21
134.447
  0
LINE
  8
0
 10
-127
 11
-127.776
 20
134.447
 21
134.655
  0
LINE
  8
0
 10
-127.776
 11
-128.345
 20
134.655
 21
135.224
  0
LINE
  8
0
 10
-128.345
 11
-128.553
 20
135.224
 21
136
  0
LINE
  8
0
 10
-101.053
 11
-100.845
 20
-116.625
 21
-115.849
  0
LINE
  8
0
 10
-100.845
 11
-100.276
 20
-115.849
 21
-115.28
  0
LINE
  8
0
 10
-100.276
 11
-99.5
 20
-115.28
 21
-115.072
  0
LINE
  8
0
 10
-99.5
 11
-98.724
 20
-115.072
 21
-115.28
  0
LINE
  8
0
 10
-98.724
 11
-98.155
 20
-115.28
 21
-115.849
  0
LINE
  8
0
 10
-98.155
 11
-97.947
 20
-115.849
 21
-116.625
  0
LINE
  8
0
 10
-97.947
 11
-98.155
 20
-116.625
 21
-117.401
  0
LINE
  8
0
 10
-98.155
 11
-98.724
 20
-117.401
 21
-117.97
  0
LINE
  8
0
 10
-98.724
 11
-99.5
 20
-117.97
 21
-118.178
  0
LINE
  8
0
 10
-99.5
 11
-100.276
 20
-118.178
 21
-117.97
  0
LINE
  8
0
 10
-100.276
 11
-100.845
 20
-117.97
 21
-117.401
  0
LINE
  8
0
 10
-100.845
 11
-101.053
 20
-117.401
 21
-116.625
  0
LINE
  8
0
 10
-101.053
 11
-100.845
 20
92.375
 21
93.151
  0
LINE
  8
0
 10
-100.845
 11
-100.276
 20
93.151
 21
93.72
  0
LINE
  8
0
 10
-100.276
 11
-99.5
 20
93.72
 21
93.928
  0
LINE
  8
0
 10
-99.5
 11
-98.724
 20
93.928
 21
93.72
  0
LINE
  8
0
 10
-98.724
 11
-98.155
 20
93.72
 21
93.151
  0
LINE
  8
0
 10
-98.155
 11
-97.947
 20
93.151
 21
92.375
  0
LINE
  8
0
 10
-97.947
 11
-98.155
 20
92.375
 21
91.599
  0
LINE
  8
0
 10
-98.155
 11
-98.724
 20
91.599
 21
91.03
  0
LINE
  8
0
 10
-98.724
 11
-99.5
 20
91.03
 21
90.822
  0
LINE
  8
0
 10
-99.5
 11
-100.276
 20
90.822
 21
91.03
  0
LINE
  8
0
 10
-100.276
 11
-100.845
 20
91.03
 21
91.599
  0
LINE
  8
0
 10
-100.845
 11
-101.053
 20
91.599
 21
92.375
  0
LINE
  8
0
 10
-65.053
 11
-64.845
 20
-139
 21
-138.224
  0
LINE
  8
0
 10
-64.845
 11
-64.276
 20
-138.224
 21
-137.655
  0
LINE
  8
0
 10
-64.276
 11
-63.5
 20
-137.655
 21
-137.447
  0
LINE
  8
0
 10
-63.5
 11
-62.724
 20
-137.447
 21
-137.655
  0
LINE
  8
0
 10
-62.724
 11
-62.155
 20
-137.655
 21
-138.224
  0
LINE
  8
0
 10
-62.155
 11
-61.947
 20
-138.224
 21
-139
  0
LINE
  8
0
 10
-61.947
 11
-62.155
 20
-139
 21
-139.776
  0
LINE
  8
0
 10
-62.155
 11
-62.724
 20
-139.776
 21
-140.345
  0
LINE
  8
0
 10
-62.724
 11
-63.5
 20
-140.345
 21
-140.553
  0
LINE
  8
0
 10
-63.5
 11
-64.276
 20
-140.553
 21
-140.345
  0
LINE
  8
0
 10
-64.276
 11
-64.845
 20
-140.345
 21
-139.776
  0
LINE
  8
0
 10
-64.845
 11
-65.053
 20
-139.776
 21
-139
  0
LINE
  8
0
 10
-65.053
 11
-64.845
 20
139
 21
139.776
  0
LINE
  8
0
 10
-64.845
 11
-64.276
 20
139.776
 21
140.345
  0
LINE
  8
0
 10
-64.276
 11
-63.5
 20
140.345
 21
140.553
  0
LINE
  8
0
 10
-63.5
 11
-62.724
 20
140.553
 21
140.345
  0
LINE
  8
0
 10
-62.724
 11
-62.155
 20
140.345
 21
139.776
  0
LINE
  8
0
 10
-62.155
 11
-61.947
 20
139.776
 21
139
  0
LINE
  8
0
 10
-61.947
 11
-62.155
 20
139
 21
138.224
  0
LINE
  8
0
 10
-62.155
 11
-62.724
 20
138.224
 21
137.655
  0
LINE
  8
0
 10
-62.724
 11
-63.5
 20
137.655
 21
137.447
  0
LINE
  8
0
 10
-63.5
 11
-64.276
 20
137.447
 21
137.655
  0
LINE
  8
0
 10
-64.276
 11
-64.845
 20
137.655
 21
138.224
  0
LINE
  8
0
 10
-64.845
 11
-65.053
 20
138.224
 21
139
  0
LINE
  8
0
 10
-33.303
 11
-33.095
 20
-139
 21
-138.224
  0
LINE
  8
0
 10
-33.095
 11
-32.526
 20
-138.224
 21
-137.655
  0
LINE
  8
0
 10
-32.526
 11
-31.75
 20
-137.655
 21
-137.447
  0
LINE
  8
0
 10
-31.75
 11
-30.974
 20
-137.447
 21
-137.655
  0
LINE
  8
0
 10
-30.974
 11
-30.405
 20
-137.655
 21
-138.224
  0
LINE
  8
0
 10
-30.405
 11
-30.197
 20
-138.224
 21
-139
  0
LINE
  8
0
 10
-30.197
 11
-30.405
 20
-139
 21
-139.776
  0
LINE
  8
0
 10
-30.405
 11
-30.974
 20
-139.776
 21
-140.345
  0
LINE
  8
0
 10
-30.974
 11
-31.75
 20
-140.345
 21
-140.553
  0
LINE
  8
0
 10
-31.75
 11
-32.526
 20
-140.553
 21
-140.345
  0
LINE
  8
0
 10
-32.526
 11
-33.095
 20
-140.345
 21
-139.776
  0
LINE
  8
0
 10
-33.095
 11
-33.303
 20
-139.776
 21
-139
  0
LINE
  8
0
 10
-33.303
 11
-33.095
 20
139
 21
139.776
  0
LINE
  8
0
 10
-33.095
 11
-32.526
 20
139.776
 21
140.345
  0
LINE
  8
0
 10
-32.526
 11
-31.75
 20
140.345
 21
140.553
  0
LINE
  8
0
 10
-31.75
 11
-30.974
 20
140.553
 21
140.345
  0
LINE
  8
0
 10
-30.974
 11
-30.405
 20
140.345
 21
139.776
  0
LINE
  8
0
 10
-30.405
 11
-30.197
 20
139.776
 21
139
  0
LINE
  8
0
 10
-30.197
 11
-30.405
 20
139
 21
138.224
  0
LINE
  8
0
 10
-30.405
 11
-30.974
 20
138.224
 21
137.655
  0
LINE
  8
0
 10
-30.974
 11
-31.75
 20
137.655
 21
137.447
  0
LINE
  8
0
 10
-31.75
 11
-32.526
 20
137.447
 21
137.655
  0
LINE
  8
0
 10
-32.526
 11
-33.095
 20
137.655
 21
138.224
  0
LINE
  8
0
 10
-33.095
 11
-33.303
 20
138.224
 21
139
  0
LINE
  8
0
 10
-1.553
 11
-1.345
 20
-139
 21
-138.224
  0
LINE
  8
0
 10
-1.345
 11
-0.776
 20
-138.224
 21
-137.655
  0
LINE
  8
0
 10
-0.776
 11
0
 20
-137.655
 21
-137.447
  0
LINE
  8
0
 10
0
 11
0.776
 20
-137.447
 21
-137.655
  0
LINE
  8
0
 10
0.776
 11
1.345
 20
-137.655
 21
-138.224
  0
LINE
  8
0
 10
1.345
 11
1.553
 20
-138.224
 21
-139
  0
LINE
  8
0
 10
1.553
 11
1.345
 20
-139
 21
-139.776
  0
LINE
  8
0
 10
1.345
 11
0.776
 20
-139.776
 21
-140.345
  0
LINE
  8
0
 10
0.776
 11
0
 20
-140.345
 21
-140.553
  0
LINE
  8
0
 10
0
 11
-0.776
 20
-140.553
 21
-140.345
  0
LINE
  8
0
 10
-0.776
 11
-1.345
 20
-140.345
 21
-139.776
  0
LINE
  8
0
 10
-1.345
 11
-1.553
 20
-139.776
 21
-139
  0
LINE
  8
0
 10
-1.553
 11
-1.345
 20
139
 21
139.776
  0
LINE
  8
0
 10
-1.345
 11
-0.776
 20
139.776
 21
140.345
  0
LINE
  8
0
 10
-0.776
 11
0
 20
140.345
 21
140.553
  0
LINE
  8
0
 10
0
 11
0.776
 20
140.553
 21
140.345
  0
LINE
  8
0
 10
0.776
 11
1.345
 20
140.345
 21
139.776
  0
LINE
  8
0
 10
1.345
 11
1.553
 20
139.776
 21
139
  0
LINE
  8
0
 10
1.553
 11
1.345
 20
139
 21
138.224
  0
LINE
  8
0
 10
1.345
 11
0.776
 20
138.224
 21
137.655
  0
LINE
  8
0
 10
0.776
 11
0
 20
137.655
 21
137.447
  0
LINE
  8
0
 10
0
 11
-0.776
 20
137.447
 21
137.655
  0
LINE
  8
0
 10
-0.776
 11
-1.345
 20
137.655
 21
138.224
  0
LINE
  8
0
 10
-1.345
 11
-1.553
 20
138.224
 21
139
  0
LINE
  8
0
 10
30.197
 11
30.405
 20
-139
 21
-138.224
  0
LINE
  8
0
 10
30.405
 11
30.974
 20
-138.224
 21
-137.655
  0
LINE
  8
0
 10
30.974
 11
31.75
 20
-137.655
 21
-137.447
  0
LINE
  8
0
 10
31.75
 11
32.526
 20
-137.447
 21
-137.655
  0
LINE
  8
0
 10
32.526
 11
33.095
 20
-137.655
 21
-138.224
  0
LINE
  8
0
 10
33.095
 11
33.303
 20
-138.224
 21
-139
  0
LINE
  8
0
 10
33.303
 11
33.095
 20
-139
 21
-139.776
  0
LINE
  8
0
 10
33.095
 11
32.526
 20
-139.776
 21
-140.345
  0
LINE
  8
0
 10
32.526
 11
31.75
 20
-140.345
 21
-140.553
  0
LINE
  8
0
 10
31.75
 11
30.974
 20
-140.553
 21
-140.345
  0
LINE
  8
0
 10
30.974
 11
30.405
 20
-140.345
 21
-139.776
  0
LINE
  8
0
 10
30.405
 11
30.197
 20
-139.776
 21
-139
  0
LINE
  8
0
 10
30.197
 11
30.405
 20
139
 21
139.776
  0
LINE
  8
0
 10
30.405
 11
30.974
 20
139.776
 21
140.345
  0
LINE
  8
0
 10
30.974
 11
31.75
 20
140.345
 21
140.553
  0
LINE
  8
0
 10
31.75
 11
32.526
 20
140.553
 21
140.345
  0
LINE
  8
0
 10
32.526
 11
33.095
 20
140.345
 21
139.776
  0
LINE
  8
0
 10
33.095
 11
33.303
 20
139.776
 21
139
  0
LINE
  8
0
 10
33.303
 11
33.095
 20
139
 21
138.224
  0
LINE
  8
0
 10
33.095
 11
32.526
 20
138.224
 21
137.655
  0
LINE
  8
0
 10
32.526
 11
31.75
 20
137.655
 21
137.447
  0
LINE
  8
0
 10
31.75
 11
30.974
 20
137.447
 21
137.655
  0
LINE
  8
0
 10
30.974
 11
30.405
 20
137.655
 21
138.224
  0
LINE
  8
0
 10
30.405
 11
30.197
 20
138.224
 21
139
  0
LINE
  8
0
 10
61.947
 11
62.155
 20
-139
 21
-138.224
  0
LINE
  8
0
 10
62.155
 11
62.724
 20
-138.224
 21
-137.655
  0
LINE
  8
0
 10
62.724
 11
63.5
 20
-137.655
 21
-137.447
  0
LINE
  8
0
 10
63.5
 11
64.276
 20
-137.447
 21
-137.655
  0
LINE
  8
0
 10
64.276
 11
64.845
 20
-137.655
 21
-138.224
  0
LINE
  8
0
 10
64.845
 11
65.053
 20
-138.224
 21
-139
  0
LINE
  8
0
 10
65.053
 11
64.845
 20
-139
 21
-139.776
  0
LINE
  8
0
 10
64.845
 11
64.276
 20
-139.776
 21
-140.345
  0
LINE
  8
0
 10
64.276
 11
63.5
 20
-140.345
 21
-140.553
  0
LINE
  8
0
 10
63.5
 11
62.724
 20
-140.553
 21
-140.345
  0
LINE
  8
0
 10
62.724
 11
62.155
 20
-140.345
 21
-139.776
  0
LINE
  8
0
 10
62.155
 11
61.947
 20
-139.776
 21
-139
  0
LINE
  8
0
 10
61.947
 11
62.155
 20
139
 21
139.776
  0
LINE
  8
0
 10
62.155
 11
62.724
 20
139.776
 21
140.345
  0
LINE
  8
0
 10
62.724
 11
63.5
 20
140.345
 21
140.553
  0
LINE
  8
0
 10
63.5
 11
64.276
 20
140.553
 21
140.345
  0
LINE
  8
0
 10
64.276
 11
64.845
 20
140.345
 21
139.776
  0
LINE
  8
0
 10
64.845
 11
65.053
 20
139.776
 21
139
  0
LINE
  8
0
 10
65.053
 11
64.845
 20
139
 21
138.224
  0
LINE
  8
0
 10
64.845
 11
64.276
 20
138.224
 21
137.655
  0
LINE
  8
0
 10
64.276
 11
63.5
 20
137.655
 21
137.447
  0
LINE
  8
0
 10
63.5
 11
62.724
 20
137.447
 21
137.655
  0
LINE
  8
0
 10
62.724
 11
62.155
 20
137.655
 21
138.224
  0
LINE
  8
0
 10
62.155
 11
61.947
 20
138.224
 21
139
  0
LINE
  8
0
 10
107.947
 11
108.155
 20
-116.625
 21
-115.849
  0
LINE
  8
0
 10
108.155
 11
108.724
 20
-115.849
 21
-115.28
  0
LINE
  8
0
 10
108.724
 11
109.5
 20
-115.28
 21
-115.072
  0
LINE
  8
0
 10
109.5
 11
110.276
 20
-115.072
 21
-115.28
  0
LINE
  8
0
 10
110.276
 11
110.845
 20
-115.28
 21
-115.849
  0
LINE
  8
0
 10
110.845
 11
111.053
 20
-115.849
 21
-116.625
  0
LINE
  8
0
 10
111.053
 11
110.845
 20
-116.625
 21
-117.401
  0
LINE
  8
0
 10
110.845
 11
110.276
 20
-117.401
 21
-117.97
  0
LINE
  8
0
 10
110.276
 11
109.5
 20
-117.97
 21
-118.178
  0
LINE
  8
0
 10
109.5
 11
108.724
 20
-118.178
 21
-117.97
  0
LINE
  8
0
 10
108.724
 11
108.155
 20
-117.97
 21
-117.401
  0
LINE
  8
0
 10
108.155
 11
107.947
 20
-117.401
 21
-116.625
  0
LINE
  8
0
 10
107.947
 11
108.155
 20
92.375
 21
93.151
  0
LINE
  8
0
 10
108.155
 11
108.724
 20
93.151
 21
93.72
  0
LINE
  8
0
 10
108.724
 11
109.5
 20
93.72
 21
93.928
  0
LINE
  8
0
 10
109.5
 11
110.276
 20
93.928
 21
93.72
  0
LINE
  8
0
 10
110.276
 11
110.845
 20
93.72
 21
93.151
  0
LINE
  8
0
 10
110.845
 11
111.053
 20
93.151
 21
92.375
  0
LINE
  8
0
 10
111.053
 11
110.845
 20
92.375
 21
91.599
  0
LINE
  8
0
 10
110.845
 11
110.276
 20
91.599
 21
91.03
  0
LINE
  8
0
 10
110.276
 11
109.5
 20
91.03
 21
90.822
  0
LINE
  8
0
 10
109.5
 11
108.724
 20
90.822
 21
91.03
  0
LINE
  8
0
 10
108.724
 11
108.155
 20
91.03
 21
91.599
  0
LINE
  8
0
 10
108.155
 11
107.947
 20
91.599
 21
92.375
  0
LINE
  8
0
 10
125.447
 11
125.655
 20
-136
 21
-135.224
  0
LINE
  8
0
 10
125.655
 11
126.224
 20
-135.224
 21
-134.655
  0
LINE
  8
0
 10
126.224
 11
127
 20
-134.655
 21
-134.447
  0
LINE
  8
0
 10
127
 11
127.776
 20
-134.447
 21
-134.655
  0
LINE
  8
0
 10
127.776
 11
128.345
 20
-134.655
 21
-135.224
  0
LINE
  8
0
 10
128.345
 11
128.553
 20
-135.224
 21
-136
  0
LINE
  8
0
 10
128.553
 11
128.345
 20
-136
 21
-136.776
  0
LINE
  8
0
 10
128.345
 11
127.776
 20
-136.776
 21
-137.345
  0
LINE
  8
0
 10
127.776
 11
127
 20
-137.345
 21
-137.553
  0
LINE
  8
0
 10
127
 11
126.224
 20
-137.553
 21
-137.345
  0
LINE
  8
0
 10
126.224
 11
125.655
 20
-137.345
 21
-136.776
  0
LINE
  8
0
 10
125.655
 11
125.447
 20
-136.776
 21
-136
  0
LINE
  8
0
 10
125.447
 11
125.655
 20
136
 21
136.776
  0
LINE
  8
0
 10
125.655
 11
126.224
 20
136.776
 21
137.345
  0
LINE
  8
0
 10
126.224
 11
127
 20
137.345
 21
137.553
  0
LINE
  8
0
 10
127
 11
127.776
 20
137.553
 21
137.345
  0
LINE
  8
0
 10
127.776
 11
128.345
 20
137.345
 21
136.776
  0
LINE
  8
0
 10
128.345
 11
128.553
 20
136.776
 21
136
  0
LINE
  8
0
 10
128.553
 11
128.345
 20
136
 21
135.224
  0
LINE
  8
0
 10
128.345
 11
127.776
 20
135.224
 21
134.655
  0
LINE
  8
0
 10
127.776
 11
127
 20
134.655
 21
134.447
  0
LINE
  8
0
 10
127
 11
126.224
 20
134.447
 21
134.655
  0
LINE
  8
0
 10
126.224
 11
125.655
 20
134.655
 21
135.224
  0
LINE
  8
0
 10
125.655
 11
125.447
 20
135.224
 21
136
  0
ENDSEC
  0
SECTION
  2
OBJECTS
  0
DICTIONARY
  0
ENDSEC
  0
EOF
