solid OpenSCAD_Model
  facet normal -1 0 0
    outer loop
      vertex 0 0 0
      vertex 0 0 4
      vertex 0 8 0
    endloop
  endfacet
  facet normal -1 0 0
    outer loop
      vertex 0 8 0
      vertex 0 0 4
      vertex 0 8 4
    endloop
  endfacet
  facet normal 0 -1 0
    outer loop
      vertex 0 0 4
      vertex 0 0 0
      vertex 112 0 0
    endloop
  endfacet
  facet normal 0 -1 0
    outer loop
      vertex 112 0 4
      vertex 0 0 4
      vertex 112 0 0
    endloop
  endfacet
  facet normal 0 0 -1
    outer loop
      vertex 63 6.5 0
      vertex 0 8 0
      vertex 112 8 0
    endloop
  endfacet
  facet normal 0 0 -1
    outer loop
      vertex 0 0 0
      vertex 0 8 0
      vertex 3 6.5 0
    endloop
  endfacet
  facet normal 0 0 -1
    outer loop
      vertex 63 1.5 0
      vertex 0 8 0
      vertex 63 6.5 0
    endloop
  endfacet
  facet normal 0 0 -1
    outer loop
      vertex 0 0 0
      vertex 3 6.5 0
      vertex 3 1.5 0
    endloop
  endfacet
  facet normal 0 0 -1
    outer loop
      vertex 0 0 0
      vertex 3 1.5 0
      vertex 112 0 0
    endloop
  endfacet
  facet normal 0 0 -1
    outer loop
      vertex 3 1.5 0
      vertex 5 1.5 0
      vertex 112 0 0
    endloop
  endfacet
  facet normal 0 0 -1
    outer loop
      vertex 3 6.5 0
      vertex 0 8 0
      vertex 5 6.5 0
    endloop
  endfacet
  facet normal 0 0 -1
    outer loop
      vertex 11 1.5 0
      vertex 5 6.5 0
      vertex 11 6.5 0
    endloop
  endfacet
  facet normal 0 0 -1
    outer loop
      vertex 5 6.5 0
      vertex 0 8 0
      vertex 11 6.5 0
    endloop
  endfacet
  facet normal 0 0 -1
    outer loop
      vertex 5 1.5 0
      vertex 11 1.5 0
      vertex 112 0 0
    endloop
  endfacet
  facet normal 0 0 -1
    outer loop
      vertex 11 1.5 0
      vertex 13 1.5 0
      vertex 112 0 0
    endloop
  endfacet
  facet normal 0 0 -1
    outer loop
      vertex 11 6.5 0
      vertex 0 8 0
      vertex 13 6.5 0
    endloop
  endfacet
  facet normal 0 0 -1
    outer loop
      vertex 63 1.5 0
      vertex 13 6.5 0
      vertex 0 8 0
    endloop
  endfacet
  facet normal 0 0 -1
    outer loop
      vertex 65 6.5 0
      vertex 63 6.5 0
      vertex 112 8 0
    endloop
  endfacet
  facet normal 0 0 -1
    outer loop
      vertex 13 1.5 0
      vertex 63 1.5 0
      vertex 112 0 0
    endloop
  endfacet
  facet normal 0 0 -1
    outer loop
      vertex 63 1.5 0
      vertex 65 1.5 0
      vertex 112 0 0
    endloop
  endfacet
  facet normal 0 0 -1
    outer loop
      vertex 71 1.5 0
      vertex 65 6.5 0
      vertex 71 6.5 0
    endloop
  endfacet
  facet normal 0 0 -1
    outer loop
      vertex 71 6.5 0
      vertex 65 6.5 0
      vertex 112 8 0
    endloop
  endfacet
  facet normal 0 0 -1
    outer loop
      vertex 73 6.5 0
      vertex 71 6.5 0
      vertex 112 8 0
    endloop
  endfacet
  facet normal 0 0 -1
    outer loop
      vertex 65 1.5 0
      vertex 71 1.5 0
      vertex 112 0 0
    endloop
  endfacet
  facet normal 0 0 -1
    outer loop
      vertex 71 1.5 0
      vertex 73 1.5 0
      vertex 112 0 0
    endloop
  endfacet
  facet normal 0 0 -1
    outer loop
      vertex 103 6.5 0
      vertex 73 6.5 0
      vertex 112 8 0
    endloop
  endfacet
  facet normal 0 0 -1
    outer loop
      vertex 103 1.5 0
      vertex 73 6.5 0
      vertex 103 6.5 0
    endloop
  endfacet
  facet normal 0 0 -1
    outer loop
      vertex 105 6.5 0
      vertex 103 6.5 0
      vertex 112 8 0
    endloop
  endfacet
  facet normal 0 0 -1
    outer loop
      vertex 105 6.5 0
      vertex 112 0 0
      vertex 105 1.5 0
    endloop
  endfacet
  facet normal 0 0 -1
    outer loop
      vertex 112 0 0
      vertex 103 1.5 0
      vertex 105 1.5 0
    endloop
  endfacet
  facet normal 0 0 -1
    outer loop
      vertex 112 0 0
      vertex 105 6.5 0
      vertex 112 8 0
    endloop
  endfacet
  facet normal 0 0 -1
    outer loop
      vertex 13 6.5 0
      vertex 63 1.5 0
      vertex 13 1.5 0
    endloop
  endfacet
  facet normal 0 0 -1
    outer loop
      vertex 73 6.5 0
      vertex 103 1.5 0
      vertex 73 1.5 0
    endloop
  endfacet
  facet normal 0 0 -1
    outer loop
      vertex 103 1.5 0
      vertex 112 0 0
      vertex 73 1.5 0
    endloop
  endfacet
  facet normal 0 0 -1
    outer loop
      vertex 65 6.5 0
      vertex 71 1.5 0
      vertex 65 1.5 0
    endloop
  endfacet
  facet normal 0 0 -1
    outer loop
      vertex 5 6.5 0
      vertex 11 1.5 0
      vertex 5 1.5 0
    endloop
  endfacet
  facet normal 0 1 0
    outer loop
      vertex 0 8 0
      vertex 0 8 4
      vertex 112 8 0
    endloop
  endfacet
  facet normal 0 1 0
    outer loop
      vertex 112 8 0
      vertex 0 8 4
      vertex 112 8 4
    endloop
  endfacet
  facet normal 0 0 1
    outer loop
      vertex 8.92705 1.14683 4
      vertex 0 0 4
      vertex 112 0 4
    endloop
  endfacet
  facet normal 0 0 1
    outer loop
      vertex 13 1.5 4
      vertex 11 1.5 4
      vertex 112 0 4
    endloop
  endfacet
  facet normal 0 0 1
    outer loop
      vertex 0 8 4
      vertex 0 0 4
      vertex 3 1.5 4
    endloop
  endfacet
  facet normal 0 0 1
    outer loop
      vertex 5.57295 5.76336 4
      vertex 7.07295 6.85317 4
      vertex 5 6.5 4
    endloop
  endfacet
  facet normal 0 0 1
    outer loop
      vertex 0 8 4
      vertex 3 1.5 4
      vertex 3 6.5 4
    endloop
  endfacet
  facet normal 0 0 1
    outer loop
      vertex 0 8 4
      vertex 3 6.5 4
      vertex 5 6.5 4
    endloop
  endfacet
  facet normal 0 0 1
    outer loop
      vertex 11 1.5 4
      vertex 8.92705 1.14683 4
      vertex 112 0 4
    endloop
  endfacet
  facet normal 0 0 1
    outer loop
      vertex 11 4 4
      vertex 11 6.5 4
      vertex 10.4271 5.76336 4
    endloop
  endfacet
  facet normal 0 0 1
    outer loop
      vertex 5 4 4
      vertex 5 1.5 4
      vertex 5.57295 2.23664 4
    endloop
  endfacet
  facet normal 0 0 1
    outer loop
      vertex 0 8 4
      vertex 5 6.5 4
      vertex 7.07295 6.85317 4
    endloop
  endfacet
  facet normal 0 0 1
    outer loop
      vertex 103 1.5 4
      vertex 73 1.5 4
      vertex 112 0 4
    endloop
  endfacet
  facet normal 0 0 1
    outer loop
      vertex 0 8 4
      vertex 7.07295 6.85317 4
      vertex 8.92705 6.85317 4
    endloop
  endfacet
  facet normal 0 0 1
    outer loop
      vertex 73 6.5 4
      vertex 73 1.5 4
      vertex 103 1.5 4
    endloop
  endfacet
  facet normal 0 0 1
    outer loop
      vertex 65 6.5 4
      vertex 65 1.5 4
      vertex 71 1.5 4
    endloop
  endfacet
  facet normal 0 0 1
    outer loop
      vertex 63 1.5 4
      vertex 13 1.5 4
      vertex 112 0 4
    endloop
  endfacet
  facet normal 0 0 1
    outer loop
      vertex 7.07295 1.14683 4
      vertex 5.57295 2.23664 4
      vertex 5 1.5 4
    endloop
  endfacet
  facet normal 0 0 1
    outer loop
      vertex 7.07295 1.14683 4
      vertex 5 1.5 4
      vertex 3 1.5 4
    endloop
  endfacet
  facet normal 0 0 1
    outer loop
      vertex 63 1.5 4
      vertex 0 8 4
      vertex 13 6.5 4
    endloop
  endfacet
  facet normal 0 0 1
    outer loop
      vertex 7.07295 1.14683 4
      vertex 0 0 4
      vertex 8.92705 1.14683 4
    endloop
  endfacet
  facet normal 0 0 1
    outer loop
      vertex 3 1.5 4
      vertex 0 0 4
      vertex 7.07295 1.14683 4
    endloop
  endfacet
  facet normal 0 0 1
    outer loop
      vertex 13 6.5 4
      vertex 0 8 4
      vertex 8.92705 6.85317 4
    endloop
  endfacet
  facet normal 0 0 1
    outer loop
      vertex 71 1.5 4
      vertex 71 6.5 4
      vertex 65 6.5 4
    endloop
  endfacet
  facet normal 0 0 1
    outer loop
      vertex 65 1.5 4
      vertex 63 1.5 4
      vertex 112 0 4
    endloop
  endfacet
  facet normal 0 0 1
    outer loop
      vertex 112 8 4
      vertex 0 8 4
      vertex 63 6.5 4
    endloop
  endfacet
  facet normal 0 0 1
    outer loop
      vertex 112 8 4
      vertex 63 6.5 4
      vertex 65 6.5 4
    endloop
  endfacet
  facet normal 0 0 1
    outer loop
      vertex 71 1.5 4
      vertex 65 1.5 4
      vertex 112 0 4
    endloop
  endfacet
  facet normal 0 0 1
    outer loop
      vertex 11 1.5 4
      vertex 11 4 4
      vertex 10.4271 2.23664 4
    endloop
  endfacet
  facet normal 0 0 1
    outer loop
      vertex 107.073 6.85317 4
      vertex 108.927 6.85317 4
      vertex 112 8 4
    endloop
  endfacet
  facet normal 0 0 1
    outer loop
      vertex 112 8 4
      vertex 65 6.5 4
      vertex 71 6.5 4
    endloop
  endfacet
  facet normal 0 0 1
    outer loop
      vertex 108.927 6.85317 4
      vertex 110.427 5.76336 4
      vertex 112 8 4
    endloop
  endfacet
  facet normal 0 0 1
    outer loop
      vertex 112 8 4
      vertex 71 6.5 4
      vertex 73 6.5 4
    endloop
  endfacet
  facet normal 0 0 1
    outer loop
      vertex 63 1.5 4
      vertex 63 6.5 4
      vertex 0 8 4
    endloop
  endfacet
  facet normal 0 0 1
    outer loop
      vertex 10.4271 2.23664 4
      vertex 8.92705 1.14683 4
      vertex 11 1.5 4
    endloop
  endfacet
  facet normal 0 0 1
    outer loop
      vertex 107.073 1.14683 4
      vertex 103 1.5 4
      vertex 112 0 4
    endloop
  endfacet
  facet normal 0 0 1
    outer loop
      vertex 103 6.5 4
      vertex 73 6.5 4
      vertex 103 1.5 4
    endloop
  endfacet
  facet normal 0 0 1
    outer loop
      vertex 112 8 4
      vertex 73 6.5 4
      vertex 103 6.5 4
    endloop
  endfacet
  facet normal 0 0 1
    outer loop
      vertex 112 8 4
      vertex 103 6.5 4
      vertex 105 6.5 4
    endloop
  endfacet
  facet normal 0 0 1
    outer loop
      vertex 111 4 4
      vertex 110.427 2.23664 4
      vertex 112 0 4
    endloop
  endfacet
  facet normal 0 0 1
    outer loop
      vertex 105.573 5.76336 4
      vertex 105 6.5 4
      vertex 105 4 4
    endloop
  endfacet
  facet normal 0 0 1
    outer loop
      vertex 107.073 6.85317 4
      vertex 105 6.5 4
      vertex 105.573 5.76336 4
    endloop
  endfacet
  facet normal 0 0 1
    outer loop
      vertex 112 8 4
      vertex 105 6.5 4
      vertex 107.073 6.85317 4
    endloop
  endfacet
  facet normal 0 0 1
    outer loop
      vertex 107.073 1.14683 4
      vertex 105 1.5 4
      vertex 103 1.5 4
    endloop
  endfacet
  facet normal 0 0 1
    outer loop
      vertex 112 8 4
      vertex 111 4 4
      vertex 112 0 4
    endloop
  endfacet
  facet normal 0 0 1
    outer loop
      vertex 112 8 4
      vertex 110.427 5.76336 4
      vertex 111 4 4
    endloop
  endfacet
  facet normal 0 0 1
    outer loop
      vertex 110.427 2.23664 4
      vertex 108.927 1.14683 4
      vertex 112 0 4
    endloop
  endfacet
  facet normal 0 0 1
    outer loop
      vertex 108.927 1.14683 4
      vertex 107.073 1.14683 4
      vertex 112 0 4
    endloop
  endfacet
  facet normal 0 0 1
    outer loop
      vertex 105 4 4
      vertex 105 1.5 4
      vertex 105.573 2.23664 4
    endloop
  endfacet
  facet normal 0 0 1
    outer loop
      vertex 8.92705 6.85317 4
      vertex 11 6.5 4
      vertex 13 6.5 4
    endloop
  endfacet
  facet normal 0 0 1
    outer loop
      vertex 8.92705 6.85317 4
      vertex 10.4271 5.76336 4
      vertex 11 6.5 4
    endloop
  endfacet
  facet normal 0 0 1
    outer loop
      vertex 5 6.5 4
      vertex 5 4 4
      vertex 5.57295 5.76336 4
    endloop
  endfacet
  facet normal 0 0 1
    outer loop
      vertex 73 1.5 4
      vertex 71 1.5 4
      vertex 112 0 4
    endloop
  endfacet
  facet normal 0 0 1
    outer loop
      vertex 107.073 1.14683 4
      vertex 105.573 2.23664 4
      vertex 105 1.5 4
    endloop
  endfacet
  facet normal 0 0 1
    outer loop
      vertex 13 6.5 4
      vertex 13 1.5 4
      vertex 63 1.5 4
    endloop
  endfacet
  facet normal 1 0 0
    outer loop
      vertex 112 0 4
      vertex 112 0 0
      vertex 112 8 0
    endloop
  endfacet
  facet normal 1 0 0
    outer loop
      vertex 112 8 4
      vertex 112 0 4
      vertex 112 8 0
    endloop
  endfacet
  facet normal 1 0 0
    outer loop
      vertex 3 6.5 0
      vertex 3 6.5 4
      vertex 3 1.5 4
    endloop
  endfacet
  facet normal 1 0 0
    outer loop
      vertex 3 1.5 0
      vertex 3 6.5 0
      vertex 3 1.5 4
    endloop
  endfacet
  facet normal 0 -1 0
    outer loop
      vertex 5 6.5 0
      vertex 5 6.5 4
      vertex 3 6.5 4
    endloop
  endfacet
  facet normal 0 -1 0
    outer loop
      vertex 3 6.5 0
      vertex 5 6.5 0
      vertex 3 6.5 4
    endloop
  endfacet
  facet normal -1 0 0
    outer loop
      vertex 5 6.5 4
      vertex 5 6.5 0
      vertex 5 4 4
    endloop
  endfacet
  facet normal -1 0 0
    outer loop
      vertex 5 4 4
      vertex 5 6.5 0
      vertex 5 1.5 4
    endloop
  endfacet
  facet normal -1 0 0
    outer loop
      vertex 5 1.5 4
      vertex 5 6.5 0
      vertex 5 1.5 0
    endloop
  endfacet
  facet normal 0 1 0
    outer loop
      vertex 5 1.5 4
      vertex 5 1.5 0
      vertex 3 1.5 4
    endloop
  endfacet
  facet normal 0 1 0
    outer loop
      vertex 3 1.5 4
      vertex 5 1.5 0
      vertex 3 1.5 0
    endloop
  endfacet
  facet normal 1 0 0
    outer loop
      vertex 11 6.5 0
      vertex 11 6.5 4
      vertex 11 4 4
    endloop
  endfacet
  facet normal 1 0 0
    outer loop
      vertex 11 1.5 0
      vertex 11 6.5 0
      vertex 11 1.5 4
    endloop
  endfacet
  facet normal 1 0 0
    outer loop
      vertex 11 1.5 4
      vertex 11 6.5 0
      vertex 11 4 4
    endloop
  endfacet
  facet normal 0 -1 0
    outer loop
      vertex 13 6.5 0
      vertex 13 6.5 4
      vertex 11 6.5 4
    endloop
  endfacet
  facet normal 0 -1 0
    outer loop
      vertex 11 6.5 0
      vertex 13 6.5 0
      vertex 11 6.5 4
    endloop
  endfacet
  facet normal -1 0 0
    outer loop
      vertex 13 6.5 4
      vertex 13 6.5 0
      vertex 13 1.5 4
    endloop
  endfacet
  facet normal -1 0 0
    outer loop
      vertex 13 1.5 4
      vertex 13 6.5 0
      vertex 13 1.5 0
    endloop
  endfacet
  facet normal 0 1 0
    outer loop
      vertex 13 1.5 4
      vertex 13 1.5 0
      vertex 11 1.5 4
    endloop
  endfacet
  facet normal 0 1 0
    outer loop
      vertex 11 1.5 4
      vertex 13 1.5 0
      vertex 11 1.5 0
    endloop
  endfacet
  facet normal 1 0 0
    outer loop
      vertex 63 6.5 0
      vertex 63 6.5 4
      vertex 63 1.5 4
    endloop
  endfacet
  facet normal 1 0 0
    outer loop
      vertex 63 1.5 0
      vertex 63 6.5 0
      vertex 63 1.5 4
    endloop
  endfacet
  facet normal 0 -1 0
    outer loop
      vertex 65 6.5 0
      vertex 65 6.5 4
      vertex 63 6.5 4
    endloop
  endfacet
  facet normal 0 -1 0
    outer loop
      vertex 63 6.5 0
      vertex 65 6.5 0
      vertex 63 6.5 4
    endloop
  endfacet
  facet normal -1 0 0
    outer loop
      vertex 65 6.5 4
      vertex 65 6.5 0
      vertex 65 1.5 4
    endloop
  endfacet
  facet normal -1 0 0
    outer loop
      vertex 65 1.5 4
      vertex 65 6.5 0
      vertex 65 1.5 0
    endloop
  endfacet
  facet normal 0 1 0
    outer loop
      vertex 65 1.5 4
      vertex 65 1.5 0
      vertex 63 1.5 4
    endloop
  endfacet
  facet normal 0 1 0
    outer loop
      vertex 63 1.5 4
      vertex 65 1.5 0
      vertex 63 1.5 0
    endloop
  endfacet
  facet normal 1 0 0
    outer loop
      vertex 71 6.5 0
      vertex 71 6.5 4
      vertex 71 1.5 4
    endloop
  endfacet
  facet normal 1 0 0
    outer loop
      vertex 71 1.5 0
      vertex 71 6.5 0
      vertex 71 1.5 4
    endloop
  endfacet
  facet normal 0 -1 0
    outer loop
      vertex 73 6.5 0
      vertex 73 6.5 4
      vertex 71 6.5 4
    endloop
  endfacet
  facet normal 0 -1 0
    outer loop
      vertex 71 6.5 0
      vertex 73 6.5 0
      vertex 71 6.5 4
    endloop
  endfacet
  facet normal -1 0 0
    outer loop
      vertex 73 6.5 4
      vertex 73 6.5 0
      vertex 73 1.5 4
    endloop
  endfacet
  facet normal -1 0 0
    outer loop
      vertex 73 1.5 4
      vertex 73 6.5 0
      vertex 73 1.5 0
    endloop
  endfacet
  facet normal 0 1 0
    outer loop
      vertex 73 1.5 4
      vertex 73 1.5 0
      vertex 71 1.5 4
    endloop
  endfacet
  facet normal 0 1 0
    outer loop
      vertex 71 1.5 4
      vertex 73 1.5 0
      vertex 71 1.5 0
    endloop
  endfacet
  facet normal 1 0 0
    outer loop
      vertex 103 6.5 0
      vertex 103 6.5 4
      vertex 103 1.5 4
    endloop
  endfacet
  facet normal 1 0 0
    outer loop
      vertex 103 1.5 0
      vertex 103 6.5 0
      vertex 103 1.5 4
    endloop
  endfacet
  facet normal 0 -1 0
    outer loop
      vertex 105 6.5 0
      vertex 105 6.5 4
      vertex 103 6.5 4
    endloop
  endfacet
  facet normal 0 -1 0
    outer loop
      vertex 103 6.5 0
      vertex 105 6.5 0
      vertex 103 6.5 4
    endloop
  endfacet
  facet normal -1 0 0
    outer loop
      vertex 105 6.5 4
      vertex 105 6.5 0
      vertex 105 4 4
    endloop
  endfacet
  facet normal -1 0 0
    outer loop
      vertex 105 4 4
      vertex 105 6.5 0
      vertex 105 1.5 4
    endloop
  endfacet
  facet normal -1 0 0
    outer loop
      vertex 105 1.5 4
      vertex 105 6.5 0
      vertex 105 1.5 0
    endloop
  endfacet
  facet normal 0 1 0
    outer loop
      vertex 105 1.5 4
      vertex 105 1.5 0
      vertex 103 1.5 4
    endloop
  endfacet
  facet normal 0 1 0
    outer loop
      vertex 103 1.5 4
      vertex 105 1.5 0
      vertex 103 1.5 0
    endloop
  endfacet
  facet normal -0.951057 0.309017 0
    outer loop
      vertex 5 4 4
      vertex 5 4 4.1
      vertex 5.57295 5.76336 4
    endloop
  endfacet
  facet normal -0.951057 0.309017 0
    outer loop
      vertex 5.57295 5.76336 4
      vertex 5 4 4.1
      vertex 5 4 6
    endloop
  endfacet
  facet normal -0.951057 0.309017 0
    outer loop
      vertex 5.57295 5.76336 4
      vertex 5 4 6
      vertex 5.57295 5.76336 6
    endloop
  endfacet
  facet normal -0.951057 -0.309017 0
    outer loop
      vertex 5 4 4
      vertex 5.57295 2.23664 4
      vertex 5 4 4.1
    endloop
  endfacet
  facet normal -0.951057 -0.309017 0
    outer loop
      vertex 5 4 4.1
      vertex 5.57295 2.23664 4
      vertex 5.57295 2.23664 6
    endloop
  endfacet
  facet normal -0.951057 -0.309017 0
    outer loop
      vertex 5 4 4.1
      vertex 5.57295 2.23664 6
      vertex 5 4 6
    endloop
  endfacet
  facet normal -0.587785 -0.809017 0
    outer loop
      vertex 5.57295 2.23664 6
      vertex 5.57295 2.23664 4
      vertex 7.07295 1.14683 4
    endloop
  endfacet
  facet normal -0.587785 -0.809017 0
    outer loop
      vertex 7.07295 1.14683 6
      vertex 5.57295 2.23664 6
      vertex 7.07295 1.14683 4
    endloop
  endfacet
  facet normal 0 -1 0
    outer loop
      vertex 7.07295 1.14683 6
      vertex 7.07295 1.14683 4
      vertex 8.92705 1.14683 4
    endloop
  endfacet
  facet normal 0 -1 0
    outer loop
      vertex 8.92705 1.14683 6
      vertex 7.07295 1.14683 6
      vertex 8.92705 1.14683 4
    endloop
  endfacet
  facet normal 0.587785 -0.809017 0
    outer loop
      vertex 8.92705 1.14683 6
      vertex 8.92705 1.14683 4
      vertex 10.4271 2.23664 4
    endloop
  endfacet
  facet normal 0.587785 -0.809017 0
    outer loop
      vertex 10.4271 2.23664 6
      vertex 8.92705 1.14683 6
      vertex 10.4271 2.23664 4
    endloop
  endfacet
  facet normal 0.951057 -0.309017 0
    outer loop
      vertex 10.4271 2.23664 6
      vertex 10.4271 2.23664 4
      vertex 11 4 4
    endloop
  endfacet
  facet normal 0.951057 -0.309017 0
    outer loop
      vertex 11 4 6
      vertex 10.4271 2.23664 6
      vertex 11 4 4.1
    endloop
  endfacet
  facet normal 0.951057 -0.309017 0
    outer loop
      vertex 11 4 4.1
      vertex 10.4271 2.23664 6
      vertex 11 4 4
    endloop
  endfacet
  facet normal 0.951057 0.309017 0
    outer loop
      vertex 11 4 4
      vertex 10.4271 5.76336 4
      vertex 10.4271 5.76336 6
    endloop
  endfacet
  facet normal 0.951057 0.309017 0
    outer loop
      vertex 11 4 4.1
      vertex 11 4 4
      vertex 10.4271 5.76336 6
    endloop
  endfacet
  facet normal 0.951057 0.309017 0
    outer loop
      vertex 11 4 6
      vertex 11 4 4.1
      vertex 10.4271 5.76336 6
    endloop
  endfacet
  facet normal 0.587785 0.809017 0
    outer loop
      vertex 8.92705 6.85317 4
      vertex 8.92705 6.85317 6
      vertex 10.4271 5.76336 4
    endloop
  endfacet
  facet normal 0.587785 0.809017 0
    outer loop
      vertex 10.4271 5.76336 4
      vertex 8.92705 6.85317 6
      vertex 10.4271 5.76336 6
    endloop
  endfacet
  facet normal 0 1 0
    outer loop
      vertex 7.07295 6.85317 4
      vertex 7.07295 6.85317 6
      vertex 8.92705 6.85317 4
    endloop
  endfacet
  facet normal 0 1 0
    outer loop
      vertex 8.92705 6.85317 4
      vertex 7.07295 6.85317 6
      vertex 8.92705 6.85317 6
    endloop
  endfacet
  facet normal -0.587785 0.809017 0
    outer loop
      vertex 5.57295 5.76336 4
      vertex 5.57295 5.76336 6
      vertex 7.07295 6.85317 4
    endloop
  endfacet
  facet normal -0.587785 0.809017 0
    outer loop
      vertex 7.07295 6.85317 4
      vertex 5.57295 5.76336 6
      vertex 7.07295 6.85317 6
    endloop
  endfacet
  facet normal -0.951057 0.309017 0
    outer loop
      vertex 105 4 4
      vertex 105 4 4.1
      vertex 105.573 5.76336 4
    endloop
  endfacet
  facet normal -0.951057 0.309017 0
    outer loop
      vertex 105.573 5.76336 4
      vertex 105 4 4.1
      vertex 105 4 6
    endloop
  endfacet
  facet normal -0.951057 0.309017 0
    outer loop
      vertex 105.573 5.76336 4
      vertex 105 4 6
      vertex 105.573 5.76336 6
    endloop
  endfacet
  facet normal -0.951057 -0.309017 0
    outer loop
      vertex 105 4 4
      vertex 105.573 2.23664 4
      vertex 105 4 4.1
    endloop
  endfacet
  facet normal -0.951057 -0.309017 0
    outer loop
      vertex 105 4 4.1
      vertex 105.573 2.23664 4
      vertex 105.573 2.23664 6
    endloop
  endfacet
  facet normal -0.951057 -0.309017 0
    outer loop
      vertex 105 4 4.1
      vertex 105.573 2.23664 6
      vertex 105 4 6
    endloop
  endfacet
  facet normal -0.587785 -0.809017 0
    outer loop
      vertex 105.573 2.23664 6
      vertex 105.573 2.23664 4
      vertex 107.073 1.14683 4
    endloop
  endfacet
  facet normal -0.587785 -0.809017 0
    outer loop
      vertex 107.073 1.14683 6
      vertex 105.573 2.23664 6
      vertex 107.073 1.14683 4
    endloop
  endfacet
  facet normal 0 -1 0
    outer loop
      vertex 107.073 1.14683 6
      vertex 107.073 1.14683 4
      vertex 108.927 1.14683 4
    endloop
  endfacet
  facet normal 0 -1 0
    outer loop
      vertex 108.927 1.14683 6
      vertex 107.073 1.14683 6
      vertex 108.927 1.14683 4
    endloop
  endfacet
  facet normal 0.587785 -0.809017 0
    outer loop
      vertex 108.927 1.14683 6
      vertex 108.927 1.14683 4
      vertex 110.427 2.23664 4
    endloop
  endfacet
  facet normal 0.587785 -0.809017 0
    outer loop
      vertex 110.427 2.23664 6
      vertex 108.927 1.14683 6
      vertex 110.427 2.23664 4
    endloop
  endfacet
  facet normal 0.951057 -0.309017 0
    outer loop
      vertex 110.427 2.23664 6
      vertex 110.427 2.23664 4
      vertex 111 4 4
    endloop
  endfacet
  facet normal 0.951057 -0.309017 0
    outer loop
      vertex 111 4 6
      vertex 110.427 2.23664 6
      vertex 111 4 4
    endloop
  endfacet
  facet normal 0.951057 0.309017 0
    outer loop
      vertex 111 4 4
      vertex 110.427 5.76336 4
      vertex 110.427 5.76336 6
    endloop
  endfacet
  facet normal 0.951057 0.309017 0
    outer loop
      vertex 111 4 6
      vertex 111 4 4
      vertex 110.427 5.76336 6
    endloop
  endfacet
  facet normal 0.587785 0.809017 0
    outer loop
      vertex 108.927 6.85317 4
      vertex 108.927 6.85317 6
      vertex 110.427 5.76336 4
    endloop
  endfacet
  facet normal 0.587785 0.809017 0
    outer loop
      vertex 110.427 5.76336 4
      vertex 108.927 6.85317 6
      vertex 110.427 5.76336 6
    endloop
  endfacet
  facet normal 0 1 0
    outer loop
      vertex 107.073 6.85317 4
      vertex 107.073 6.85317 6
      vertex 108.927 6.85317 4
    endloop
  endfacet
  facet normal 0 1 0
    outer loop
      vertex 108.927 6.85317 4
      vertex 107.073 6.85317 6
      vertex 108.927 6.85317 6
    endloop
  endfacet
  facet normal -0.587785 0.809017 0
    outer loop
      vertex 105.573 5.76336 4
      vertex 105.573 5.76336 6
      vertex 107.073 6.85317 4
    endloop
  endfacet
  facet normal -0.587785 0.809017 0
    outer loop
      vertex 107.073 6.85317 4
      vertex 105.573 5.76336 6
      vertex 107.073 6.85317 6
    endloop
  endfacet
  facet normal 0 0 1
    outer loop
      vertex 5.57295 5.76336 6
      vertex 5 4 6
      vertex 5.57295 2.23664 6
    endloop
  endfacet
  facet normal 0 0 1
    outer loop
      vertex 8.92705 1.14683 6
      vertex 5.57295 5.76336 6
      vertex 7.07295 1.14683 6
    endloop
  endfacet
  facet normal 0 0 1
    outer loop
      vertex 7.07295 1.14683 6
      vertex 5.57295 5.76336 6
      vertex 5.57295 2.23664 6
    endloop
  endfacet
  facet normal 0 0 1
    outer loop
      vertex 10.4271 2.23664 6
      vertex 5.57295 5.76336 6
      vertex 8.92705 1.14683 6
    endloop
  endfacet
  facet normal 0 0 1
    outer loop
      vertex 11 4 6
      vertex 5.57295 5.76336 6
      vertex 10.4271 2.23664 6
    endloop
  endfacet
  facet normal 0 0 1
    outer loop
      vertex 10.4271 5.76336 6
      vertex 5.57295 5.76336 6
      vertex 11 4 6
    endloop
  endfacet
  facet normal 0 0 1
    outer loop
      vertex 8.92705 6.85317 6
      vertex 5.57295 5.76336 6
      vertex 10.4271 5.76336 6
    endloop
  endfacet
  facet normal 0 0 1
    outer loop
      vertex 7.07295 6.85317 6
      vertex 5.57295 5.76336 6
      vertex 8.92705 6.85317 6
    endloop
  endfacet
  facet normal 0 0 1
    outer loop
      vertex 105.573 5.76336 6
      vertex 105 4 6
      vertex 105.573 2.23664 6
    endloop
  endfacet
  facet normal 0 0 1
    outer loop
      vertex 108.927 1.14683 6
      vertex 105.573 5.76336 6
      vertex 107.073 1.14683 6
    endloop
  endfacet
  facet normal 0 0 1
    outer loop
      vertex 107.073 1.14683 6
      vertex 105.573 5.76336 6
      vertex 105.573 2.23664 6
    endloop
  endfacet
  facet normal 0 0 1
    outer loop
      vertex 110.427 2.23664 6
      vertex 105.573 5.76336 6
      vertex 108.927 1.14683 6
    endloop
  endfacet
  facet normal 0 0 1
    outer loop
      vertex 111 4 6
      vertex 105.573 5.76336 6
      vertex 110.427 2.23664 6
    endloop
  endfacet
  facet normal 0 0 1
    outer loop
      vertex 110.427 5.76336 6
      vertex 105.573 5.76336 6
      vertex 111 4 6
    endloop
  endfacet
  facet normal 0 0 1
    outer loop
      vertex 108.927 6.85317 6
      vertex 105.573 5.76336 6
      vertex 110.427 5.76336 6
    endloop
  endfacet
  facet normal 0 0 1
    outer loop
      vertex 107.073 6.85317 6
      vertex 105.573 5.76336 6
      vertex 108.927 6.85317 6
    endloop
  endfacet
endsolid OpenSCAD_Model
