solid OpenSCAD_Model
  facet normal -0 0 -1
    outer loop
      vertex -14 0 -3
      vertex -13.8896 1.75466 -3
      vertex -13.8896 -1.75466 -3
    endloop
  endfacet
  facet normal 0 -0 -1
    outer loop
      vertex -13.8896 -1.75466 -3
      vertex -13.8896 1.75466 -3
      vertex -13.5602 3.48166 -3
    endloop
  endfacet
  facet normal 0 0 -1
    outer loop
      vertex -13.8896 -1.75466 -3
      vertex -13.5602 3.48166 -3
      vertex -13.0169 5.15374 -3
    endloop
  endfacet
  facet normal 0 0 -1
    outer loop
      vertex -13.8896 -1.75466 -3
      vertex -13.0169 5.15374 -3
      vertex -12.2683 6.74455 -3
    endloop
  endfacet
  facet normal 0 0 -1
    outer loop
      vertex -13.8896 -1.75466 -3
      vertex -12.2683 6.74455 -3
      vertex -11.3262 8.22899 -3
    endloop
  endfacet
  facet normal 0 0 -1
    outer loop
      vertex -13.8896 -1.75466 -3
      vertex -11.3262 8.22899 -3
      vertex -10.2056 9.58366 -3
    endloop
  endfacet
  facet normal 0 0 -1
    outer loop
      vertex -13.8896 -1.75466 -3
      vertex -10.2056 9.58366 -3
      vertex -8.92394 10.7872 -3
    endloop
  endfacet
  facet normal 0 0 -1
    outer loop
      vertex -13.8896 -1.75466 -3
      vertex -8.92394 10.7872 -3
      vertex -7.50157 11.8206 -3
    endloop
  endfacet
  facet normal 0 0 -1
    outer loop
      vertex -13.8896 -1.75466 -3
      vertex -7.50157 11.8206 -3
      vertex -5.96091 12.6676 -3
    endloop
  endfacet
  facet normal 0 0 -1
    outer loop
      vertex -13.8896 -1.75466 -3
      vertex -5.96091 12.6676 -3
      vertex -4.32624 13.3148 -3
    endloop
  endfacet
  facet normal 0 0 -1
    outer loop
      vertex -13.8896 -1.75466 -3
      vertex -4.32624 13.3148 -3
      vertex -2.62334 13.752 -3
    endloop
  endfacet
  facet normal 0 0 -1
    outer loop
      vertex -13.8896 -1.75466 -3
      vertex -2.62334 13.752 -3
      vertex -0.879067 13.9724 -3
    endloop
  endfacet
  facet normal 0 0 -1
    outer loop
      vertex -13.8896 -1.75466 -3
      vertex -0.879067 13.9724 -3
      vertex 0.879067 13.9724 -3
    endloop
  endfacet
  facet normal 0 0 -1
    outer loop
      vertex -13.8896 -1.75466 -3
      vertex 0.879067 13.9724 -3
      vertex 2.62334 13.752 -3
    endloop
  endfacet
  facet normal 0 0 -1
    outer loop
      vertex -13.8896 -1.75466 -3
      vertex 2.62334 13.752 -3
      vertex 4.32624 13.3148 -3
    endloop
  endfacet
  facet normal 0 0 -1
    outer loop
      vertex -13.8896 -1.75466 -3
      vertex 4.32624 13.3148 -3
      vertex 5.96091 12.6676 -3
    endloop
  endfacet
  facet normal 0 0 -1
    outer loop
      vertex -13.8896 -1.75466 -3
      vertex 5.96091 12.6676 -3
      vertex 7.50157 11.8206 -3
    endloop
  endfacet
  facet normal 0 0 -1
    outer loop
      vertex -13.8896 -1.75466 -3
      vertex 7.50157 11.8206 -3
      vertex 8.92394 10.7872 -3
    endloop
  endfacet
  facet normal 0 0 -1
    outer loop
      vertex -13.8896 -1.75466 -3
      vertex 8.92394 10.7872 -3
      vertex 10.2056 9.58366 -3
    endloop
  endfacet
  facet normal 0 0 -1
    outer loop
      vertex -13.8896 -1.75466 -3
      vertex 10.2056 9.58366 -3
      vertex 11.3262 8.22899 -3
    endloop
  endfacet
  facet normal 0 0 -1
    outer loop
      vertex -13.8896 -1.75466 -3
      vertex 11.3262 8.22899 -3
      vertex 12.2683 6.74455 -3
    endloop
  endfacet
  facet normal 0 0 -1
    outer loop
      vertex -13.8896 -1.75466 -3
      vertex 12.2683 6.74455 -3
      vertex 13.0169 5.15374 -3
    endloop
  endfacet
  facet normal 0 0 -1
    outer loop
      vertex 0.999235 1.37533 -3
      vertex 13.0169 5.15374 -3
      vertex 13.5602 3.48166 -3
    endloop
  endfacet
  facet normal 0 0 -1
    outer loop
      vertex 1.6168 0.525329 -3
      vertex 13.5602 3.48166 -3
      vertex 13.8896 1.75466 -3
    endloop
  endfacet
  facet normal -0 0 -1
    outer loop
      vertex 1.37533 -0.999235 -3
      vertex 14 0 -3
      vertex 13.8896 -1.75466 -3
    endloop
  endfacet
  facet normal 0 0 -1
    outer loop
      vertex -13.8896 -1.75466 -3
      vertex 13.8896 -1.75466 -3
      vertex 13.5602 -3.48166 -3
    endloop
  endfacet
  facet normal 0 0 -1
    outer loop
      vertex -13.8896 -1.75466 -3
      vertex 13.5602 -3.48166 -3
      vertex 13.0169 -5.15374 -3
    endloop
  endfacet
  facet normal 0 0 -1
    outer loop
      vertex -13.8896 -1.75466 -3
      vertex 13.0169 -5.15374 -3
      vertex 12.2683 -6.74455 -3
    endloop
  endfacet
  facet normal 0 0 -1
    outer loop
      vertex -13.8896 -1.75466 -3
      vertex 12.2683 -6.74455 -3
      vertex 11.3262 -8.22899 -3
    endloop
  endfacet
  facet normal 0 0 -1
    outer loop
      vertex -13.8896 -1.75466 -3
      vertex 11.3262 -8.22899 -3
      vertex 10.2056 -9.58366 -3
    endloop
  endfacet
  facet normal 0 0 -1
    outer loop
      vertex -13.8896 -1.75466 -3
      vertex 10.2056 -9.58366 -3
      vertex 8.92394 -10.7872 -3
    endloop
  endfacet
  facet normal 0 0 -1
    outer loop
      vertex -13.8896 -1.75466 -3
      vertex 8.92394 -10.7872 -3
      vertex 7.50157 -11.8206 -3
    endloop
  endfacet
  facet normal 0 0 -1
    outer loop
      vertex -13.8896 -1.75466 -3
      vertex 7.50157 -11.8206 -3
      vertex 5.96091 -12.6676 -3
    endloop
  endfacet
  facet normal 0 0 -1
    outer loop
      vertex -13.8896 -1.75466 -3
      vertex 5.96091 -12.6676 -3
      vertex 4.32624 -13.3148 -3
    endloop
  endfacet
  facet normal 0 0 -1
    outer loop
      vertex -13.8896 -1.75466 -3
      vertex 4.32624 -13.3148 -3
      vertex 2.62334 -13.752 -3
    endloop
  endfacet
  facet normal 0 0 -1
    outer loop
      vertex -13.8896 -1.75466 -3
      vertex 2.62334 -13.752 -3
      vertex 0.879067 -13.9724 -3
    endloop
  endfacet
  facet normal 0 0 -1
    outer loop
      vertex -13.8896 -1.75466 -3
      vertex 0.879067 -13.9724 -3
      vertex -0.879067 -13.9724 -3
    endloop
  endfacet
  facet normal 0 0 -1
    outer loop
      vertex -13.8896 -1.75466 -3
      vertex -0.879067 -13.9724 -3
      vertex -2.62334 -13.752 -3
    endloop
  endfacet
  facet normal 0 0 -1
    outer loop
      vertex -13.8896 -1.75466 -3
      vertex -2.62334 -13.752 -3
      vertex -4.32624 -13.3148 -3
    endloop
  endfacet
  facet normal 0 0 -1
    outer loop
      vertex -13.8896 -1.75466 -3
      vertex -4.32624 -13.3148 -3
      vertex -5.96091 -12.6676 -3
    endloop
  endfacet
  facet normal 0 0 -1
    outer loop
      vertex -13.8896 -1.75466 -3
      vertex -5.96091 -12.6676 -3
      vertex -7.50157 -11.8206 -3
    endloop
  endfacet
  facet normal 0 0 -1
    outer loop
      vertex -13.8896 -1.75466 -3
      vertex -7.50157 -11.8206 -3
      vertex -8.92394 -10.7872 -3
    endloop
  endfacet
  facet normal 0 0 -1
    outer loop
      vertex -13.8896 -1.75466 -3
      vertex -8.92394 -10.7872 -3
      vertex -10.2056 -9.58366 -3
    endloop
  endfacet
  facet normal 0 0 -1
    outer loop
      vertex -13.8896 -1.75466 -3
      vertex -10.2056 -9.58366 -3
      vertex -11.3262 -8.22899 -3
    endloop
  endfacet
  facet normal 0 0 -1
    outer loop
      vertex -13.8896 -1.75466 -3
      vertex -11.3262 -8.22899 -3
      vertex -12.2683 -6.74455 -3
    endloop
  endfacet
  facet normal 0 0 -1
    outer loop
      vertex -13.8896 -1.75466 -3
      vertex -12.2683 -6.74455 -3
      vertex -13.0169 -5.15374 -3
    endloop
  endfacet
  facet normal 0 0 -1
    outer loop
      vertex -13.8896 -1.75466 -3
      vertex -13.0169 -5.15374 -3
      vertex -13.5602 -3.48166 -3
    endloop
  endfacet
  facet normal -0 0 -1
    outer loop
      vertex 0.999235 1.37533 -3
      vertex 13.5602 3.48166 -3
      vertex 1.37533 0.999235 -3
    endloop
  endfacet
  facet normal -0 0 -1
    outer loop
      vertex 1.6168 0.525329 -3
      vertex 13.8896 1.75466 -3
      vertex 1.7 0 -3
    endloop
  endfacet
  facet normal 0 0 -1
    outer loop
      vertex 0.525329 -1.6168 -3
      vertex 13.8896 -1.75466 -3
      vertex 0 -1.7 -3
    endloop
  endfacet
  facet normal 0 0 -1
    outer loop
      vertex -13.8896 -1.75466 -3
      vertex -1.37533 -0.999235 -3
      vertex -0.999235 -1.37533 -3
    endloop
  endfacet
  facet normal 0 0 -1
    outer loop
      vertex -13.8896 -1.75466 -3
      vertex -0.999235 -1.37533 -3
      vertex -0.525329 -1.6168 -3
    endloop
  endfacet
  facet normal 0 0 -1
    outer loop
      vertex -13.8896 -1.75466 -3
      vertex -0.525329 -1.6168 -3
      vertex 0 -1.7 -3
    endloop
  endfacet
  facet normal -0 0 -1
    outer loop
      vertex -13.8896 -1.75466 -3
      vertex 0 -1.7 -3
      vertex 13.8896 -1.75466 -3
    endloop
  endfacet
  facet normal 0 0 -1
    outer loop
      vertex 0.999235 -1.37533 -3
      vertex 13.8896 -1.75466 -3
      vertex 0.525329 -1.6168 -3
    endloop
  endfacet
  facet normal 0 0 -1
    outer loop
      vertex 1.37533 -0.999235 -3
      vertex 13.8896 -1.75466 -3
      vertex 0.999235 -1.37533 -3
    endloop
  endfacet
  facet normal 0 0 -1
    outer loop
      vertex 1.7 0 -3
      vertex 14 0 -3
      vertex 1.6168 -0.525329 -3
    endloop
  endfacet
  facet normal -0 0 -1
    outer loop
      vertex 1.6168 -0.525329 -3
      vertex 14 0 -3
      vertex 1.37533 -0.999235 -3
    endloop
  endfacet
  facet normal -0 0 -1
    outer loop
      vertex 1.7 0 -3
      vertex 13.8896 1.75466 -3
      vertex 14 0 -3
    endloop
  endfacet
  facet normal 0 0 -1
    outer loop
      vertex -1.37533 -0.999235 -3
      vertex -13.8896 -1.75466 -3
      vertex -1.6168 -0.525329 -3
    endloop
  endfacet
  facet normal -0 0 -1
    outer loop
      vertex 1.37533 0.999235 -3
      vertex 13.5602 3.48166 -3
      vertex 1.6168 0.525329 -3
    endloop
  endfacet
  facet normal 0 0 -1
    outer loop
      vertex -1.6168 -0.525329 -3
      vertex -13.8896 -1.75466 -3
      vertex -1.7 0 -3
    endloop
  endfacet
  facet normal -0 0 -1
    outer loop
      vertex 0.525329 1.6168 -3
      vertex 13.0169 5.15374 -3
      vertex 0.999235 1.37533 -3
    endloop
  endfacet
  facet normal 0 -0 -1
    outer loop
      vertex -0.999235 1.37533 -3
      vertex -13.8896 -1.75466 -3
      vertex -0.525329 1.6168 -3
    endloop
  endfacet
  facet normal -0 0 -1
    outer loop
      vertex 0 1.7 -3
      vertex 13.0169 5.15374 -3
      vertex 0.525329 1.6168 -3
    endloop
  endfacet
  facet normal 0 0 -1
    outer loop
      vertex -0.525329 1.6168 -3
      vertex 13.0169 5.15374 -3
      vertex 0 1.7 -3
    endloop
  endfacet
  facet normal 0 0 -1
    outer loop
      vertex -13.8896 -1.75466 -3
      vertex 13.0169 5.15374 -3
      vertex -0.525329 1.6168 -3
    endloop
  endfacet
  facet normal 0 -0 -1
    outer loop
      vertex -1.37533 0.999235 -3
      vertex -13.8896 -1.75466 -3
      vertex -0.999235 1.37533 -3
    endloop
  endfacet
  facet normal 0 -0 -1
    outer loop
      vertex -1.6168 0.525329 -3
      vertex -13.8896 -1.75466 -3
      vertex -1.37533 0.999235 -3
    endloop
  endfacet
  facet normal 0 -0 -1
    outer loop
      vertex -1.7 0 -3
      vertex -13.8896 -1.75466 -3
      vertex -1.6168 0.525329 -3
    endloop
  endfacet
  facet normal -0.998027 0.0627904 0
    outer loop
      vertex -14 0 -3
      vertex -14 0 -1
      vertex -13.8896 1.75466 -3
    endloop
  endfacet
  facet normal -0.998027 0.0627904 0
    outer loop
      vertex -13.8896 1.75466 -3
      vertex -14 0 -1
      vertex -13.8896 1.75466 -1
    endloop
  endfacet
  facet normal -0.998027 -0.0627904 -0
    outer loop
      vertex -14 0 -3
      vertex -13.8896 -1.75466 -3
      vertex -14 0 -1
    endloop
  endfacet
  facet normal -0.998027 -0.0627904 0
    outer loop
      vertex -14 0 -1
      vertex -13.8896 -1.75466 -3
      vertex -13.8896 -1.75466 -1
    endloop
  endfacet
  facet normal -0.982287 -0.187382 -0
    outer loop
      vertex -13.8896 -1.75466 -3
      vertex -13.5602 -3.48166 -3
      vertex -13.8896 -1.75466 -1
    endloop
  endfacet
  facet normal -0.982287 -0.187382 0
    outer loop
      vertex -13.8896 -1.75466 -1
      vertex -13.5602 -3.48166 -3
      vertex -13.5602 -3.48166 -1
    endloop
  endfacet
  facet normal -0.951057 -0.309017 -0
    outer loop
      vertex -13.5602 -3.48166 -3
      vertex -13.0169 -5.15374 -3
      vertex -13.5602 -3.48166 -1
    endloop
  endfacet
  facet normal -0.951057 -0.309017 0
    outer loop
      vertex -13.5602 -3.48166 -1
      vertex -13.0169 -5.15374 -3
      vertex -13.0169 -5.15374 -1
    endloop
  endfacet
  facet normal -0.904827 -0.425779 -0
    outer loop
      vertex -13.0169 -5.15374 -3
      vertex -12.2683 -6.74455 -3
      vertex -13.0169 -5.15374 -1
    endloop
  endfacet
  facet normal -0.904827 -0.425779 0
    outer loop
      vertex -13.0169 -5.15374 -1
      vertex -12.2683 -6.74455 -3
      vertex -12.2683 -6.74455 -1
    endloop
  endfacet
  facet normal -0.844328 -0.535827 -0
    outer loop
      vertex -12.2683 -6.74455 -3
      vertex -11.3262 -8.22899 -3
      vertex -12.2683 -6.74455 -1
    endloop
  endfacet
  facet normal -0.844328 -0.535827 0
    outer loop
      vertex -12.2683 -6.74455 -1
      vertex -11.3262 -8.22899 -3
      vertex -11.3262 -8.22899 -1
    endloop
  endfacet
  facet normal -0.770513 -0.637424 -0
    outer loop
      vertex -11.3262 -8.22899 -3
      vertex -10.2056 -9.58366 -3
      vertex -11.3262 -8.22899 -1
    endloop
  endfacet
  facet normal -0.770513 -0.637424 0
    outer loop
      vertex -11.3262 -8.22899 -1
      vertex -10.2056 -9.58366 -3
      vertex -10.2056 -9.58366 -1
    endloop
  endfacet
  facet normal -0.684547 -0.728969 0
    outer loop
      vertex -10.2056 -9.58366 -1
      vertex -10.2056 -9.58366 -3
      vertex -8.92394 -10.7872 -3
    endloop
  endfacet
  facet normal -0.684547 -0.728969 0
    outer loop
      vertex -8.92394 -10.7872 -1
      vertex -10.2056 -9.58366 -1
      vertex -8.92394 -10.7872 -3
    endloop
  endfacet
  facet normal -0.587785 -0.809017 0
    outer loop
      vertex -8.92394 -10.7872 -1
      vertex -8.92394 -10.7872 -3
      vertex -7.50157 -11.8206 -3
    endloop
  endfacet
  facet normal -0.587785 -0.809017 0
    outer loop
      vertex -7.50157 -11.8206 -1
      vertex -8.92394 -10.7872 -1
      vertex -7.50157 -11.8206 -3
    endloop
  endfacet
  facet normal -0.481754 -0.876307 0
    outer loop
      vertex -7.50157 -11.8206 -1
      vertex -7.50157 -11.8206 -3
      vertex -5.96091 -12.6676 -3
    endloop
  endfacet
  facet normal -0.481754 -0.876307 0
    outer loop
      vertex -5.96091 -12.6676 -1
      vertex -7.50157 -11.8206 -1
      vertex -5.96091 -12.6676 -3
    endloop
  endfacet
  facet normal -0.368124 -0.929777 0
    outer loop
      vertex -5.96091 -12.6676 -1
      vertex -5.96091 -12.6676 -3
      vertex -4.32624 -13.3148 -3
    endloop
  endfacet
  facet normal -0.368124 -0.929777 0
    outer loop
      vertex -4.32624 -13.3148 -1
      vertex -5.96091 -12.6676 -1
      vertex -4.32624 -13.3148 -3
    endloop
  endfacet
  facet normal -0.24869 -0.968583 0
    outer loop
      vertex -4.32624 -13.3148 -1
      vertex -4.32624 -13.3148 -3
      vertex -2.62334 -13.752 -3
    endloop
  endfacet
  facet normal -0.24869 -0.968583 0
    outer loop
      vertex -2.62334 -13.752 -1
      vertex -4.32624 -13.3148 -1
      vertex -2.62334 -13.752 -3
    endloop
  endfacet
  facet normal -0.125333 -0.992115 0
    outer loop
      vertex -2.62334 -13.752 -1
      vertex -2.62334 -13.752 -3
      vertex -0.879067 -13.9724 -3
    endloop
  endfacet
  facet normal -0.125333 -0.992115 0
    outer loop
      vertex -0.879067 -13.9724 -1
      vertex -2.62334 -13.752 -1
      vertex -0.879067 -13.9724 -3
    endloop
  endfacet
  facet normal 0 -1 0
    outer loop
      vertex -0.879067 -13.9724 -1
      vertex -0.879067 -13.9724 -3
      vertex 0.879067 -13.9724 -3
    endloop
  endfacet
  facet normal 0 -1 0
    outer loop
      vertex 0.879067 -13.9724 -1
      vertex -0.879067 -13.9724 -1
      vertex 0.879067 -13.9724 -3
    endloop
  endfacet
  facet normal 0.125333 -0.992115 0
    outer loop
      vertex 0.879067 -13.9724 -1
      vertex 0.879067 -13.9724 -3
      vertex 2.62334 -13.752 -3
    endloop
  endfacet
  facet normal 0.125333 -0.992115 0
    outer loop
      vertex 2.62334 -13.752 -1
      vertex 0.879067 -13.9724 -1
      vertex 2.62334 -13.752 -3
    endloop
  endfacet
  facet normal 0.24869 -0.968583 0
    outer loop
      vertex 2.62334 -13.752 -1
      vertex 2.62334 -13.752 -3
      vertex 4.32624 -13.3148 -3
    endloop
  endfacet
  facet normal 0.24869 -0.968583 0
    outer loop
      vertex 4.32624 -13.3148 -1
      vertex 2.62334 -13.752 -1
      vertex 4.32624 -13.3148 -3
    endloop
  endfacet
  facet normal 0.368124 -0.929777 0
    outer loop
      vertex 4.32624 -13.3148 -1
      vertex 4.32624 -13.3148 -3
      vertex 5.96091 -12.6676 -3
    endloop
  endfacet
  facet normal 0.368124 -0.929777 0
    outer loop
      vertex 5.96091 -12.6676 -1
      vertex 4.32624 -13.3148 -1
      vertex 5.96091 -12.6676 -3
    endloop
  endfacet
  facet normal 0.481754 -0.876307 0
    outer loop
      vertex 5.96091 -12.6676 -1
      vertex 5.96091 -12.6676 -3
      vertex 7.50157 -11.8206 -3
    endloop
  endfacet
  facet normal 0.481754 -0.876307 0
    outer loop
      vertex 7.50157 -11.8206 -1
      vertex 5.96091 -12.6676 -1
      vertex 7.50157 -11.8206 -3
    endloop
  endfacet
  facet normal 0.587785 -0.809017 0
    outer loop
      vertex 7.50157 -11.8206 -1
      vertex 7.50157 -11.8206 -3
      vertex 8.92394 -10.7872 -3
    endloop
  endfacet
  facet normal 0.587785 -0.809017 0
    outer loop
      vertex 8.92394 -10.7872 -1
      vertex 7.50157 -11.8206 -1
      vertex 8.92394 -10.7872 -3
    endloop
  endfacet
  facet normal 0.684547 -0.728969 0
    outer loop
      vertex 8.92394 -10.7872 -1
      vertex 8.92394 -10.7872 -3
      vertex 10.2056 -9.58366 -3
    endloop
  endfacet
  facet normal 0.684547 -0.728969 0
    outer loop
      vertex 10.2056 -9.58366 -1
      vertex 8.92394 -10.7872 -1
      vertex 10.2056 -9.58366 -3
    endloop
  endfacet
  facet normal 0.770513 -0.637424 0
    outer loop
      vertex 10.2056 -9.58366 -1
      vertex 10.2056 -9.58366 -3
      vertex 11.3262 -8.22899 -3
    endloop
  endfacet
  facet normal 0.770513 -0.637424 0
    outer loop
      vertex 11.3262 -8.22899 -1
      vertex 10.2056 -9.58366 -1
      vertex 11.3262 -8.22899 -3
    endloop
  endfacet
  facet normal 0.844328 -0.535827 0
    outer loop
      vertex 11.3262 -8.22899 -1
      vertex 11.3262 -8.22899 -3
      vertex 12.2683 -6.74455 -3
    endloop
  endfacet
  facet normal 0.844328 -0.535827 0
    outer loop
      vertex 12.2683 -6.74455 -1
      vertex 11.3262 -8.22899 -1
      vertex 12.2683 -6.74455 -3
    endloop
  endfacet
  facet normal 0.904827 -0.425779 0
    outer loop
      vertex 12.2683 -6.74455 -1
      vertex 12.2683 -6.74455 -3
      vertex 13.0169 -5.15374 -3
    endloop
  endfacet
  facet normal 0.904827 -0.425779 0
    outer loop
      vertex 13.0169 -5.15374 -1
      vertex 12.2683 -6.74455 -1
      vertex 13.0169 -5.15374 -3
    endloop
  endfacet
  facet normal 0.951057 -0.309017 0
    outer loop
      vertex 13.0169 -5.15374 -1
      vertex 13.0169 -5.15374 -3
      vertex 13.5602 -3.48166 -3
    endloop
  endfacet
  facet normal 0.951057 -0.309017 0
    outer loop
      vertex 13.5602 -3.48166 -1
      vertex 13.0169 -5.15374 -1
      vertex 13.5602 -3.48166 -3
    endloop
  endfacet
  facet normal 0.982287 -0.187382 0
    outer loop
      vertex 13.5602 -3.48166 -1
      vertex 13.5602 -3.48166 -3
      vertex 13.8896 -1.75466 -3
    endloop
  endfacet
  facet normal 0.982287 -0.187382 0
    outer loop
      vertex 13.8896 -1.75466 -1
      vertex 13.5602 -3.48166 -1
      vertex 13.8896 -1.75466 -3
    endloop
  endfacet
  facet normal 0.998027 -0.0627904 0
    outer loop
      vertex 13.8896 -1.75466 -1
      vertex 13.8896 -1.75466 -3
      vertex 14 0 -3
    endloop
  endfacet
  facet normal 0.998027 -0.0627904 0
    outer loop
      vertex 14 0 -1
      vertex 13.8896 -1.75466 -1
      vertex 14 0 -3
    endloop
  endfacet
  facet normal 0.998027 0.0627904 0
    outer loop
      vertex 14 0 -3
      vertex 13.8896 1.75466 -3
      vertex 13.8896 1.75466 -1
    endloop
  endfacet
  facet normal 0.998027 0.0627904 -0
    outer loop
      vertex 14 0 -1
      vertex 14 0 -3
      vertex 13.8896 1.75466 -1
    endloop
  endfacet
  facet normal 0.982287 0.187382 0
    outer loop
      vertex 13.8896 1.75466 -3
      vertex 13.5602 3.48166 -3
      vertex 13.5602 3.48166 -1
    endloop
  endfacet
  facet normal 0.982287 0.187382 -0
    outer loop
      vertex 13.8896 1.75466 -1
      vertex 13.8896 1.75466 -3
      vertex 13.5602 3.48166 -1
    endloop
  endfacet
  facet normal 0.951057 0.309017 0
    outer loop
      vertex 13.5602 3.48166 -3
      vertex 13.0169 5.15374 -3
      vertex 13.0169 5.15374 -1
    endloop
  endfacet
  facet normal 0.951057 0.309017 -0
    outer loop
      vertex 13.5602 3.48166 -1
      vertex 13.5602 3.48166 -3
      vertex 13.0169 5.15374 -1
    endloop
  endfacet
  facet normal 0.904827 0.425779 0
    outer loop
      vertex 13.0169 5.15374 -3
      vertex 12.2683 6.74455 -3
      vertex 12.2683 6.74455 -1
    endloop
  endfacet
  facet normal 0.904827 0.425779 -0
    outer loop
      vertex 13.0169 5.15374 -1
      vertex 13.0169 5.15374 -3
      vertex 12.2683 6.74455 -1
    endloop
  endfacet
  facet normal 0.844328 0.535827 0
    outer loop
      vertex 12.2683 6.74455 -3
      vertex 11.3262 8.22899 -3
      vertex 11.3262 8.22899 -1
    endloop
  endfacet
  facet normal 0.844328 0.535827 -0
    outer loop
      vertex 12.2683 6.74455 -1
      vertex 12.2683 6.74455 -3
      vertex 11.3262 8.22899 -1
    endloop
  endfacet
  facet normal 0.770513 0.637424 0
    outer loop
      vertex 11.3262 8.22899 -3
      vertex 10.2056 9.58366 -3
      vertex 10.2056 9.58366 -1
    endloop
  endfacet
  facet normal 0.770513 0.637424 -0
    outer loop
      vertex 11.3262 8.22899 -1
      vertex 11.3262 8.22899 -3
      vertex 10.2056 9.58366 -1
    endloop
  endfacet
  facet normal 0.684547 0.728969 0
    outer loop
      vertex 8.92394 10.7872 -3
      vertex 8.92394 10.7872 -1
      vertex 10.2056 9.58366 -3
    endloop
  endfacet
  facet normal 0.684547 0.728969 0
    outer loop
      vertex 10.2056 9.58366 -3
      vertex 8.92394 10.7872 -1
      vertex 10.2056 9.58366 -1
    endloop
  endfacet
  facet normal 0.587785 0.809017 0
    outer loop
      vertex 7.50157 11.8206 -3
      vertex 7.50157 11.8206 -1
      vertex 8.92394 10.7872 -3
    endloop
  endfacet
  facet normal 0.587785 0.809017 0
    outer loop
      vertex 8.92394 10.7872 -3
      vertex 7.50157 11.8206 -1
      vertex 8.92394 10.7872 -1
    endloop
  endfacet
  facet normal 0.481754 0.876307 0
    outer loop
      vertex 5.96091 12.6676 -3
      vertex 5.96091 12.6676 -1
      vertex 7.50157 11.8206 -3
    endloop
  endfacet
  facet normal 0.481754 0.876307 0
    outer loop
      vertex 7.50157 11.8206 -3
      vertex 5.96091 12.6676 -1
      vertex 7.50157 11.8206 -1
    endloop
  endfacet
  facet normal 0.368124 0.929777 0
    outer loop
      vertex 4.32624 13.3148 -3
      vertex 4.32624 13.3148 -1
      vertex 5.96091 12.6676 -3
    endloop
  endfacet
  facet normal 0.368124 0.929777 0
    outer loop
      vertex 5.96091 12.6676 -3
      vertex 4.32624 13.3148 -1
      vertex 5.96091 12.6676 -1
    endloop
  endfacet
  facet normal 0.24869 0.968583 0
    outer loop
      vertex 2.62334 13.752 -3
      vertex 2.62334 13.752 -1
      vertex 4.32624 13.3148 -3
    endloop
  endfacet
  facet normal 0.24869 0.968583 0
    outer loop
      vertex 4.32624 13.3148 -3
      vertex 2.62334 13.752 -1
      vertex 4.32624 13.3148 -1
    endloop
  endfacet
  facet normal 0.125333 0.992115 0
    outer loop
      vertex 0.879067 13.9724 -3
      vertex 0.879067 13.9724 -1
      vertex 2.62334 13.752 -3
    endloop
  endfacet
  facet normal 0.125333 0.992115 0
    outer loop
      vertex 2.62334 13.752 -3
      vertex 0.879067 13.9724 -1
      vertex 2.62334 13.752 -1
    endloop
  endfacet
  facet normal 0 1 0
    outer loop
      vertex -0.879067 13.9724 -3
      vertex -0.879067 13.9724 -1
      vertex 0.879067 13.9724 -3
    endloop
  endfacet
  facet normal 0 1 0
    outer loop
      vertex 0.879067 13.9724 -3
      vertex -0.879067 13.9724 -1
      vertex 0.879067 13.9724 -1
    endloop
  endfacet
  facet normal -0.125333 0.992115 0
    outer loop
      vertex -2.62334 13.752 -3
      vertex -2.62334 13.752 -1
      vertex -0.879067 13.9724 -3
    endloop
  endfacet
  facet normal -0.125333 0.992115 0
    outer loop
      vertex -0.879067 13.9724 -3
      vertex -2.62334 13.752 -1
      vertex -0.879067 13.9724 -1
    endloop
  endfacet
  facet normal -0.24869 0.968583 0
    outer loop
      vertex -4.32624 13.3148 -3
      vertex -4.32624 13.3148 -1
      vertex -2.62334 13.752 -3
    endloop
  endfacet
  facet normal -0.24869 0.968583 0
    outer loop
      vertex -2.62334 13.752 -3
      vertex -4.32624 13.3148 -1
      vertex -2.62334 13.752 -1
    endloop
  endfacet
  facet normal -0.368124 0.929777 0
    outer loop
      vertex -5.96091 12.6676 -3
      vertex -5.96091 12.6676 -1
      vertex -4.32624 13.3148 -3
    endloop
  endfacet
  facet normal -0.368124 0.929777 0
    outer loop
      vertex -4.32624 13.3148 -3
      vertex -5.96091 12.6676 -1
      vertex -4.32624 13.3148 -1
    endloop
  endfacet
  facet normal -0.481754 0.876307 0
    outer loop
      vertex -7.50157 11.8206 -3
      vertex -7.50157 11.8206 -1
      vertex -5.96091 12.6676 -3
    endloop
  endfacet
  facet normal -0.481754 0.876307 0
    outer loop
      vertex -5.96091 12.6676 -3
      vertex -7.50157 11.8206 -1
      vertex -5.96091 12.6676 -1
    endloop
  endfacet
  facet normal -0.587785 0.809017 0
    outer loop
      vertex -8.92394 10.7872 -3
      vertex -8.92394 10.7872 -1
      vertex -7.50157 11.8206 -3
    endloop
  endfacet
  facet normal -0.587785 0.809017 0
    outer loop
      vertex -7.50157 11.8206 -3
      vertex -8.92394 10.7872 -1
      vertex -7.50157 11.8206 -1
    endloop
  endfacet
  facet normal -0.684547 0.728969 0
    outer loop
      vertex -10.2056 9.58366 -3
      vertex -10.2056 9.58366 -1
      vertex -8.92394 10.7872 -3
    endloop
  endfacet
  facet normal -0.684547 0.728969 0
    outer loop
      vertex -8.92394 10.7872 -3
      vertex -10.2056 9.58366 -1
      vertex -8.92394 10.7872 -1
    endloop
  endfacet
  facet normal -0.770513 0.637424 0
    outer loop
      vertex -11.3262 8.22899 -3
      vertex -11.3262 8.22899 -1
      vertex -10.2056 9.58366 -3
    endloop
  endfacet
  facet normal -0.770513 0.637424 0
    outer loop
      vertex -10.2056 9.58366 -3
      vertex -11.3262 8.22899 -1
      vertex -10.2056 9.58366 -1
    endloop
  endfacet
  facet normal -0.844328 0.535827 0
    outer loop
      vertex -12.2683 6.74455 -3
      vertex -12.2683 6.74455 -1
      vertex -11.3262 8.22899 -3
    endloop
  endfacet
  facet normal -0.844328 0.535827 0
    outer loop
      vertex -11.3262 8.22899 -3
      vertex -12.2683 6.74455 -1
      vertex -11.3262 8.22899 -1
    endloop
  endfacet
  facet normal -0.904827 0.425779 0
    outer loop
      vertex -13.0169 5.15374 -3
      vertex -13.0169 5.15374 -1
      vertex -12.2683 6.74455 -3
    endloop
  endfacet
  facet normal -0.904827 0.425779 0
    outer loop
      vertex -12.2683 6.74455 -3
      vertex -13.0169 5.15374 -1
      vertex -12.2683 6.74455 -1
    endloop
  endfacet
  facet normal -0.951057 0.309017 0
    outer loop
      vertex -13.5602 3.48166 -3
      vertex -13.5602 3.48166 -1
      vertex -13.0169 5.15374 -3
    endloop
  endfacet
  facet normal -0.951057 0.309017 0
    outer loop
      vertex -13.0169 5.15374 -3
      vertex -13.5602 3.48166 -1
      vertex -13.0169 5.15374 -1
    endloop
  endfacet
  facet normal -0.982287 0.187382 0
    outer loop
      vertex -13.8896 1.75466 -3
      vertex -13.8896 1.75466 -1
      vertex -13.5602 3.48166 -3
    endloop
  endfacet
  facet normal -0.982287 0.187382 0
    outer loop
      vertex -13.5602 3.48166 -3
      vertex -13.8896 1.75466 -1
      vertex -13.5602 3.48166 -1
    endloop
  endfacet
  facet normal 0.987688 0.156435 0
    outer loop
      vertex -1.7 0 7
      vertex -1.6168 -0.525329 7
      vertex -1.6168 -0.525329 -3
    endloop
  endfacet
  facet normal 0.987688 0.156435 0
    outer loop
      vertex -1.7 0 -3
      vertex -1.7 0 7
      vertex -1.6168 -0.525329 -3
    endloop
  endfacet
  facet normal 0.987688 -0.156435 0
    outer loop
      vertex -1.6168 0.525329 -3
      vertex -1.6168 0.525329 7
      vertex -1.7 0 7
    endloop
  endfacet
  facet normal 0.987688 -0.156435 0
    outer loop
      vertex -1.7 0 -3
      vertex -1.6168 0.525329 -3
      vertex -1.7 0 7
    endloop
  endfacet
  facet normal 0.891007 -0.45399 0
    outer loop
      vertex -1.37533 0.999235 -3
      vertex -1.37533 0.999235 7
      vertex -1.6168 0.525329 7
    endloop
  endfacet
  facet normal 0.891007 -0.45399 0
    outer loop
      vertex -1.6168 0.525329 -3
      vertex -1.37533 0.999235 -3
      vertex -1.6168 0.525329 7
    endloop
  endfacet
  facet normal 0.707107 -0.707107 0
    outer loop
      vertex -0.999235 1.37533 -3
      vertex -0.999235 1.37533 7
      vertex -1.37533 0.999235 7
    endloop
  endfacet
  facet normal 0.707107 -0.707107 0
    outer loop
      vertex -1.37533 0.999235 -3
      vertex -0.999235 1.37533 -3
      vertex -1.37533 0.999235 7
    endloop
  endfacet
  facet normal 0.45399 -0.891007 0
    outer loop
      vertex -0.525329 1.6168 -3
      vertex -0.525329 1.6168 7
      vertex -0.999235 1.37533 7
    endloop
  endfacet
  facet normal 0.45399 -0.891007 0
    outer loop
      vertex -0.999235 1.37533 -3
      vertex -0.525329 1.6168 -3
      vertex -0.999235 1.37533 7
    endloop
  endfacet
  facet normal 0.156435 -0.987688 0
    outer loop
      vertex 0 1.7 -3
      vertex 0 1.7 7
      vertex -0.525329 1.6168 7
    endloop
  endfacet
  facet normal 0.156435 -0.987688 0
    outer loop
      vertex -0.525329 1.6168 -3
      vertex 0 1.7 -3
      vertex -0.525329 1.6168 7
    endloop
  endfacet
  facet normal -0.156435 -0.987688 -0
    outer loop
      vertex 0.525329 1.6168 -3
      vertex 0.525329 1.6168 7
      vertex 0 1.7 7
    endloop
  endfacet
  facet normal -0.156435 -0.987688 -0
    outer loop
      vertex 0 1.7 -3
      vertex 0.525329 1.6168 -3
      vertex 0 1.7 7
    endloop
  endfacet
  facet normal -0.45399 -0.891007 -0
    outer loop
      vertex 0.999235 1.37533 -3
      vertex 0.999235 1.37533 7
      vertex 0.525329 1.6168 7
    endloop
  endfacet
  facet normal -0.45399 -0.891007 -0
    outer loop
      vertex 0.525329 1.6168 -3
      vertex 0.999235 1.37533 -3
      vertex 0.525329 1.6168 7
    endloop
  endfacet
  facet normal -0.707107 -0.707107 -0
    outer loop
      vertex 1.37533 0.999235 -3
      vertex 1.37533 0.999235 7
      vertex 0.999235 1.37533 7
    endloop
  endfacet
  facet normal -0.707107 -0.707107 -0
    outer loop
      vertex 0.999235 1.37533 -3
      vertex 1.37533 0.999235 -3
      vertex 0.999235 1.37533 7
    endloop
  endfacet
  facet normal -0.891007 -0.45399 0
    outer loop
      vertex 1.6168 0.525329 7
      vertex 1.37533 0.999235 7
      vertex 1.6168 0.525329 -3
    endloop
  endfacet
  facet normal -0.891007 -0.45399 0
    outer loop
      vertex 1.6168 0.525329 -3
      vertex 1.37533 0.999235 7
      vertex 1.37533 0.999235 -3
    endloop
  endfacet
  facet normal -0.987688 -0.156435 0
    outer loop
      vertex 1.7 0 7
      vertex 1.6168 0.525329 7
      vertex 1.7 0 -3
    endloop
  endfacet
  facet normal -0.987688 -0.156435 0
    outer loop
      vertex 1.7 0 -3
      vertex 1.6168 0.525329 7
      vertex 1.6168 0.525329 -3
    endloop
  endfacet
  facet normal -0.987688 0.156435 0
    outer loop
      vertex 1.7 0 7
      vertex 1.7 0 -3
      vertex 1.6168 -0.525329 7
    endloop
  endfacet
  facet normal -0.987688 0.156435 0
    outer loop
      vertex 1.6168 -0.525329 7
      vertex 1.7 0 -3
      vertex 1.6168 -0.525329 -3
    endloop
  endfacet
  facet normal -0.891007 0.45399 0
    outer loop
      vertex 1.6168 -0.525329 7
      vertex 1.6168 -0.525329 -3
      vertex 1.37533 -0.999235 7
    endloop
  endfacet
  facet normal -0.891007 0.45399 0
    outer loop
      vertex 1.37533 -0.999235 7
      vertex 1.6168 -0.525329 -3
      vertex 1.37533 -0.999235 -3
    endloop
  endfacet
  facet normal -0.707107 0.707107 0
    outer loop
      vertex 1.37533 -0.999235 7
      vertex 1.37533 -0.999235 -3
      vertex 0.999235 -1.37533 7
    endloop
  endfacet
  facet normal -0.707107 0.707107 0
    outer loop
      vertex 0.999235 -1.37533 7
      vertex 1.37533 -0.999235 -3
      vertex 0.999235 -1.37533 -3
    endloop
  endfacet
  facet normal -0.45399 0.891007 0
    outer loop
      vertex 0.999235 -1.37533 7
      vertex 0.999235 -1.37533 -3
      vertex 0.525329 -1.6168 7
    endloop
  endfacet
  facet normal -0.45399 0.891007 0
    outer loop
      vertex 0.525329 -1.6168 7
      vertex 0.999235 -1.37533 -3
      vertex 0.525329 -1.6168 -3
    endloop
  endfacet
  facet normal -0.156435 0.987688 0
    outer loop
      vertex 0.525329 -1.6168 7
      vertex 0.525329 -1.6168 -3
      vertex 0 -1.7 7
    endloop
  endfacet
  facet normal -0.156435 0.987688 0
    outer loop
      vertex 0 -1.7 7
      vertex 0.525329 -1.6168 -3
      vertex 0 -1.7 -3
    endloop
  endfacet
  facet normal 0.156435 0.987688 -0
    outer loop
      vertex 0 -1.7 7
      vertex 0 -1.7 -3
      vertex -0.525329 -1.6168 7
    endloop
  endfacet
  facet normal 0.156435 0.987688 -0
    outer loop
      vertex -0.525329 -1.6168 7
      vertex 0 -1.7 -3
      vertex -0.525329 -1.6168 -3
    endloop
  endfacet
  facet normal 0.45399 0.891007 -0
    outer loop
      vertex -0.525329 -1.6168 7
      vertex -0.525329 -1.6168 -3
      vertex -0.999235 -1.37533 7
    endloop
  endfacet
  facet normal 0.45399 0.891007 -0
    outer loop
      vertex -0.999235 -1.37533 7
      vertex -0.525329 -1.6168 -3
      vertex -0.999235 -1.37533 -3
    endloop
  endfacet
  facet normal 0.707107 0.707107 -0
    outer loop
      vertex -0.999235 -1.37533 7
      vertex -0.999235 -1.37533 -3
      vertex -1.37533 -0.999235 7
    endloop
  endfacet
  facet normal 0.707107 0.707107 -0
    outer loop
      vertex -1.37533 -0.999235 7
      vertex -0.999235 -1.37533 -3
      vertex -1.37533 -0.999235 -3
    endloop
  endfacet
  facet normal 0.891007 0.45399 0
    outer loop
      vertex -1.6168 -0.525329 7
      vertex -1.37533 -0.999235 7
      vertex -1.37533 -0.999235 -3
    endloop
  endfacet
  facet normal 0.891007 0.45399 0
    outer loop
      vertex -1.6168 -0.525329 -3
      vertex -1.6168 -0.525329 7
      vertex -1.37533 -0.999235 -3
    endloop
  endfacet
  facet normal 0 0 1
    outer loop
      vertex -13.8896 -1.75466 -1
      vertex -13.5602 -3.48166 -1
      vertex -13.0169 -5.15374 -1
    endloop
  endfacet
  facet normal 0 0 1
    outer loop
      vertex -11.3262 -8.22899 -1
      vertex -13.8896 -1.75466 -1
      vertex -12.2683 -6.74455 -1
    endloop
  endfacet
  facet normal 0 0 1
    outer loop
      vertex -12.2683 -6.74455 -1
      vertex -13.8896 -1.75466 -1
      vertex -13.0169 -5.15374 -1
    endloop
  endfacet
  facet normal 0 0 1
    outer loop
      vertex -10.2056 -9.58366 -1
      vertex -13.8896 -1.75466 -1
      vertex -11.3262 -8.22899 -1
    endloop
  endfacet
  facet normal 0 0 1
    outer loop
      vertex -8.92394 -10.7872 -1
      vertex -13.8896 -1.75466 -1
      vertex -10.2056 -9.58366 -1
    endloop
  endfacet
  facet normal 0 0 1
    outer loop
      vertex -7.50157 -11.8206 -1
      vertex -13.8896 -1.75466 -1
      vertex -8.92394 -10.7872 -1
    endloop
  endfacet
  facet normal 0 0 1
    outer loop
      vertex -5.96091 -12.6676 -1
      vertex -13.8896 -1.75466 -1
      vertex -7.50157 -11.8206 -1
    endloop
  endfacet
  facet normal 0 0 1
    outer loop
      vertex -4.32624 -13.3148 -1
      vertex -13.8896 -1.75466 -1
      vertex -5.96091 -12.6676 -1
    endloop
  endfacet
  facet normal 0 0 1
    outer loop
      vertex -2.62334 -13.752 -1
      vertex -13.8896 -1.75466 -1
      vertex -4.32624 -13.3148 -1
    endloop
  endfacet
  facet normal 0 0 1
    outer loop
      vertex -0.879067 -13.9724 -1
      vertex -13.8896 -1.75466 -1
      vertex -2.62334 -13.752 -1
    endloop
  endfacet
  facet normal -0 0 1
    outer loop
      vertex 0.879067 -13.9724 -1
      vertex -13.8896 -1.75466 -1
      vertex -0.879067 -13.9724 -1
    endloop
  endfacet
  facet normal -0 0 1
    outer loop
      vertex 2.62334 -13.752 -1
      vertex -13.8896 -1.75466 -1
      vertex 0.879067 -13.9724 -1
    endloop
  endfacet
  facet normal -0 0 1
    outer loop
      vertex 4.32624 -13.3148 -1
      vertex -13.8896 -1.75466 -1
      vertex 2.62334 -13.752 -1
    endloop
  endfacet
  facet normal -0 0 1
    outer loop
      vertex 5.96091 -12.6676 -1
      vertex -13.8896 -1.75466 -1
      vertex 4.32624 -13.3148 -1
    endloop
  endfacet
  facet normal -0 0 1
    outer loop
      vertex 7.50157 -11.8206 -1
      vertex -13.8896 -1.75466 -1
      vertex 5.96091 -12.6676 -1
    endloop
  endfacet
  facet normal -0 0 1
    outer loop
      vertex 8.92394 -10.7872 -1
      vertex -13.8896 -1.75466 -1
      vertex 7.50157 -11.8206 -1
    endloop
  endfacet
  facet normal -0 0 1
    outer loop
      vertex 10.2056 -9.58366 -1
      vertex -13.8896 -1.75466 -1
      vertex 8.92394 -10.7872 -1
    endloop
  endfacet
  facet normal -0 0 1
    outer loop
      vertex 11.3262 -8.22899 -1
      vertex -13.8896 -1.75466 -1
      vertex 10.2056 -9.58366 -1
    endloop
  endfacet
  facet normal -0 -0 1
    outer loop
      vertex -0.936907 -4.91144 -1
      vertex -13.8896 -1.75466 -1
      vertex 11.3262 -8.22899 -1
    endloop
  endfacet
  facet normal 0 0 1
    outer loop
      vertex -1.54508 -4.75528 -1
      vertex -2.1289 -4.52413 -1
      vertex -13.8896 -1.75466 -1
    endloop
  endfacet
  facet normal 0 -0 1
    outer loop
      vertex 2.1289 -4.52413 -1
      vertex 1.54508 -4.75528 -1
      vertex 12.2683 -6.74455 -1
    endloop
  endfacet
  facet normal 0 -0 1
    outer loop
      vertex 3.18712 -3.85257 -1
      vertex 2.67913 -4.22164 -1
      vertex 13.0169 -5.15374 -1
    endloop
  endfacet
  facet normal 0 -0 1
    outer loop
      vertex 4.38153 -2.40877 -1
      vertex 4.04508 -2.93893 -1
      vertex 13.5602 -3.48166 -1
    endloop
  endfacet
  facet normal 0 -0 1
    outer loop
      vertex 4.84292 -1.24345 -1
      vertex 4.64888 -1.84062 -1
      vertex 13.8896 -1.75466 -1
    endloop
  endfacet
  facet normal 0 -0 1
    outer loop
      vertex 5 0 -1
      vertex 4.96057 -0.626666 -1
      vertex 14 0 -1
    endloop
  endfacet
  facet normal 0 0 1
    outer loop
      vertex 4.64888 1.84062 -1
      vertex 4.84292 1.24345 -1
      vertex 13.5602 3.48166 -1
    endloop
  endfacet
  facet normal 0 0 1
    outer loop
      vertex 2.1289 4.52413 -1
      vertex 2.67913 4.22164 -1
      vertex 11.3262 8.22899 -1
    endloop
  endfacet
  facet normal 0 -0 1
    outer loop
      vertex 7.50157 11.8206 -1
      vertex -13.8896 -1.75466 -1
      vertex 8.92394 10.7872 -1
    endloop
  endfacet
  facet normal 0 -0 1
    outer loop
      vertex 5.96091 12.6676 -1
      vertex -13.8896 -1.75466 -1
      vertex 7.50157 11.8206 -1
    endloop
  endfacet
  facet normal 0 -0 1
    outer loop
      vertex 4.32624 13.3148 -1
      vertex -13.8896 -1.75466 -1
      vertex 5.96091 12.6676 -1
    endloop
  endfacet
  facet normal 0 -0 1
    outer loop
      vertex 2.62334 13.752 -1
      vertex -13.8896 -1.75466 -1
      vertex 4.32624 13.3148 -1
    endloop
  endfacet
  facet normal 0 -0 1
    outer loop
      vertex 0.879067 13.9724 -1
      vertex -13.8896 -1.75466 -1
      vertex 2.62334 13.752 -1
    endloop
  endfacet
  facet normal 0 -0 1
    outer loop
      vertex -0.879067 13.9724 -1
      vertex -13.8896 -1.75466 -1
      vertex 0.879067 13.9724 -1
    endloop
  endfacet
  facet normal 0 -0 1
    outer loop
      vertex -2.62334 13.752 -1
      vertex -13.8896 -1.75466 -1
      vertex -0.879067 13.9724 -1
    endloop
  endfacet
  facet normal 0 -0 1
    outer loop
      vertex -4.32624 13.3148 -1
      vertex -13.8896 -1.75466 -1
      vertex -2.62334 13.752 -1
    endloop
  endfacet
  facet normal 0 -0 1
    outer loop
      vertex -5.96091 12.6676 -1
      vertex -13.8896 -1.75466 -1
      vertex -4.32624 13.3148 -1
    endloop
  endfacet
  facet normal 0 -0 1
    outer loop
      vertex -7.50157 11.8206 -1
      vertex -13.8896 -1.75466 -1
      vertex -5.96091 12.6676 -1
    endloop
  endfacet
  facet normal 0 -0 1
    outer loop
      vertex -8.92394 10.7872 -1
      vertex -13.8896 -1.75466 -1
      vertex -7.50157 11.8206 -1
    endloop
  endfacet
  facet normal 0 -0 1
    outer loop
      vertex -10.2056 9.58366 -1
      vertex -13.8896 -1.75466 -1
      vertex -8.92394 10.7872 -1
    endloop
  endfacet
  facet normal 0 -0 1
    outer loop
      vertex -11.3262 8.22899 -1
      vertex -13.8896 -1.75466 -1
      vertex -10.2056 9.58366 -1
    endloop
  endfacet
  facet normal 0 -0 1
    outer loop
      vertex -12.2683 6.74455 -1
      vertex -13.8896 -1.75466 -1
      vertex -11.3262 8.22899 -1
    endloop
  endfacet
  facet normal 0 -0 1
    outer loop
      vertex -13.0169 5.15374 -1
      vertex -13.8896 -1.75466 -1
      vertex -12.2683 6.74455 -1
    endloop
  endfacet
  facet normal 0 -0 1
    outer loop
      vertex -13.5602 3.48166 -1
      vertex -13.8896 -1.75466 -1
      vertex -13.0169 5.15374 -1
    endloop
  endfacet
  facet normal 0 -0 1
    outer loop
      vertex -13.8896 1.75466 -1
      vertex -13.8896 -1.75466 -1
      vertex -13.5602 3.48166 -1
    endloop
  endfacet
  facet normal 0 0 1
    outer loop
      vertex -14 0 -1
      vertex -13.8896 -1.75466 -1
      vertex -13.8896 1.75466 -1
    endloop
  endfacet
  facet normal -0 0 1
    outer loop
      vertex -4.96057 0.626666 -1
      vertex -4.84292 1.24345 -1
      vertex -13.8896 -1.75466 -1
    endloop
  endfacet
  facet normal 0 0 1
    outer loop
      vertex 4.84292 1.24345 -1
      vertex 4.96057 0.626666 -1
      vertex 13.8896 1.75466 -1
    endloop
  endfacet
  facet normal -0 0 1
    outer loop
      vertex -4.64888 1.84062 -1
      vertex -4.38153 2.40877 -1
      vertex -13.8896 -1.75466 -1
    endloop
  endfacet
  facet normal 0 0 1
    outer loop
      vertex 4.04508 2.93893 -1
      vertex 4.38153 2.40877 -1
      vertex 13.0169 5.15374 -1
    endloop
  endfacet
  facet normal 0 0 1
    outer loop
      vertex -4.64888 1.84062 -1
      vertex -13.8896 -1.75466 -1
      vertex -4.84292 1.24345 -1
    endloop
  endfacet
  facet normal -0 0 1
    outer loop
      vertex -4.38153 2.40877 -1
      vertex -4.04508 2.93893 -1
      vertex -13.8896 -1.75466 -1
    endloop
  endfacet
  facet normal 0 0 1
    outer loop
      vertex 3.18712 3.85257 -1
      vertex 3.64484 3.42274 -1
      vertex 12.2683 6.74455 -1
    endloop
  endfacet
  facet normal 0 0 1
    outer loop
      vertex -2.1289 4.52413 -1
      vertex -1.54508 4.75528 -1
      vertex 8.92394 10.7872 -1
    endloop
  endfacet
  facet normal 0 0 1
    outer loop
      vertex 1.54508 4.75528 -1
      vertex 2.1289 4.52413 -1
      vertex 11.3262 8.22899 -1
    endloop
  endfacet
  facet normal 0 0 1
    outer loop
      vertex -3.64484 3.42274 -1
      vertex -13.8896 -1.75466 -1
      vertex -4.04508 2.93893 -1
    endloop
  endfacet
  facet normal 0 0 1
    outer loop
      vertex -3.18712 3.85257 -1
      vertex -13.8896 -1.75466 -1
      vertex -3.64484 3.42274 -1
    endloop
  endfacet
  facet normal 0 0 1
    outer loop
      vertex -2.67913 4.22164 -1
      vertex -13.8896 -1.75466 -1
      vertex -3.18712 3.85257 -1
    endloop
  endfacet
  facet normal 0 0 1
    outer loop
      vertex 8.92394 10.7872 -1
      vertex -13.8896 -1.75466 -1
      vertex -2.67913 4.22164 -1
    endloop
  endfacet
  facet normal 0 0 1
    outer loop
      vertex -1.54508 4.75528 -1
      vertex -0.936907 4.91144 -1
      vertex 8.92394 10.7872 -1
    endloop
  endfacet
  facet normal 0 0 1
    outer loop
      vertex 8.92394 10.7872 -1
      vertex -2.67913 4.22164 -1
      vertex -2.1289 4.52413 -1
    endloop
  endfacet
  facet normal 0 0 1
    outer loop
      vertex -0.936907 4.91144 -1
      vertex -0.313953 4.99013 -1
      vertex 8.92394 10.7872 -1
    endloop
  endfacet
  facet normal 0 -0 1
    outer loop
      vertex 8.92394 10.7872 -1
      vertex -0.313953 4.99013 -1
      vertex 10.2056 9.58366 -1
    endloop
  endfacet
  facet normal 0 0 1
    outer loop
      vertex -0.313953 4.99013 -1
      vertex 0.313953 4.99013 -1
      vertex 10.2056 9.58366 -1
    endloop
  endfacet
  facet normal 0 -0 1
    outer loop
      vertex 10.2056 9.58366 -1
      vertex 0.936907 4.91144 -1
      vertex 11.3262 8.22899 -1
    endloop
  endfacet
  facet normal 0 0 1
    outer loop
      vertex 0.936907 4.91144 -1
      vertex 1.54508 4.75528 -1
      vertex 11.3262 8.22899 -1
    endloop
  endfacet
  facet normal 0 -0 1
    outer loop
      vertex 11.3262 8.22899 -1
      vertex 2.67913 4.22164 -1
      vertex 12.2683 6.74455 -1
    endloop
  endfacet
  facet normal 0 0 1
    outer loop
      vertex 2.67913 4.22164 -1
      vertex 3.18712 3.85257 -1
      vertex 12.2683 6.74455 -1
    endloop
  endfacet
  facet normal 0 -0 1
    outer loop
      vertex 12.2683 6.74455 -1
      vertex 3.64484 3.42274 -1
      vertex 13.0169 5.15374 -1
    endloop
  endfacet
  facet normal 0 0 1
    outer loop
      vertex 3.64484 3.42274 -1
      vertex 4.04508 2.93893 -1
      vertex 13.0169 5.15374 -1
    endloop
  endfacet
  facet normal 0 -0 1
    outer loop
      vertex 13.0169 5.15374 -1
      vertex 4.38153 2.40877 -1
      vertex 13.5602 3.48166 -1
    endloop
  endfacet
  facet normal 0 0 1
    outer loop
      vertex 4.38153 2.40877 -1
      vertex 4.64888 1.84062 -1
      vertex 13.5602 3.48166 -1
    endloop
  endfacet
  facet normal 0 -0 1
    outer loop
      vertex 13.5602 3.48166 -1
      vertex 4.84292 1.24345 -1
      vertex 13.8896 1.75466 -1
    endloop
  endfacet
  facet normal -0 0 1
    outer loop
      vertex -5 0 -1
      vertex -4.96057 0.626666 -1
      vertex -13.8896 -1.75466 -1
    endloop
  endfacet
  facet normal 0 -0 1
    outer loop
      vertex 13.8896 1.75466 -1
      vertex 4.96057 0.626666 -1
      vertex 14 0 -1
    endloop
  endfacet
  facet normal 0 0 1
    outer loop
      vertex 4.96057 0.626666 -1
      vertex 5 0 -1
      vertex 14 0 -1
    endloop
  endfacet
  facet normal 0 0 1
    outer loop
      vertex 14 0 -1
      vertex 4.96057 -0.626666 -1
      vertex 13.8896 -1.75466 -1
    endloop
  endfacet
  facet normal 0 -0 1
    outer loop
      vertex 4.96057 -0.626666 -1
      vertex 4.84292 -1.24345 -1
      vertex 13.8896 -1.75466 -1
    endloop
  endfacet
  facet normal 0 0 1
    outer loop
      vertex 13.8896 -1.75466 -1
      vertex 4.64888 -1.84062 -1
      vertex 13.5602 -3.48166 -1
    endloop
  endfacet
  facet normal 0 -0 1
    outer loop
      vertex 4.64888 -1.84062 -1
      vertex 4.38153 -2.40877 -1
      vertex 13.5602 -3.48166 -1
    endloop
  endfacet
  facet normal -0 0 1
    outer loop
      vertex 13.5602 -3.48166 -1
      vertex 4.04508 -2.93893 -1
      vertex 13.0169 -5.15374 -1
    endloop
  endfacet
  facet normal 0 0 1
    outer loop
      vertex -4.04508 -2.93893 -1
      vertex -4.38153 -2.40877 -1
      vertex -13.8896 -1.75466 -1
    endloop
  endfacet
  facet normal 0 -0 1
    outer loop
      vertex 4.04508 -2.93893 -1
      vertex 3.64484 -3.42274 -1
      vertex 13.0169 -5.15374 -1
    endloop
  endfacet
  facet normal 0 -0 1
    outer loop
      vertex 3.64484 -3.42274 -1
      vertex 3.18712 -3.85257 -1
      vertex 13.0169 -5.15374 -1
    endloop
  endfacet
  facet normal -0 0 1
    outer loop
      vertex 13.0169 -5.15374 -1
      vertex 2.67913 -4.22164 -1
      vertex 12.2683 -6.74455 -1
    endloop
  endfacet
  facet normal 0 -0 1
    outer loop
      vertex 2.67913 -4.22164 -1
      vertex 2.1289 -4.52413 -1
      vertex 12.2683 -6.74455 -1
    endloop
  endfacet
  facet normal -0 0 1
    outer loop
      vertex 12.2683 -6.74455 -1
      vertex 1.54508 -4.75528 -1
      vertex 11.3262 -8.22899 -1
    endloop
  endfacet
  facet normal 0 -0 1
    outer loop
      vertex 1.54508 -4.75528 -1
      vertex 0.936907 -4.91144 -1
      vertex 11.3262 -8.22899 -1
    endloop
  endfacet
  facet normal 0 -0 1
    outer loop
      vertex 0.936907 -4.91144 -1
      vertex 0.313953 -4.99013 -1
      vertex 11.3262 -8.22899 -1
    endloop
  endfacet
  facet normal 0 -0 1
    outer loop
      vertex 0.313953 -4.99013 -1
      vertex -0.313953 -4.99013 -1
      vertex 11.3262 -8.22899 -1
    endloop
  endfacet
  facet normal -0 -0 1
    outer loop
      vertex -0.313953 -4.99013 -1
      vertex -0.936907 -4.91144 -1
      vertex 11.3262 -8.22899 -1
    endloop
  endfacet
  facet normal -0 -0 1
    outer loop
      vertex -1.54508 -4.75528 -1
      vertex -13.8896 -1.75466 -1
      vertex -0.936907 -4.91144 -1
    endloop
  endfacet
  facet normal 0 0 1
    outer loop
      vertex -2.1289 -4.52413 -1
      vertex -2.67913 -4.22164 -1
      vertex -13.8896 -1.75466 -1
    endloop
  endfacet
  facet normal 0 0 1
    outer loop
      vertex -2.67913 -4.22164 -1
      vertex -3.18712 -3.85257 -1
      vertex -13.8896 -1.75466 -1
    endloop
  endfacet
  facet normal 0 0 1
    outer loop
      vertex -3.64484 -3.42274 -1
      vertex -4.04508 -2.93893 -1
      vertex -13.8896 -1.75466 -1
    endloop
  endfacet
  facet normal 0 0 1
    outer loop
      vertex -4.38153 -2.40877 -1
      vertex -4.64888 -1.84062 -1
      vertex -13.8896 -1.75466 -1
    endloop
  endfacet
  facet normal 0 0 1
    outer loop
      vertex -4.64888 -1.84062 -1
      vertex -4.84292 -1.24345 -1
      vertex -13.8896 -1.75466 -1
    endloop
  endfacet
  facet normal 0 0 1
    outer loop
      vertex -3.18712 -3.85257 -1
      vertex -3.64484 -3.42274 -1
      vertex -13.8896 -1.75466 -1
    endloop
  endfacet
  facet normal 0 0 1
    outer loop
      vertex 0.313953 4.99013 -1
      vertex 0.936907 4.91144 -1
      vertex 10.2056 9.58366 -1
    endloop
  endfacet
  facet normal -0 0 1
    outer loop
      vertex -4.96057 -0.626666 -1
      vertex -5 0 -1
      vertex -13.8896 -1.75466 -1
    endloop
  endfacet
  facet normal -0 0 1
    outer loop
      vertex -4.84292 -1.24345 -1
      vertex -4.96057 -0.626666 -1
      vertex -13.8896 -1.75466 -1
    endloop
  endfacet
  facet normal 0 0 1
    outer loop
      vertex -3.61401 1.17426 7
      vertex -3.8 0 7
      vertex -3.61401 -1.17426 7
    endloop
  endfacet
  facet normal 0 0 1
    outer loop
      vertex -2.23358 -3.07427 7
      vertex -3.61401 1.17426 7
      vertex -3.07427 -2.23358 7
    endloop
  endfacet
  facet normal 0 0 1
    outer loop
      vertex -3.07427 -2.23358 7
      vertex -3.61401 1.17426 7
      vertex -3.61401 -1.17426 7
    endloop
  endfacet
  facet normal 0 0 1
    outer loop
      vertex -1.17426 -3.61401 7
      vertex -3.61401 1.17426 7
      vertex -2.23358 -3.07427 7
    endloop
  endfacet
  facet normal 0 0 1
    outer loop
      vertex 0 -3.8 7
      vertex -3.61401 1.17426 7
      vertex -1.17426 -3.61401 7
    endloop
  endfacet
  facet normal -0 0 1
    outer loop
      vertex 1.17426 -3.61401 7
      vertex -3.61401 1.17426 7
      vertex 0 -3.8 7
    endloop
  endfacet
  facet normal -0 -0 1
    outer loop
      vertex -0.999235 -1.37533 7
      vertex -3.61401 1.17426 7
      vertex 1.17426 -3.61401 7
    endloop
  endfacet
  facet normal 0 0 1
    outer loop
      vertex 1.6168 0.525329 7
      vertex 1.7 0 7
      vertex 3.8 0 7
    endloop
  endfacet
  facet normal 0 -0 1
    outer loop
      vertex 2.23358 3.07427 7
      vertex -3.61401 1.17426 7
      vertex 3.07427 2.23358 7
    endloop
  endfacet
  facet normal 0 -0 1
    outer loop
      vertex 1.17426 3.61401 7
      vertex -3.61401 1.17426 7
      vertex 2.23358 3.07427 7
    endloop
  endfacet
  facet normal 0 -0 1
    outer loop
      vertex 0 3.8 7
      vertex -3.61401 1.17426 7
      vertex 1.17426 3.61401 7
    endloop
  endfacet
  facet normal 0 -0 1
    outer loop
      vertex -1.17426 3.61401 7
      vertex -3.61401 1.17426 7
      vertex 0 3.8 7
    endloop
  endfacet
  facet normal 0 -0 1
    outer loop
      vertex -2.23358 3.07427 7
      vertex -3.61401 1.17426 7
      vertex -1.17426 3.61401 7
    endloop
  endfacet
  facet normal 0 -0 1
    outer loop
      vertex -3.07427 2.23358 7
      vertex -3.61401 1.17426 7
      vertex -2.23358 3.07427 7
    endloop
  endfacet
  facet normal 0 0 1
    outer loop
      vertex -1.7 0 7
      vertex -1.6168 0.525329 7
      vertex -3.61401 1.17426 7
    endloop
  endfacet
  facet normal 0 -0 1
    outer loop
      vertex 0.525329 -1.6168 7
      vertex 0 -1.7 7
      vertex 2.23358 -3.07427 7
    endloop
  endfacet
  facet normal 0 -0 1
    outer loop
      vertex 1.6168 -0.525329 7
      vertex 1.37533 -0.999235 7
      vertex 3.61401 -1.17426 7
    endloop
  endfacet
  facet normal 0 0 1
    outer loop
      vertex 0 1.7 7
      vertex 0.525329 1.6168 7
      vertex 3.07427 2.23358 7
    endloop
  endfacet
  facet normal 0 -0 1
    outer loop
      vertex 1.37533 -0.999235 7
      vertex 0.999235 -1.37533 7
      vertex 3.07427 -2.23358 7
    endloop
  endfacet
  facet normal 0 0 1
    outer loop
      vertex -0.525329 1.6168 7
      vertex -3.61401 1.17426 7
      vertex -0.999235 1.37533 7
    endloop
  endfacet
  facet normal 0 0 1
    outer loop
      vertex 3.07427 2.23358 7
      vertex -3.61401 1.17426 7
      vertex -0.525329 1.6168 7
    endloop
  endfacet
  facet normal 0 0 1
    outer loop
      vertex 3.07427 2.23358 7
      vertex -0.525329 1.6168 7
      vertex 0 1.7 7
    endloop
  endfacet
  facet normal 0 -0 1
    outer loop
      vertex 3.07427 2.23358 7
      vertex 0.525329 1.6168 7
      vertex 3.61401 1.17426 7
    endloop
  endfacet
  facet normal 0 0 1
    outer loop
      vertex 0.525329 1.6168 7
      vertex 0.999235 1.37533 7
      vertex 3.61401 1.17426 7
    endloop
  endfacet
  facet normal 0 -0 1
    outer loop
      vertex 3.61401 1.17426 7
      vertex 1.37533 0.999235 7
      vertex 3.8 0 7
    endloop
  endfacet
  facet normal 0 0 1
    outer loop
      vertex 1.37533 0.999235 7
      vertex 1.6168 0.525329 7
      vertex 3.8 0 7
    endloop
  endfacet
  facet normal 0 0 1
    outer loop
      vertex 3.8 0 7
      vertex 1.7 0 7
      vertex 3.61401 -1.17426 7
    endloop
  endfacet
  facet normal 0 0 1
    outer loop
      vertex -1.37533 0.999235 7
      vertex -0.999235 1.37533 7
      vertex -3.61401 1.17426 7
    endloop
  endfacet
  facet normal 0 -0 1
    outer loop
      vertex 1.7 0 7
      vertex 1.6168 -0.525329 7
      vertex 3.61401 -1.17426 7
    endloop
  endfacet
  facet normal 0 0 1
    outer loop
      vertex 0.999235 1.37533 7
      vertex 1.37533 0.999235 7
      vertex 3.61401 1.17426 7
    endloop
  endfacet
  facet normal -0 0 1
    outer loop
      vertex 3.61401 -1.17426 7
      vertex 1.37533 -0.999235 7
      vertex 3.07427 -2.23358 7
    endloop
  endfacet
  facet normal -0 0 1
    outer loop
      vertex 3.07427 -2.23358 7
      vertex 0.999235 -1.37533 7
      vertex 2.23358 -3.07427 7
    endloop
  endfacet
  facet normal 0 -0 1
    outer loop
      vertex 0.999235 -1.37533 7
      vertex 0.525329 -1.6168 7
      vertex 2.23358 -3.07427 7
    endloop
  endfacet
  facet normal -0 0 1
    outer loop
      vertex 2.23358 -3.07427 7
      vertex 0 -1.7 7
      vertex 1.17426 -3.61401 7
    endloop
  endfacet
  facet normal -0 -0 1
    outer loop
      vertex 0 -1.7 7
      vertex -0.525329 -1.6168 7
      vertex 1.17426 -3.61401 7
    endloop
  endfacet
  facet normal -0 -0 1
    outer loop
      vertex -1.37533 -0.999235 7
      vertex -3.61401 1.17426 7
      vertex -0.999235 -1.37533 7
    endloop
  endfacet
  facet normal -0 -0 1
    outer loop
      vertex -1.6168 -0.525329 7
      vertex -3.61401 1.17426 7
      vertex -1.37533 -0.999235 7
    endloop
  endfacet
  facet normal -0 -0 1
    outer loop
      vertex -0.525329 -1.6168 7
      vertex -0.999235 -1.37533 7
      vertex 1.17426 -3.61401 7
    endloop
  endfacet
  facet normal 0 0 1
    outer loop
      vertex -1.6168 -0.525329 7
      vertex -1.7 0 7
      vertex -3.61401 1.17426 7
    endloop
  endfacet
  facet normal 0 0 1
    outer loop
      vertex -1.6168 0.525329 7
      vertex -1.37533 0.999235 7
      vertex -3.61401 1.17426 7
    endloop
  endfacet
  facet normal -0.998027 0.0627898 0
    outer loop
      vertex -5 0 -1
      vertex -5 0 0
      vertex -4.96057 0.626666 -1
    endloop
  endfacet
  facet normal -0.998027 0.0627898 0
    outer loop
      vertex -4.96057 0.626666 -1
      vertex -5 0 0
      vertex -4.96057 0.626666 0
    endloop
  endfacet
  facet normal -0.998027 -0.0627898 -0
    outer loop
      vertex -5 0 -1
      vertex -4.96057 -0.626666 -1
      vertex -5 0 0
    endloop
  endfacet
  facet normal -0.998027 -0.0627898 0
    outer loop
      vertex -5 0 0
      vertex -4.96057 -0.626666 -1
      vertex -4.96057 -0.626666 0
    endloop
  endfacet
  facet normal -0.982287 -0.187382 -0
    outer loop
      vertex -4.96057 -0.626666 -1
      vertex -4.84292 -1.24345 -1
      vertex -4.96057 -0.626666 0
    endloop
  endfacet
  facet normal -0.982287 -0.187382 0
    outer loop
      vertex -4.96057 -0.626666 0
      vertex -4.84292 -1.24345 -1
      vertex -4.84292 -1.24345 0
    endloop
  endfacet
  facet normal -0.951056 -0.309018 -0
    outer loop
      vertex -4.84292 -1.24345 -1
      vertex -4.64888 -1.84062 -1
      vertex -4.84292 -1.24345 0
    endloop
  endfacet
  facet normal -0.951056 -0.309018 0
    outer loop
      vertex -4.84292 -1.24345 0
      vertex -4.64888 -1.84062 -1
      vertex -4.64888 -1.84062 0
    endloop
  endfacet
  facet normal -0.904827 -0.42578 -0
    outer loop
      vertex -4.64888 -1.84062 -1
      vertex -4.38153 -2.40877 -1
      vertex -4.64888 -1.84062 0
    endloop
  endfacet
  facet normal -0.904827 -0.42578 0
    outer loop
      vertex -4.64888 -1.84062 0
      vertex -4.38153 -2.40877 -1
      vertex -4.38153 -2.40877 0
    endloop
  endfacet
  facet normal -0.844328 -0.535826 -0
    outer loop
      vertex -4.38153 -2.40877 -1
      vertex -4.04508 -2.93893 -1
      vertex -4.38153 -2.40877 0
    endloop
  endfacet
  facet normal -0.844328 -0.535826 0
    outer loop
      vertex -4.38153 -2.40877 0
      vertex -4.04508 -2.93893 -1
      vertex -4.04508 -2.93893 0
    endloop
  endfacet
  facet normal -0.770514 -0.637424 -0
    outer loop
      vertex -4.04508 -2.93893 -1
      vertex -3.64484 -3.42274 -1
      vertex -4.04508 -2.93893 0
    endloop
  endfacet
  facet normal -0.770514 -0.637424 0
    outer loop
      vertex -4.04508 -2.93893 0
      vertex -3.64484 -3.42274 -1
      vertex -3.64484 -3.42274 0
    endloop
  endfacet
  facet normal -0.684547 -0.728969 0
    outer loop
      vertex -3.64484 -3.42274 0
      vertex -3.64484 -3.42274 -1
      vertex -3.18712 -3.85257 -1
    endloop
  endfacet
  facet normal -0.684547 -0.728969 0
    outer loop
      vertex -3.18712 -3.85257 0
      vertex -3.64484 -3.42274 0
      vertex -3.18712 -3.85257 -1
    endloop
  endfacet
  facet normal -0.587786 -0.809017 0
    outer loop
      vertex -3.18712 -3.85257 0
      vertex -3.18712 -3.85257 -1
      vertex -2.67913 -4.22164 -1
    endloop
  endfacet
  facet normal -0.587786 -0.809017 0
    outer loop
      vertex -2.67913 -4.22164 0
      vertex -3.18712 -3.85257 0
      vertex -2.67913 -4.22164 -1
    endloop
  endfacet
  facet normal -0.481753 -0.876307 0
    outer loop
      vertex -2.67913 -4.22164 0
      vertex -2.67913 -4.22164 -1
      vertex -2.1289 -4.52413 -1
    endloop
  endfacet
  facet normal -0.481753 -0.876307 0
    outer loop
      vertex -2.1289 -4.52413 0
      vertex -2.67913 -4.22164 0
      vertex -2.1289 -4.52413 -1
    endloop
  endfacet
  facet normal -0.368126 -0.929776 0
    outer loop
      vertex -2.1289 -4.52413 0
      vertex -2.1289 -4.52413 -1
      vertex -1.54508 -4.75528 -1
    endloop
  endfacet
  facet normal -0.368126 -0.929776 0
    outer loop
      vertex -1.54508 -4.75528 0
      vertex -2.1289 -4.52413 0
      vertex -1.54508 -4.75528 -1
    endloop
  endfacet
  facet normal -0.248689 -0.968583 0
    outer loop
      vertex -1.54508 -4.75528 0
      vertex -1.54508 -4.75528 -1
      vertex -0.936907 -4.91144 -1
    endloop
  endfacet
  facet normal -0.248689 -0.968583 0
    outer loop
      vertex -0.936907 -4.91144 0
      vertex -1.54508 -4.75528 0
      vertex -0.936907 -4.91144 -1
    endloop
  endfacet
  facet normal -0.125334 -0.992115 0
    outer loop
      vertex -0.936907 -4.91144 0
      vertex -0.936907 -4.91144 -1
      vertex -0.313953 -4.99013 -1
    endloop
  endfacet
  facet normal -0.125334 -0.992115 0
    outer loop
      vertex -0.313953 -4.99013 0
      vertex -0.936907 -4.91144 0
      vertex -0.313953 -4.99013 -1
    endloop
  endfacet
  facet normal 0 -1 0
    outer loop
      vertex -0.313953 -4.99013 0
      vertex -0.313953 -4.99013 -1
      vertex 0.313953 -4.99013 -1
    endloop
  endfacet
  facet normal 0 -1 0
    outer loop
      vertex 0.313953 -4.99013 0
      vertex -0.313953 -4.99013 0
      vertex 0.313953 -4.99013 -1
    endloop
  endfacet
  facet normal 0.125334 -0.992115 0
    outer loop
      vertex 0.313953 -4.99013 0
      vertex 0.313953 -4.99013 -1
      vertex 0.936907 -4.91144 -1
    endloop
  endfacet
  facet normal 0.125334 -0.992115 0
    outer loop
      vertex 0.936907 -4.91144 0
      vertex 0.313953 -4.99013 0
      vertex 0.936907 -4.91144 -1
    endloop
  endfacet
  facet normal 0.248689 -0.968583 0
    outer loop
      vertex 0.936907 -4.91144 0
      vertex 0.936907 -4.91144 -1
      vertex 1.54508 -4.75528 -1
    endloop
  endfacet
  facet normal 0.248689 -0.968583 0
    outer loop
      vertex 1.54508 -4.75528 0
      vertex 0.936907 -4.91144 0
      vertex 1.54508 -4.75528 -1
    endloop
  endfacet
  facet normal 0.368126 -0.929776 0
    outer loop
      vertex 1.54508 -4.75528 0
      vertex 1.54508 -4.75528 -1
      vertex 2.1289 -4.52413 -1
    endloop
  endfacet
  facet normal 0.368126 -0.929776 0
    outer loop
      vertex 2.1289 -4.52413 0
      vertex 1.54508 -4.75528 0
      vertex 2.1289 -4.52413 -1
    endloop
  endfacet
  facet normal 0.481753 -0.876307 0
    outer loop
      vertex 2.1289 -4.52413 0
      vertex 2.1289 -4.52413 -1
      vertex 2.67913 -4.22164 -1
    endloop
  endfacet
  facet normal 0.481753 -0.876307 0
    outer loop
      vertex 2.67913 -4.22164 0
      vertex 2.1289 -4.52413 0
      vertex 2.67913 -4.22164 -1
    endloop
  endfacet
  facet normal 0.587786 -0.809017 0
    outer loop
      vertex 2.67913 -4.22164 0
      vertex 2.67913 -4.22164 -1
      vertex 3.18712 -3.85257 -1
    endloop
  endfacet
  facet normal 0.587786 -0.809017 0
    outer loop
      vertex 3.18712 -3.85257 0
      vertex 2.67913 -4.22164 0
      vertex 3.18712 -3.85257 -1
    endloop
  endfacet
  facet normal 0.684547 -0.728969 0
    outer loop
      vertex 3.18712 -3.85257 0
      vertex 3.18712 -3.85257 -1
      vertex 3.64484 -3.42274 -1
    endloop
  endfacet
  facet normal 0.684547 -0.728969 0
    outer loop
      vertex 3.64484 -3.42274 0
      vertex 3.18712 -3.85257 0
      vertex 3.64484 -3.42274 -1
    endloop
  endfacet
  facet normal 0.770514 -0.637424 0
    outer loop
      vertex 3.64484 -3.42274 0
      vertex 3.64484 -3.42274 -1
      vertex 4.04508 -2.93893 -1
    endloop
  endfacet
  facet normal 0.770514 -0.637424 0
    outer loop
      vertex 4.04508 -2.93893 0
      vertex 3.64484 -3.42274 0
      vertex 4.04508 -2.93893 -1
    endloop
  endfacet
  facet normal 0.844328 -0.535826 0
    outer loop
      vertex 4.04508 -2.93893 0
      vertex 4.04508 -2.93893 -1
      vertex 4.38153 -2.40877 -1
    endloop
  endfacet
  facet normal 0.844328 -0.535826 0
    outer loop
      vertex 4.38153 -2.40877 0
      vertex 4.04508 -2.93893 0
      vertex 4.38153 -2.40877 -1
    endloop
  endfacet
  facet normal 0.904827 -0.42578 0
    outer loop
      vertex 4.38153 -2.40877 0
      vertex 4.38153 -2.40877 -1
      vertex 4.64888 -1.84062 -1
    endloop
  endfacet
  facet normal 0.904827 -0.42578 0
    outer loop
      vertex 4.64888 -1.84062 0
      vertex 4.38153 -2.40877 0
      vertex 4.64888 -1.84062 -1
    endloop
  endfacet
  facet normal 0.951056 -0.309018 0
    outer loop
      vertex 4.64888 -1.84062 0
      vertex 4.64888 -1.84062 -1
      vertex 4.84292 -1.24345 -1
    endloop
  endfacet
  facet normal 0.951056 -0.309018 0
    outer loop
      vertex 4.84292 -1.24345 0
      vertex 4.64888 -1.84062 0
      vertex 4.84292 -1.24345 -1
    endloop
  endfacet
  facet normal 0.982287 -0.187382 0
    outer loop
      vertex 4.84292 -1.24345 0
      vertex 4.84292 -1.24345 -1
      vertex 4.96057 -0.626666 -1
    endloop
  endfacet
  facet normal 0.982287 -0.187382 0
    outer loop
      vertex 4.96057 -0.626666 0
      vertex 4.84292 -1.24345 0
      vertex 4.96057 -0.626666 -1
    endloop
  endfacet
  facet normal 0.998027 -0.0627898 0
    outer loop
      vertex 4.96057 -0.626666 0
      vertex 4.96057 -0.626666 -1
      vertex 5 0 -1
    endloop
  endfacet
  facet normal 0.998027 -0.0627898 0
    outer loop
      vertex 5 0 0
      vertex 4.96057 -0.626666 0
      vertex 5 0 -1
    endloop
  endfacet
  facet normal 0.998027 0.0627898 0
    outer loop
      vertex 5 0 -1
      vertex 4.96057 0.626666 -1
      vertex 4.96057 0.626666 0
    endloop
  endfacet
  facet normal 0.998027 0.0627898 -0
    outer loop
      vertex 5 0 0
      vertex 5 0 -1
      vertex 4.96057 0.626666 0
    endloop
  endfacet
  facet normal 0.982287 0.187382 0
    outer loop
      vertex 4.96057 0.626666 -1
      vertex 4.84292 1.24345 -1
      vertex 4.84292 1.24345 0
    endloop
  endfacet
  facet normal 0.982287 0.187382 -0
    outer loop
      vertex 4.96057 0.626666 0
      vertex 4.96057 0.626666 -1
      vertex 4.84292 1.24345 0
    endloop
  endfacet
  facet normal 0.951056 0.309018 0
    outer loop
      vertex 4.84292 1.24345 -1
      vertex 4.64888 1.84062 -1
      vertex 4.64888 1.84062 0
    endloop
  endfacet
  facet normal 0.951056 0.309018 -0
    outer loop
      vertex 4.84292 1.24345 0
      vertex 4.84292 1.24345 -1
      vertex 4.64888 1.84062 0
    endloop
  endfacet
  facet normal 0.904827 0.42578 0
    outer loop
      vertex 4.64888 1.84062 -1
      vertex 4.38153 2.40877 -1
      vertex 4.38153 2.40877 0
    endloop
  endfacet
  facet normal 0.904827 0.42578 -0
    outer loop
      vertex 4.64888 1.84062 0
      vertex 4.64888 1.84062 -1
      vertex 4.38153 2.40877 0
    endloop
  endfacet
  facet normal 0.844328 0.535826 0
    outer loop
      vertex 4.38153 2.40877 -1
      vertex 4.04508 2.93893 -1
      vertex 4.04508 2.93893 0
    endloop
  endfacet
  facet normal 0.844328 0.535826 -0
    outer loop
      vertex 4.38153 2.40877 0
      vertex 4.38153 2.40877 -1
      vertex 4.04508 2.93893 0
    endloop
  endfacet
  facet normal 0.770514 0.637424 0
    outer loop
      vertex 4.04508 2.93893 -1
      vertex 3.64484 3.42274 -1
      vertex 3.64484 3.42274 0
    endloop
  endfacet
  facet normal 0.770514 0.637424 -0
    outer loop
      vertex 4.04508 2.93893 0
      vertex 4.04508 2.93893 -1
      vertex 3.64484 3.42274 0
    endloop
  endfacet
  facet normal 0.684547 0.728969 0
    outer loop
      vertex 3.18712 3.85257 -1
      vertex 3.18712 3.85257 0
      vertex 3.64484 3.42274 -1
    endloop
  endfacet
  facet normal 0.684547 0.728969 0
    outer loop
      vertex 3.64484 3.42274 -1
      vertex 3.18712 3.85257 0
      vertex 3.64484 3.42274 0
    endloop
  endfacet
  facet normal 0.587786 0.809017 0
    outer loop
      vertex 2.67913 4.22164 -1
      vertex 2.67913 4.22164 0
      vertex 3.18712 3.85257 -1
    endloop
  endfacet
  facet normal 0.587786 0.809017 0
    outer loop
      vertex 3.18712 3.85257 -1
      vertex 2.67913 4.22164 0
      vertex 3.18712 3.85257 0
    endloop
  endfacet
  facet normal 0.481753 0.876307 0
    outer loop
      vertex 2.1289 4.52413 -1
      vertex 2.1289 4.52413 0
      vertex 2.67913 4.22164 -1
    endloop
  endfacet
  facet normal 0.481753 0.876307 0
    outer loop
      vertex 2.67913 4.22164 -1
      vertex 2.1289 4.52413 0
      vertex 2.67913 4.22164 0
    endloop
  endfacet
  facet normal 0.368126 0.929776 0
    outer loop
      vertex 1.54508 4.75528 -1
      vertex 1.54508 4.75528 0
      vertex 2.1289 4.52413 -1
    endloop
  endfacet
  facet normal 0.368126 0.929776 0
    outer loop
      vertex 2.1289 4.52413 -1
      vertex 1.54508 4.75528 0
      vertex 2.1289 4.52413 0
    endloop
  endfacet
  facet normal 0.248689 0.968583 0
    outer loop
      vertex 0.936907 4.91144 -1
      vertex 0.936907 4.91144 0
      vertex 1.54508 4.75528 -1
    endloop
  endfacet
  facet normal 0.248689 0.968583 0
    outer loop
      vertex 1.54508 4.75528 -1
      vertex 0.936907 4.91144 0
      vertex 1.54508 4.75528 0
    endloop
  endfacet
  facet normal 0.125334 0.992115 0
    outer loop
      vertex 0.313953 4.99013 -1
      vertex 0.313953 4.99013 0
      vertex 0.936907 4.91144 -1
    endloop
  endfacet
  facet normal 0.125334 0.992115 0
    outer loop
      vertex 0.936907 4.91144 -1
      vertex 0.313953 4.99013 0
      vertex 0.936907 4.91144 0
    endloop
  endfacet
  facet normal 0 1 0
    outer loop
      vertex -0.313953 4.99013 -1
      vertex -0.313953 4.99013 0
      vertex 0.313953 4.99013 -1
    endloop
  endfacet
  facet normal 0 1 0
    outer loop
      vertex 0.313953 4.99013 -1
      vertex -0.313953 4.99013 0
      vertex 0.313953 4.99013 0
    endloop
  endfacet
  facet normal -0.125334 0.992115 0
    outer loop
      vertex -0.936907 4.91144 -1
      vertex -0.936907 4.91144 0
      vertex -0.313953 4.99013 -1
    endloop
  endfacet
  facet normal -0.125334 0.992115 0
    outer loop
      vertex -0.313953 4.99013 -1
      vertex -0.936907 4.91144 0
      vertex -0.313953 4.99013 0
    endloop
  endfacet
  facet normal -0.248689 0.968583 0
    outer loop
      vertex -1.54508 4.75528 -1
      vertex -1.54508 4.75528 0
      vertex -0.936907 4.91144 -1
    endloop
  endfacet
  facet normal -0.248689 0.968583 0
    outer loop
      vertex -0.936907 4.91144 -1
      vertex -1.54508 4.75528 0
      vertex -0.936907 4.91144 0
    endloop
  endfacet
  facet normal -0.368126 0.929776 0
    outer loop
      vertex -2.1289 4.52413 -1
      vertex -2.1289 4.52413 0
      vertex -1.54508 4.75528 -1
    endloop
  endfacet
  facet normal -0.368126 0.929776 0
    outer loop
      vertex -1.54508 4.75528 -1
      vertex -2.1289 4.52413 0
      vertex -1.54508 4.75528 0
    endloop
  endfacet
  facet normal -0.481753 0.876307 0
    outer loop
      vertex -2.67913 4.22164 -1
      vertex -2.67913 4.22164 0
      vertex -2.1289 4.52413 -1
    endloop
  endfacet
  facet normal -0.481753 0.876307 0
    outer loop
      vertex -2.1289 4.52413 -1
      vertex -2.67913 4.22164 0
      vertex -2.1289 4.52413 0
    endloop
  endfacet
  facet normal -0.587786 0.809017 0
    outer loop
      vertex -3.18712 3.85257 -1
      vertex -3.18712 3.85257 0
      vertex -2.67913 4.22164 -1
    endloop
  endfacet
  facet normal -0.587786 0.809017 0
    outer loop
      vertex -2.67913 4.22164 -1
      vertex -3.18712 3.85257 0
      vertex -2.67913 4.22164 0
    endloop
  endfacet
  facet normal -0.684547 0.728969 0
    outer loop
      vertex -3.64484 3.42274 -1
      vertex -3.64484 3.42274 0
      vertex -3.18712 3.85257 -1
    endloop
  endfacet
  facet normal -0.684547 0.728969 0
    outer loop
      vertex -3.18712 3.85257 -1
      vertex -3.64484 3.42274 0
      vertex -3.18712 3.85257 0
    endloop
  endfacet
  facet normal -0.770514 0.637424 0
    outer loop
      vertex -4.04508 2.93893 -1
      vertex -4.04508 2.93893 0
      vertex -3.64484 3.42274 -1
    endloop
  endfacet
  facet normal -0.770514 0.637424 0
    outer loop
      vertex -3.64484 3.42274 -1
      vertex -4.04508 2.93893 0
      vertex -3.64484 3.42274 0
    endloop
  endfacet
  facet normal -0.844328 0.535826 0
    outer loop
      vertex -4.38153 2.40877 -1
      vertex -4.38153 2.40877 0
      vertex -4.04508 2.93893 -1
    endloop
  endfacet
  facet normal -0.844328 0.535826 0
    outer loop
      vertex -4.04508 2.93893 -1
      vertex -4.38153 2.40877 0
      vertex -4.04508 2.93893 0
    endloop
  endfacet
  facet normal -0.904827 0.42578 0
    outer loop
      vertex -4.64888 1.84062 -1
      vertex -4.64888 1.84062 0
      vertex -4.38153 2.40877 -1
    endloop
  endfacet
  facet normal -0.904827 0.42578 0
    outer loop
      vertex -4.38153 2.40877 -1
      vertex -4.64888 1.84062 0
      vertex -4.38153 2.40877 0
    endloop
  endfacet
  facet normal -0.951056 0.309018 0
    outer loop
      vertex -4.84292 1.24345 -1
      vertex -4.84292 1.24345 0
      vertex -4.64888 1.84062 -1
    endloop
  endfacet
  facet normal -0.951056 0.309018 0
    outer loop
      vertex -4.64888 1.84062 -1
      vertex -4.84292 1.24345 0
      vertex -4.64888 1.84062 0
    endloop
  endfacet
  facet normal -0.982287 0.187382 0
    outer loop
      vertex -4.96057 0.626666 -1
      vertex -4.96057 0.626666 0
      vertex -4.84292 1.24345 -1
    endloop
  endfacet
  facet normal -0.982287 0.187382 0
    outer loop
      vertex -4.84292 1.24345 -1
      vertex -4.96057 0.626666 0
      vertex -4.84292 1.24345 0
    endloop
  endfacet
  facet normal -0.987688 0.156434 0
    outer loop
      vertex -3.8 0 0
      vertex -3.8 0 7
      vertex -3.61401 1.17426 0
    endloop
  endfacet
  facet normal -0.987688 0.156434 0
    outer loop
      vertex -3.61401 1.17426 0
      vertex -3.8 0 7
      vertex -3.61401 1.17426 7
    endloop
  endfacet
  facet normal -0.891007 0.453991 0
    outer loop
      vertex -3.61401 1.17426 0
      vertex -3.61401 1.17426 7
      vertex -3.07427 2.23358 0
    endloop
  endfacet
  facet normal -0.891007 0.453991 0
    outer loop
      vertex -3.07427 2.23358 0
      vertex -3.61401 1.17426 7
      vertex -3.07427 2.23358 7
    endloop
  endfacet
  facet normal -0.707107 0.707107 0
    outer loop
      vertex -3.07427 2.23358 0
      vertex -3.07427 2.23358 7
      vertex -2.23358 3.07427 0
    endloop
  endfacet
  facet normal -0.707107 0.707107 0
    outer loop
      vertex -2.23358 3.07427 0
      vertex -3.07427 2.23358 7
      vertex -2.23358 3.07427 7
    endloop
  endfacet
  facet normal -0.453991 0.891007 0
    outer loop
      vertex -2.23358 3.07427 0
      vertex -2.23358 3.07427 7
      vertex -1.17426 3.61401 0
    endloop
  endfacet
  facet normal -0.453991 0.891007 0
    outer loop
      vertex -1.17426 3.61401 0
      vertex -2.23358 3.07427 7
      vertex -1.17426 3.61401 7
    endloop
  endfacet
  facet normal -0.156434 0.987688 0
    outer loop
      vertex -1.17426 3.61401 0
      vertex -1.17426 3.61401 7
      vertex 0 3.8 0
    endloop
  endfacet
  facet normal -0.156434 0.987688 0
    outer loop
      vertex 0 3.8 0
      vertex -1.17426 3.61401 7
      vertex 0 3.8 7
    endloop
  endfacet
  facet normal 0.156434 0.987688 0
    outer loop
      vertex 0 3.8 0
      vertex 0 3.8 7
      vertex 1.17426 3.61401 0
    endloop
  endfacet
  facet normal 0.156434 0.987688 0
    outer loop
      vertex 1.17426 3.61401 0
      vertex 0 3.8 7
      vertex 1.17426 3.61401 7
    endloop
  endfacet
  facet normal 0.453991 0.891007 0
    outer loop
      vertex 1.17426 3.61401 0
      vertex 1.17426 3.61401 7
      vertex 2.23358 3.07427 0
    endloop
  endfacet
  facet normal 0.453991 0.891007 0
    outer loop
      vertex 2.23358 3.07427 0
      vertex 1.17426 3.61401 7
      vertex 2.23358 3.07427 7
    endloop
  endfacet
  facet normal 0.707107 0.707107 0
    outer loop
      vertex 2.23358 3.07427 0
      vertex 2.23358 3.07427 7
      vertex 3.07427 2.23358 0
    endloop
  endfacet
  facet normal 0.707107 0.707107 0
    outer loop
      vertex 3.07427 2.23358 0
      vertex 2.23358 3.07427 7
      vertex 3.07427 2.23358 7
    endloop
  endfacet
  facet normal 0.891007 0.453991 0
    outer loop
      vertex 3.61401 1.17426 0
      vertex 3.07427 2.23358 0
      vertex 3.07427 2.23358 7
    endloop
  endfacet
  facet normal 0.891007 0.453991 -0
    outer loop
      vertex 3.61401 1.17426 7
      vertex 3.61401 1.17426 0
      vertex 3.07427 2.23358 7
    endloop
  endfacet
  facet normal 0.987688 0.156434 0
    outer loop
      vertex 3.8 0 0
      vertex 3.61401 1.17426 0
      vertex 3.61401 1.17426 7
    endloop
  endfacet
  facet normal 0.987688 0.156434 -0
    outer loop
      vertex 3.8 0 7
      vertex 3.8 0 0
      vertex 3.61401 1.17426 7
    endloop
  endfacet
  facet normal 0.987688 -0.156434 0
    outer loop
      vertex 3.61401 -1.17426 7
      vertex 3.61401 -1.17426 0
      vertex 3.8 0 0
    endloop
  endfacet
  facet normal 0.987688 -0.156434 0
    outer loop
      vertex 3.8 0 7
      vertex 3.61401 -1.17426 7
      vertex 3.8 0 0
    endloop
  endfacet
  facet normal 0.891007 -0.453991 0
    outer loop
      vertex 3.07427 -2.23358 7
      vertex 3.07427 -2.23358 0
      vertex 3.61401 -1.17426 0
    endloop
  endfacet
  facet normal 0.891007 -0.453991 0
    outer loop
      vertex 3.61401 -1.17426 7
      vertex 3.07427 -2.23358 7
      vertex 3.61401 -1.17426 0
    endloop
  endfacet
  facet normal 0.707107 -0.707107 0
    outer loop
      vertex 2.23358 -3.07427 7
      vertex 2.23358 -3.07427 0
      vertex 3.07427 -2.23358 0
    endloop
  endfacet
  facet normal 0.707107 -0.707107 0
    outer loop
      vertex 3.07427 -2.23358 7
      vertex 2.23358 -3.07427 7
      vertex 3.07427 -2.23358 0
    endloop
  endfacet
  facet normal 0.453991 -0.891007 0
    outer loop
      vertex 1.17426 -3.61401 7
      vertex 1.17426 -3.61401 0
      vertex 2.23358 -3.07427 0
    endloop
  endfacet
  facet normal 0.453991 -0.891007 0
    outer loop
      vertex 2.23358 -3.07427 7
      vertex 1.17426 -3.61401 7
      vertex 2.23358 -3.07427 0
    endloop
  endfacet
  facet normal 0.156434 -0.987688 0
    outer loop
      vertex 0 -3.8 7
      vertex 0 -3.8 0
      vertex 1.17426 -3.61401 0
    endloop
  endfacet
  facet normal 0.156434 -0.987688 0
    outer loop
      vertex 1.17426 -3.61401 7
      vertex 0 -3.8 7
      vertex 1.17426 -3.61401 0
    endloop
  endfacet
  facet normal -0.156434 -0.987688 0
    outer loop
      vertex -1.17426 -3.61401 7
      vertex -1.17426 -3.61401 0
      vertex 0 -3.8 0
    endloop
  endfacet
  facet normal -0.156434 -0.987688 0
    outer loop
      vertex 0 -3.8 7
      vertex -1.17426 -3.61401 7
      vertex 0 -3.8 0
    endloop
  endfacet
  facet normal -0.453991 -0.891007 0
    outer loop
      vertex -2.23358 -3.07427 7
      vertex -2.23358 -3.07427 0
      vertex -1.17426 -3.61401 0
    endloop
  endfacet
  facet normal -0.453991 -0.891007 0
    outer loop
      vertex -1.17426 -3.61401 7
      vertex -2.23358 -3.07427 7
      vertex -1.17426 -3.61401 0
    endloop
  endfacet
  facet normal -0.707107 -0.707107 0
    outer loop
      vertex -3.07427 -2.23358 7
      vertex -3.07427 -2.23358 0
      vertex -2.23358 -3.07427 0
    endloop
  endfacet
  facet normal -0.707107 -0.707107 0
    outer loop
      vertex -2.23358 -3.07427 7
      vertex -3.07427 -2.23358 7
      vertex -2.23358 -3.07427 0
    endloop
  endfacet
  facet normal -0.891007 -0.453991 -0
    outer loop
      vertex -3.61401 -1.17426 0
      vertex -3.07427 -2.23358 0
      vertex -3.61401 -1.17426 7
    endloop
  endfacet
  facet normal -0.891007 -0.453991 0
    outer loop
      vertex -3.61401 -1.17426 7
      vertex -3.07427 -2.23358 0
      vertex -3.07427 -2.23358 7
    endloop
  endfacet
  facet normal -0.987688 -0.156434 -0
    outer loop
      vertex -3.8 0 0
      vertex -3.61401 -1.17426 0
      vertex -3.8 0 7
    endloop
  endfacet
  facet normal -0.987688 -0.156434 0
    outer loop
      vertex -3.8 0 7
      vertex -3.61401 -1.17426 0
      vertex -3.61401 -1.17426 7
    endloop
  endfacet
  facet normal 0 0 1
    outer loop
      vertex -4.96057 -0.626666 0
      vertex -4.84292 -1.24345 0
      vertex -4.64888 -1.84062 0
    endloop
  endfacet
  facet normal 0 0 1
    outer loop
      vertex -4.04508 -2.93893 0
      vertex -4.96057 -0.626666 0
      vertex -4.38153 -2.40877 0
    endloop
  endfacet
  facet normal 0 0 1
    outer loop
      vertex -4.38153 -2.40877 0
      vertex -4.96057 -0.626666 0
      vertex -4.64888 -1.84062 0
    endloop
  endfacet
  facet normal 0 0 1
    outer loop
      vertex -3.64484 -3.42274 0
      vertex -4.96057 -0.626666 0
      vertex -4.04508 -2.93893 0
    endloop
  endfacet
  facet normal 0 0 1
    outer loop
      vertex -3.18712 -3.85257 0
      vertex -4.96057 -0.626666 0
      vertex -3.64484 -3.42274 0
    endloop
  endfacet
  facet normal 0 0 1
    outer loop
      vertex -2.67913 -4.22164 0
      vertex -4.96057 -0.626666 0
      vertex -3.18712 -3.85257 0
    endloop
  endfacet
  facet normal 0 0 1
    outer loop
      vertex -2.1289 -4.52413 0
      vertex -4.96057 -0.626666 0
      vertex -2.67913 -4.22164 0
    endloop
  endfacet
  facet normal 0 0 1
    outer loop
      vertex -1.54508 -4.75528 0
      vertex -4.96057 -0.626666 0
      vertex -2.1289 -4.52413 0
    endloop
  endfacet
  facet normal 0 0 1
    outer loop
      vertex -0.936907 -4.91144 0
      vertex -4.96057 -0.626666 0
      vertex -1.54508 -4.75528 0
    endloop
  endfacet
  facet normal 0 0 1
    outer loop
      vertex -0.313953 -4.99013 0
      vertex -4.96057 -0.626666 0
      vertex -0.936907 -4.91144 0
    endloop
  endfacet
  facet normal -0 -0 1
    outer loop
      vertex -2.23358 -3.07427 0
      vertex -4.96057 -0.626666 0
      vertex -0.313953 -4.99013 0
    endloop
  endfacet
  facet normal -0 -0 1
    outer loop
      vertex 0 -3.8 0
      vertex -1.17426 -3.61401 0
      vertex 0.936907 -4.91144 0
    endloop
  endfacet
  facet normal -0 -0 1
    outer loop
      vertex -1.17426 -3.61401 0
      vertex -2.23358 -3.07427 0
      vertex 0.313953 -4.99013 0
    endloop
  endfacet
  facet normal 0 0 1
    outer loop
      vertex 1.17426 -3.61401 0
      vertex 1.54508 -4.75528 0
      vertex 2.1289 -4.52413 0
    endloop
  endfacet
  facet normal -0 0 1
    outer loop
      vertex -3.8 0 0
      vertex -3.61401 1.17426 0
      vertex -4.96057 -0.626666 0
    endloop
  endfacet
  facet normal 0 0 1
    outer loop
      vertex 2.23358 3.07427 0
      vertex 4.04508 2.93893 0
      vertex 3.64484 3.42274 0
    endloop
  endfacet
  facet normal 0 0 1
    outer loop
      vertex 2.23358 -3.07427 0
      vertex 2.67913 -4.22164 0
      vertex 3.18712 -3.85257 0
    endloop
  endfacet
  facet normal 0 0 1
    outer loop
      vertex 1.17426 3.61401 0
      vertex 3.18712 3.85257 0
      vertex 2.67913 4.22164 0
    endloop
  endfacet
  facet normal 0 0 1
    outer loop
      vertex 0 3.8 0
      vertex 1.17426 3.61401 0
      vertex 2.1289 4.52413 0
    endloop
  endfacet
  facet normal 0 0 1
    outer loop
      vertex 1.17426 3.61401 0
      vertex 2.23358 3.07427 0
      vertex 3.18712 3.85257 0
    endloop
  endfacet
  facet normal 0 0 1
    outer loop
      vertex -1.17426 3.61401 0
      vertex 0 3.8 0
      vertex 0.936907 4.91144 0
    endloop
  endfacet
  facet normal 0 0 1
    outer loop
      vertex -2.23358 3.07427 0
      vertex -1.17426 3.61401 0
      vertex -0.313953 4.99013 0
    endloop
  endfacet
  facet normal 0 -0 1
    outer loop
      vertex -2.1289 4.52413 0
      vertex -4.96057 -0.626666 0
      vertex -1.54508 4.75528 0
    endloop
  endfacet
  facet normal 0 -0 1
    outer loop
      vertex -2.67913 4.22164 0
      vertex -4.96057 -0.626666 0
      vertex -2.1289 4.52413 0
    endloop
  endfacet
  facet normal 0 -0 1
    outer loop
      vertex -3.18712 3.85257 0
      vertex -4.96057 -0.626666 0
      vertex -2.67913 4.22164 0
    endloop
  endfacet
  facet normal 0 -0 1
    outer loop
      vertex -3.64484 3.42274 0
      vertex -4.96057 -0.626666 0
      vertex -3.18712 3.85257 0
    endloop
  endfacet
  facet normal 0 -0 1
    outer loop
      vertex -4.04508 2.93893 0
      vertex -4.96057 -0.626666 0
      vertex -3.64484 3.42274 0
    endloop
  endfacet
  facet normal 0 -0 1
    outer loop
      vertex -4.38153 2.40877 0
      vertex -4.96057 -0.626666 0
      vertex -4.04508 2.93893 0
    endloop
  endfacet
  facet normal 0 -0 1
    outer loop
      vertex -4.64888 1.84062 0
      vertex -4.96057 -0.626666 0
      vertex -4.38153 2.40877 0
    endloop
  endfacet
  facet normal 0 -0 1
    outer loop
      vertex -4.84292 1.24345 0
      vertex -4.96057 -0.626666 0
      vertex -4.64888 1.84062 0
    endloop
  endfacet
  facet normal 0 -0 1
    outer loop
      vertex -4.96057 0.626666 0
      vertex -4.96057 -0.626666 0
      vertex -4.84292 1.24345 0
    endloop
  endfacet
  facet normal 0 0 1
    outer loop
      vertex -5 0 0
      vertex -4.96057 -0.626666 0
      vertex -4.96057 0.626666 0
    endloop
  endfacet
  facet normal 0 0 1
    outer loop
      vertex 3.07427 2.23358 0
      vertex 3.61401 1.17426 0
      vertex 4.64888 1.84062 0
    endloop
  endfacet
  facet normal 0 0 1
    outer loop
      vertex -1.17426 3.61401 0
      vertex 0.936907 4.91144 0
      vertex 0.313953 4.99013 0
    endloop
  endfacet
  facet normal 0 0 1
    outer loop
      vertex -3.07427 2.23358 0
      vertex -2.23358 3.07427 0
      vertex -0.936907 4.91144 0
    endloop
  endfacet
  facet normal 0 -0 1
    outer loop
      vertex -1.54508 4.75528 0
      vertex -3.07427 2.23358 0
      vertex -0.936907 4.91144 0
    endloop
  endfacet
  facet normal 0 0 1
    outer loop
      vertex -1.54508 4.75528 0
      vertex -4.96057 -0.626666 0
      vertex -3.07427 2.23358 0
    endloop
  endfacet
  facet normal 0 -0 1
    outer loop
      vertex -0.936907 4.91144 0
      vertex -2.23358 3.07427 0
      vertex -0.313953 4.99013 0
    endloop
  endfacet
  facet normal 0 -0 1
    outer loop
      vertex -0.313953 4.99013 0
      vertex -1.17426 3.61401 0
      vertex 0.313953 4.99013 0
    endloop
  endfacet
  facet normal -0 0 1
    outer loop
      vertex -3.61401 1.17426 0
      vertex -3.07427 2.23358 0
      vertex -4.96057 -0.626666 0
    endloop
  endfacet
  facet normal 0 -0 1
    outer loop
      vertex 0.936907 4.91144 0
      vertex 0 3.8 0
      vertex 1.54508 4.75528 0
    endloop
  endfacet
  facet normal 0 -0 1
    outer loop
      vertex 2.23358 -3.07427 0
      vertex 1.17426 -3.61401 0
      vertex 2.67913 -4.22164 0
    endloop
  endfacet
  facet normal 0 -0 1
    outer loop
      vertex 2.1289 4.52413 0
      vertex 1.17426 3.61401 0
      vertex 2.67913 4.22164 0
    endloop
  endfacet
  facet normal 0 -0 1
    outer loop
      vertex 3.18712 3.85257 0
      vertex 2.23358 3.07427 0
      vertex 3.64484 3.42274 0
    endloop
  endfacet
  facet normal 0 -0 1
    outer loop
      vertex 4.04508 2.93893 0
      vertex 3.07427 2.23358 0
      vertex 4.38153 2.40877 0
    endloop
  endfacet
  facet normal 0 0 1
    outer loop
      vertex 0 3.8 0
      vertex 2.1289 4.52413 0
      vertex 1.54508 4.75528 0
    endloop
  endfacet
  facet normal 0 -0 1
    outer loop
      vertex 4.64888 1.84062 0
      vertex 3.61401 1.17426 0
      vertex 4.84292 1.24345 0
    endloop
  endfacet
  facet normal 0 -0 1
    outer loop
      vertex 4.96057 0.626666 0
      vertex 3.8 0 0
      vertex 5 0 0
    endloop
  endfacet
  facet normal 0 0 1
    outer loop
      vertex 2.23358 3.07427 0
      vertex 3.07427 2.23358 0
      vertex 4.04508 2.93893 0
    endloop
  endfacet
  facet normal -0 0 1
    outer loop
      vertex 4.84292 -1.24345 0
      vertex 3.61401 -1.17426 0
      vertex 4.64888 -1.84062 0
    endloop
  endfacet
  facet normal -0 0 1
    outer loop
      vertex 4.38153 -2.40877 0
      vertex 3.07427 -2.23358 0
      vertex 4.04508 -2.93893 0
    endloop
  endfacet
  facet normal -0 0 1
    outer loop
      vertex 3.64484 -3.42274 0
      vertex 2.23358 -3.07427 0
      vertex 3.18712 -3.85257 0
    endloop
  endfacet
  facet normal -0 0 1
    outer loop
      vertex 2.67913 -4.22164 0
      vertex 1.17426 -3.61401 0
      vertex 2.1289 -4.52413 0
    endloop
  endfacet
  facet normal -0 0 1
    outer loop
      vertex 1.54508 -4.75528 0
      vertex 0 -3.8 0
      vertex 0.936907 -4.91144 0
    endloop
  endfacet
  facet normal -0 0 1
    outer loop
      vertex 0.936907 -4.91144 0
      vertex -1.17426 -3.61401 0
      vertex 0.313953 -4.99013 0
    endloop
  endfacet
  facet normal -0 0 1
    outer loop
      vertex 0.313953 -4.99013 0
      vertex -2.23358 -3.07427 0
      vertex -0.313953 -4.99013 0
    endloop
  endfacet
  facet normal -0 -0 1
    outer loop
      vertex -3.07427 -2.23358 0
      vertex -4.96057 -0.626666 0
      vertex -2.23358 -3.07427 0
    endloop
  endfacet
  facet normal 0 -0 1
    outer loop
      vertex 1.17426 -3.61401 0
      vertex 0 -3.8 0
      vertex 1.54508 -4.75528 0
    endloop
  endfacet
  facet normal 0 0 1
    outer loop
      vertex 3.07427 2.23358 0
      vertex 4.64888 1.84062 0
      vertex 4.38153 2.40877 0
    endloop
  endfacet
  facet normal 0 0 1
    outer loop
      vertex 3.61401 1.17426 0
      vertex 3.8 0 0
      vertex 4.96057 0.626666 0
    endloop
  endfacet
  facet normal 0 0 1
    outer loop
      vertex 3.61401 1.17426 0
      vertex 4.96057 0.626666 0
      vertex 4.84292 1.24345 0
    endloop
  endfacet
  facet normal 0 -0 1
    outer loop
      vertex 3.8 0 0
      vertex 3.61401 -1.17426 0
      vertex 4.84292 -1.24345 0
    endloop
  endfacet
  facet normal 0 0 1
    outer loop
      vertex 3.8 0 0
      vertex 4.84292 -1.24345 0
      vertex 4.96057 -0.626666 0
    endloop
  endfacet
  facet normal 0 0 1
    outer loop
      vertex 3.8 0 0
      vertex 4.96057 -0.626666 0
      vertex 5 0 0
    endloop
  endfacet
  facet normal 0 -0 1
    outer loop
      vertex 3.61401 -1.17426 0
      vertex 3.07427 -2.23358 0
      vertex 4.38153 -2.40877 0
    endloop
  endfacet
  facet normal 0 0 1
    outer loop
      vertex 3.61401 -1.17426 0
      vertex 4.38153 -2.40877 0
      vertex 4.64888 -1.84062 0
    endloop
  endfacet
  facet normal 0 -0 1
    outer loop
      vertex 3.07427 -2.23358 0
      vertex 2.23358 -3.07427 0
      vertex 3.64484 -3.42274 0
    endloop
  endfacet
  facet normal 0 0 1
    outer loop
      vertex 3.07427 -2.23358 0
      vertex 3.64484 -3.42274 0
      vertex 4.04508 -2.93893 0
    endloop
  endfacet
  facet normal 0 0 1
    outer loop
      vertex -3.07427 -2.23358 0
      vertex -3.61401 -1.17426 0
      vertex -4.96057 -0.626666 0
    endloop
  endfacet
  facet normal 0 0 1
    outer loop
      vertex -3.61401 -1.17426 0
      vertex -3.8 0 0
      vertex -4.96057 -0.626666 0
    endloop
  endfacet
endsolid OpenSCAD_Model
