solid OpenSCAD_Model
  facet normal -1 0 0
    outer loop
      vertex 0 0 0
      vertex 0 0 4
      vertex 0 8 0
    endloop
  endfacet
  facet normal -1 0 0
    outer loop
      vertex 0 8 0
      vertex 0 0 4
      vertex 0 8 4
    endloop
  endfacet
  facet normal 0 -1 0
    outer loop
      vertex 0 0 4
      vertex 0 0 0
      vertex 106 0 0
    endloop
  endfacet
  facet normal 0 -1 0
    outer loop
      vertex 106 0 4
      vertex 0 0 4
      vertex 106 0 0
    endloop
  endfacet
  facet normal 0 0 -1
    outer loop
      vertex 63 6.5 0
      vertex 0 8 0
      vertex 106 8 0
    endloop
  endfacet
  facet normal 0 0 -1
    outer loop
      vertex 0 0 0
      vertex 0 8 0
      vertex 3 6.5 0
    endloop
  endfacet
  facet normal 0 0 -1
    outer loop
      vertex 63 1.5 0
      vertex 0 8 0
      vertex 63 6.5 0
    endloop
  endfacet
  facet normal 0 0 -1
    outer loop
      vertex 0 0 0
      vertex 3 6.5 0
      vertex 3 1.5 0
    endloop
  endfacet
  facet normal 0 0 -1
    outer loop
      vertex 0 0 0
      vertex 3 1.5 0
      vertex 106 0 0
    endloop
  endfacet
  facet normal 0 0 -1
    outer loop
      vertex 3 1.5 0
      vertex 5 1.5 0
      vertex 106 0 0
    endloop
  endfacet
  facet normal 0 0 -1
    outer loop
      vertex 3 6.5 0
      vertex 0 8 0
      vertex 5 6.5 0
    endloop
  endfacet
  facet normal 0 0 -1
    outer loop
      vertex 11 1.5 0
      vertex 5 6.5 0
      vertex 11 6.5 0
    endloop
  endfacet
  facet normal 0 0 -1
    outer loop
      vertex 5 6.5 0
      vertex 0 8 0
      vertex 11 6.5 0
    endloop
  endfacet
  facet normal 0 0 -1
    outer loop
      vertex 5 1.5 0
      vertex 11 1.5 0
      vertex 106 0 0
    endloop
  endfacet
  facet normal 0 0 -1
    outer loop
      vertex 11 1.5 0
      vertex 13 1.5 0
      vertex 106 0 0
    endloop
  endfacet
  facet normal 0 0 -1
    outer loop
      vertex 11 6.5 0
      vertex 0 8 0
      vertex 13 6.5 0
    endloop
  endfacet
  facet normal 0 0 -1
    outer loop
      vertex 63 1.5 0
      vertex 13 6.5 0
      vertex 0 8 0
    endloop
  endfacet
  facet normal 0 0 -1
    outer loop
      vertex 65 6.5 0
      vertex 63 6.5 0
      vertex 106 8 0
    endloop
  endfacet
  facet normal 0 0 -1
    outer loop
      vertex 13 1.5 0
      vertex 63 1.5 0
      vertex 106 0 0
    endloop
  endfacet
  facet normal 0 0 -1
    outer loop
      vertex 63 1.5 0
      vertex 65 1.5 0
      vertex 106 0 0
    endloop
  endfacet
  facet normal 0 0 -1
    outer loop
      vertex 71 1.5 0
      vertex 65 6.5 0
      vertex 71 6.5 0
    endloop
  endfacet
  facet normal 0 0 -1
    outer loop
      vertex 71 6.5 0
      vertex 65 6.5 0
      vertex 106 8 0
    endloop
  endfacet
  facet normal 0 0 -1
    outer loop
      vertex 73 6.5 0
      vertex 71 6.5 0
      vertex 106 8 0
    endloop
  endfacet
  facet normal 0 0 -1
    outer loop
      vertex 65 1.5 0
      vertex 71 1.5 0
      vertex 106 0 0
    endloop
  endfacet
  facet normal 0 0 -1
    outer loop
      vertex 71 1.5 0
      vertex 73 1.5 0
      vertex 106 0 0
    endloop
  endfacet
  facet normal 0 0 -1
    outer loop
      vertex 103 6.5 0
      vertex 106 0 0
      vertex 103 1.5 0
    endloop
  endfacet
  facet normal 0 0 -1
    outer loop
      vertex 101 6.5 0
      vertex 73 6.5 0
      vertex 106 8 0
    endloop
  endfacet
  facet normal 0 0 -1
    outer loop
      vertex 101 1.5 0
      vertex 73 6.5 0
      vertex 101 6.5 0
    endloop
  endfacet
  facet normal 0 0 -1
    outer loop
      vertex 103 6.5 0
      vertex 101 6.5 0
      vertex 106 8 0
    endloop
  endfacet
  facet normal 0 0 -1
    outer loop
      vertex 106 0 0
      vertex 73 6.5 0
      vertex 101 1.5 0
    endloop
  endfacet
  facet normal 0 0 -1
    outer loop
      vertex 106 0 0
      vertex 101 1.5 0
      vertex 103 1.5 0
    endloop
  endfacet
  facet normal 0 0 -1
    outer loop
      vertex 106 0 0
      vertex 103 6.5 0
      vertex 106 8 0
    endloop
  endfacet
  facet normal 0 0 -1
    outer loop
      vertex 13 6.5 0
      vertex 63 1.5 0
      vertex 13 1.5 0
    endloop
  endfacet
  facet normal 0 0 -1
    outer loop
      vertex 73 6.5 0
      vertex 106 0 0
      vertex 73 1.5 0
    endloop
  endfacet
  facet normal 0 0 -1
    outer loop
      vertex 65 6.5 0
      vertex 71 1.5 0
      vertex 65 1.5 0
    endloop
  endfacet
  facet normal 0 0 -1
    outer loop
      vertex 5 6.5 0
      vertex 11 1.5 0
      vertex 5 1.5 0
    endloop
  endfacet
  facet normal 0 1 0
    outer loop
      vertex 0 8 0
      vertex 0 8 4
      vertex 106 8 0
    endloop
  endfacet
  facet normal 0 1 0
    outer loop
      vertex 106 8 0
      vertex 0 8 4
      vertex 106 8 4
    endloop
  endfacet
  facet normal 0 0 1
    outer loop
      vertex 16 1 4
      vertex 0 0 4
      vertex 106 0 4
    endloop
  endfacet
  facet normal 0 0 1
    outer loop
      vertex 16 1 4
      vertex 5 1.5 4
      vertex 3 1.5 4
    endloop
  endfacet
  facet normal 0 0 1
    outer loop
      vertex 0 8 4
      vertex 0 0 4
      vertex 3 1.5 4
    endloop
  endfacet
  facet normal 0 0 1
    outer loop
      vertex 0 8 4
      vertex 3 1.5 4
      vertex 3 6.5 4
    endloop
  endfacet
  facet normal 0 0 1
    outer loop
      vertex 0 8 4
      vertex 3 6.5 4
      vertex 5 6.5 4
    endloop
  endfacet
  facet normal 0 0 1
    outer loop
      vertex 98 1 4
      vertex 95 4 4
      vertex 73 6.5 4
    endloop
  endfacet
  facet normal 0 0 1
    outer loop
      vertex 13 6.5 4
      vertex 16 7 4
      vertex 0 8 4
    endloop
  endfacet
  facet normal 0 0 1
    outer loop
      vertex 0 8 4
      vertex 5 6.5 4
      vertex 11 6.5 4
    endloop
  endfacet
  facet normal 0 0 1
    outer loop
      vertex 16 1 4
      vertex 11 1.5 4
      vertex 5 1.5 4
    endloop
  endfacet
  facet normal 0 0 1
    outer loop
      vertex 0 8 4
      vertex 11 6.5 4
      vertex 13 6.5 4
    endloop
  endfacet
  facet normal 0 0 1
    outer loop
      vertex 73 6.5 4
      vertex 73 1.5 4
      vertex 98 1 4
    endloop
  endfacet
  facet normal 0 0 1
    outer loop
      vertex 106 8 4
      vertex 0 8 4
      vertex 16 7 4
    endloop
  endfacet
  facet normal 0 0 1
    outer loop
      vertex 11 1.5 4
      vertex 11 6.5 4
      vertex 5 6.5 4
    endloop
  endfacet
  facet normal 0 0 1
    outer loop
      vertex 98 1 4
      vertex 73 1.5 4
      vertex 106 0 4
    endloop
  endfacet
  facet normal 0 0 1
    outer loop
      vertex 3 1.5 4
      vertex 0 0 4
      vertex 16 1 4
    endloop
  endfacet
  facet normal 0 0 1
    outer loop
      vertex 65 1.5 4
      vertex 63 1.5 4
      vertex 106 0 4
    endloop
  endfacet
  facet normal 0 0 1
    outer loop
      vertex 63 1.5 4
      vertex 16 7 4
      vertex 19 4 4
    endloop
  endfacet
  facet normal 0 0 1
    outer loop
      vertex 101 1.5 4
      vertex 98 1 4
      vertex 106 0 4
    endloop
  endfacet
  facet normal 0 0 1
    outer loop
      vertex 106 8 4
      vertex 16 7 4
      vertex 63 6.5 4
    endloop
  endfacet
  facet normal 0 0 1
    outer loop
      vertex 106 8 4
      vertex 63 6.5 4
      vertex 65 6.5 4
    endloop
  endfacet
  facet normal 0 0 1
    outer loop
      vertex 71 1.5 4
      vertex 65 1.5 4
      vertex 106 0 4
    endloop
  endfacet
  facet normal 0 0 1
    outer loop
      vertex 63 1.5 4
      vertex 63 6.5 4
      vertex 16 7 4
    endloop
  endfacet
  facet normal 0 0 1
    outer loop
      vertex 103 1.5 4
      vertex 101 1.5 4
      vertex 106 0 4
    endloop
  endfacet
  facet normal 0 0 1
    outer loop
      vertex 106 8 4
      vertex 65 6.5 4
      vertex 71 6.5 4
    endloop
  endfacet
  facet normal 0 0 1
    outer loop
      vertex 101 6.5 4
      vertex 103 6.5 4
      vertex 106 8 4
    endloop
  endfacet
  facet normal 0 0 1
    outer loop
      vertex 106 8 4
      vertex 71 6.5 4
      vertex 73 6.5 4
    endloop
  endfacet
  facet normal 0 0 1
    outer loop
      vertex 71 1.5 4
      vertex 71 6.5 4
      vertex 65 6.5 4
    endloop
  endfacet
  facet normal 0 0 1
    outer loop
      vertex 98 7 4
      vertex 73 6.5 4
      vertex 95 4 4
    endloop
  endfacet
  facet normal 0 0 1
    outer loop
      vertex 106 8 4
      vertex 73 6.5 4
      vertex 98 7 4
    endloop
  endfacet
  facet normal 0 0 1
    outer loop
      vertex 103 6.5 4
      vertex 103 1.5 4
      vertex 106 0 4
    endloop
  endfacet
  facet normal 0 0 1
    outer loop
      vertex 106 8 4
      vertex 98 7 4
      vertex 101 6.5 4
    endloop
  endfacet
  facet normal 0 0 1
    outer loop
      vertex 103 6.5 4
      vertex 106 0 4
      vertex 106 8 4
    endloop
  endfacet
  facet normal 0 0 1
    outer loop
      vertex 98 7 4
      vertex 101 4 4
      vertex 101 6.5 4
    endloop
  endfacet
  facet normal 0 0 1
    outer loop
      vertex 16 1 4
      vertex 13 1.5 4
      vertex 11 1.5 4
    endloop
  endfacet
  facet normal 0 0 1
    outer loop
      vertex 16 1 4
      vertex 13 4 4
      vertex 13 1.5 4
    endloop
  endfacet
  facet normal 0 0 1
    outer loop
      vertex 13 4 4
      vertex 16 7 4
      vertex 13 6.5 4
    endloop
  endfacet
  facet normal 0 0 1
    outer loop
      vertex 5 6.5 4
      vertex 5 1.5 4
      vertex 11 1.5 4
    endloop
  endfacet
  facet normal 0 0 1
    outer loop
      vertex 73 1.5 4
      vertex 71 1.5 4
      vertex 106 0 4
    endloop
  endfacet
  facet normal 0 0 1
    outer loop
      vertex 65 6.5 4
      vertex 65 1.5 4
      vertex 71 1.5 4
    endloop
  endfacet
  facet normal 0 0 1
    outer loop
      vertex 101 4 4
      vertex 98 1 4
      vertex 101 1.5 4
    endloop
  endfacet
  facet normal 0 0 1
    outer loop
      vertex 63 1.5 4
      vertex 16 1 4
      vertex 106 0 4
    endloop
  endfacet
  facet normal 0 0 1
    outer loop
      vertex 19 4 4
      vertex 16 1 4
      vertex 63 1.5 4
    endloop
  endfacet
  facet normal 1 0 0
    outer loop
      vertex 106 0 4
      vertex 106 0 0
      vertex 106 8 0
    endloop
  endfacet
  facet normal 1 0 0
    outer loop
      vertex 106 8 4
      vertex 106 0 4
      vertex 106 8 0
    endloop
  endfacet
  facet normal 1 0 0
    outer loop
      vertex 3 6.5 0
      vertex 3 6.5 4
      vertex 3 1.5 4
    endloop
  endfacet
  facet normal 1 0 0
    outer loop
      vertex 3 1.5 0
      vertex 3 6.5 0
      vertex 3 1.5 4
    endloop
  endfacet
  facet normal 0 -1 0
    outer loop
      vertex 5 6.5 0
      vertex 5 6.5 4
      vertex 3 6.5 4
    endloop
  endfacet
  facet normal 0 -1 0
    outer loop
      vertex 3 6.5 0
      vertex 5 6.5 0
      vertex 3 6.5 4
    endloop
  endfacet
  facet normal -1 0 0
    outer loop
      vertex 5 6.5 4
      vertex 5 6.5 0
      vertex 5 1.5 4
    endloop
  endfacet
  facet normal -1 0 0
    outer loop
      vertex 5 1.5 4
      vertex 5 6.5 0
      vertex 5 1.5 0
    endloop
  endfacet
  facet normal 0 1 0
    outer loop
      vertex 5 1.5 4
      vertex 5 1.5 0
      vertex 3 1.5 4
    endloop
  endfacet
  facet normal 0 1 0
    outer loop
      vertex 3 1.5 4
      vertex 5 1.5 0
      vertex 3 1.5 0
    endloop
  endfacet
  facet normal 1 0 0
    outer loop
      vertex 11 6.5 0
      vertex 11 6.5 4
      vertex 11 1.5 4
    endloop
  endfacet
  facet normal 1 0 0
    outer loop
      vertex 11 1.5 0
      vertex 11 6.5 0
      vertex 11 1.5 4
    endloop
  endfacet
  facet normal 0 -1 0
    outer loop
      vertex 13 6.5 0
      vertex 13 6.5 4
      vertex 11 6.5 4
    endloop
  endfacet
  facet normal 0 -1 0
    outer loop
      vertex 11 6.5 0
      vertex 13 6.5 0
      vertex 11 6.5 4
    endloop
  endfacet
  facet normal -1 0 0
    outer loop
      vertex 13 6.5 4
      vertex 13 6.5 0
      vertex 13 4 4
    endloop
  endfacet
  facet normal -1 0 0
    outer loop
      vertex 13 4 4
      vertex 13 6.5 0
      vertex 13 1.5 4
    endloop
  endfacet
  facet normal -1 0 0
    outer loop
      vertex 13 1.5 4
      vertex 13 6.5 0
      vertex 13 1.5 0
    endloop
  endfacet
  facet normal 0 1 0
    outer loop
      vertex 13 1.5 4
      vertex 13 1.5 0
      vertex 11 1.5 4
    endloop
  endfacet
  facet normal 0 1 0
    outer loop
      vertex 11 1.5 4
      vertex 13 1.5 0
      vertex 11 1.5 0
    endloop
  endfacet
  facet normal 1 0 0
    outer loop
      vertex 63 6.5 0
      vertex 63 6.5 4
      vertex 63 1.5 4
    endloop
  endfacet
  facet normal 1 0 0
    outer loop
      vertex 63 1.5 0
      vertex 63 6.5 0
      vertex 63 1.5 4
    endloop
  endfacet
  facet normal 0 -1 0
    outer loop
      vertex 65 6.5 0
      vertex 65 6.5 4
      vertex 63 6.5 4
    endloop
  endfacet
  facet normal 0 -1 0
    outer loop
      vertex 63 6.5 0
      vertex 65 6.5 0
      vertex 63 6.5 4
    endloop
  endfacet
  facet normal -1 0 0
    outer loop
      vertex 65 6.5 4
      vertex 65 6.5 0
      vertex 65 1.5 4
    endloop
  endfacet
  facet normal -1 0 0
    outer loop
      vertex 65 1.5 4
      vertex 65 6.5 0
      vertex 65 1.5 0
    endloop
  endfacet
  facet normal 0 1 0
    outer loop
      vertex 65 1.5 4
      vertex 65 1.5 0
      vertex 63 1.5 4
    endloop
  endfacet
  facet normal 0 1 0
    outer loop
      vertex 63 1.5 4
      vertex 65 1.5 0
      vertex 63 1.5 0
    endloop
  endfacet
  facet normal 1 0 0
    outer loop
      vertex 71 6.5 0
      vertex 71 6.5 4
      vertex 71 1.5 4
    endloop
  endfacet
  facet normal 1 0 0
    outer loop
      vertex 71 1.5 0
      vertex 71 6.5 0
      vertex 71 1.5 4
    endloop
  endfacet
  facet normal 0 -1 0
    outer loop
      vertex 73 6.5 0
      vertex 73 6.5 4
      vertex 71 6.5 4
    endloop
  endfacet
  facet normal 0 -1 0
    outer loop
      vertex 71 6.5 0
      vertex 73 6.5 0
      vertex 71 6.5 4
    endloop
  endfacet
  facet normal -1 0 0
    outer loop
      vertex 73 6.5 4
      vertex 73 6.5 0
      vertex 73 1.5 4
    endloop
  endfacet
  facet normal -1 0 0
    outer loop
      vertex 73 1.5 4
      vertex 73 6.5 0
      vertex 73 1.5 0
    endloop
  endfacet
  facet normal 0 1 0
    outer loop
      vertex 73 1.5 4
      vertex 73 1.5 0
      vertex 71 1.5 4
    endloop
  endfacet
  facet normal 0 1 0
    outer loop
      vertex 71 1.5 4
      vertex 73 1.5 0
      vertex 71 1.5 0
    endloop
  endfacet
  facet normal 1 0 0
    outer loop
      vertex 101 6.5 0
      vertex 101 6.5 4
      vertex 101 4 4
    endloop
  endfacet
  facet normal 1 0 0
    outer loop
      vertex 101 1.5 0
      vertex 101 6.5 0
      vertex 101 1.5 4
    endloop
  endfacet
  facet normal 1 0 0
    outer loop
      vertex 101 1.5 4
      vertex 101 6.5 0
      vertex 101 4 4
    endloop
  endfacet
  facet normal 0 -1 0
    outer loop
      vertex 103 6.5 0
      vertex 103 6.5 4
      vertex 101 6.5 4
    endloop
  endfacet
  facet normal 0 -1 0
    outer loop
      vertex 101 6.5 0
      vertex 103 6.5 0
      vertex 101 6.5 4
    endloop
  endfacet
  facet normal -1 0 0
    outer loop
      vertex 103 6.5 4
      vertex 103 6.5 0
      vertex 103 1.5 4
    endloop
  endfacet
  facet normal -1 0 0
    outer loop
      vertex 103 1.5 4
      vertex 103 6.5 0
      vertex 103 1.5 0
    endloop
  endfacet
  facet normal 0 1 0
    outer loop
      vertex 103 1.5 4
      vertex 103 1.5 0
      vertex 101 1.5 4
    endloop
  endfacet
  facet normal 0 1 0
    outer loop
      vertex 101 1.5 4
      vertex 103 1.5 0
      vertex 101 1.5 0
    endloop
  endfacet
  facet normal -0.707107 0.707107 0
    outer loop
      vertex 13 4 4
      vertex 13 4 4.1
      vertex 16 7 4
    endloop
  endfacet
  facet normal -0.707107 0.707107 0
    outer loop
      vertex 16 7 4
      vertex 13 4 4.1
      vertex 13 4 6
    endloop
  endfacet
  facet normal -0.707107 0.707107 0
    outer loop
      vertex 16 7 4
      vertex 13 4 6
      vertex 16 7 6
    endloop
  endfacet
  facet normal -0.707107 -0.707107 0
    outer loop
      vertex 13 4 4.1
      vertex 13 4 4
      vertex 16 1 4
    endloop
  endfacet
  facet normal -0.707107 -0.707107 0
    outer loop
      vertex 13 4 6
      vertex 13 4 4.1
      vertex 16 1 6
    endloop
  endfacet
  facet normal -0.707107 -0.707107 0
    outer loop
      vertex 16 1 6
      vertex 13 4 4.1
      vertex 16 1 4
    endloop
  endfacet
  facet normal 0.707107 -0.707107 0
    outer loop
      vertex 16 1 6
      vertex 16 1 4
      vertex 19 4 4
    endloop
  endfacet
  facet normal 0.707107 -0.707107 0
    outer loop
      vertex 19 4 6
      vertex 16 1 6
      vertex 19 4 4
    endloop
  endfacet
  facet normal 0.707107 0.707107 0
    outer loop
      vertex 16 7 4
      vertex 16 7 6
      vertex 19 4 4
    endloop
  endfacet
  facet normal 0.707107 0.707107 0
    outer loop
      vertex 19 4 4
      vertex 16 7 6
      vertex 19 4 6
    endloop
  endfacet
  facet normal -0.707107 -0.707107 0
    outer loop
      vertex 95 4 6
      vertex 95 4 4
      vertex 98 1 4
    endloop
  endfacet
  facet normal -0.707107 -0.707107 0
    outer loop
      vertex 98 1 6
      vertex 95 4 6
      vertex 98 1 4
    endloop
  endfacet
  facet normal 0.707107 -0.707107 0
    outer loop
      vertex 98 1 6
      vertex 98 1 4
      vertex 101 4 4
    endloop
  endfacet
  facet normal 0.707107 -0.707107 0
    outer loop
      vertex 101 4 6
      vertex 98 1 6
      vertex 101 4 4.1
    endloop
  endfacet
  facet normal 0.707107 -0.707107 0
    outer loop
      vertex 101 4 4.1
      vertex 98 1 6
      vertex 101 4 4
    endloop
  endfacet
  facet normal 0.707107 0.707107 0
    outer loop
      vertex 98 7 4
      vertex 98 7 6
      vertex 101 4 4
    endloop
  endfacet
  facet normal 0.707107 0.707107 0
    outer loop
      vertex 101 4 4.1
      vertex 98 7 6
      vertex 101 4 6
    endloop
  endfacet
  facet normal 0.707107 0.707107 0
    outer loop
      vertex 101 4 4
      vertex 98 7 6
      vertex 101 4 4.1
    endloop
  endfacet
  facet normal -0.707107 0.707107 0
    outer loop
      vertex 95 4 4
      vertex 95 4 6
      vertex 98 7 4
    endloop
  endfacet
  facet normal -0.707107 0.707107 0
    outer loop
      vertex 98 7 4
      vertex 95 4 6
      vertex 98 7 6
    endloop
  endfacet
  facet normal 0 0 1
    outer loop
      vertex 16 7 6
      vertex 13 4 6
      vertex 16 1 6
    endloop
  endfacet
  facet normal 0 0 1
    outer loop
      vertex 19 4 6
      vertex 16 7 6
      vertex 16 1 6
    endloop
  endfacet
  facet normal 0 0 1
    outer loop
      vertex 98 7 6
      vertex 95 4 6
      vertex 98 1 6
    endloop
  endfacet
  facet normal 0 0 1
    outer loop
      vertex 101 4 6
      vertex 98 7 6
      vertex 98 1 6
    endloop
  endfacet
endsolid OpenSCAD_Model
