solid OpenSCAD_Model
  facet normal -0.866025 -1.34303e-16 0.5
    outer loop
      vertex -24.5 -12.48 5
      vertex -21.6132 -12.48 10
      vertex -24.5 -8.48 5
    endloop
  endfacet
  facet normal -0.866025 -1.34303e-16 0.5
    outer loop
      vertex -24.5 -8.48 5
      vertex -21.6132 -12.48 10
      vertex -21.6132 -8.48 10
    endloop
  endfacet
  facet normal -0.866025 -3.56347e-16 -0.5
    outer loop
      vertex -21.6132 -8.48 0
      vertex -21.6132 -12.48 0
      vertex -24.5 -8.48 5
    endloop
  endfacet
  facet normal -0.866025 -3.56347e-16 -0.5
    outer loop
      vertex -24.5 -8.48 5
      vertex -21.6132 -12.48 0
      vertex -24.5 -12.48 5
    endloop
  endfacet
  facet normal 0 1 0
    outer loop
      vertex -21.6132 -8.48 10
      vertex -16.5 -8.48 10
      vertex -24.5 -8.48 5
    endloop
  endfacet
  facet normal 0 1 0
    outer loop
      vertex -24.5 -8.48 5
      vertex -16.5 -8.48 10
      vertex -16.5 -8.48 0
    endloop
  endfacet
  facet normal 0 1 0
    outer loop
      vertex -24.5 -8.48 5
      vertex -16.5 -8.48 0
      vertex -21.6132 -8.48 0
    endloop
  endfacet
  facet normal 0 0 1
    outer loop
      vertex -21.6132 -8.48 10
      vertex -21.6132 -12.48 10
      vertex -16.98 -12.48 10
    endloop
  endfacet
  facet normal 0 0 1
    outer loop
      vertex -16.5 -8.48 10
      vertex -21.6132 -8.48 10
      vertex -16.98 -12.48 10
    endloop
  endfacet
  facet normal 0 0 1
    outer loop
      vertex -4.75 11.75 10
      vertex -11.02 4.555 10
      vertex -9.305 6.27 10
    endloop
  endfacet
  facet normal 0 0 1
    outer loop
      vertex -1.119 11.175 10
      vertex -9.305 6.27 10
      vertex -7.145 7.371 10
    endloop
  endfacet
  facet normal 0 0 1
    outer loop
      vertex 2.156 9.506 10
      vertex -7.145 7.371 10
      vertex -4.75 7.75 10
    endloop
  endfacet
  facet normal 0 0 1
    outer loop
      vertex 4.756 6.906 10
      vertex -4.75 7.75 10
      vertex -2.355 7.371 10
    endloop
  endfacet
  facet normal 0 0 1
    outer loop
      vertex -16.5 0 10
      vertex -12.5 -8 10
      vertex -12.5 0 10
    endloop
  endfacet
  facet normal 0 0 1
    outer loop
      vertex -16.5 0 10
      vertex -12.5 0 10
      vertex -12.121 2.395 10
    endloop
  endfacet
  facet normal 0 0 1
    outer loop
      vertex -15.925 3.631 10
      vertex -16.5 0 10
      vertex -11.656 9.506 10
    endloop
  endfacet
  facet normal 0 0 1
    outer loop
      vertex 7 -0.48 10
      vertex 2.621 2.395 10
      vertex 3 0 10
    endloop
  endfacet
  facet normal 0 0 1
    outer loop
      vertex 21.6132 -4.48 10
      vertex 3 0 10
      vertex 3 -4.48 10
    endloop
  endfacet
  facet normal 0 0 1
    outer loop
      vertex -16.5 0 10
      vertex -16.5 -8.48 10
      vertex -12.5 -8 10
    endloop
  endfacet
  facet normal 0 0 1
    outer loop
      vertex 21.6132 -4.48 10
      vertex 7 -0.48 10
      vertex 3 0 10
    endloop
  endfacet
  facet normal 0 0 1
    outer loop
      vertex 7 0 10
      vertex 2.621 2.395 10
      vertex 7 -0.48 10
    endloop
  endfacet
  facet normal 0 0 1
    outer loop
      vertex 6.425 3.631 10
      vertex 4.756 6.906 10
      vertex -2.355 7.371 10
    endloop
  endfacet
  facet normal 0 0 1
    outer loop
      vertex -15.925 3.631 10
      vertex -11.656 9.506 10
      vertex -14.256 6.906 10
    endloop
  endfacet
  facet normal 0 0 1
    outer loop
      vertex 2.156 9.506 10
      vertex -4.75 7.75 10
      vertex 4.756 6.906 10
    endloop
  endfacet
  facet normal 0 0 1
    outer loop
      vertex -1.119 11.175 10
      vertex -7.145 7.371 10
      vertex 2.156 9.506 10
    endloop
  endfacet
  facet normal 0 0 1
    outer loop
      vertex -4.75 11.75 10
      vertex -9.305 6.27 10
      vertex -1.119 11.175 10
    endloop
  endfacet
  facet normal 0 0 1
    outer loop
      vertex -8.381 11.175 10
      vertex -11.02 4.555 10
      vertex -4.75 11.75 10
    endloop
  endfacet
  facet normal 0 0 1
    outer loop
      vertex -16.5 0 10
      vertex -11.02 4.555 10
      vertex -8.381 11.175 10
    endloop
  endfacet
  facet normal 0 0 1
    outer loop
      vertex -16.5 0 10
      vertex -12.121 2.395 10
      vertex -11.02 4.555 10
    endloop
  endfacet
  facet normal 0 0 1
    outer loop
      vertex -11.656 9.506 10
      vertex -16.5 0 10
      vertex -8.381 11.175 10
    endloop
  endfacet
  facet normal 0 0 1
    outer loop
      vertex -12.5 -8 10
      vertex -16.5 -8.48 10
      vertex -16.98 -12.48 10
    endloop
  endfacet
  facet normal 0 0 1
    outer loop
      vertex 7 0 10
      vertex 1.52 4.555 10
      vertex 2.621 2.395 10
    endloop
  endfacet
  facet normal 0 0 1
    outer loop
      vertex 7 0 10
      vertex -0.195 6.27 10
      vertex 1.52 4.555 10
    endloop
  endfacet
  facet normal 0 0 1
    outer loop
      vertex -0.195 6.27 10
      vertex 6.425 3.631 10
      vertex -2.355 7.371 10
    endloop
  endfacet
  facet normal 0 0 1
    outer loop
      vertex 7 0 10
      vertex 6.425 3.631 10
      vertex -0.195 6.27 10
    endloop
  endfacet
  facet normal 0 0 1
    outer loop
      vertex 21.6132 -0.48 10
      vertex 7 -0.48 10
      vertex 21.6132 -4.48 10
    endloop
  endfacet
  facet normal 0 -1 0
    outer loop
      vertex -24.5 -12.48 5
      vertex -21.6132 -12.48 0
      vertex -16.98 -12.48 0
    endloop
  endfacet
  facet normal 0 -1 0
    outer loop
      vertex -21.6132 -12.48 10
      vertex -24.5 -12.48 5
      vertex -16.98 -12.48 10
    endloop
  endfacet
  facet normal 0 -1 0
    outer loop
      vertex -16.98 -12.48 10
      vertex -24.5 -12.48 5
      vertex -16.98 -12.48 0
    endloop
  endfacet
  facet normal 0 0 -1
    outer loop
      vertex -16.5 -8.48 0
      vertex -16.5 0 0
      vertex -15.925 3.631 0
    endloop
  endfacet
  facet normal 0 0 -1
    outer loop
      vertex -16.5 -8.48 0
      vertex -15.925 3.631 0
      vertex -14.256 6.906 0
    endloop
  endfacet
  facet normal 0 0 -1
    outer loop
      vertex -16.5 -8.48 0
      vertex -14.256 6.906 0
      vertex -11.656 9.506 0
    endloop
  endfacet
  facet normal 0 0 -1
    outer loop
      vertex -12.121 2.395 0
      vertex -11.656 9.506 0
      vertex -8.381 11.175 0
    endloop
  endfacet
  facet normal 0 0 -1
    outer loop
      vertex -9.305 6.27 0
      vertex -8.381 11.175 0
      vertex -4.75 11.75 0
    endloop
  endfacet
  facet normal 0 0 -1
    outer loop
      vertex -4.75 7.75 0
      vertex -4.75 11.75 0
      vertex -1.119 11.175 0
    endloop
  endfacet
  facet normal 0 0 -1
    outer loop
      vertex -2.355 7.371 0
      vertex -1.119 11.175 0
      vertex 2.156 9.506 0
    endloop
  endfacet
  facet normal 0 0 -1
    outer loop
      vertex -0.195 6.27 0
      vertex 2.156 9.506 0
      vertex 3 8.662 0
    endloop
  endfacet
  facet normal 0 0 -1
    outer loop
      vertex 8 16 0
      vertex 3 19 0
      vertex 21 19 0
    endloop
  endfacet
  facet normal 0 0 -1
    outer loop
      vertex 18 12 0
      vertex 21 19 0
      vertex 21 -0.48 0
    endloop
  endfacet
  facet normal 0 0 -1
    outer loop
      vertex 3 -4.48 0
      vertex 21.6132 -0.48 0
      vertex 21.6132 -4.48 0
    endloop
  endfacet
  facet normal 0 0 -1
    outer loop
      vertex -0.195 6.27 0
      vertex 3 8.662 0
      vertex 16 16 0
    endloop
  endfacet
  facet normal 0 0 -1
    outer loop
      vertex 16 12 0
      vertex 1.52 4.555 0
      vertex -0.195 6.27 0
    endloop
  endfacet
  facet normal 0 0 -1
    outer loop
      vertex 16 12 0
      vertex -0.195 6.27 0
      vertex 16 16 0
    endloop
  endfacet
  facet normal 0 0 -1
    outer loop
      vertex -2.355 7.371 0
      vertex 2.156 9.506 0
      vertex -0.195 6.27 0
    endloop
  endfacet
  facet normal 0 0 -1
    outer loop
      vertex -4.75 7.75 0
      vertex -1.119 11.175 0
      vertex -2.355 7.371 0
    endloop
  endfacet
  facet normal 0 0 -1
    outer loop
      vertex -7.145 7.371 0
      vertex -4.75 11.75 0
      vertex -4.75 7.75 0
    endloop
  endfacet
  facet normal 0 0 -1
    outer loop
      vertex -9.305 6.27 0
      vertex -4.75 11.75 0
      vertex -7.145 7.371 0
    endloop
  endfacet
  facet normal 0 0 -1
    outer loop
      vertex -11.02 4.555 0
      vertex -8.381 11.175 0
      vertex -9.305 6.27 0
    endloop
  endfacet
  facet normal 0 0 -1
    outer loop
      vertex -12.121 2.395 0
      vertex -8.381 11.175 0
      vertex -11.02 4.555 0
    endloop
  endfacet
  facet normal 0 0 -1
    outer loop
      vertex -16.5 -8.48 0
      vertex -11.656 9.506 0
      vertex -12.121 2.395 0
    endloop
  endfacet
  facet normal 0 0 -1
    outer loop
      vertex -12.5 0 0
      vertex -16.5 -8.48 0
      vertex -12.121 2.395 0
    endloop
  endfacet
  facet normal 0 0 -1
    outer loop
      vertex -12.5 -8 0
      vertex -16.5 -8.48 0
      vertex -12.5 0 0
    endloop
  endfacet
  facet normal 0 0 -1
    outer loop
      vertex -16.98 -12.48 0
      vertex -16.5 -8.48 0
      vertex -12.5 -8 0
    endloop
  endfacet
  facet normal 0 0 -1
    outer loop
      vertex 8 16 0
      vertex 21 19 0
      vertex 8 12 0
    endloop
  endfacet
  facet normal 0 0 -1
    outer loop
      vertex -16.5 -8.48 0
      vertex -16.98 -12.48 0
      vertex -21.6132 -8.48 0
    endloop
  endfacet
  facet normal 0 0 -1
    outer loop
      vertex -16.98 -12.48 0
      vertex -21.6132 -12.48 0
      vertex -21.6132 -8.48 0
    endloop
  endfacet
  facet normal 0 0 -1
    outer loop
      vertex 3 8.662 0
      vertex 3 19 0
      vertex 6 12 0
    endloop
  endfacet
  facet normal 0 0 -1
    outer loop
      vertex 16 12 0
      vertex 2.621 2.395 0
      vertex 1.52 4.555 0
    endloop
  endfacet
  facet normal 0 0 -1
    outer loop
      vertex 3 8.662 0
      vertex 6 12 0
      vertex 8 12 0
    endloop
  endfacet
  facet normal 0 0 -1
    outer loop
      vertex 3 8.662 0
      vertex 8 12 0
      vertex 21 19 0
    endloop
  endfacet
  facet normal 0 0 -1
    outer loop
      vertex 6 16 0
      vertex 3 19 0
      vertex 8 16 0
    endloop
  endfacet
  facet normal 0 0 -1
    outer loop
      vertex 16 12 0
      vertex 3 0 0
      vertex 2.621 2.395 0
    endloop
  endfacet
  facet normal 0 0 -1
    outer loop
      vertex 6 12 0
      vertex 3 19 0
      vertex 6 16 0
    endloop
  endfacet
  facet normal 0 0 -1
    outer loop
      vertex 18 16 0
      vertex 21 19 0
      vertex 18 12 0
    endloop
  endfacet
  facet normal 0 0 -1
    outer loop
      vertex 3 0 0
      vertex 16 12 0
      vertex 21 -0.48 0
    endloop
  endfacet
  facet normal 0 0 -1
    outer loop
      vertex 16 12 0
      vertex 18 12 0
      vertex 21 -0.48 0
    endloop
  endfacet
  facet normal 0 0 -1
    outer loop
      vertex 3 8.662 0
      vertex 21 19 0
      vertex 16 16 0
    endloop
  endfacet
  facet normal 0 0 -1
    outer loop
      vertex 21 -0.48 0
      vertex 21.6132 -0.48 0
      vertex 3 -4.48 0
    endloop
  endfacet
  facet normal 0 0 -1
    outer loop
      vertex 3 0 0
      vertex 21 -0.48 0
      vertex 3 -4.48 0
    endloop
  endfacet
  facet normal 0 0 -1
    outer loop
      vertex 16 16 0
      vertex 21 19 0
      vertex 18 16 0
    endloop
  endfacet
  facet normal -1 0 0
    outer loop
      vertex -16.5 -8.48 10
      vertex -16.5 0 10
      vertex -16.5 -8.48 0
    endloop
  endfacet
  facet normal -1 0 0
    outer loop
      vertex -16.5 -8.48 0
      vertex -16.5 0 10
      vertex -16.5 0 0
    endloop
  endfacet
  facet normal -0.987692 0.15641 0
    outer loop
      vertex -16.5 0 10
      vertex -15.925 3.631 10
      vertex -16.5 0 0
    endloop
  endfacet
  facet normal -0.987692 0.15641 0
    outer loop
      vertex -16.5 0 0
      vertex -15.925 3.631 10
      vertex -15.925 3.631 0
    endloop
  endfacet
  facet normal -0.890973 0.454056 0
    outer loop
      vertex -15.925 3.631 10
      vertex -14.256 6.906 10
      vertex -15.925 3.631 0
    endloop
  endfacet
  facet normal -0.890973 0.454056 0
    outer loop
      vertex -15.925 3.631 0
      vertex -14.256 6.906 10
      vertex -14.256 6.906 0
    endloop
  endfacet
  facet normal -0.707107 0.707107 0
    outer loop
      vertex -14.256 6.906 10
      vertex -11.656 9.506 10
      vertex -14.256 6.906 0
    endloop
  endfacet
  facet normal -0.707107 0.707107 0
    outer loop
      vertex -14.256 6.906 0
      vertex -11.656 9.506 10
      vertex -11.656 9.506 0
    endloop
  endfacet
  facet normal -0.454056 0.890973 0
    outer loop
      vertex -11.656 9.506 10
      vertex -8.381 11.175 10
      vertex -11.656 9.506 0
    endloop
  endfacet
  facet normal -0.454056 0.890973 0
    outer loop
      vertex -11.656 9.506 0
      vertex -8.381 11.175 10
      vertex -8.381 11.175 0
    endloop
  endfacet
  facet normal -0.15641 0.987692 0
    outer loop
      vertex -8.381 11.175 10
      vertex -4.75 11.75 10
      vertex -8.381 11.175 0
    endloop
  endfacet
  facet normal -0.15641 0.987692 0
    outer loop
      vertex -8.381 11.175 0
      vertex -4.75 11.75 10
      vertex -4.75 11.75 0
    endloop
  endfacet
  facet normal 0.15641 0.987692 0
    outer loop
      vertex -4.75 11.75 10
      vertex -1.119 11.175 10
      vertex -4.75 11.75 0
    endloop
  endfacet
  facet normal 0.15641 0.987692 0
    outer loop
      vertex -4.75 11.75 0
      vertex -1.119 11.175 10
      vertex -1.119 11.175 0
    endloop
  endfacet
  facet normal 0.454056 0.890973 0
    outer loop
      vertex -1.119 11.175 10
      vertex 2.156 9.506 10
      vertex -1.119 11.175 0
    endloop
  endfacet
  facet normal 0.454056 0.890973 0
    outer loop
      vertex -1.119 11.175 0
      vertex 2.156 9.506 10
      vertex 2.156 9.506 0
    endloop
  endfacet
  facet normal 0.707107 0.707107 0
    outer loop
      vertex 2.156 9.506 10
      vertex 4.756 6.906 10
      vertex 2.156 9.506 0
    endloop
  endfacet
  facet normal 0.707107 0.707107 0
    outer loop
      vertex 3 8.662 2
      vertex 4.756 6.906 10
      vertex 4.756 6.906 2
    endloop
  endfacet
  facet normal 0.707107 0.707107 0
    outer loop
      vertex 2.156 9.506 0
      vertex 4.756 6.906 10
      vertex 3 8.662 2
    endloop
  endfacet
  facet normal 0.707107 0.707107 0
    outer loop
      vertex 3 8.662 0
      vertex 2.156 9.506 0
      vertex 3 8.662 2
    endloop
  endfacet
  facet normal 0.890973 0.454056 0
    outer loop
      vertex 4.756 6.906 2
      vertex 4.756 6.906 10
      vertex 6.425 3.631 10
    endloop
  endfacet
  facet normal 0.890973 0.454056 0
    outer loop
      vertex 6.425 3.631 2
      vertex 4.756 6.906 2
      vertex 6.425 3.631 10
    endloop
  endfacet
  facet normal 0.987692 0.15641 0
    outer loop
      vertex 6.425 3.631 2
      vertex 6.425 3.631 10
      vertex 7 0 10
    endloop
  endfacet
  facet normal 0.987692 0.15641 0
    outer loop
      vertex 7 0 2
      vertex 6.425 3.631 2
      vertex 7 0 10
    endloop
  endfacet
  facet normal 1 0 0
    outer loop
      vertex 7 -0.48 2
      vertex 7 0 2
      vertex 7 0 10
    endloop
  endfacet
  facet normal 1 0 0
    outer loop
      vertex 7 -0.48 10
      vertex 7 -0.48 2
      vertex 7 0 10
    endloop
  endfacet
  facet normal 0 1 0
    outer loop
      vertex 7 -0.48 10
      vertex 21.6132 -0.48 10
      vertex 7 -0.48 2
    endloop
  endfacet
  facet normal 0 1 0
    outer loop
      vertex 22.4344 -0.48 5.62373
      vertex 21.6132 -0.48 10
      vertex 24.5 -0.48 5
    endloop
  endfacet
  facet normal 0 1 0
    outer loop
      vertex 21 -0.48 2
      vertex 24.5 -0.48 5
      vertex 21.6132 -0.48 0
    endloop
  endfacet
  facet normal 0 1 0
    outer loop
      vertex 21.5074 -0.48 2.77057
      vertex 24.5 -0.48 5
      vertex 21 -0.48 2
    endloop
  endfacet
  facet normal 0 1 0
    outer loop
      vertex 17.0729 -0.48 3.23664
      vertex 7 -0.48 2
      vertex 16.7594 -0.48 3.77979
    endloop
  endfacet
  facet normal 0 1 0
    outer loop
      vertex 17.4926 -0.48 7.22943
      vertex 7 -0.48 2
      vertex 18 -0.48 7.59808
    endloop
  endfacet
  facet normal 0 1 0
    outer loop
      vertex 7 -0.48 2
      vertex 16.5 -0.48 5
      vertex 16.5656 -0.48 4.37627
    endloop
  endfacet
  facet normal 0 1 0
    outer loop
      vertex 7 -0.48 2
      vertex 16.5656 -0.48 4.37627
      vertex 16.7594 -0.48 3.77979
    endloop
  endfacet
  facet normal 0 1 0
    outer loop
      vertex 20.4271 -0.48 2.14683
      vertex 21 -0.48 2
      vertex 19.8136 -0.48 2.01643
    endloop
  endfacet
  facet normal 0 1 0
    outer loop
      vertex 7 -0.48 2
      vertex 17.0729 -0.48 3.23664
      vertex 17.4926 -0.48 2.77057
    endloop
  endfacet
  facet normal 0 1 0
    outer loop
      vertex 7 -0.48 2
      vertex 17.4926 -0.48 2.77057
      vertex 18 -0.48 2.40192
    endloop
  endfacet
  facet normal 0 1 0
    outer loop
      vertex 7 -0.48 2
      vertex 18 -0.48 2.40192
      vertex 18.5729 -0.48 2.14683
    endloop
  endfacet
  facet normal 0 1 0
    outer loop
      vertex 7 -0.48 2
      vertex 18.5729 -0.48 2.14683
      vertex 19.1864 -0.48 2.01643
    endloop
  endfacet
  facet normal 0 1 0
    outer loop
      vertex 7 -0.48 2
      vertex 19.1864 -0.48 2.01643
      vertex 21 -0.48 2
    endloop
  endfacet
  facet normal 0 1 0
    outer loop
      vertex 19.1864 -0.48 2.01643
      vertex 19.8136 -0.48 2.01643
      vertex 21 -0.48 2
    endloop
  endfacet
  facet normal 0 1 0
    outer loop
      vertex 21 -0.48 2.40192
      vertex 21 -0.48 2
      vertex 20.4271 -0.48 2.14683
    endloop
  endfacet
  facet normal 0 1 0
    outer loop
      vertex 22.5 -0.48 5
      vertex 24.5 -0.48 5
      vertex 22.4344 -0.48 4.37627
    endloop
  endfacet
  facet normal 0 1 0
    outer loop
      vertex 21.9271 -0.48 3.23664
      vertex 24.5 -0.48 5
      vertex 21.5074 -0.48 2.77057
    endloop
  endfacet
  facet normal 0 1 0
    outer loop
      vertex 21 -0.48 2.40192
      vertex 21.5074 -0.48 2.77057
      vertex 21 -0.48 2
    endloop
  endfacet
  facet normal 0 1 0
    outer loop
      vertex 22.2406 -0.48 3.77979
      vertex 24.5 -0.48 5
      vertex 21.9271 -0.48 3.23664
    endloop
  endfacet
  facet normal 0 1 0
    outer loop
      vertex 22.4344 -0.48 4.37627
      vertex 24.5 -0.48 5
      vertex 22.2406 -0.48 3.77979
    endloop
  endfacet
  facet normal 0 1 0
    outer loop
      vertex 22.4344 -0.48 5.62373
      vertex 24.5 -0.48 5
      vertex 22.5 -0.48 5
    endloop
  endfacet
  facet normal 0 1 0
    outer loop
      vertex 22.2406 -0.48 6.22021
      vertex 21.6132 -0.48 10
      vertex 22.4344 -0.48 5.62373
    endloop
  endfacet
  facet normal 0 1 0
    outer loop
      vertex 19.1864 -0.48 7.98357
      vertex 21.6132 -0.48 10
      vertex 19.8136 -0.48 7.98357
    endloop
  endfacet
  facet normal 0 1 0
    outer loop
      vertex 21.9271 -0.48 6.76336
      vertex 21.6132 -0.48 10
      vertex 22.2406 -0.48 6.22021
    endloop
  endfacet
  facet normal 0 1 0
    outer loop
      vertex 21.5074 -0.48 7.22943
      vertex 21.6132 -0.48 10
      vertex 21.9271 -0.48 6.76336
    endloop
  endfacet
  facet normal 0 1 0
    outer loop
      vertex 21 -0.48 7.59808
      vertex 21.6132 -0.48 10
      vertex 21.5074 -0.48 7.22943
    endloop
  endfacet
  facet normal 0 1 0
    outer loop
      vertex 20.4271 -0.48 7.85317
      vertex 21.6132 -0.48 10
      vertex 21 -0.48 7.59808
    endloop
  endfacet
  facet normal 0 1 0
    outer loop
      vertex 19.8136 -0.48 7.98357
      vertex 21.6132 -0.48 10
      vertex 20.4271 -0.48 7.85317
    endloop
  endfacet
  facet normal 0 1 0
    outer loop
      vertex 18.5729 -0.48 7.85317
      vertex 21.6132 -0.48 10
      vertex 19.1864 -0.48 7.98357
    endloop
  endfacet
  facet normal 0 1 0
    outer loop
      vertex 18 -0.48 7.59808
      vertex 21.6132 -0.48 10
      vertex 18.5729 -0.48 7.85317
    endloop
  endfacet
  facet normal 0 1 0
    outer loop
      vertex 7 -0.48 2
      vertex 21.6132 -0.48 10
      vertex 18 -0.48 7.59808
    endloop
  endfacet
  facet normal 0 1 0
    outer loop
      vertex 17.0729 -0.48 6.76336
      vertex 7 -0.48 2
      vertex 17.4926 -0.48 7.22943
    endloop
  endfacet
  facet normal 0 1 0
    outer loop
      vertex 7 -0.48 2
      vertex 17.0729 -0.48 6.76336
      vertex 16.7594 -0.48 6.22021
    endloop
  endfacet
  facet normal 0 1 0
    outer loop
      vertex 7 -0.48 2
      vertex 16.7594 -0.48 6.22021
      vertex 16.5656 -0.48 5.62373
    endloop
  endfacet
  facet normal 0 1 0
    outer loop
      vertex 7 -0.48 2
      vertex 16.5656 -0.48 5.62373
      vertex 16.5 -0.48 5
    endloop
  endfacet
  facet normal 0 1 0
    outer loop
      vertex 21 -0.48 2
      vertex 21.6132 -0.48 0
      vertex 21 -0.48 0
    endloop
  endfacet
  facet normal 0.866025 3.56347e-16 0.5
    outer loop
      vertex 21.6132 -0.48 10
      vertex 21.6132 -4.48 10
      vertex 24.5 -4.48 5
    endloop
  endfacet
  facet normal 0.866025 3.56347e-16 0.5
    outer loop
      vertex 24.5 -0.48 5
      vertex 21.6132 -0.48 10
      vertex 24.5 -4.48 5
    endloop
  endfacet
  facet normal 0 -1 0
    outer loop
      vertex 20.366 -4.48 3.5
      vertex 21.6132 -4.48 0
      vertex 24.5 -4.48 5
    endloop
  endfacet
  facet normal 0 -1 0
    outer loop
      vertex 3 -4.48 10
      vertex 3 -4.48 0
      vertex 21.6132 -4.48 10
    endloop
  endfacet
  facet normal 0 -1 0
    outer loop
      vertex 18.634 -4.48 6.5
      vertex 20.366 -4.48 6.5
      vertex 21.6132 -4.48 10
    endloop
  endfacet
  facet normal 0 -1 0
    outer loop
      vertex 21.2321 -4.48 5
      vertex 20.366 -4.48 3.5
      vertex 24.5 -4.48 5
    endloop
  endfacet
  facet normal 0 -1 0
    outer loop
      vertex 18.634 -4.48 6.5
      vertex 3 -4.48 0
      vertex 17.7679 -4.48 5
    endloop
  endfacet
  facet normal 0 -1 0
    outer loop
      vertex 20.366 -4.48 6.5
      vertex 21.2321 -4.48 5
      vertex 24.5 -4.48 5
    endloop
  endfacet
  facet normal 0 -1 0
    outer loop
      vertex 21.6132 -4.48 10
      vertex 3 -4.48 0
      vertex 18.634 -4.48 6.5
    endloop
  endfacet
  facet normal 0 -1 0
    outer loop
      vertex 21.6132 -4.48 10
      vertex 20.366 -4.48 6.5
      vertex 24.5 -4.48 5
    endloop
  endfacet
  facet normal 0 -1 0
    outer loop
      vertex 3 -4.48 0
      vertex 21.6132 -4.48 0
      vertex 20.366 -4.48 3.5
    endloop
  endfacet
  facet normal 0 -1 0
    outer loop
      vertex 3 -4.48 0
      vertex 20.366 -4.48 3.5
      vertex 18.634 -4.48 3.5
    endloop
  endfacet
  facet normal 0 -1 0
    outer loop
      vertex 18.634 -4.48 3.5
      vertex 17.7679 -4.48 5
      vertex 3 -4.48 0
    endloop
  endfacet
  facet normal -1 0 0
    outer loop
      vertex 3 -4.48 10
      vertex 3 0 10
      vertex 3 -4.48 0
    endloop
  endfacet
  facet normal -1 0 0
    outer loop
      vertex 3 -4.48 0
      vertex 3 0 10
      vertex 3 0 0
    endloop
  endfacet
  facet normal -0.987709 -0.156301 0
    outer loop
      vertex 3 0 0
      vertex 3 0 10
      vertex 2.621 2.395 0
    endloop
  endfacet
  facet normal -0.987709 -0.156301 0
    outer loop
      vertex 2.621 2.395 0
      vertex 3 0 10
      vertex 2.621 2.395 10
    endloop
  endfacet
  facet normal -0.890936 -0.45413 0
    outer loop
      vertex 2.621 2.395 0
      vertex 2.621 2.395 10
      vertex 1.52 4.555 0
    endloop
  endfacet
  facet normal -0.890936 -0.45413 0
    outer loop
      vertex 1.52 4.555 0
      vertex 2.621 2.395 10
      vertex 1.52 4.555 10
    endloop
  endfacet
  facet normal -0.707107 -0.707107 0
    outer loop
      vertex -0.195 6.27 0
      vertex 1.52 4.555 0
      vertex 1.52 4.555 10
    endloop
  endfacet
  facet normal -0.707107 -0.707107 0
    outer loop
      vertex -0.195 6.27 10
      vertex -0.195 6.27 0
      vertex 1.52 4.555 10
    endloop
  endfacet
  facet normal -0.45413 -0.890936 0
    outer loop
      vertex -2.355 7.371 0
      vertex -0.195 6.27 0
      vertex -0.195 6.27 10
    endloop
  endfacet
  facet normal -0.45413 -0.890936 0
    outer loop
      vertex -2.355 7.371 10
      vertex -2.355 7.371 0
      vertex -0.195 6.27 10
    endloop
  endfacet
  facet normal -0.156301 -0.987709 0
    outer loop
      vertex -4.75 7.75 0
      vertex -2.355 7.371 0
      vertex -2.355 7.371 10
    endloop
  endfacet
  facet normal -0.156301 -0.987709 0
    outer loop
      vertex -4.75 7.75 10
      vertex -4.75 7.75 0
      vertex -2.355 7.371 10
    endloop
  endfacet
  facet normal 0.156301 -0.987709 0
    outer loop
      vertex -7.145 7.371 0
      vertex -4.75 7.75 0
      vertex -4.75 7.75 10
    endloop
  endfacet
  facet normal 0.156301 -0.987709 0
    outer loop
      vertex -7.145 7.371 10
      vertex -7.145 7.371 0
      vertex -4.75 7.75 10
    endloop
  endfacet
  facet normal 0.45413 -0.890936 0
    outer loop
      vertex -9.305 6.27 0
      vertex -7.145 7.371 0
      vertex -7.145 7.371 10
    endloop
  endfacet
  facet normal 0.45413 -0.890936 0
    outer loop
      vertex -9.305 6.27 10
      vertex -9.305 6.27 0
      vertex -7.145 7.371 10
    endloop
  endfacet
  facet normal 0.707107 -0.707107 0
    outer loop
      vertex -11.02 4.555 0
      vertex -9.305 6.27 0
      vertex -9.305 6.27 10
    endloop
  endfacet
  facet normal 0.707107 -0.707107 0
    outer loop
      vertex -11.02 4.555 10
      vertex -11.02 4.555 0
      vertex -9.305 6.27 10
    endloop
  endfacet
  facet normal 0.890936 -0.45413 0
    outer loop
      vertex -12.121 2.395 0
      vertex -11.02 4.555 0
      vertex -11.02 4.555 10
    endloop
  endfacet
  facet normal 0.890936 -0.45413 0
    outer loop
      vertex -12.121 2.395 10
      vertex -12.121 2.395 0
      vertex -11.02 4.555 10
    endloop
  endfacet
  facet normal 0.987709 -0.156301 0
    outer loop
      vertex -12.5 0 0
      vertex -12.121 2.395 0
      vertex -12.121 2.395 10
    endloop
  endfacet
  facet normal 0.987709 -0.156301 0
    outer loop
      vertex -12.5 0 10
      vertex -12.5 0 0
      vertex -12.121 2.395 10
    endloop
  endfacet
  facet normal 1 0 0
    outer loop
      vertex -12.5 -8 0
      vertex -12.5 0 0
      vertex -12.5 0 10
    endloop
  endfacet
  facet normal 1 0 0
    outer loop
      vertex -12.5 -8 10
      vertex -12.5 -8 0
      vertex -12.5 0 10
    endloop
  endfacet
  facet normal 0.707107 -0.707107 0
    outer loop
      vertex -16.98 -12.48 0
      vertex -12.5 -8 0
      vertex -12.5 -8 10
    endloop
  endfacet
  facet normal 0.707107 -0.707107 0
    outer loop
      vertex -16.98 -12.48 10
      vertex -16.98 -12.48 0
      vertex -12.5 -8 10
    endloop
  endfacet
  facet normal 0.866025 1.34303e-16 -0.5
    outer loop
      vertex 21.6132 -0.48 0
      vertex 24.5 -0.48 5
      vertex 24.5 -4.48 5
    endloop
  endfacet
  facet normal 0.866025 1.34303e-16 -0.5
    outer loop
      vertex 21.6132 -4.48 0
      vertex 21.6132 -0.48 0
      vertex 24.5 -4.48 5
    endloop
  endfacet
  facet normal 1 0 0
    outer loop
      vertex 21 -0.48 0
      vertex 21 19 0
      vertex 21 19 2
    endloop
  endfacet
  facet normal 1 0 0
    outer loop
      vertex 21 -0.48 2
      vertex 21 -0.48 0
      vertex 21 19 2
    endloop
  endfacet
  facet normal 0 1 0
    outer loop
      vertex 3 19 2
      vertex 21 19 2
      vertex 3 19 0
    endloop
  endfacet
  facet normal 0 1 0
    outer loop
      vertex 3 19 0
      vertex 21 19 2
      vertex 21 19 0
    endloop
  endfacet
  facet normal -1 0 0
    outer loop
      vertex 3 8.662 2
      vertex 3 19 2
      vertex 3 8.662 0
    endloop
  endfacet
  facet normal -1 0 0
    outer loop
      vertex 3 8.662 0
      vertex 3 19 2
      vertex 3 19 0
    endloop
  endfacet
  facet normal 1 0 0
    outer loop
      vertex 6 12 0
      vertex 6 16 0
      vertex 6 16 2
    endloop
  endfacet
  facet normal 1 0 0
    outer loop
      vertex 6 12 2
      vertex 6 12 0
      vertex 6 16 2
    endloop
  endfacet
  facet normal 0 1 0
    outer loop
      vertex 6 12 3
      vertex 8 12 3
      vertex 6 12 2
    endloop
  endfacet
  facet normal 0 1 0
    outer loop
      vertex 6 12 2
      vertex 8 12 3
      vertex 6 12 0
    endloop
  endfacet
  facet normal 0 1 0
    outer loop
      vertex 6 12 0
      vertex 8 12 3
      vertex 8 12 2
    endloop
  endfacet
  facet normal 0 1 0
    outer loop
      vertex 6 12 0
      vertex 8 12 2
      vertex 8 12 0
    endloop
  endfacet
  facet normal 0 -1 0
    outer loop
      vertex 6 16 0
      vertex 8 16 0
      vertex 8 16 2
    endloop
  endfacet
  facet normal 0 -1 0
    outer loop
      vertex 6 16 2
      vertex 6 16 0
      vertex 8 16 2
    endloop
  endfacet
  facet normal -1 0 0
    outer loop
      vertex 8 12 2
      vertex 8 16 2
      vertex 8 12 0
    endloop
  endfacet
  facet normal -1 0 0
    outer loop
      vertex 8 12 0
      vertex 8 16 2
      vertex 8 16 0
    endloop
  endfacet
  facet normal 1 0 0
    outer loop
      vertex 16 12 0
      vertex 16 16 0
      vertex 16 16 2
    endloop
  endfacet
  facet normal 1 0 0
    outer loop
      vertex 16 12 2
      vertex 16 12 0
      vertex 16 16 2
    endloop
  endfacet
  facet normal 0 1 0
    outer loop
      vertex 16 12 3
      vertex 18 12 3
      vertex 16 12 2
    endloop
  endfacet
  facet normal 0 1 0
    outer loop
      vertex 16 12 2
      vertex 18 12 3
      vertex 16 12 0
    endloop
  endfacet
  facet normal 0 1 0
    outer loop
      vertex 16 12 0
      vertex 18 12 3
      vertex 18 12 2
    endloop
  endfacet
  facet normal 0 1 0
    outer loop
      vertex 16 12 0
      vertex 18 12 2
      vertex 18 12 0
    endloop
  endfacet
  facet normal 0 -1 0
    outer loop
      vertex 16 16 0
      vertex 18 16 0
      vertex 18 16 2
    endloop
  endfacet
  facet normal 0 -1 0
    outer loop
      vertex 16 16 2
      vertex 16 16 0
      vertex 18 16 2
    endloop
  endfacet
  facet normal -1 0 0
    outer loop
      vertex 18 12 2
      vertex 18 16 2
      vertex 18 12 0
    endloop
  endfacet
  facet normal -1 0 0
    outer loop
      vertex 18 12 0
      vertex 18 16 2
      vertex 18 16 0
    endloop
  endfacet
  facet normal 0 0 1
    outer loop
      vertex 21 -0.48 2
      vertex 4.756 6.906 2
      vertex 6.425 3.631 2
    endloop
  endfacet
  facet normal 0 0 1
    outer loop
      vertex 7 0 2
      vertex 21 -0.48 2
      vertex 6.425 3.631 2
    endloop
  endfacet
  facet normal 0 0 1
    outer loop
      vertex 3 8.662 2
      vertex 4.756 6.906 2
      vertex 21 -0.48 2
    endloop
  endfacet
  facet normal 0 0 1
    outer loop
      vertex 7 -0.48 2
      vertex 21 -0.48 2
      vertex 7 0 2
    endloop
  endfacet
  facet normal 0 0 1
    outer loop
      vertex 8 12 2
      vertex 8 8 2
      vertex 16 16 2
    endloop
  endfacet
  facet normal 0 0 1
    outer loop
      vertex 6 12 2
      vertex 3 19 2
      vertex 3 8.662 2
    endloop
  endfacet
  facet normal 0 0 1
    outer loop
      vertex 21 -0.48 2
      vertex 6 8 2
      vertex 3 8.662 2
    endloop
  endfacet
  facet normal 0 0 1
    outer loop
      vertex 16 16 2
      vertex 18 16 2
      vertex 21 19 2
    endloop
  endfacet
  facet normal 0 0 1
    outer loop
      vertex 6 16 2
      vertex 3 19 2
      vertex 6 12 2
    endloop
  endfacet
  facet normal 0 0 1
    outer loop
      vertex 21 19 2
      vertex 3 19 2
      vertex 6 16 2
    endloop
  endfacet
  facet normal 0 0 1
    outer loop
      vertex 21 19 2
      vertex 6 16 2
      vertex 8 16 2
    endloop
  endfacet
  facet normal 0 0 1
    outer loop
      vertex 8 16 2
      vertex 8 12 2
      vertex 21 19 2
    endloop
  endfacet
  facet normal 0 0 1
    outer loop
      vertex 21 -0.48 2
      vertex 8 8 2
      vertex 6 8 2
    endloop
  endfacet
  facet normal 0 0 1
    outer loop
      vertex 21 -0.48 2
      vertex 16 8 2
      vertex 8 8 2
    endloop
  endfacet
  facet normal 0 0 1
    outer loop
      vertex 16 8 2
      vertex 16 12 2
      vertex 8 8 2
    endloop
  endfacet
  facet normal 0 0 1
    outer loop
      vertex 18 16 2
      vertex 18 12 2
      vertex 21 19 2
    endloop
  endfacet
  facet normal 0 0 1
    outer loop
      vertex 21 -0.48 2
      vertex 21 19 2
      vertex 18 12 2
    endloop
  endfacet
  facet normal 0 0 1
    outer loop
      vertex 21 -0.48 2
      vertex 18 8 2
      vertex 16 8 2
    endloop
  endfacet
  facet normal 0 0 1
    outer loop
      vertex 21 -0.48 2
      vertex 18 12 2
      vertex 18 8 2
    endloop
  endfacet
  facet normal 0 0 1
    outer loop
      vertex 8 12 2
      vertex 16 16 2
      vertex 21 19 2
    endloop
  endfacet
  facet normal 0 0 1
    outer loop
      vertex 16 12 2
      vertex 16 16 2
      vertex 8 8 2
    endloop
  endfacet
  facet normal 0 0 1
    outer loop
      vertex 6 8 2
      vertex 6 12 2
      vertex 3 8.662 2
    endloop
  endfacet
  facet normal 0.994522 3.17736e-16 0.104528
    outer loop
      vertex 16.5 -0.48 5
      vertex 16.5 -0.480078 5
      vertex 16.5656 -0.480078 4.37627
    endloop
  endfacet
  facet normal 0.994522 3.17736e-16 0.104528
    outer loop
      vertex 16.5656 -0.48 4.37627
      vertex 16.5 -0.48 5
      vertex 16.5656 -0.480078 4.37627
    endloop
  endfacet
  facet normal 0.994522 2.45714e-16 -0.104528
    outer loop
      vertex 16.5 -0.48 5
      vertex 16.5656 -0.48 5.62373
      vertex 16.5656 -0.480078 5.62373
    endloop
  endfacet
  facet normal 0.994522 2.45714e-16 -0.104528
    outer loop
      vertex 16.5 -0.480078 5
      vertex 16.5 -0.48 5
      vertex 16.5656 -0.480078 5.62373
    endloop
  endfacet
  facet normal 0.951056 1.62953e-16 -0.309018
    outer loop
      vertex 16.5656 -0.48 5.62373
      vertex 16.7594 -0.48 6.22021
      vertex 16.7594 -0.480078 6.22021
    endloop
  endfacet
  facet normal 0.951056 1.62953e-16 -0.309018
    outer loop
      vertex 16.5656 -0.480078 5.62373
      vertex 16.5656 -0.48 5.62373
      vertex 16.7594 -0.480078 6.22021
    endloop
  endfacet
  facet normal 0.866026 7.30707e-17 -0.499999
    outer loop
      vertex 16.7594 -0.48 6.22021
      vertex 17.0729 -0.48 6.76336
      vertex 17.0729 -0.480078 6.76336
    endloop
  endfacet
  facet normal 0.866026 7.30707e-17 -0.499999
    outer loop
      vertex 16.7594 -0.480078 6.22021
      vertex 16.7594 -0.48 6.22021
      vertex 17.0729 -0.480078 6.76336
    endloop
  endfacet
  facet normal 0.743144 -2.00062e-17 -0.669131
    outer loop
      vertex 17.0729 -0.48 6.76336
      vertex 17.4926 -0.48 7.22943
      vertex 17.4926 -0.480078 7.22943
    endloop
  endfacet
  facet normal 0.743144 -2.00062e-17 -0.669131
    outer loop
      vertex 17.0729 -0.480078 6.76336
      vertex 17.0729 -0.48 6.76336
      vertex 17.4926 -0.480078 7.22943
    endloop
  endfacet
  facet normal 0.587785 -1.12208e-16 -0.809017
    outer loop
      vertex 18 -0.48 7.59808
      vertex 18 -0.480078 7.59808
      vertex 17.4926 -0.48 7.22943
    endloop
  endfacet
  facet normal 0.587785 -1.12208e-16 -0.809017
    outer loop
      vertex 17.4926 -0.48 7.22943
      vertex 18 -0.480078 7.59808
      vertex 17.4926 -0.480078 7.22943
    endloop
  endfacet
  facet normal 0.406738 -1.99505e-16 -0.913545
    outer loop
      vertex 18.5729 -0.48 7.85317
      vertex 18.5729 -0.480078 7.85317
      vertex 18 -0.48 7.59808
    endloop
  endfacet
  facet normal 0.406738 -1.99505e-16 -0.913545
    outer loop
      vertex 18 -0.48 7.59808
      vertex 18.5729 -0.480078 7.85317
      vertex 18 -0.480078 7.59808
    endloop
  endfacet
  facet normal 0.207911 -2.78084e-16 -0.978148
    outer loop
      vertex 19.1864 -0.48 7.98357
      vertex 19.1864 -0.480078 7.98357
      vertex 18.5729 -0.48 7.85317
    endloop
  endfacet
  facet normal 0.207911 -2.78084e-16 -0.978148
    outer loop
      vertex 18.5729 -0.48 7.85317
      vertex 19.1864 -0.480078 7.98357
      vertex 18.5729 -0.480078 7.85317
    endloop
  endfacet
  facet normal 9.75915e-32 -3.44509e-16 -1
    outer loop
      vertex 19.8136 -0.48 7.98357
      vertex 19.8136 -0.480078 7.98357
      vertex 19.1864 -0.48 7.98357
    endloop
  endfacet
  facet normal 9.75915e-32 -3.44509e-16 -1
    outer loop
      vertex 19.1864 -0.48 7.98357
      vertex 19.8136 -0.480078 7.98357
      vertex 19.1864 -0.480078 7.98357
    endloop
  endfacet
  facet normal -0.207911 -3.95877e-16 -0.978148
    outer loop
      vertex 20.4271 -0.48 7.85317
      vertex 20.4271 -0.480078 7.85317
      vertex 19.8136 -0.48 7.98357
    endloop
  endfacet
  facet normal -0.207911 -3.95877e-16 -0.978148
    outer loop
      vertex 19.8136 -0.48 7.98357
      vertex 20.4271 -0.480078 7.85317
      vertex 19.8136 -0.480078 7.98357
    endloop
  endfacet
  facet normal -0.406738 -4.29944e-16 -0.913545
    outer loop
      vertex 21 -0.48 7.59808
      vertex 21 -0.480078 7.59808
      vertex 20.4271 -0.48 7.85317
    endloop
  endfacet
  facet normal -0.406738 -4.29944e-16 -0.913545
    outer loop
      vertex 20.4271 -0.48 7.85317
      vertex 21 -0.480078 7.59808
      vertex 20.4271 -0.480078 7.85317
    endloop
  endfacet
  facet normal -0.587785 -4.4522e-16 -0.809017
    outer loop
      vertex 21.5074 -0.48 7.22943
      vertex 21.5074 -0.480078 7.22943
      vertex 21 -0.48 7.59808
    endloop
  endfacet
  facet normal -0.587785 -4.4522e-16 -0.809017
    outer loop
      vertex 21 -0.48 7.59808
      vertex 21.5074 -0.480078 7.22943
      vertex 21 -0.480078 7.59808
    endloop
  endfacet
  facet normal -0.743144 -4.41038e-16 -0.669131
    outer loop
      vertex 21.9271 -0.48 6.76336
      vertex 21.9271 -0.480078 6.76336
      vertex 21.5074 -0.48 7.22943
    endloop
  endfacet
  facet normal -0.743144 -4.41038e-16 -0.669131
    outer loop
      vertex 21.5074 -0.48 7.22943
      vertex 21.9271 -0.480078 6.76336
      vertex 21.5074 -0.480078 7.22943
    endloop
  endfacet
  facet normal -0.866026 -4.1758e-16 -0.499999
    outer loop
      vertex 22.2406 -0.48 6.22021
      vertex 22.2406 -0.480078 6.22021
      vertex 21.9271 -0.48 6.76336
    endloop
  endfacet
  facet normal -0.866026 -4.1758e-16 -0.499999
    outer loop
      vertex 21.9271 -0.48 6.76336
      vertex 22.2406 -0.480078 6.22021
      vertex 21.9271 -0.480078 6.76336
    endloop
  endfacet
  facet normal -0.951056 -3.75872e-16 -0.309018
    outer loop
      vertex 22.4344 -0.48 5.62373
      vertex 22.4344 -0.480078 5.62373
      vertex 22.2406 -0.48 6.22021
    endloop
  endfacet
  facet normal -0.951056 -3.75872e-16 -0.309018
    outer loop
      vertex 22.2406 -0.48 6.22021
      vertex 22.4344 -0.480078 5.62373
      vertex 22.2406 -0.480078 6.22021
    endloop
  endfacet
  facet normal -0.994522 -3.17736e-16 -0.104528
    outer loop
      vertex 22.5 -0.48 5
      vertex 22.5 -0.480078 5
      vertex 22.4344 -0.48 5.62373
    endloop
  endfacet
  facet normal -0.994522 -3.17736e-16 -0.104528
    outer loop
      vertex 22.4344 -0.48 5.62373
      vertex 22.5 -0.480078 5
      vertex 22.4344 -0.480078 5.62373
    endloop
  endfacet
  facet normal -0.994522 -2.45714e-16 0.104528
    outer loop
      vertex 22.4344 -0.480078 4.37627
      vertex 22.5 -0.480078 5
      vertex 22.4344 -0.48 4.37627
    endloop
  endfacet
  facet normal -0.994522 -2.45714e-16 0.104528
    outer loop
      vertex 22.4344 -0.48 4.37627
      vertex 22.5 -0.480078 5
      vertex 22.5 -0.48 5
    endloop
  endfacet
  facet normal -0.951056 -1.62953e-16 0.309018
    outer loop
      vertex 22.2406 -0.480078 3.77979
      vertex 22.4344 -0.480078 4.37627
      vertex 22.2406 -0.48 3.77979
    endloop
  endfacet
  facet normal -0.951056 -1.62953e-16 0.309018
    outer loop
      vertex 22.2406 -0.48 3.77979
      vertex 22.4344 -0.480078 4.37627
      vertex 22.4344 -0.48 4.37627
    endloop
  endfacet
  facet normal -0.866026 -7.30707e-17 0.499999
    outer loop
      vertex 21.9271 -0.480078 3.23664
      vertex 22.2406 -0.480078 3.77979
      vertex 21.9271 -0.48 3.23664
    endloop
  endfacet
  facet normal -0.866026 -7.30707e-17 0.499999
    outer loop
      vertex 21.9271 -0.48 3.23664
      vertex 22.2406 -0.480078 3.77979
      vertex 22.2406 -0.48 3.77979
    endloop
  endfacet
  facet normal -0.743144 2.00062e-17 0.669131
    outer loop
      vertex 21.5074 -0.480078 2.77057
      vertex 21.9271 -0.480078 3.23664
      vertex 21.5074 -0.48 2.77057
    endloop
  endfacet
  facet normal -0.743144 2.00062e-17 0.669131
    outer loop
      vertex 21.5074 -0.48 2.77057
      vertex 21.9271 -0.480078 3.23664
      vertex 21.9271 -0.48 3.23664
    endloop
  endfacet
  facet normal -0.587785 1.12208e-16 0.809017
    outer loop
      vertex 21 -0.48 2.40192
      vertex 21 -0.480078 2.40192
      vertex 21.5074 -0.480078 2.77057
    endloop
  endfacet
  facet normal -0.587785 1.12208e-16 0.809017
    outer loop
      vertex 21.5074 -0.48 2.77057
      vertex 21 -0.48 2.40192
      vertex 21.5074 -0.480078 2.77057
    endloop
  endfacet
  facet normal -0.406738 1.99505e-16 0.913545
    outer loop
      vertex 20.4271 -0.48 2.14683
      vertex 20.4271 -0.480078 2.14683
      vertex 21 -0.480078 2.40192
    endloop
  endfacet
  facet normal -0.406738 1.99505e-16 0.913545
    outer loop
      vertex 21 -0.48 2.40192
      vertex 20.4271 -0.48 2.14683
      vertex 21 -0.480078 2.40192
    endloop
  endfacet
  facet normal -0.207911 2.78084e-16 0.978148
    outer loop
      vertex 19.8136 -0.48 2.01643
      vertex 19.8136 -0.480078 2.01643
      vertex 20.4271 -0.480078 2.14683
    endloop
  endfacet
  facet normal -0.207911 2.78084e-16 0.978148
    outer loop
      vertex 20.4271 -0.48 2.14683
      vertex 19.8136 -0.48 2.01643
      vertex 20.4271 -0.480078 2.14683
    endloop
  endfacet
  facet normal -9.75915e-32 3.44509e-16 1
    outer loop
      vertex 19.1864 -0.48 2.01643
      vertex 19.1864 -0.480078 2.01643
      vertex 19.8136 -0.480078 2.01643
    endloop
  endfacet
  facet normal -9.75915e-32 3.44509e-16 1
    outer loop
      vertex 19.8136 -0.48 2.01643
      vertex 19.1864 -0.48 2.01643
      vertex 19.8136 -0.480078 2.01643
    endloop
  endfacet
  facet normal 0.207911 3.95877e-16 0.978148
    outer loop
      vertex 18.5729 -0.48 2.14683
      vertex 18.5729 -0.480078 2.14683
      vertex 19.1864 -0.480078 2.01643
    endloop
  endfacet
  facet normal 0.207911 3.95877e-16 0.978148
    outer loop
      vertex 19.1864 -0.48 2.01643
      vertex 18.5729 -0.48 2.14683
      vertex 19.1864 -0.480078 2.01643
    endloop
  endfacet
  facet normal 0.406738 4.29944e-16 0.913545
    outer loop
      vertex 18 -0.48 2.40192
      vertex 18 -0.480078 2.40192
      vertex 18.5729 -0.480078 2.14683
    endloop
  endfacet
  facet normal 0.406738 4.29944e-16 0.913545
    outer loop
      vertex 18.5729 -0.48 2.14683
      vertex 18 -0.48 2.40192
      vertex 18.5729 -0.480078 2.14683
    endloop
  endfacet
  facet normal 0.587785 4.4522e-16 0.809017
    outer loop
      vertex 17.4926 -0.48 2.77057
      vertex 17.4926 -0.480078 2.77057
      vertex 18 -0.480078 2.40192
    endloop
  endfacet
  facet normal 0.587785 4.4522e-16 0.809017
    outer loop
      vertex 18 -0.48 2.40192
      vertex 17.4926 -0.48 2.77057
      vertex 18 -0.480078 2.40192
    endloop
  endfacet
  facet normal 0.743144 4.41038e-16 0.669131
    outer loop
      vertex 17.0729 -0.48 3.23664
      vertex 17.0729 -0.480078 3.23664
      vertex 17.4926 -0.480078 2.77057
    endloop
  endfacet
  facet normal 0.743144 4.41038e-16 0.669131
    outer loop
      vertex 17.4926 -0.48 2.77057
      vertex 17.0729 -0.48 3.23664
      vertex 17.4926 -0.480078 2.77057
    endloop
  endfacet
  facet normal 0.866026 4.1758e-16 0.499999
    outer loop
      vertex 16.7594 -0.48 3.77979
      vertex 16.7594 -0.480078 3.77979
      vertex 17.0729 -0.480078 3.23664
    endloop
  endfacet
  facet normal 0.866026 4.1758e-16 0.499999
    outer loop
      vertex 17.0729 -0.48 3.23664
      vertex 16.7594 -0.48 3.77979
      vertex 17.0729 -0.480078 3.23664
    endloop
  endfacet
  facet normal 0.951056 3.75872e-16 0.309018
    outer loop
      vertex 16.5656 -0.48 4.37627
      vertex 16.5656 -0.480078 4.37627
      vertex 16.7594 -0.480078 3.77979
    endloop
  endfacet
  facet normal 0.951056 3.75872e-16 0.309018
    outer loop
      vertex 16.7594 -0.48 3.77979
      vertex 16.5656 -0.48 4.37627
      vertex 16.7594 -0.480078 3.77979
    endloop
  endfacet
  facet normal 0.866025 3.56347e-16 0.5
    outer loop
      vertex 17.7679 -0.480078 5
      vertex 17.7679 -4.48 5
      vertex 18.634 -4.48 3.5
    endloop
  endfacet
  facet normal 0.866025 3.56347e-16 0.5
    outer loop
      vertex 18.634 -0.480078 3.5
      vertex 17.7679 -0.480078 5
      vertex 18.634 -4.48 3.5
    endloop
  endfacet
  facet normal 0.866025 1.34303e-16 -0.5
    outer loop
      vertex 17.7679 -0.480078 5
      vertex 18.634 -0.480078 6.5
      vertex 18.634 -4.48 6.5
    endloop
  endfacet
  facet normal 0.866025 1.34303e-16 -0.5
    outer loop
      vertex 17.7679 -4.48 5
      vertex 17.7679 -0.480078 5
      vertex 18.634 -4.48 6.5
    endloop
  endfacet
  facet normal -6.29001e-32 2.22045e-16 1
    outer loop
      vertex 18.634 -0.480078 3.5
      vertex 18.634 -4.48 3.5
      vertex 20.366 -4.48 3.5
    endloop
  endfacet
  facet normal -6.29001e-32 2.22045e-16 1
    outer loop
      vertex 20.366 -0.480078 3.5
      vertex 18.634 -0.480078 3.5
      vertex 20.366 -4.48 3.5
    endloop
  endfacet
  facet normal -0.866025 -1.34303e-16 0.5
    outer loop
      vertex 20.366 -4.48 3.5
      vertex 21.2321 -4.48 5
      vertex 20.366 -0.480078 3.5
    endloop
  endfacet
  facet normal -0.866025 -1.34303e-16 0.5
    outer loop
      vertex 20.366 -0.480078 3.5
      vertex 21.2321 -4.48 5
      vertex 21.2321 -0.480078 5
    endloop
  endfacet
  facet normal -0.866025 -3.56347e-16 -0.5
    outer loop
      vertex 21.2321 -0.480078 5
      vertex 21.2321 -4.48 5
      vertex 20.366 -0.480078 6.5
    endloop
  endfacet
  facet normal -0.866025 -3.56347e-16 -0.5
    outer loop
      vertex 20.366 -0.480078 6.5
      vertex 21.2321 -4.48 5
      vertex 20.366 -4.48 6.5
    endloop
  endfacet
  facet normal 6.29001e-32 -2.22045e-16 -1
    outer loop
      vertex 20.366 -0.480078 6.5
      vertex 20.366 -4.48 6.5
      vertex 18.634 -0.480078 6.5
    endloop
  endfacet
  facet normal 6.29001e-32 -2.22045e-16 -1
    outer loop
      vertex 18.634 -0.480078 6.5
      vertex 20.366 -4.48 6.5
      vertex 18.634 -4.48 6.5
    endloop
  endfacet
  facet normal -1 0 0
    outer loop
      vertex 6 8 4
      vertex 6 12 4
      vertex 6 8 2
    endloop
  endfacet
  facet normal -1 0 0
    outer loop
      vertex 6 8 2
      vertex 6 12 4
      vertex 6 12 3
    endloop
  endfacet
  facet normal -1 0 0
    outer loop
      vertex 6 8 2
      vertex 6 12 3
      vertex 6 12 2
    endloop
  endfacet
  facet normal 1 0 0
    outer loop
      vertex 8 8 2
      vertex 8 12 2
      vertex 8 12 3
    endloop
  endfacet
  facet normal 1 0 0
    outer loop
      vertex 8 8 4
      vertex 8 8 2
      vertex 8 12 4
    endloop
  endfacet
  facet normal 1 0 0
    outer loop
      vertex 8 12 4
      vertex 8 8 2
      vertex 8 12 3
    endloop
  endfacet
  facet normal 0 1 0
    outer loop
      vertex 6 12 4
      vertex 8 12 4
      vertex 6 12 3
    endloop
  endfacet
  facet normal 0 1 0
    outer loop
      vertex 6 12 3
      vertex 8 12 4
      vertex 8 12 3
    endloop
  endfacet
  facet normal -1 0 0
    outer loop
      vertex 16 8 4
      vertex 16 12 4
      vertex 16 8 2
    endloop
  endfacet
  facet normal -1 0 0
    outer loop
      vertex 16 8 2
      vertex 16 12 4
      vertex 16 12 3
    endloop
  endfacet
  facet normal -1 0 0
    outer loop
      vertex 16 8 2
      vertex 16 12 3
      vertex 16 12 2
    endloop
  endfacet
  facet normal 1 0 0
    outer loop
      vertex 18 8 2
      vertex 18 12 2
      vertex 18 12 3
    endloop
  endfacet
  facet normal 1 0 0
    outer loop
      vertex 18 8 4
      vertex 18 8 2
      vertex 18 12 4
    endloop
  endfacet
  facet normal 1 0 0
    outer loop
      vertex 18 12 4
      vertex 18 8 2
      vertex 18 12 3
    endloop
  endfacet
  facet normal 0 1 0
    outer loop
      vertex 16 12 4
      vertex 18 12 4
      vertex 16 12 3
    endloop
  endfacet
  facet normal 0 1 0
    outer loop
      vertex 16 12 3
      vertex 18 12 4
      vertex 18 12 3
    endloop
  endfacet
  facet normal 0 -1 0
    outer loop
      vertex 6 8 2
      vertex 8 8 2
      vertex 8 8 4
    endloop
  endfacet
  facet normal 0 -1 0
    outer loop
      vertex 6 8 4
      vertex 6 8 2
      vertex 8 8 4
    endloop
  endfacet
  facet normal 0 -1 0
    outer loop
      vertex 16 8 2
      vertex 18 8 2
      vertex 18 8 4
    endloop
  endfacet
  facet normal 0 -1 0
    outer loop
      vertex 16 8 4
      vertex 16 8 2
      vertex 18 8 4
    endloop
  endfacet
  facet normal -2.83277e-16 1 -3.44509e-16
    outer loop
      vertex 16.5656 -0.480078 5.62373
      vertex 16.7594 -0.480078 6.22021
      vertex 16.5 -0.480078 5
    endloop
  endfacet
  facet normal -2.83277e-16 1 -3.44509e-16
    outer loop
      vertex 16.5 -0.480078 5
      vertex 16.7594 -0.480078 6.22021
      vertex 17.0729 -0.480078 6.76336
    endloop
  endfacet
  facet normal -2.83277e-16 1 -3.44509e-16
    outer loop
      vertex 16.5 -0.480078 5
      vertex 17.0729 -0.480078 6.76336
      vertex 17.4926 -0.480078 7.22943
    endloop
  endfacet
  facet normal -2.83277e-16 1 -3.44509e-16
    outer loop
      vertex 16.5 -0.480078 5
      vertex 17.4926 -0.480078 7.22943
      vertex 18 -0.480078 7.59808
    endloop
  endfacet
  facet normal -2.83277e-16 1 -3.44509e-16
    outer loop
      vertex 16.5 -0.480078 5
      vertex 18 -0.480078 7.59808
      vertex 18.5729 -0.480078 7.85317
    endloop
  endfacet
  facet normal -2.83277e-16 1 -3.44509e-16
    outer loop
      vertex 16.5 -0.480078 5
      vertex 18.5729 -0.480078 7.85317
      vertex 19.1864 -0.480078 7.98357
    endloop
  endfacet
  facet normal -2.83277e-16 1 -3.44509e-16
    outer loop
      vertex 16.5 -0.480078 5
      vertex 19.1864 -0.480078 7.98357
      vertex 19.8136 -0.480078 7.98357
    endloop
  endfacet
  facet normal -2.83277e-16 1 -3.44509e-16
    outer loop
      vertex 16.5 -0.480078 5
      vertex 19.8136 -0.480078 7.98357
      vertex 20.4271 -0.480078 7.85317
    endloop
  endfacet
  facet normal -2.83277e-16 1 -3.44509e-16
    outer loop
      vertex 18.634 -0.480078 6.5
      vertex 20.4271 -0.480078 7.85317
      vertex 21 -0.480078 7.59808
    endloop
  endfacet
  facet normal -2.83277e-16 1 -3.44509e-16
    outer loop
      vertex 21.2321 -0.480078 5
      vertex 22.2406 -0.480078 3.77979
      vertex 21.9271 -0.480078 3.23664
    endloop
  endfacet
  facet normal -2.83277e-16 1 -3.44509e-16
    outer loop
      vertex 20.366 -0.480078 6.5
      vertex 21.5074 -0.480078 7.22943
      vertex 21.9271 -0.480078 6.76336
    endloop
  endfacet
  facet normal -2.83277e-16 1 -3.44509e-16
    outer loop
      vertex 20.366 -0.480078 6.5
      vertex 22.4344 -0.480078 5.62373
      vertex 21.2321 -0.480078 5
    endloop
  endfacet
  facet normal -2.83277e-16 1 -3.44509e-16
    outer loop
      vertex 18.634 -0.480078 3.5
      vertex 16.5 -0.480078 5
      vertex 17.7679 -0.480078 5
    endloop
  endfacet
  facet normal -2.83277e-16 1 -3.44509e-16
    outer loop
      vertex 21.2321 -0.480078 5
      vertex 22.5 -0.480078 5
      vertex 22.4344 -0.480078 4.37627
    endloop
  endfacet
  facet normal -2.83277e-16 1 -3.44509e-16
    outer loop
      vertex 20.366 -0.480078 3.5
      vertex 21.9271 -0.480078 3.23664
      vertex 21.5074 -0.480078 2.77057
    endloop
  endfacet
  facet normal -2.83277e-16 1 -3.44509e-16
    outer loop
      vertex 20.366 -0.480078 3.5
      vertex 21 -0.480078 2.40192
      vertex 18.634 -0.480078 3.5
    endloop
  endfacet
  facet normal -2.83277e-16 1 -3.44509e-16
    outer loop
      vertex 18.634 -0.480078 3.5
      vertex 21 -0.480078 2.40192
      vertex 20.4271 -0.480078 2.14683
    endloop
  endfacet
  facet normal -2.83277e-16 1 -3.44509e-16
    outer loop
      vertex 16.5 -0.480078 5
      vertex 20.4271 -0.480078 2.14683
      vertex 19.8136 -0.480078 2.01643
    endloop
  endfacet
  facet normal -2.83277e-16 1 -3.44509e-16
    outer loop
      vertex 16.5 -0.480078 5
      vertex 19.8136 -0.480078 2.01643
      vertex 19.1864 -0.480078 2.01643
    endloop
  endfacet
  facet normal -2.83277e-16 1 -3.44509e-16
    outer loop
      vertex 16.5 -0.480078 5
      vertex 19.1864 -0.480078 2.01643
      vertex 18.5729 -0.480078 2.14683
    endloop
  endfacet
  facet normal -2.83277e-16 1 -3.44509e-16
    outer loop
      vertex 16.5 -0.480078 5
      vertex 18.5729 -0.480078 2.14683
      vertex 18 -0.480078 2.40192
    endloop
  endfacet
  facet normal -2.83277e-16 1 -3.44509e-16
    outer loop
      vertex 16.5 -0.480078 5
      vertex 18 -0.480078 2.40192
      vertex 17.4926 -0.480078 2.77057
    endloop
  endfacet
  facet normal -2.83277e-16 1 -3.44509e-16
    outer loop
      vertex 16.5 -0.480078 5
      vertex 17.4926 -0.480078 2.77057
      vertex 17.0729 -0.480078 3.23664
    endloop
  endfacet
  facet normal -2.83277e-16 1 -3.44509e-16
    outer loop
      vertex 16.5 -0.480078 5
      vertex 17.0729 -0.480078 3.23664
      vertex 16.7594 -0.480078 3.77979
    endloop
  endfacet
  facet normal -2.83277e-16 1 -3.44509e-16
    outer loop
      vertex 16.5 -0.480078 5
      vertex 16.7594 -0.480078 3.77979
      vertex 16.5656 -0.480078 4.37627
    endloop
  endfacet
  facet normal -2.83277e-16 1 -3.44509e-16
    outer loop
      vertex 20.366 -0.480078 3.5
      vertex 21.5074 -0.480078 2.77057
      vertex 21 -0.480078 2.40192
    endloop
  endfacet
  facet normal -2.83277e-16 1 -3.44509e-16
    outer loop
      vertex 16.5 -0.480078 5
      vertex 18.634 -0.480078 3.5
      vertex 20.4271 -0.480078 2.14683
    endloop
  endfacet
  facet normal -2.83277e-16 1 -3.44509e-16
    outer loop
      vertex 22.4344 -0.480078 5.62373
      vertex 22.5 -0.480078 5
      vertex 21.2321 -0.480078 5
    endloop
  endfacet
  facet normal -2.83277e-16 1 -3.44509e-16
    outer loop
      vertex 20.366 -0.480078 6.5
      vertex 22.2406 -0.480078 6.22021
      vertex 22.4344 -0.480078 5.62373
    endloop
  endfacet
  facet normal -2.83277e-16 1 -3.44509e-16
    outer loop
      vertex 21.2321 -0.480078 5
      vertex 22.4344 -0.480078 4.37627
      vertex 22.2406 -0.480078 3.77979
    endloop
  endfacet
  facet normal -2.83277e-16 1 -3.44509e-16
    outer loop
      vertex 16.5 -0.480078 5
      vertex 20.4271 -0.480078 7.85317
      vertex 18.634 -0.480078 6.5
    endloop
  endfacet
  facet normal -2.83277e-16 1 -3.44509e-16
    outer loop
      vertex 21.2321 -0.480078 5
      vertex 21.9271 -0.480078 3.23664
      vertex 20.366 -0.480078 3.5
    endloop
  endfacet
  facet normal -2.83277e-16 1 -3.44509e-16
    outer loop
      vertex 17.7679 -0.480078 5
      vertex 16.5 -0.480078 5
      vertex 18.634 -0.480078 6.5
    endloop
  endfacet
  facet normal -2.83277e-16 1 -3.44509e-16
    outer loop
      vertex 18.634 -0.480078 6.5
      vertex 21 -0.480078 7.59808
      vertex 21.5074 -0.480078 7.22943
    endloop
  endfacet
  facet normal -2.83277e-16 1 -3.44509e-16
    outer loop
      vertex 18.634 -0.480078 6.5
      vertex 21.5074 -0.480078 7.22943
      vertex 20.366 -0.480078 6.5
    endloop
  endfacet
  facet normal -2.83277e-16 1 -3.44509e-16
    outer loop
      vertex 20.366 -0.480078 6.5
      vertex 21.9271 -0.480078 6.76336
      vertex 22.2406 -0.480078 6.22021
    endloop
  endfacet
  facet normal 0 0 1
    outer loop
      vertex 6 8 4
      vertex 8 8 4
      vertex 8 12 4
    endloop
  endfacet
  facet normal 0 0 1
    outer loop
      vertex 6 12 4
      vertex 6 8 4
      vertex 8 12 4
    endloop
  endfacet
  facet normal 0 0 1
    outer loop
      vertex 16 8 4
      vertex 18 8 4
      vertex 18 12 4
    endloop
  endfacet
  facet normal 0 0 1
    outer loop
      vertex 16 12 4
      vertex 16 8 4
      vertex 18 12 4
    endloop
  endfacet
endsolid OpenSCAD_Model
