<?xml version="1.0" encoding="utf-8"?>
<!-- Generator: Adobe Illustrator 14.0.0, SVG Export Plug-In . SVG Version: 6.00 Build 43363)  -->
<!DOCTYPE svg PUBLIC "-//W3C//DTD SVG 1.1//EN" "http://www.w3.org/Graphics/SVG/1.1/DTD/svg11.dtd">
<svg version="1.1" id="Layer_1" xmlns="http://www.w3.org/2000/svg" xmlns:xlink="http://www.w3.org/1999/xlink" x="0px" y="0px"
	 width="612px" height="792px" viewBox="0 0 612 792" enable-background="new 0 0 612 792" xml:space="preserve">
<g>
	<polygon points="247.602,328.509 262.568,328.509 265.005,325.028 
		283.451,325.028 294.937,321.2 291.456,333.034 295.981,330.597 297.373,361.921 361.065,361.921 361.065,353.916 308.162,353.916 
		305.03,339.646 308.162,325.376 371.855,325.376 371.855,341.039 363.85,333.034 314.428,333.034 312.688,339.646 314.428,346.607 
		364.895,346.607 371.855,353.567 371.855,379.324 379.164,407.168 373.943,421.785 351.32,421.785 354.104,414.477 
		361.762,412.389 365.242,405.775 355.497,396.378 341.923,413.084 340.531,421.785 316.516,421.785 318.256,414.477 
		324.869,412.389 342.967,382.456 318.952,392.897 296.329,392.897 290.064,405.428 296.677,415.172 294.937,421.785 
		269.877,421.785 271.27,414.477 278.927,412.389 272.314,396.03 257,415.172 258.74,421.785 236.813,421.785 238.553,414.477 
		244.122,411.344 253.867,396.727 249.69,383.152 241.686,386.98 253.519,355.656 248.298,348.347 251.431,344.519 259.088,349.74 
		265.353,342.779 245.514,342.779 244.122,346.259 240.642,345.563 241.337,339.994 264.309,339.994 261.524,336.514 
		250.735,338.254 247.602,328.509"/>
</g>
</svg>
