solid OpenSCAD_Model
  facet normal 0 0 -1
    outer loop
      vertex -30 0 0
      vertex -29.9075 2.35377 0
      vertex -29.9075 -2.35377 0
    endloop
  endfacet
  facet normal 0 0 -1
    outer loop
      vertex -29.9075 -2.35377 0
      vertex -29.9075 2.35377 0
      vertex -29.6306 4.69303 0
    endloop
  endfacet
  facet normal 0 0 -1
    outer loop
      vertex -29.9075 -2.35377 0
      vertex -29.6306 4.69303 0
      vertex -29.1711 7.00336 0
    endloop
  endfacet
  facet normal 0 0 -1
    outer loop
      vertex -29.9075 -2.35377 0
      vertex -29.1711 7.00336 0
      vertex -28.5317 9.27051 0
    endloop
  endfacet
  facet normal 0 0 -1
    outer loop
      vertex -29.9075 -2.35377 0
      vertex -28.5317 9.27051 0
      vertex -27.7164 11.4805 0
    endloop
  endfacet
  facet normal 0 0 -1
    outer loop
      vertex -29.9075 -2.35377 0
      vertex -27.7164 11.4805 0
      vertex -26.7302 13.6197 0
    endloop
  endfacet
  facet normal 0 0 -1
    outer loop
      vertex -29.9075 -2.35377 0
      vertex -26.7302 13.6197 0
      vertex -25.5792 15.675 0
    endloop
  endfacet
  facet normal 0 0 -1
    outer loop
      vertex -29.9075 -2.35377 0
      vertex -25.5792 15.675 0
      vertex -24.2705 17.6336 0
    endloop
  endfacet
  facet normal 0 0 -1
    outer loop
      vertex -29.9075 -2.35377 0
      vertex -24.2705 17.6336 0
      vertex -22.8122 19.4834 0
    endloop
  endfacet
  facet normal 0 0 -1
    outer loop
      vertex -29.9075 -2.35377 0
      vertex -22.8122 19.4834 0
      vertex -21.2132 21.2132 0
    endloop
  endfacet
  facet normal 0 0 -1
    outer loop
      vertex -29.9075 -2.35377 0
      vertex -21.2132 21.2132 0
      vertex -19.4834 22.8122 0
    endloop
  endfacet
  facet normal 0 0 -1
    outer loop
      vertex -29.9075 -2.35377 0
      vertex -19.4834 22.8122 0
      vertex -17.6336 24.2705 0
    endloop
  endfacet
  facet normal 0 0 -1
    outer loop
      vertex -29.9075 -2.35377 0
      vertex -17.6336 24.2705 0
      vertex -15.675 25.5792 0
    endloop
  endfacet
  facet normal 0 0 -1
    outer loop
      vertex -29.9075 -2.35377 0
      vertex -15.675 25.5792 0
      vertex -13.6197 26.7302 0
    endloop
  endfacet
  facet normal 0 0 -1
    outer loop
      vertex -29.9075 -2.35377 0
      vertex -13.6197 26.7302 0
      vertex -11.4805 27.7164 0
    endloop
  endfacet
  facet normal 0 0 -1
    outer loop
      vertex -29.9075 -2.35377 0
      vertex -11.4805 27.7164 0
      vertex -9.27051 28.5317 0
    endloop
  endfacet
  facet normal 0 0 -1
    outer loop
      vertex -29.9075 -2.35377 0
      vertex -9.27051 28.5317 0
      vertex -7.00336 29.1711 0
    endloop
  endfacet
  facet normal 0 0 -1
    outer loop
      vertex -29.9075 -2.35377 0
      vertex -7.00336 29.1711 0
      vertex -4.69303 29.6306 0
    endloop
  endfacet
  facet normal 0 0 -1
    outer loop
      vertex -29.9075 -2.35377 0
      vertex -4.69303 29.6306 0
      vertex -2.35377 29.9075 0
    endloop
  endfacet
  facet normal 0 0 -1
    outer loop
      vertex -29.9075 -2.35377 0
      vertex -2.35377 29.9075 0
      vertex 0 30 0
    endloop
  endfacet
  facet normal 0 0 -1
    outer loop
      vertex -29.9075 -2.35377 0
      vertex 0 30 0
      vertex 2.35377 29.9075 0
    endloop
  endfacet
  facet normal 0 0 -1
    outer loop
      vertex -29.9075 -2.35377 0
      vertex 2.35377 29.9075 0
      vertex 4.69303 29.6306 0
    endloop
  endfacet
  facet normal 0 0 -1
    outer loop
      vertex -29.9075 -2.35377 0
      vertex 4.69303 29.6306 0
      vertex 7.00336 29.1711 0
    endloop
  endfacet
  facet normal 0 0 -1
    outer loop
      vertex -29.9075 -2.35377 0
      vertex 7.00336 29.1711 0
      vertex 9.27051 28.5317 0
    endloop
  endfacet
  facet normal 0 0 -1
    outer loop
      vertex -29.9075 -2.35377 0
      vertex 9.27051 28.5317 0
      vertex 11.4805 27.7164 0
    endloop
  endfacet
  facet normal 0 0 -1
    outer loop
      vertex -7.5 12.9904 0
      vertex 11.4805 27.7164 0
      vertex 13.6197 26.7302 0
    endloop
  endfacet
  facet normal 0 0 -1
    outer loop
      vertex -4.63525 14.2658 0
      vertex 13.6197 26.7302 0
      vertex 15.675 25.5792 0
    endloop
  endfacet
  facet normal 0 0 -1
    outer loop
      vertex -1.56793 14.9178 0
      vertex 15.675 25.5792 0
      vertex 17.6336 24.2705 0
    endloop
  endfacet
  facet normal 0 0 -1
    outer loop
      vertex 1.56793 14.9178 0
      vertex 17.6336 24.2705 0
      vertex 19.4834 22.8122 0
    endloop
  endfacet
  facet normal 0 0 -1
    outer loop
      vertex 4.63525 14.2658 0
      vertex 19.4834 22.8122 0
      vertex 21.2132 21.2132 0
    endloop
  endfacet
  facet normal 0 0 -1
    outer loop
      vertex 7.5 12.9904 0
      vertex 22.8122 19.4834 0
      vertex 24.2705 17.6336 0
    endloop
  endfacet
  facet normal 0 0 -1
    outer loop
      vertex 10.037 11.1472 0
      vertex 24.2705 17.6336 0
      vertex 25.5792 15.675 0
    endloop
  endfacet
  facet normal 0 0 -1
    outer loop
      vertex 12.1353 8.81678 0
      vertex 26.7302 13.6197 0
      vertex 27.7164 11.4805 0
    endloop
  endfacet
  facet normal 0 0 -1
    outer loop
      vertex 13.7032 6.10105 0
      vertex 29.6306 4.69303 0
      vertex 14.6722 3.11867 0
    endloop
  endfacet
  facet normal 0 0 -1
    outer loop
      vertex 13.7032 6.10105 0
      vertex 28.5317 9.27051 0
      vertex 29.1711 7.00336 0
    endloop
  endfacet
  facet normal 0 0 -1
    outer loop
      vertex 15 0 0
      vertex 29.9075 2.35377 0
      vertex 30 0 0
    endloop
  endfacet
  facet normal 0 0 -1
    outer loop
      vertex 14.6722 -3.11867 0
      vertex 29.1711 -7.00336 0
      vertex 13.7032 -6.10105 0
    endloop
  endfacet
  facet normal 0 0 -1
    outer loop
      vertex 14.6722 -3.11867 0
      vertex 29.9075 -2.35377 0
      vertex 29.6306 -4.69303 0
    endloop
  endfacet
  facet normal 0 0 -1
    outer loop
      vertex 13.7032 -6.10105 0
      vertex 29.1711 -7.00336 0
      vertex 28.5317 -9.27051 0
    endloop
  endfacet
  facet normal 0 0 -1
    outer loop
      vertex 12.1353 -8.81678 0
      vertex 28.5317 -9.27051 0
      vertex 27.7164 -11.4805 0
    endloop
  endfacet
  facet normal 0 0 -1
    outer loop
      vertex 10.037 -11.1472 0
      vertex 26.7302 -13.6197 0
      vertex 25.5792 -15.675 0
    endloop
  endfacet
  facet normal 0 0 -1
    outer loop
      vertex 7.5 -12.9904 0
      vertex 24.2705 -17.6336 0
      vertex 22.8122 -19.4834 0
    endloop
  endfacet
  facet normal 0 0 -1
    outer loop
      vertex 4.63525 -14.2658 0
      vertex 22.8122 -19.4834 0
      vertex 21.2132 -21.2132 0
    endloop
  endfacet
  facet normal 0 0 -1
    outer loop
      vertex 1.56793 -14.9178 0
      vertex 21.2132 -21.2132 0
      vertex 19.4834 -22.8122 0
    endloop
  endfacet
  facet normal 0 0 -1
    outer loop
      vertex -1.56793 -14.9178 0
      vertex 19.4834 -22.8122 0
      vertex 17.6336 -24.2705 0
    endloop
  endfacet
  facet normal 0 0 -1
    outer loop
      vertex -7.5 -12.9904 0
      vertex 17.6336 -24.2705 0
      vertex 15.675 -25.5792 0
    endloop
  endfacet
  facet normal 0 0 -1
    outer loop
      vertex -29.9075 -2.35377 0
      vertex 15.675 -25.5792 0
      vertex 13.6197 -26.7302 0
    endloop
  endfacet
  facet normal 0 0 -1
    outer loop
      vertex -29.9075 -2.35377 0
      vertex 13.6197 -26.7302 0
      vertex 11.4805 -27.7164 0
    endloop
  endfacet
  facet normal 0 0 -1
    outer loop
      vertex -29.9075 -2.35377 0
      vertex 11.4805 -27.7164 0
      vertex 9.27051 -28.5317 0
    endloop
  endfacet
  facet normal 0 0 -1
    outer loop
      vertex -29.9075 -2.35377 0
      vertex 9.27051 -28.5317 0
      vertex 7.00336 -29.1711 0
    endloop
  endfacet
  facet normal 0 0 -1
    outer loop
      vertex -29.9075 -2.35377 0
      vertex 7.00336 -29.1711 0
      vertex 4.69303 -29.6306 0
    endloop
  endfacet
  facet normal 0 0 -1
    outer loop
      vertex -29.9075 -2.35377 0
      vertex 4.69303 -29.6306 0
      vertex 2.35377 -29.9075 0
    endloop
  endfacet
  facet normal 0 0 -1
    outer loop
      vertex -29.9075 -2.35377 0
      vertex 2.35377 -29.9075 0
      vertex 0 -30 0
    endloop
  endfacet
  facet normal 0 0 -1
    outer loop
      vertex -29.9075 -2.35377 0
      vertex 0 -30 0
      vertex -2.35377 -29.9075 0
    endloop
  endfacet
  facet normal 0 0 -1
    outer loop
      vertex -29.9075 -2.35377 0
      vertex -2.35377 -29.9075 0
      vertex -4.69303 -29.6306 0
    endloop
  endfacet
  facet normal 0 0 -1
    outer loop
      vertex -29.9075 -2.35377 0
      vertex -4.69303 -29.6306 0
      vertex -7.00336 -29.1711 0
    endloop
  endfacet
  facet normal 0 0 -1
    outer loop
      vertex -29.9075 -2.35377 0
      vertex -7.00336 -29.1711 0
      vertex -9.27051 -28.5317 0
    endloop
  endfacet
  facet normal 0 0 -1
    outer loop
      vertex -29.9075 -2.35377 0
      vertex -9.27051 -28.5317 0
      vertex -11.4805 -27.7164 0
    endloop
  endfacet
  facet normal 0 0 -1
    outer loop
      vertex -29.9075 -2.35377 0
      vertex -11.4805 -27.7164 0
      vertex -13.6197 -26.7302 0
    endloop
  endfacet
  facet normal 0 0 -1
    outer loop
      vertex -29.9075 -2.35377 0
      vertex -13.6197 -26.7302 0
      vertex -15.675 -25.5792 0
    endloop
  endfacet
  facet normal 0 0 -1
    outer loop
      vertex -29.9075 -2.35377 0
      vertex -15.675 -25.5792 0
      vertex -17.6336 -24.2705 0
    endloop
  endfacet
  facet normal 0 0 -1
    outer loop
      vertex -29.9075 -2.35377 0
      vertex -17.6336 -24.2705 0
      vertex -19.4834 -22.8122 0
    endloop
  endfacet
  facet normal 0 0 -1
    outer loop
      vertex -29.9075 -2.35377 0
      vertex -19.4834 -22.8122 0
      vertex -21.2132 -21.2132 0
    endloop
  endfacet
  facet normal 0 0 -1
    outer loop
      vertex -29.9075 -2.35377 0
      vertex -21.2132 -21.2132 0
      vertex -22.8122 -19.4834 0
    endloop
  endfacet
  facet normal 0 0 -1
    outer loop
      vertex -29.9075 -2.35377 0
      vertex -22.8122 -19.4834 0
      vertex -24.2705 -17.6336 0
    endloop
  endfacet
  facet normal 0 0 -1
    outer loop
      vertex -29.9075 -2.35377 0
      vertex -24.2705 -17.6336 0
      vertex -25.5792 -15.675 0
    endloop
  endfacet
  facet normal 0 0 -1
    outer loop
      vertex -29.9075 -2.35377 0
      vertex -25.5792 -15.675 0
      vertex -26.7302 -13.6197 0
    endloop
  endfacet
  facet normal 0 0 -1
    outer loop
      vertex -29.9075 -2.35377 0
      vertex -26.7302 -13.6197 0
      vertex -27.7164 -11.4805 0
    endloop
  endfacet
  facet normal 0 0 -1
    outer loop
      vertex -29.9075 -2.35377 0
      vertex -27.7164 -11.4805 0
      vertex -28.5317 -9.27051 0
    endloop
  endfacet
  facet normal 0 0 -1
    outer loop
      vertex -29.9075 -2.35377 0
      vertex -28.5317 -9.27051 0
      vertex -29.1711 -7.00336 0
    endloop
  endfacet
  facet normal 0 0 -1
    outer loop
      vertex -29.9075 -2.35377 0
      vertex -29.1711 -7.00336 0
      vertex -29.6306 -4.69303 0
    endloop
  endfacet
  facet normal 0 0 -1
    outer loop
      vertex -14.6722 -3.11867 0
      vertex -29.9075 -2.35377 0
      vertex -15 0 0
    endloop
  endfacet
  facet normal 0 0 -1
    outer loop
      vertex -13.7032 -6.10105 0
      vertex -29.9075 -2.35377 0
      vertex -14.6722 -3.11867 0
    endloop
  endfacet
  facet normal 0 0 -1
    outer loop
      vertex -12.1353 -8.81678 0
      vertex -29.9075 -2.35377 0
      vertex -13.7032 -6.10105 0
    endloop
  endfacet
  facet normal 0 0 -1
    outer loop
      vertex -10.037 -11.1472 0
      vertex -29.9075 -2.35377 0
      vertex -12.1353 -8.81678 0
    endloop
  endfacet
  facet normal 0 0 -1
    outer loop
      vertex -7.5 -12.9904 0
      vertex -29.9075 -2.35377 0
      vertex -10.037 -11.1472 0
    endloop
  endfacet
  facet normal 0 0 -1
    outer loop
      vertex -4.63525 -14.2658 0
      vertex 17.6336 -24.2705 0
      vertex -7.5 -12.9904 0
    endloop
  endfacet
  facet normal 0 0 -1
    outer loop
      vertex -29.9075 -2.35377 0
      vertex -7.5 -12.9904 0
      vertex 15.675 -25.5792 0
    endloop
  endfacet
  facet normal 0 0 -1
    outer loop
      vertex -1.56793 -14.9178 0
      vertex 17.6336 -24.2705 0
      vertex -4.63525 -14.2658 0
    endloop
  endfacet
  facet normal 0 0 -1
    outer loop
      vertex 1.56793 -14.9178 0
      vertex 19.4834 -22.8122 0
      vertex -1.56793 -14.9178 0
    endloop
  endfacet
  facet normal 0 0 -1
    outer loop
      vertex 7.5 -12.9904 0
      vertex 22.8122 -19.4834 0
      vertex 4.63525 -14.2658 0
    endloop
  endfacet
  facet normal 0 0 -1
    outer loop
      vertex 4.63525 -14.2658 0
      vertex 21.2132 -21.2132 0
      vertex 1.56793 -14.9178 0
    endloop
  endfacet
  facet normal 0 0 -1
    outer loop
      vertex 12.1353 -8.81678 0
      vertex 26.7302 -13.6197 0
      vertex 10.037 -11.1472 0
    endloop
  endfacet
  facet normal 0 0 -1
    outer loop
      vertex 10.037 -11.1472 0
      vertex 25.5792 -15.675 0
      vertex 24.2705 -17.6336 0
    endloop
  endfacet
  facet normal 0 0 -1
    outer loop
      vertex 10.037 -11.1472 0
      vertex 24.2705 -17.6336 0
      vertex 7.5 -12.9904 0
    endloop
  endfacet
  facet normal 0 0 -1
    outer loop
      vertex 14.6722 -3.11867 0
      vertex 29.6306 -4.69303 0
      vertex 29.1711 -7.00336 0
    endloop
  endfacet
  facet normal 0 0 -1
    outer loop
      vertex 13.7032 -6.10105 0
      vertex 28.5317 -9.27051 0
      vertex 12.1353 -8.81678 0
    endloop
  endfacet
  facet normal 0 0 -1
    outer loop
      vertex 12.1353 -8.81678 0
      vertex 27.7164 -11.4805 0
      vertex 26.7302 -13.6197 0
    endloop
  endfacet
  facet normal 0 0 -1
    outer loop
      vertex 13.7032 6.10105 0
      vertex 29.1711 7.00336 0
      vertex 29.6306 4.69303 0
    endloop
  endfacet
  facet normal 0 0 -1
    outer loop
      vertex 14.6722 3.11867 0
      vertex 29.6306 4.69303 0
      vertex 29.9075 2.35377 0
    endloop
  endfacet
  facet normal 0 0 -1
    outer loop
      vertex 14.6722 3.11867 0
      vertex 29.9075 2.35377 0
      vertex 15 0 0
    endloop
  endfacet
  facet normal 0 0 -1
    outer loop
      vertex 15 0 0
      vertex 30 0 0
      vertex 29.9075 -2.35377 0
    endloop
  endfacet
  facet normal 0 0 -1
    outer loop
      vertex 15 0 0
      vertex 29.9075 -2.35377 0
      vertex 14.6722 -3.11867 0
    endloop
  endfacet
  facet normal 0 0 -1
    outer loop
      vertex 4.63525 14.2658 0
      vertex 21.2132 21.2132 0
      vertex 22.8122 19.4834 0
    endloop
  endfacet
  facet normal 0 0 -1
    outer loop
      vertex 1.56793 14.9178 0
      vertex 19.4834 22.8122 0
      vertex 4.63525 14.2658 0
    endloop
  endfacet
  facet normal 0 0 -1
    outer loop
      vertex -1.56793 14.9178 0
      vertex 17.6336 24.2705 0
      vertex 1.56793 14.9178 0
    endloop
  endfacet
  facet normal 0 0 -1
    outer loop
      vertex -4.63525 14.2658 0
      vertex 15.675 25.5792 0
      vertex -1.56793 14.9178 0
    endloop
  endfacet
  facet normal 0 0 -1
    outer loop
      vertex -7.5 12.9904 0
      vertex 13.6197 26.7302 0
      vertex -4.63525 14.2658 0
    endloop
  endfacet
  facet normal 0 0 -1
    outer loop
      vertex -29.9075 -2.35377 0
      vertex 11.4805 27.7164 0
      vertex -7.5 12.9904 0
    endloop
  endfacet
  facet normal 0 0 -1
    outer loop
      vertex -12.1353 8.81678 0
      vertex -29.9075 -2.35377 0
      vertex -10.037 11.1472 0
    endloop
  endfacet
  facet normal 0 0 -1
    outer loop
      vertex -29.9075 -2.35377 0
      vertex -7.5 12.9904 0
      vertex -10.037 11.1472 0
    endloop
  endfacet
  facet normal 0 0 -1
    outer loop
      vertex -13.7032 6.10105 0
      vertex -29.9075 -2.35377 0
      vertex -12.1353 8.81678 0
    endloop
  endfacet
  facet normal 0 0 -1
    outer loop
      vertex -14.6722 3.11867 0
      vertex -29.9075 -2.35377 0
      vertex -13.7032 6.10105 0
    endloop
  endfacet
  facet normal 0 0 -1
    outer loop
      vertex 4.63525 14.2658 0
      vertex 22.8122 19.4834 0
      vertex 7.5 12.9904 0
    endloop
  endfacet
  facet normal 0 0 -1
    outer loop
      vertex -15 0 0
      vertex -29.9075 -2.35377 0
      vertex -14.6722 3.11867 0
    endloop
  endfacet
  facet normal 0 0 -1
    outer loop
      vertex 7.5 12.9904 0
      vertex 24.2705 17.6336 0
      vertex 10.037 11.1472 0
    endloop
  endfacet
  facet normal 0 0 -1
    outer loop
      vertex 10.037 11.1472 0
      vertex 25.5792 15.675 0
      vertex 26.7302 13.6197 0
    endloop
  endfacet
  facet normal 0 0 -1
    outer loop
      vertex 10.037 11.1472 0
      vertex 26.7302 13.6197 0
      vertex 12.1353 8.81678 0
    endloop
  endfacet
  facet normal 0 0 -1
    outer loop
      vertex 12.1353 8.81678 0
      vertex 27.7164 11.4805 0
      vertex 28.5317 9.27051 0
    endloop
  endfacet
  facet normal 0 0 -1
    outer loop
      vertex 12.1353 8.81678 0
      vertex 28.5317 9.27051 0
      vertex 13.7032 6.10105 0
    endloop
  endfacet
  facet normal -0.991525 0.0389571 0.123941
    outer loop
      vertex -29.9075 2.35377 0
      vertex -30 0 0
      vertex -24.9229 1.96148 40
    endloop
  endfacet
  facet normal -0.991525 0.0389573 0.123941
    outer loop
      vertex -24.9229 1.96148 40
      vertex -30 0 0
      vertex -25 0 40
    endloop
  endfacet
  facet normal -0.991525 -0.0389571 0.123941
    outer loop
      vertex -25 0 40
      vertex -30 0 0
      vertex -29.9075 -2.35377 0
    endloop
  endfacet
  facet normal -0.991525 -0.0389573 0.123941
    outer loop
      vertex -25 0 40
      vertex -29.9075 -2.35377 0
      vertex -24.9229 -1.96148 40
    endloop
  endfacet
  facet normal -0.985412 -0.116631 0.123941
    outer loop
      vertex -24.9229 -1.96148 40
      vertex -29.9075 -2.35377 0
      vertex -29.6306 -4.69303 0
    endloop
  endfacet
  facet normal -0.985412 -0.116631 0.123941
    outer loop
      vertex -24.9229 -1.96148 40
      vertex -29.6306 -4.69303 0
      vertex -24.6922 -3.91086 40
    endloop
  endfacet
  facet normal -0.973223 -0.193586 0.123941
    outer loop
      vertex -24.6922 -3.91086 40
      vertex -29.6306 -4.69303 0
      vertex -29.1711 -7.00336 0
    endloop
  endfacet
  facet normal -0.973223 -0.193586 0.123941
    outer loop
      vertex -24.6922 -3.91086 40
      vertex -29.1711 -7.00336 0
      vertex -24.3092 -5.83613 40
    endloop
  endfacet
  facet normal -0.955034 -0.269348 0.123941
    outer loop
      vertex -24.3092 -5.83613 40
      vertex -29.1711 -7.00336 0
      vertex -28.5317 -9.27051 0
    endloop
  endfacet
  facet normal -0.955034 -0.269347 0.123941
    outer loop
      vertex -24.3092 -5.83613 40
      vertex -28.5317 -9.27051 0
      vertex -23.7764 -7.72542 40
    endloop
  endfacet
  facet normal -0.930958 -0.343448 0.123941
    outer loop
      vertex -23.7764 -7.72542 40
      vertex -28.5317 -9.27051 0
      vertex -27.7164 -11.4805 0
    endloop
  endfacet
  facet normal -0.930957 -0.343449 0.123941
    outer loop
      vertex -23.7764 -7.72542 40
      vertex -27.7164 -11.4805 0
      vertex -23.097 -9.56709 40
    endloop
  endfacet
  facet normal -0.901141 -0.415432 0.123941
    outer loop
      vertex -23.097 -9.56709 40
      vertex -27.7164 -11.4805 0
      vertex -26.7302 -13.6197 0
    endloop
  endfacet
  facet normal -0.901141 -0.415432 0.123941
    outer loop
      vertex -23.097 -9.56709 40
      vertex -26.7302 -13.6197 0
      vertex -22.2752 -11.3498 40
    endloop
  endfacet
  facet normal -0.865769 -0.484854 0.123941
    outer loop
      vertex -22.2752 -11.3498 40
      vertex -26.7302 -13.6197 0
      vertex -25.5792 -15.675 0
    endloop
  endfacet
  facet normal -0.865769 -0.484854 0.123941
    outer loop
      vertex -22.2752 -11.3498 40
      vertex -25.5792 -15.675 0
      vertex -21.316 -13.0625 40
    endloop
  endfacet
  facet normal -0.825059 -0.551286 0.123941
    outer loop
      vertex -21.316 -13.0625 40
      vertex -25.5792 -15.675 0
      vertex -24.2705 -17.6336 0
    endloop
  endfacet
  facet normal -0.825059 -0.551287 0.123941
    outer loop
      vertex -21.316 -13.0625 40
      vertex -24.2705 -17.6336 0
      vertex -20.2254 -14.6946 40
    endloop
  endfacet
  facet normal -0.779262 -0.614321 0.123941
    outer loop
      vertex -20.2254 -14.6946 40
      vertex -24.2705 -17.6336 0
      vertex -22.8122 -19.4834 0
    endloop
  endfacet
  facet normal -0.779262 -0.614321 0.123941
    outer loop
      vertex -20.2254 -14.6946 40
      vertex -22.8122 -19.4834 0
      vertex -19.0101 -16.2362 40
    endloop
  endfacet
  facet normal -0.728661 -0.673567 0.123941
    outer loop
      vertex -19.0101 -16.2362 40
      vertex -22.8122 -19.4834 0
      vertex -21.2132 -21.2132 0
    endloop
  endfacet
  facet normal -0.728661 -0.673567 0.123941
    outer loop
      vertex -19.0101 -16.2362 40
      vertex -21.2132 -21.2132 0
      vertex -17.6777 -17.6777 40
    endloop
  endfacet
  facet normal -0.673567 -0.728661 0.123941
    outer loop
      vertex -17.6777 -17.6777 40
      vertex -21.2132 -21.2132 0
      vertex -19.4834 -22.8122 0
    endloop
  endfacet
  facet normal -0.673567 -0.728661 0.123941
    outer loop
      vertex -17.6777 -17.6777 40
      vertex -19.4834 -22.8122 0
      vertex -16.2362 -19.0101 40
    endloop
  endfacet
  facet normal -0.614321 -0.779262 0.123941
    outer loop
      vertex -16.2362 -19.0101 40
      vertex -19.4834 -22.8122 0
      vertex -17.6336 -24.2705 0
    endloop
  endfacet
  facet normal -0.614321 -0.779262 0.123941
    outer loop
      vertex -16.2362 -19.0101 40
      vertex -17.6336 -24.2705 0
      vertex -14.6946 -20.2254 40
    endloop
  endfacet
  facet normal -0.551286 -0.825059 0.123941
    outer loop
      vertex -14.6946 -20.2254 40
      vertex -17.6336 -24.2705 0
      vertex -15.675 -25.5792 0
    endloop
  endfacet
  facet normal -0.551287 -0.825059 0.123941
    outer loop
      vertex -14.6946 -20.2254 40
      vertex -15.675 -25.5792 0
      vertex -13.0625 -21.316 40
    endloop
  endfacet
  facet normal -0.484854 -0.865769 0.123941
    outer loop
      vertex -13.0625 -21.316 40
      vertex -15.675 -25.5792 0
      vertex -13.6197 -26.7302 0
    endloop
  endfacet
  facet normal -0.484854 -0.865769 0.123941
    outer loop
      vertex -13.0625 -21.316 40
      vertex -13.6197 -26.7302 0
      vertex -11.3498 -22.2752 40
    endloop
  endfacet
  facet normal -0.415432 -0.901141 0.123941
    outer loop
      vertex -11.3498 -22.2752 40
      vertex -13.6197 -26.7302 0
      vertex -11.4805 -27.7164 0
    endloop
  endfacet
  facet normal -0.415432 -0.901141 0.123941
    outer loop
      vertex -11.3498 -22.2752 40
      vertex -11.4805 -27.7164 0
      vertex -9.56709 -23.097 40
    endloop
  endfacet
  facet normal -0.343448 -0.930958 0.123941
    outer loop
      vertex -9.56709 -23.097 40
      vertex -11.4805 -27.7164 0
      vertex -9.27051 -28.5317 0
    endloop
  endfacet
  facet normal -0.343449 -0.930957 0.123941
    outer loop
      vertex -7.72542 -23.7764 40
      vertex -9.56709 -23.097 40
      vertex -9.27051 -28.5317 0
    endloop
  endfacet
  facet normal -0.269348 -0.955034 0.123941
    outer loop
      vertex -7.72542 -23.7764 40
      vertex -9.27051 -28.5317 0
      vertex -7.00336 -29.1711 0
    endloop
  endfacet
  facet normal -0.269347 -0.955034 0.123941
    outer loop
      vertex -5.83613 -24.3092 40
      vertex -7.72542 -23.7764 40
      vertex -7.00336 -29.1711 0
    endloop
  endfacet
  facet normal -0.193586 -0.973223 0.123941
    outer loop
      vertex -5.83613 -24.3092 40
      vertex -7.00336 -29.1711 0
      vertex -4.69303 -29.6306 0
    endloop
  endfacet
  facet normal -0.193586 -0.973223 0.123941
    outer loop
      vertex -3.91086 -24.6922 40
      vertex -5.83613 -24.3092 40
      vertex -4.69303 -29.6306 0
    endloop
  endfacet
  facet normal -0.116631 -0.985412 0.123941
    outer loop
      vertex -3.91086 -24.6922 40
      vertex -4.69303 -29.6306 0
      vertex -2.35377 -29.9075 0
    endloop
  endfacet
  facet normal -0.116631 -0.985412 0.123941
    outer loop
      vertex -1.96148 -24.9229 40
      vertex -3.91086 -24.6922 40
      vertex -2.35377 -29.9075 0
    endloop
  endfacet
  facet normal -0.0389571 -0.991525 0.123941
    outer loop
      vertex -1.96148 -24.9229 40
      vertex -2.35377 -29.9075 0
      vertex 0 -30 0
    endloop
  endfacet
  facet normal -0.0389573 -0.991525 0.123941
    outer loop
      vertex 0 -25 40
      vertex -1.96148 -24.9229 40
      vertex 0 -30 0
    endloop
  endfacet
  facet normal 0.0389571 -0.991525 0.123941
    outer loop
      vertex 0 -25 40
      vertex 0 -30 0
      vertex 2.35377 -29.9075 0
    endloop
  endfacet
  facet normal 0.0389573 -0.991525 0.123941
    outer loop
      vertex 1.96148 -24.9229 40
      vertex 0 -25 40
      vertex 2.35377 -29.9075 0
    endloop
  endfacet
  facet normal 0.116631 -0.985412 0.123941
    outer loop
      vertex 4.69303 -29.6306 0
      vertex 1.96148 -24.9229 40
      vertex 2.35377 -29.9075 0
    endloop
  endfacet
  facet normal 0.116631 -0.985412 0.123941
    outer loop
      vertex 3.91086 -24.6922 40
      vertex 1.96148 -24.9229 40
      vertex 4.69303 -29.6306 0
    endloop
  endfacet
  facet normal 0.193586 -0.973223 0.123941
    outer loop
      vertex 7.00336 -29.1711 0
      vertex 3.91086 -24.6922 40
      vertex 4.69303 -29.6306 0
    endloop
  endfacet
  facet normal 0.193586 -0.973223 0.123941
    outer loop
      vertex 5.83613 -24.3092 40
      vertex 3.91086 -24.6922 40
      vertex 7.00336 -29.1711 0
    endloop
  endfacet
  facet normal 0.269348 -0.955034 0.123941
    outer loop
      vertex 9.27051 -28.5317 0
      vertex 5.83613 -24.3092 40
      vertex 7.00336 -29.1711 0
    endloop
  endfacet
  facet normal 0.269347 -0.955034 0.123941
    outer loop
      vertex 7.72542 -23.7764 40
      vertex 5.83613 -24.3092 40
      vertex 9.27051 -28.5317 0
    endloop
  endfacet
  facet normal 0.343448 -0.930958 0.123941
    outer loop
      vertex 11.4805 -27.7164 0
      vertex 7.72542 -23.7764 40
      vertex 9.27051 -28.5317 0
    endloop
  endfacet
  facet normal 0.343449 -0.930957 0.123941
    outer loop
      vertex 9.56709 -23.097 40
      vertex 7.72542 -23.7764 40
      vertex 11.4805 -27.7164 0
    endloop
  endfacet
  facet normal 0.415432 -0.901141 0.123941
    outer loop
      vertex 13.6197 -26.7302 0
      vertex 9.56709 -23.097 40
      vertex 11.4805 -27.7164 0
    endloop
  endfacet
  facet normal 0.415432 -0.901141 0.123941
    outer loop
      vertex 11.3498 -22.2752 40
      vertex 9.56709 -23.097 40
      vertex 13.6197 -26.7302 0
    endloop
  endfacet
  facet normal 0.484854 -0.865769 0.123941
    outer loop
      vertex 15.675 -25.5792 0
      vertex 11.3498 -22.2752 40
      vertex 13.6197 -26.7302 0
    endloop
  endfacet
  facet normal 0.484854 -0.865769 0.123941
    outer loop
      vertex 13.0625 -21.316 40
      vertex 11.3498 -22.2752 40
      vertex 15.675 -25.5792 0
    endloop
  endfacet
  facet normal 0.551286 -0.825059 0.123941
    outer loop
      vertex 17.6336 -24.2705 0
      vertex 13.0625 -21.316 40
      vertex 15.675 -25.5792 0
    endloop
  endfacet
  facet normal 0.551287 -0.825059 0.123941
    outer loop
      vertex 14.6946 -20.2254 40
      vertex 13.0625 -21.316 40
      vertex 17.6336 -24.2705 0
    endloop
  endfacet
  facet normal 0.614321 -0.779262 0.123941
    outer loop
      vertex 19.4834 -22.8122 0
      vertex 14.6946 -20.2254 40
      vertex 17.6336 -24.2705 0
    endloop
  endfacet
  facet normal 0.614321 -0.779262 0.123941
    outer loop
      vertex 16.2362 -19.0101 40
      vertex 14.6946 -20.2254 40
      vertex 19.4834 -22.8122 0
    endloop
  endfacet
  facet normal 0.673567 -0.728661 0.123941
    outer loop
      vertex 21.2132 -21.2132 0
      vertex 16.2362 -19.0101 40
      vertex 19.4834 -22.8122 0
    endloop
  endfacet
  facet normal 0.673567 -0.728661 0.123941
    outer loop
      vertex 17.6777 -17.6777 40
      vertex 16.2362 -19.0101 40
      vertex 21.2132 -21.2132 0
    endloop
  endfacet
  facet normal 0.728661 -0.673567 0.123941
    outer loop
      vertex 22.8122 -19.4834 0
      vertex 17.6777 -17.6777 40
      vertex 21.2132 -21.2132 0
    endloop
  endfacet
  facet normal 0.728661 -0.673567 0.123941
    outer loop
      vertex 19.0101 -16.2362 40
      vertex 17.6777 -17.6777 40
      vertex 22.8122 -19.4834 0
    endloop
  endfacet
  facet normal 0.779262 -0.614321 0.123941
    outer loop
      vertex 24.2705 -17.6336 0
      vertex 19.0101 -16.2362 40
      vertex 22.8122 -19.4834 0
    endloop
  endfacet
  facet normal 0.779262 -0.614321 0.123941
    outer loop
      vertex 20.2254 -14.6946 40
      vertex 19.0101 -16.2362 40
      vertex 24.2705 -17.6336 0
    endloop
  endfacet
  facet normal 0.825059 -0.551286 0.123941
    outer loop
      vertex 25.5792 -15.675 0
      vertex 20.2254 -14.6946 40
      vertex 24.2705 -17.6336 0
    endloop
  endfacet
  facet normal 0.825059 -0.551287 0.123941
    outer loop
      vertex 21.316 -13.0625 40
      vertex 20.2254 -14.6946 40
      vertex 25.5792 -15.675 0
    endloop
  endfacet
  facet normal 0.865769 -0.484854 0.123941
    outer loop
      vertex 26.7302 -13.6197 0
      vertex 21.316 -13.0625 40
      vertex 25.5792 -15.675 0
    endloop
  endfacet
  facet normal 0.865769 -0.484854 0.123941
    outer loop
      vertex 22.2752 -11.3498 40
      vertex 21.316 -13.0625 40
      vertex 26.7302 -13.6197 0
    endloop
  endfacet
  facet normal 0.901141 -0.415432 0.123941
    outer loop
      vertex 27.7164 -11.4805 0
      vertex 22.2752 -11.3498 40
      vertex 26.7302 -13.6197 0
    endloop
  endfacet
  facet normal 0.901141 -0.415432 0.123941
    outer loop
      vertex 23.097 -9.56709 40
      vertex 22.2752 -11.3498 40
      vertex 27.7164 -11.4805 0
    endloop
  endfacet
  facet normal 0.930958 -0.343448 0.123941
    outer loop
      vertex 28.5317 -9.27051 0
      vertex 23.097 -9.56709 40
      vertex 27.7164 -11.4805 0
    endloop
  endfacet
  facet normal 0.930957 -0.343449 0.123941
    outer loop
      vertex 23.7764 -7.72542 40
      vertex 23.097 -9.56709 40
      vertex 28.5317 -9.27051 0
    endloop
  endfacet
  facet normal 0.955034 -0.269348 0.123941
    outer loop
      vertex 29.1711 -7.00336 0
      vertex 23.7764 -7.72542 40
      vertex 28.5317 -9.27051 0
    endloop
  endfacet
  facet normal 0.955034 -0.269347 0.123941
    outer loop
      vertex 24.3092 -5.83613 40
      vertex 23.7764 -7.72542 40
      vertex 29.1711 -7.00336 0
    endloop
  endfacet
  facet normal 0.973223 -0.193586 0.123941
    outer loop
      vertex 29.6306 -4.69303 0
      vertex 24.3092 -5.83613 40
      vertex 29.1711 -7.00336 0
    endloop
  endfacet
  facet normal 0.973223 -0.193586 0.123941
    outer loop
      vertex 24.6922 -3.91086 40
      vertex 24.3092 -5.83613 40
      vertex 29.6306 -4.69303 0
    endloop
  endfacet
  facet normal 0.985412 -0.116631 0.123941
    outer loop
      vertex 29.9075 -2.35377 0
      vertex 24.6922 -3.91086 40
      vertex 29.6306 -4.69303 0
    endloop
  endfacet
  facet normal 0.985412 -0.116631 0.123941
    outer loop
      vertex 24.9229 -1.96148 40
      vertex 24.6922 -3.91086 40
      vertex 29.9075 -2.35377 0
    endloop
  endfacet
  facet normal 0.991525 -0.0389571 0.123941
    outer loop
      vertex 30 0 0
      vertex 24.9229 -1.96148 40
      vertex 29.9075 -2.35377 0
    endloop
  endfacet
  facet normal 0.991525 -0.0389573 0.123941
    outer loop
      vertex 25 0 40
      vertex 24.9229 -1.96148 40
      vertex 30 0 0
    endloop
  endfacet
  facet normal 0.991525 0.0389571 0.123941
    outer loop
      vertex 29.9075 2.35377 0
      vertex 25 0 40
      vertex 30 0 0
    endloop
  endfacet
  facet normal 0.991525 0.0389573 0.123941
    outer loop
      vertex 29.9075 2.35377 0
      vertex 24.9229 1.96148 40
      vertex 25 0 40
    endloop
  endfacet
  facet normal 0.985412 0.116631 0.123941
    outer loop
      vertex 29.6306 4.69303 0
      vertex 24.9229 1.96148 40
      vertex 29.9075 2.35377 0
    endloop
  endfacet
  facet normal 0.985412 0.116631 0.123941
    outer loop
      vertex 29.6306 4.69303 0
      vertex 24.6922 3.91086 40
      vertex 24.9229 1.96148 40
    endloop
  endfacet
  facet normal 0.973223 0.193586 0.123941
    outer loop
      vertex 29.1711 7.00336 0
      vertex 24.6922 3.91086 40
      vertex 29.6306 4.69303 0
    endloop
  endfacet
  facet normal 0.973223 0.193586 0.123941
    outer loop
      vertex 29.1711 7.00336 0
      vertex 24.3092 5.83613 40
      vertex 24.6922 3.91086 40
    endloop
  endfacet
  facet normal 0.955034 0.269348 0.123941
    outer loop
      vertex 28.5317 9.27051 0
      vertex 24.3092 5.83613 40
      vertex 29.1711 7.00336 0
    endloop
  endfacet
  facet normal 0.955034 0.269347 0.123941
    outer loop
      vertex 28.5317 9.27051 0
      vertex 23.7764 7.72542 40
      vertex 24.3092 5.83613 40
    endloop
  endfacet
  facet normal 0.930958 0.343448 0.123941
    outer loop
      vertex 27.7164 11.4805 0
      vertex 23.7764 7.72542 40
      vertex 28.5317 9.27051 0
    endloop
  endfacet
  facet normal 0.930957 0.343449 0.123941
    outer loop
      vertex 27.7164 11.4805 0
      vertex 23.097 9.56709 40
      vertex 23.7764 7.72542 40
    endloop
  endfacet
  facet normal 0.901141 0.415432 0.123941
    outer loop
      vertex 26.7302 13.6197 0
      vertex 23.097 9.56709 40
      vertex 27.7164 11.4805 0
    endloop
  endfacet
  facet normal 0.901141 0.415432 0.123941
    outer loop
      vertex 26.7302 13.6197 0
      vertex 22.2752 11.3498 40
      vertex 23.097 9.56709 40
    endloop
  endfacet
  facet normal 0.865769 0.484854 0.123941
    outer loop
      vertex 25.5792 15.675 0
      vertex 22.2752 11.3498 40
      vertex 26.7302 13.6197 0
    endloop
  endfacet
  facet normal 0.865769 0.484854 0.123941
    outer loop
      vertex 25.5792 15.675 0
      vertex 21.316 13.0625 40
      vertex 22.2752 11.3498 40
    endloop
  endfacet
  facet normal 0.825059 0.551286 0.123941
    outer loop
      vertex 24.2705 17.6336 0
      vertex 21.316 13.0625 40
      vertex 25.5792 15.675 0
    endloop
  endfacet
  facet normal 0.825059 0.551287 0.123941
    outer loop
      vertex 24.2705 17.6336 0
      vertex 20.2254 14.6946 40
      vertex 21.316 13.0625 40
    endloop
  endfacet
  facet normal 0.779262 0.614321 0.123941
    outer loop
      vertex 22.8122 19.4834 0
      vertex 20.2254 14.6946 40
      vertex 24.2705 17.6336 0
    endloop
  endfacet
  facet normal 0.779262 0.614321 0.123941
    outer loop
      vertex 22.8122 19.4834 0
      vertex 19.0101 16.2362 40
      vertex 20.2254 14.6946 40
    endloop
  endfacet
  facet normal 0.728661 0.673567 0.123941
    outer loop
      vertex 21.2132 21.2132 0
      vertex 19.0101 16.2362 40
      vertex 22.8122 19.4834 0
    endloop
  endfacet
  facet normal 0.728661 0.673567 0.123941
    outer loop
      vertex 21.2132 21.2132 0
      vertex 17.6777 17.6777 40
      vertex 19.0101 16.2362 40
    endloop
  endfacet
  facet normal 0.673567 0.728661 0.123941
    outer loop
      vertex 19.4834 22.8122 0
      vertex 17.6777 17.6777 40
      vertex 21.2132 21.2132 0
    endloop
  endfacet
  facet normal 0.673567 0.728661 0.123941
    outer loop
      vertex 19.4834 22.8122 0
      vertex 16.2362 19.0101 40
      vertex 17.6777 17.6777 40
    endloop
  endfacet
  facet normal 0.614321 0.779262 0.123941
    outer loop
      vertex 17.6336 24.2705 0
      vertex 16.2362 19.0101 40
      vertex 19.4834 22.8122 0
    endloop
  endfacet
  facet normal 0.614321 0.779262 0.123941
    outer loop
      vertex 17.6336 24.2705 0
      vertex 14.6946 20.2254 40
      vertex 16.2362 19.0101 40
    endloop
  endfacet
  facet normal 0.551286 0.825059 0.123941
    outer loop
      vertex 15.675 25.5792 0
      vertex 14.6946 20.2254 40
      vertex 17.6336 24.2705 0
    endloop
  endfacet
  facet normal 0.551287 0.825059 0.123941
    outer loop
      vertex 15.675 25.5792 0
      vertex 13.0625 21.316 40
      vertex 14.6946 20.2254 40
    endloop
  endfacet
  facet normal 0.484854 0.865769 0.123941
    outer loop
      vertex 13.6197 26.7302 0
      vertex 13.0625 21.316 40
      vertex 15.675 25.5792 0
    endloop
  endfacet
  facet normal 0.484854 0.865769 0.123941
    outer loop
      vertex 13.6197 26.7302 0
      vertex 11.3498 22.2752 40
      vertex 13.0625 21.316 40
    endloop
  endfacet
  facet normal 0.415432 0.901141 0.123941
    outer loop
      vertex 11.4805 27.7164 0
      vertex 11.3498 22.2752 40
      vertex 13.6197 26.7302 0
    endloop
  endfacet
  facet normal 0.415432 0.901141 0.123941
    outer loop
      vertex 11.4805 27.7164 0
      vertex 9.56709 23.097 40
      vertex 11.3498 22.2752 40
    endloop
  endfacet
  facet normal 0.343448 0.930958 0.123941
    outer loop
      vertex 11.4805 27.7164 0
      vertex 9.27051 28.5317 0
      vertex 9.56709 23.097 40
    endloop
  endfacet
  facet normal 0.343449 0.930957 0.123941
    outer loop
      vertex 9.27051 28.5317 0
      vertex 7.72542 23.7764 40
      vertex 9.56709 23.097 40
    endloop
  endfacet
  facet normal 0.269348 0.955034 0.123941
    outer loop
      vertex 9.27051 28.5317 0
      vertex 7.00336 29.1711 0
      vertex 7.72542 23.7764 40
    endloop
  endfacet
  facet normal 0.269347 0.955034 0.123941
    outer loop
      vertex 7.00336 29.1711 0
      vertex 5.83613 24.3092 40
      vertex 7.72542 23.7764 40
    endloop
  endfacet
  facet normal 0.193586 0.973223 0.123941
    outer loop
      vertex 7.00336 29.1711 0
      vertex 4.69303 29.6306 0
      vertex 5.83613 24.3092 40
    endloop
  endfacet
  facet normal 0.193586 0.973223 0.123941
    outer loop
      vertex 4.69303 29.6306 0
      vertex 3.91086 24.6922 40
      vertex 5.83613 24.3092 40
    endloop
  endfacet
  facet normal 0.116631 0.985412 0.123941
    outer loop
      vertex 4.69303 29.6306 0
      vertex 2.35377 29.9075 0
      vertex 3.91086 24.6922 40
    endloop
  endfacet
  facet normal 0.116631 0.985412 0.123941
    outer loop
      vertex 2.35377 29.9075 0
      vertex 1.96148 24.9229 40
      vertex 3.91086 24.6922 40
    endloop
  endfacet
  facet normal 0.0389571 0.991525 0.123941
    outer loop
      vertex 2.35377 29.9075 0
      vertex 0 30 0
      vertex 1.96148 24.9229 40
    endloop
  endfacet
  facet normal 0.0389573 0.991525 0.123941
    outer loop
      vertex 0 30 0
      vertex 0 25 40
      vertex 1.96148 24.9229 40
    endloop
  endfacet
  facet normal -0.0389571 0.991525 0.123941
    outer loop
      vertex 0 30 0
      vertex -2.35377 29.9075 0
      vertex 0 25 40
    endloop
  endfacet
  facet normal -0.0389573 0.991525 0.123941
    outer loop
      vertex 0 25 40
      vertex -2.35377 29.9075 0
      vertex -1.96148 24.9229 40
    endloop
  endfacet
  facet normal -0.116631 0.985412 0.123941
    outer loop
      vertex -2.35377 29.9075 0
      vertex -4.69303 29.6306 0
      vertex -1.96148 24.9229 40
    endloop
  endfacet
  facet normal -0.116631 0.985412 0.123941
    outer loop
      vertex -1.96148 24.9229 40
      vertex -4.69303 29.6306 0
      vertex -3.91086 24.6922 40
    endloop
  endfacet
  facet normal -0.193586 0.973223 0.123941
    outer loop
      vertex -4.69303 29.6306 0
      vertex -7.00336 29.1711 0
      vertex -3.91086 24.6922 40
    endloop
  endfacet
  facet normal -0.193586 0.973223 0.123941
    outer loop
      vertex -3.91086 24.6922 40
      vertex -7.00336 29.1711 0
      vertex -5.83613 24.3092 40
    endloop
  endfacet
  facet normal -0.269348 0.955034 0.123941
    outer loop
      vertex -7.00336 29.1711 0
      vertex -9.27051 28.5317 0
      vertex -5.83613 24.3092 40
    endloop
  endfacet
  facet normal -0.269347 0.955034 0.123941
    outer loop
      vertex -5.83613 24.3092 40
      vertex -9.27051 28.5317 0
      vertex -7.72542 23.7764 40
    endloop
  endfacet
  facet normal -0.343448 0.930958 0.123941
    outer loop
      vertex -9.27051 28.5317 0
      vertex -11.4805 27.7164 0
      vertex -7.72542 23.7764 40
    endloop
  endfacet
  facet normal -0.343449 0.930957 0.123941
    outer loop
      vertex -7.72542 23.7764 40
      vertex -11.4805 27.7164 0
      vertex -9.56709 23.097 40
    endloop
  endfacet
  facet normal -0.415432 0.901141 0.123941
    outer loop
      vertex -11.4805 27.7164 0
      vertex -13.6197 26.7302 0
      vertex -9.56709 23.097 40
    endloop
  endfacet
  facet normal -0.415432 0.901141 0.123941
    outer loop
      vertex -9.56709 23.097 40
      vertex -13.6197 26.7302 0
      vertex -11.3498 22.2752 40
    endloop
  endfacet
  facet normal -0.484854 0.865769 0.123941
    outer loop
      vertex -13.6197 26.7302 0
      vertex -15.675 25.5792 0
      vertex -11.3498 22.2752 40
    endloop
  endfacet
  facet normal -0.484854 0.865769 0.123941
    outer loop
      vertex -11.3498 22.2752 40
      vertex -15.675 25.5792 0
      vertex -13.0625 21.316 40
    endloop
  endfacet
  facet normal -0.551286 0.825059 0.123941
    outer loop
      vertex -15.675 25.5792 0
      vertex -17.6336 24.2705 0
      vertex -13.0625 21.316 40
    endloop
  endfacet
  facet normal -0.551287 0.825059 0.123941
    outer loop
      vertex -13.0625 21.316 40
      vertex -17.6336 24.2705 0
      vertex -14.6946 20.2254 40
    endloop
  endfacet
  facet normal -0.614321 0.779262 0.123941
    outer loop
      vertex -17.6336 24.2705 0
      vertex -19.4834 22.8122 0
      vertex -14.6946 20.2254 40
    endloop
  endfacet
  facet normal -0.614321 0.779262 0.123941
    outer loop
      vertex -14.6946 20.2254 40
      vertex -19.4834 22.8122 0
      vertex -16.2362 19.0101 40
    endloop
  endfacet
  facet normal -0.673567 0.728661 0.123941
    outer loop
      vertex -19.4834 22.8122 0
      vertex -21.2132 21.2132 0
      vertex -16.2362 19.0101 40
    endloop
  endfacet
  facet normal -0.673567 0.728661 0.123941
    outer loop
      vertex -16.2362 19.0101 40
      vertex -21.2132 21.2132 0
      vertex -17.6777 17.6777 40
    endloop
  endfacet
  facet normal -0.728661 0.673567 0.123941
    outer loop
      vertex -21.2132 21.2132 0
      vertex -22.8122 19.4834 0
      vertex -17.6777 17.6777 40
    endloop
  endfacet
  facet normal -0.728661 0.673567 0.123941
    outer loop
      vertex -17.6777 17.6777 40
      vertex -22.8122 19.4834 0
      vertex -19.0101 16.2362 40
    endloop
  endfacet
  facet normal -0.779262 0.614321 0.123941
    outer loop
      vertex -22.8122 19.4834 0
      vertex -24.2705 17.6336 0
      vertex -19.0101 16.2362 40
    endloop
  endfacet
  facet normal -0.779262 0.614321 0.123941
    outer loop
      vertex -19.0101 16.2362 40
      vertex -24.2705 17.6336 0
      vertex -20.2254 14.6946 40
    endloop
  endfacet
  facet normal -0.825059 0.551286 0.123941
    outer loop
      vertex -24.2705 17.6336 0
      vertex -25.5792 15.675 0
      vertex -20.2254 14.6946 40
    endloop
  endfacet
  facet normal -0.825059 0.551287 0.123941
    outer loop
      vertex -20.2254 14.6946 40
      vertex -25.5792 15.675 0
      vertex -21.316 13.0625 40
    endloop
  endfacet
  facet normal -0.865769 0.484854 0.123941
    outer loop
      vertex -25.5792 15.675 0
      vertex -26.7302 13.6197 0
      vertex -21.316 13.0625 40
    endloop
  endfacet
  facet normal -0.865769 0.484854 0.123941
    outer loop
      vertex -21.316 13.0625 40
      vertex -26.7302 13.6197 0
      vertex -22.2752 11.3498 40
    endloop
  endfacet
  facet normal -0.901141 0.415432 0.123941
    outer loop
      vertex -26.7302 13.6197 0
      vertex -27.7164 11.4805 0
      vertex -22.2752 11.3498 40
    endloop
  endfacet
  facet normal -0.901141 0.415432 0.123941
    outer loop
      vertex -22.2752 11.3498 40
      vertex -27.7164 11.4805 0
      vertex -23.097 9.56709 40
    endloop
  endfacet
  facet normal -0.930958 0.343448 0.123941
    outer loop
      vertex -27.7164 11.4805 0
      vertex -28.5317 9.27051 0
      vertex -23.097 9.56709 40
    endloop
  endfacet
  facet normal -0.930957 0.343449 0.123941
    outer loop
      vertex -23.097 9.56709 40
      vertex -28.5317 9.27051 0
      vertex -23.7764 7.72542 40
    endloop
  endfacet
  facet normal -0.955034 0.269348 0.123941
    outer loop
      vertex -28.5317 9.27051 0
      vertex -29.1711 7.00336 0
      vertex -23.7764 7.72542 40
    endloop
  endfacet
  facet normal -0.955034 0.269347 0.123941
    outer loop
      vertex -23.7764 7.72542 40
      vertex -29.1711 7.00336 0
      vertex -24.3092 5.83613 40
    endloop
  endfacet
  facet normal -0.973223 0.193586 0.123941
    outer loop
      vertex -29.1711 7.00336 0
      vertex -29.6306 4.69303 0
      vertex -24.3092 5.83613 40
    endloop
  endfacet
  facet normal -0.973223 0.193586 0.123941
    outer loop
      vertex -24.3092 5.83613 40
      vertex -29.6306 4.69303 0
      vertex -24.6922 3.91086 40
    endloop
  endfacet
  facet normal -0.985412 0.116631 0.123941
    outer loop
      vertex -29.6306 4.69303 0
      vertex -29.9075 2.35377 0
      vertex -24.6922 3.91086 40
    endloop
  endfacet
  facet normal -0.985412 0.116631 0.123941
    outer loop
      vertex -24.6922 3.91086 40
      vertex -29.9075 2.35377 0
      vertex -24.9229 1.96148 40
    endloop
  endfacet
  facet normal 0.994522 -0.104528 0
    outer loop
      vertex -14.6722 3.11867 0
      vertex -14.6722 3.11867 20
      vertex -15 0 20
    endloop
  endfacet
  facet normal 0.994522 -0.104528 0
    outer loop
      vertex -15 0 0
      vertex -14.6722 3.11867 0
      vertex -15 0 20
    endloop
  endfacet
  facet normal 0.994522 0.104528 0
    outer loop
      vertex -15 0 20
      vertex -14.6722 -3.11867 20
      vertex -14.6722 -3.11867 0
    endloop
  endfacet
  facet normal 0.994522 0.104528 0
    outer loop
      vertex -15 0 0
      vertex -15 0 20
      vertex -14.6722 -3.11867 0
    endloop
  endfacet
  facet normal 0.951057 -0.309017 0
    outer loop
      vertex -13.7032 6.10105 0
      vertex -13.7032 6.10105 20
      vertex -14.6722 3.11867 20
    endloop
  endfacet
  facet normal 0.951057 -0.309017 0
    outer loop
      vertex -14.6722 3.11867 0
      vertex -13.7032 6.10105 0
      vertex -14.6722 3.11867 20
    endloop
  endfacet
  facet normal 0.866025 -0.5 0
    outer loop
      vertex -12.1353 8.81678 0
      vertex -12.1353 8.81678 20
      vertex -13.7032 6.10105 20
    endloop
  endfacet
  facet normal 0.866025 -0.5 0
    outer loop
      vertex -13.7032 6.10105 0
      vertex -12.1353 8.81678 0
      vertex -13.7032 6.10105 20
    endloop
  endfacet
  facet normal 0.743145 -0.669131 0
    outer loop
      vertex -10.037 11.1472 0
      vertex -10.037 11.1472 20
      vertex -12.1353 8.81678 20
    endloop
  endfacet
  facet normal 0.743145 -0.669131 0
    outer loop
      vertex -12.1353 8.81678 0
      vertex -10.037 11.1472 0
      vertex -12.1353 8.81678 20
    endloop
  endfacet
  facet normal 0.587785 -0.809017 0
    outer loop
      vertex -7.5 12.9904 0
      vertex -7.5 12.9904 20
      vertex -10.037 11.1472 20
    endloop
  endfacet
  facet normal 0.587785 -0.809017 0
    outer loop
      vertex -10.037 11.1472 0
      vertex -7.5 12.9904 0
      vertex -10.037 11.1472 20
    endloop
  endfacet
  facet normal 0.406737 -0.913545 0
    outer loop
      vertex -4.63525 14.2658 0
      vertex -4.63525 14.2658 20
      vertex -7.5 12.9904 20
    endloop
  endfacet
  facet normal 0.406737 -0.913545 0
    outer loop
      vertex -7.5 12.9904 0
      vertex -4.63525 14.2658 0
      vertex -7.5 12.9904 20
    endloop
  endfacet
  facet normal 0.207911 -0.978148 0
    outer loop
      vertex -1.56793 14.9178 0
      vertex -1.56793 14.9178 20
      vertex -4.63525 14.2658 20
    endloop
  endfacet
  facet normal 0.207911 -0.978148 0
    outer loop
      vertex -4.63525 14.2658 0
      vertex -1.56793 14.9178 0
      vertex -4.63525 14.2658 20
    endloop
  endfacet
  facet normal 0 -1 0
    outer loop
      vertex 1.56793 14.9178 0
      vertex 1.56793 14.9178 20
      vertex -1.56793 14.9178 20
    endloop
  endfacet
  facet normal 0 -1 0
    outer loop
      vertex -1.56793 14.9178 0
      vertex 1.56793 14.9178 0
      vertex -1.56793 14.9178 20
    endloop
  endfacet
  facet normal -0.207911 -0.978148 0
    outer loop
      vertex 4.63525 14.2658 0
      vertex 4.63525 14.2658 20
      vertex 1.56793 14.9178 20
    endloop
  endfacet
  facet normal -0.207911 -0.978148 0
    outer loop
      vertex 1.56793 14.9178 0
      vertex 4.63525 14.2658 0
      vertex 1.56793 14.9178 20
    endloop
  endfacet
  facet normal -0.406737 -0.913545 0
    outer loop
      vertex 7.5 12.9904 0
      vertex 7.5 12.9904 20
      vertex 4.63525 14.2658 20
    endloop
  endfacet
  facet normal -0.406737 -0.913545 0
    outer loop
      vertex 4.63525 14.2658 0
      vertex 7.5 12.9904 0
      vertex 4.63525 14.2658 20
    endloop
  endfacet
  facet normal -0.587785 -0.809017 0
    outer loop
      vertex 10.037 11.1472 0
      vertex 10.037 11.1472 20
      vertex 7.5 12.9904 20
    endloop
  endfacet
  facet normal -0.587785 -0.809017 0
    outer loop
      vertex 7.5 12.9904 0
      vertex 10.037 11.1472 0
      vertex 7.5 12.9904 20
    endloop
  endfacet
  facet normal -0.743145 -0.669131 0
    outer loop
      vertex 12.1353 8.81678 20
      vertex 10.037 11.1472 20
      vertex 12.1353 8.81678 0
    endloop
  endfacet
  facet normal -0.743145 -0.669131 0
    outer loop
      vertex 12.1353 8.81678 0
      vertex 10.037 11.1472 20
      vertex 10.037 11.1472 0
    endloop
  endfacet
  facet normal -0.866025 -0.5 0
    outer loop
      vertex 13.7032 6.10105 20
      vertex 12.1353 8.81678 20
      vertex 13.7032 6.10105 0
    endloop
  endfacet
  facet normal -0.866025 -0.5 0
    outer loop
      vertex 13.7032 6.10105 0
      vertex 12.1353 8.81678 20
      vertex 12.1353 8.81678 0
    endloop
  endfacet
  facet normal -0.951057 -0.309017 0
    outer loop
      vertex 14.6722 3.11867 20
      vertex 13.7032 6.10105 20
      vertex 14.6722 3.11867 0
    endloop
  endfacet
  facet normal -0.951057 -0.309017 0
    outer loop
      vertex 14.6722 3.11867 0
      vertex 13.7032 6.10105 20
      vertex 13.7032 6.10105 0
    endloop
  endfacet
  facet normal -0.994522 -0.104528 0
    outer loop
      vertex 15 0 20
      vertex 14.6722 3.11867 20
      vertex 15 0 0
    endloop
  endfacet
  facet normal -0.994522 -0.104528 0
    outer loop
      vertex 15 0 0
      vertex 14.6722 3.11867 20
      vertex 14.6722 3.11867 0
    endloop
  endfacet
  facet normal -0.994522 0.104528 0
    outer loop
      vertex 15 0 20
      vertex 15 0 0
      vertex 14.6722 -3.11867 20
    endloop
  endfacet
  facet normal -0.994522 0.104528 0
    outer loop
      vertex 14.6722 -3.11867 20
      vertex 15 0 0
      vertex 14.6722 -3.11867 0
    endloop
  endfacet
  facet normal -0.951057 0.309017 0
    outer loop
      vertex 14.6722 -3.11867 20
      vertex 14.6722 -3.11867 0
      vertex 13.7032 -6.10105 20
    endloop
  endfacet
  facet normal -0.951057 0.309017 0
    outer loop
      vertex 13.7032 -6.10105 20
      vertex 14.6722 -3.11867 0
      vertex 13.7032 -6.10105 0
    endloop
  endfacet
  facet normal -0.866025 0.5 0
    outer loop
      vertex 13.7032 -6.10105 20
      vertex 13.7032 -6.10105 0
      vertex 12.1353 -8.81678 20
    endloop
  endfacet
  facet normal -0.866025 0.5 0
    outer loop
      vertex 12.1353 -8.81678 20
      vertex 13.7032 -6.10105 0
      vertex 12.1353 -8.81678 0
    endloop
  endfacet
  facet normal -0.743145 0.669131 0
    outer loop
      vertex 12.1353 -8.81678 20
      vertex 12.1353 -8.81678 0
      vertex 10.037 -11.1472 20
    endloop
  endfacet
  facet normal -0.743145 0.669131 0
    outer loop
      vertex 10.037 -11.1472 20
      vertex 12.1353 -8.81678 0
      vertex 10.037 -11.1472 0
    endloop
  endfacet
  facet normal -0.587785 0.809017 0
    outer loop
      vertex 10.037 -11.1472 20
      vertex 10.037 -11.1472 0
      vertex 7.5 -12.9904 20
    endloop
  endfacet
  facet normal -0.587785 0.809017 0
    outer loop
      vertex 7.5 -12.9904 20
      vertex 10.037 -11.1472 0
      vertex 7.5 -12.9904 0
    endloop
  endfacet
  facet normal -0.406737 0.913545 0
    outer loop
      vertex 7.5 -12.9904 20
      vertex 7.5 -12.9904 0
      vertex 4.63525 -14.2658 20
    endloop
  endfacet
  facet normal -0.406737 0.913545 0
    outer loop
      vertex 4.63525 -14.2658 20
      vertex 7.5 -12.9904 0
      vertex 4.63525 -14.2658 0
    endloop
  endfacet
  facet normal -0.207911 0.978148 0
    outer loop
      vertex 4.63525 -14.2658 20
      vertex 4.63525 -14.2658 0
      vertex 1.56793 -14.9178 20
    endloop
  endfacet
  facet normal -0.207911 0.978148 0
    outer loop
      vertex 1.56793 -14.9178 20
      vertex 4.63525 -14.2658 0
      vertex 1.56793 -14.9178 0
    endloop
  endfacet
  facet normal 0 1 0
    outer loop
      vertex 1.56793 -14.9178 20
      vertex 1.56793 -14.9178 0
      vertex -1.56793 -14.9178 20
    endloop
  endfacet
  facet normal 0 1 0
    outer loop
      vertex -1.56793 -14.9178 20
      vertex 1.56793 -14.9178 0
      vertex -1.56793 -14.9178 0
    endloop
  endfacet
  facet normal 0.207911 0.978148 0
    outer loop
      vertex -1.56793 -14.9178 20
      vertex -1.56793 -14.9178 0
      vertex -4.63525 -14.2658 20
    endloop
  endfacet
  facet normal 0.207911 0.978148 0
    outer loop
      vertex -4.63525 -14.2658 20
      vertex -1.56793 -14.9178 0
      vertex -4.63525 -14.2658 0
    endloop
  endfacet
  facet normal 0.406737 0.913545 0
    outer loop
      vertex -4.63525 -14.2658 20
      vertex -4.63525 -14.2658 0
      vertex -7.5 -12.9904 20
    endloop
  endfacet
  facet normal 0.406737 0.913545 0
    outer loop
      vertex -7.5 -12.9904 20
      vertex -4.63525 -14.2658 0
      vertex -7.5 -12.9904 0
    endloop
  endfacet
  facet normal 0.587785 0.809017 0
    outer loop
      vertex -7.5 -12.9904 20
      vertex -7.5 -12.9904 0
      vertex -10.037 -11.1472 20
    endloop
  endfacet
  facet normal 0.587785 0.809017 0
    outer loop
      vertex -10.037 -11.1472 20
      vertex -7.5 -12.9904 0
      vertex -10.037 -11.1472 0
    endloop
  endfacet
  facet normal 0.743145 0.669131 0
    outer loop
      vertex -12.1353 -8.81678 20
      vertex -10.037 -11.1472 20
      vertex -10.037 -11.1472 0
    endloop
  endfacet
  facet normal 0.743145 0.669131 0
    outer loop
      vertex -12.1353 -8.81678 0
      vertex -12.1353 -8.81678 20
      vertex -10.037 -11.1472 0
    endloop
  endfacet
  facet normal 0.866025 0.5 0
    outer loop
      vertex -13.7032 -6.10105 20
      vertex -12.1353 -8.81678 20
      vertex -12.1353 -8.81678 0
    endloop
  endfacet
  facet normal 0.866025 0.5 0
    outer loop
      vertex -13.7032 -6.10105 0
      vertex -13.7032 -6.10105 20
      vertex -12.1353 -8.81678 0
    endloop
  endfacet
  facet normal 0.951057 0.309017 0
    outer loop
      vertex -14.6722 -3.11867 20
      vertex -13.7032 -6.10105 20
      vertex -13.7032 -6.10105 0
    endloop
  endfacet
  facet normal 0.951057 0.309017 0
    outer loop
      vertex -14.6722 -3.11867 0
      vertex -14.6722 -3.11867 20
      vertex -13.7032 -6.10105 0
    endloop
  endfacet
  facet normal 0 0 1
    outer loop
      vertex -24.9229 1.96148 40
      vertex -25 0 40
      vertex -24.9229 -1.96148 40
    endloop
  endfacet
  facet normal 0 0 1
    outer loop
      vertex -24.3092 -5.83613 40
      vertex -24.9229 1.96148 40
      vertex -24.6922 -3.91086 40
    endloop
  endfacet
  facet normal 0 0 1
    outer loop
      vertex -24.6922 -3.91086 40
      vertex -24.9229 1.96148 40
      vertex -24.9229 -1.96148 40
    endloop
  endfacet
  facet normal 0 0 1
    outer loop
      vertex -23.7764 -7.72542 40
      vertex -24.9229 1.96148 40
      vertex -24.3092 -5.83613 40
    endloop
  endfacet
  facet normal 0 0 1
    outer loop
      vertex -23.097 -9.56709 40
      vertex -24.9229 1.96148 40
      vertex -23.7764 -7.72542 40
    endloop
  endfacet
  facet normal 0 0 1
    outer loop
      vertex -22.2752 -11.3498 40
      vertex -24.9229 1.96148 40
      vertex -23.097 -9.56709 40
    endloop
  endfacet
  facet normal 0 0 1
    outer loop
      vertex -21.316 -13.0625 40
      vertex -24.9229 1.96148 40
      vertex -22.2752 -11.3498 40
    endloop
  endfacet
  facet normal 0 0 1
    outer loop
      vertex -20.2254 -14.6946 40
      vertex -24.9229 1.96148 40
      vertex -21.316 -13.0625 40
    endloop
  endfacet
  facet normal 0 0 1
    outer loop
      vertex -19.0101 -16.2362 40
      vertex -24.9229 1.96148 40
      vertex -20.2254 -14.6946 40
    endloop
  endfacet
  facet normal 0 0 1
    outer loop
      vertex -17.6777 -17.6777 40
      vertex -24.9229 1.96148 40
      vertex -19.0101 -16.2362 40
    endloop
  endfacet
  facet normal 0 0 1
    outer loop
      vertex -16.2362 -19.0101 40
      vertex -24.9229 1.96148 40
      vertex -17.6777 -17.6777 40
    endloop
  endfacet
  facet normal 0 0 1
    outer loop
      vertex -16.5 -16.5 40
      vertex -24.9229 1.96148 40
      vertex -16.2362 -19.0101 40
    endloop
  endfacet
  facet normal 0 0 1
    outer loop
      vertex -16.5 16.5 40
      vertex -9.56709 23.097 40
      vertex -11.3498 22.2752 40
    endloop
  endfacet
  facet normal 0 0 1
    outer loop
      vertex -16.5 16.5 40
      vertex -7.72542 23.7764 40
      vertex -9.56709 23.097 40
    endloop
  endfacet
  facet normal 0 0 1
    outer loop
      vertex -16.5 16.5 40
      vertex -5.83613 24.3092 40
      vertex -7.72542 23.7764 40
    endloop
  endfacet
  facet normal 0 0 1
    outer loop
      vertex -16.5 16.5 40
      vertex -3.91086 24.6922 40
      vertex -5.83613 24.3092 40
    endloop
  endfacet
  facet normal 0 0 1
    outer loop
      vertex -16.5 16.5 40
      vertex -1.96148 24.9229 40
      vertex -3.91086 24.6922 40
    endloop
  endfacet
  facet normal 0 0 1
    outer loop
      vertex -16.5 16.5 40
      vertex 0 25 40
      vertex -1.96148 24.9229 40
    endloop
  endfacet
  facet normal 0 0 1
    outer loop
      vertex -16.5 16.5 40
      vertex 1.96148 24.9229 40
      vertex 0 25 40
    endloop
  endfacet
  facet normal 0 0 1
    outer loop
      vertex -16.5 16.5 40
      vertex 3.91086 24.6922 40
      vertex 1.96148 24.9229 40
    endloop
  endfacet
  facet normal 0 0 1
    outer loop
      vertex -16.5 16.5 40
      vertex 5.83613 24.3092 40
      vertex 3.91086 24.6922 40
    endloop
  endfacet
  facet normal 0 0 1
    outer loop
      vertex -16.5 16.5 40
      vertex 7.72542 23.7764 40
      vertex 5.83613 24.3092 40
    endloop
  endfacet
  facet normal 0 0 1
    outer loop
      vertex -16.5 16.5 40
      vertex 9.56709 23.097 40
      vertex 7.72542 23.7764 40
    endloop
  endfacet
  facet normal 0 0 1
    outer loop
      vertex -16.5 16.5 40
      vertex 11.3498 22.2752 40
      vertex 9.56709 23.097 40
    endloop
  endfacet
  facet normal 0 0 1
    outer loop
      vertex -16.5 16.5 40
      vertex 13.0625 21.316 40
      vertex 11.3498 22.2752 40
    endloop
  endfacet
  facet normal 0 0 1
    outer loop
      vertex -16.5 16.5 40
      vertex 14.6946 20.2254 40
      vertex 13.0625 21.316 40
    endloop
  endfacet
  facet normal 0 0 1
    outer loop
      vertex -16.5 16.5 40
      vertex 16.2362 19.0101 40
      vertex 14.6946 20.2254 40
    endloop
  endfacet
  facet normal 0 0 1
    outer loop
      vertex -16.5 16.5 40
      vertex 17.6777 17.6777 40
      vertex 16.2362 19.0101 40
    endloop
  endfacet
  facet normal 0 0 1
    outer loop
      vertex -16.5 16.5 40
      vertex 16.5 16.5 40
      vertex 17.6777 17.6777 40
    endloop
  endfacet
  facet normal 0 0 1
    outer loop
      vertex 16.5 16.5 40
      vertex 16.5 -16.5 40
      vertex 19.0101 -16.2362 40
    endloop
  endfacet
  facet normal 0 0 1
    outer loop
      vertex 16.5 16.5 40
      vertex 20.2254 -14.6946 40
      vertex 21.316 -13.0625 40
    endloop
  endfacet
  facet normal 0 0 1
    outer loop
      vertex 16.5 16.5 40
      vertex 21.316 -13.0625 40
      vertex 22.2752 -11.3498 40
    endloop
  endfacet
  facet normal 0 0 1
    outer loop
      vertex 16.5 16.5 40
      vertex 22.2752 -11.3498 40
      vertex 23.097 -9.56709 40
    endloop
  endfacet
  facet normal 0 0 1
    outer loop
      vertex 16.5 16.5 40
      vertex 23.097 -9.56709 40
      vertex 23.7764 -7.72542 40
    endloop
  endfacet
  facet normal 0 0 1
    outer loop
      vertex 16.5 16.5 40
      vertex 23.7764 -7.72542 40
      vertex 24.3092 -5.83613 40
    endloop
  endfacet
  facet normal 0 0 1
    outer loop
      vertex 16.5 16.5 40
      vertex 24.3092 -5.83613 40
      vertex 24.6922 -3.91086 40
    endloop
  endfacet
  facet normal 0 0 1
    outer loop
      vertex 16.5 16.5 40
      vertex 24.6922 -3.91086 40
      vertex 24.9229 -1.96148 40
    endloop
  endfacet
  facet normal 0 0 1
    outer loop
      vertex 16.5 16.5 40
      vertex 24.9229 -1.96148 40
      vertex 25 0 40
    endloop
  endfacet
  facet normal 0 0 1
    outer loop
      vertex 16.5 16.5 40
      vertex 25 0 40
      vertex 24.9229 1.96148 40
    endloop
  endfacet
  facet normal 0 0 1
    outer loop
      vertex 16.5 16.5 40
      vertex 24.9229 1.96148 40
      vertex 24.6922 3.91086 40
    endloop
  endfacet
  facet normal 0 0 1
    outer loop
      vertex 16.5 16.5 40
      vertex 24.6922 3.91086 40
      vertex 24.3092 5.83613 40
    endloop
  endfacet
  facet normal 0 0 1
    outer loop
      vertex 16.5 16.5 40
      vertex 24.3092 5.83613 40
      vertex 23.7764 7.72542 40
    endloop
  endfacet
  facet normal 0 0 1
    outer loop
      vertex 16.5 16.5 40
      vertex 23.7764 7.72542 40
      vertex 23.097 9.56709 40
    endloop
  endfacet
  facet normal 0 0 1
    outer loop
      vertex 16.5 16.5 40
      vertex 23.097 9.56709 40
      vertex 22.2752 11.3498 40
    endloop
  endfacet
  facet normal 0 0 1
    outer loop
      vertex 16.5 16.5 40
      vertex 22.2752 11.3498 40
      vertex 21.316 13.0625 40
    endloop
  endfacet
  facet normal 0 0 1
    outer loop
      vertex 16.5 16.5 40
      vertex 21.316 13.0625 40
      vertex 20.2254 14.6946 40
    endloop
  endfacet
  facet normal 0 0 1
    outer loop
      vertex 16.5 16.5 40
      vertex 20.2254 14.6946 40
      vertex 19.0101 16.2362 40
    endloop
  endfacet
  facet normal 0 0 1
    outer loop
      vertex -16.2362 19.0101 40
      vertex -24.9229 1.96148 40
      vertex -14.6946 20.2254 40
    endloop
  endfacet
  facet normal 0 0 1
    outer loop
      vertex -17.6777 17.6777 40
      vertex -24.9229 1.96148 40
      vertex -16.2362 19.0101 40
    endloop
  endfacet
  facet normal 0 0 1
    outer loop
      vertex -19.0101 16.2362 40
      vertex -24.9229 1.96148 40
      vertex -17.6777 17.6777 40
    endloop
  endfacet
  facet normal 0 0 1
    outer loop
      vertex -20.2254 14.6946 40
      vertex -24.9229 1.96148 40
      vertex -19.0101 16.2362 40
    endloop
  endfacet
  facet normal 0 0 1
    outer loop
      vertex -21.316 13.0625 40
      vertex -24.9229 1.96148 40
      vertex -20.2254 14.6946 40
    endloop
  endfacet
  facet normal 0 0 1
    outer loop
      vertex -22.2752 11.3498 40
      vertex -24.9229 1.96148 40
      vertex -21.316 13.0625 40
    endloop
  endfacet
  facet normal 0 0 1
    outer loop
      vertex -23.097 9.56709 40
      vertex -24.9229 1.96148 40
      vertex -22.2752 11.3498 40
    endloop
  endfacet
  facet normal 0 0 1
    outer loop
      vertex -23.7764 7.72542 40
      vertex -24.9229 1.96148 40
      vertex -23.097 9.56709 40
    endloop
  endfacet
  facet normal 0 0 1
    outer loop
      vertex -24.3092 5.83613 40
      vertex -24.9229 1.96148 40
      vertex -23.7764 7.72542 40
    endloop
  endfacet
  facet normal 0 0 1
    outer loop
      vertex -24.6922 3.91086 40
      vertex -24.9229 1.96148 40
      vertex -24.3092 5.83613 40
    endloop
  endfacet
  facet normal 0 0 1
    outer loop
      vertex -14.6946 -20.2254 40
      vertex -16.5 -16.5 40
      vertex -16.2362 -19.0101 40
    endloop
  endfacet
  facet normal 0 0 1
    outer loop
      vertex -16.5 16.5 40
      vertex -11.3498 22.2752 40
      vertex -13.0625 21.316 40
    endloop
  endfacet
  facet normal 0 0 1
    outer loop
      vertex -14.6946 20.2254 40
      vertex -16.5 16.5 40
      vertex -13.0625 21.316 40
    endloop
  endfacet
  facet normal 0 0 1
    outer loop
      vertex -14.6946 20.2254 40
      vertex -24.9229 1.96148 40
      vertex -16.5 16.5 40
    endloop
  endfacet
  facet normal 0 0 1
    outer loop
      vertex 17.6777 17.6777 40
      vertex 16.5 16.5 40
      vertex 19.0101 16.2362 40
    endloop
  endfacet
  facet normal 0 0 1
    outer loop
      vertex 16.5 16.5 40
      vertex 19.0101 -16.2362 40
      vertex 20.2254 -14.6946 40
    endloop
  endfacet
  facet normal 0 0 1
    outer loop
      vertex 19.0101 -16.2362 40
      vertex 16.5 -16.5 40
      vertex 17.6777 -17.6777 40
    endloop
  endfacet
  facet normal 0 0 1
    outer loop
      vertex 16.5 -16.5 40
      vertex 16.2362 -19.0101 40
      vertex 17.6777 -17.6777 40
    endloop
  endfacet
  facet normal 0 0 1
    outer loop
      vertex 16.5 -16.5 40
      vertex 14.6946 -20.2254 40
      vertex 16.2362 -19.0101 40
    endloop
  endfacet
  facet normal 0 0 1
    outer loop
      vertex 16.5 -16.5 40
      vertex 13.0625 -21.316 40
      vertex 14.6946 -20.2254 40
    endloop
  endfacet
  facet normal 0 0 1
    outer loop
      vertex 16.5 -16.5 40
      vertex 11.3498 -22.2752 40
      vertex 13.0625 -21.316 40
    endloop
  endfacet
  facet normal 0 0 1
    outer loop
      vertex 16.5 -16.5 40
      vertex 9.56709 -23.097 40
      vertex 11.3498 -22.2752 40
    endloop
  endfacet
  facet normal 0 0 1
    outer loop
      vertex 16.5 -16.5 40
      vertex 7.72542 -23.7764 40
      vertex 9.56709 -23.097 40
    endloop
  endfacet
  facet normal 0 0 1
    outer loop
      vertex 16.5 -16.5 40
      vertex 5.83613 -24.3092 40
      vertex 7.72542 -23.7764 40
    endloop
  endfacet
  facet normal 0 0 1
    outer loop
      vertex 16.5 -16.5 40
      vertex 3.91086 -24.6922 40
      vertex 5.83613 -24.3092 40
    endloop
  endfacet
  facet normal 0 0 1
    outer loop
      vertex 16.5 -16.5 40
      vertex 1.96148 -24.9229 40
      vertex 3.91086 -24.6922 40
    endloop
  endfacet
  facet normal 0 0 1
    outer loop
      vertex 16.5 -16.5 40
      vertex 0 -25 40
      vertex 1.96148 -24.9229 40
    endloop
  endfacet
  facet normal 0 0 1
    outer loop
      vertex 16.5 -16.5 40
      vertex -1.96148 -24.9229 40
      vertex 0 -25 40
    endloop
  endfacet
  facet normal 0 0 1
    outer loop
      vertex 16.5 -16.5 40
      vertex -3.91086 -24.6922 40
      vertex -1.96148 -24.9229 40
    endloop
  endfacet
  facet normal 0 0 1
    outer loop
      vertex 16.5 -16.5 40
      vertex -5.83613 -24.3092 40
      vertex -3.91086 -24.6922 40
    endloop
  endfacet
  facet normal 0 0 1
    outer loop
      vertex 16.5 -16.5 40
      vertex -7.72542 -23.7764 40
      vertex -5.83613 -24.3092 40
    endloop
  endfacet
  facet normal 0 0 1
    outer loop
      vertex 16.5 -16.5 40
      vertex -9.56709 -23.097 40
      vertex -7.72542 -23.7764 40
    endloop
  endfacet
  facet normal 0 0 1
    outer loop
      vertex 16.5 -16.5 40
      vertex -11.3498 -22.2752 40
      vertex -9.56709 -23.097 40
    endloop
  endfacet
  facet normal 0 0 1
    outer loop
      vertex 16.5 -16.5 40
      vertex -13.0625 -21.316 40
      vertex -11.3498 -22.2752 40
    endloop
  endfacet
  facet normal 0 0 1
    outer loop
      vertex 16.5 -16.5 40
      vertex -14.6946 -20.2254 40
      vertex -13.0625 -21.316 40
    endloop
  endfacet
  facet normal 0 0 1
    outer loop
      vertex 16.5 -16.5 40
      vertex -16.5 -16.5 40
      vertex -14.6946 -20.2254 40
    endloop
  endfacet
  facet normal 0 0 1
    outer loop
      vertex -16.5 -16.5 40
      vertex -16.5 16.5 40
      vertex -24.9229 1.96148 40
    endloop
  endfacet
  facet normal 0 0 1
    outer loop
      vertex -1.56793 14.9178 20
      vertex 16.5 16.5 20
      vertex -16.5 16.5 20
    endloop
  endfacet
  facet normal 0 0 1
    outer loop
      vertex -1.56793 14.9178 20
      vertex 1.56793 14.9178 20
      vertex 16.5 16.5 20
    endloop
  endfacet
  facet normal 0 0 1
    outer loop
      vertex -16.5 -16.5 20
      vertex -15 0 20
      vertex -16.5 16.5 20
    endloop
  endfacet
  facet normal 0 0 1
    outer loop
      vertex -15 0 20
      vertex -14.6722 3.11867 20
      vertex -16.5 16.5 20
    endloop
  endfacet
  facet normal 0 0 1
    outer loop
      vertex 1.56793 -14.9178 20
      vertex -1.56793 -14.9178 20
      vertex -16.5 -16.5 20
    endloop
  endfacet
  facet normal 0 0 1
    outer loop
      vertex -14.6722 3.11867 20
      vertex -13.7032 6.10105 20
      vertex -16.5 16.5 20
    endloop
  endfacet
  facet normal 0 0 1
    outer loop
      vertex -13.7032 6.10105 20
      vertex -12.1353 8.81678 20
      vertex -16.5 16.5 20
    endloop
  endfacet
  facet normal 0 0 1
    outer loop
      vertex -10.037 11.1472 20
      vertex -7.5 12.9904 20
      vertex -16.5 16.5 20
    endloop
  endfacet
  facet normal 0 0 1
    outer loop
      vertex -7.5 12.9904 20
      vertex -4.63525 14.2658 20
      vertex -16.5 16.5 20
    endloop
  endfacet
  facet normal 0 0 1
    outer loop
      vertex -4.63525 14.2658 20
      vertex -1.56793 14.9178 20
      vertex -16.5 16.5 20
    endloop
  endfacet
  facet normal 0 0 1
    outer loop
      vertex 1.56793 14.9178 20
      vertex 4.63525 14.2658 20
      vertex 16.5 16.5 20
    endloop
  endfacet
  facet normal 0 0 1
    outer loop
      vertex 4.63525 14.2658 20
      vertex 7.5 12.9904 20
      vertex 16.5 16.5 20
    endloop
  endfacet
  facet normal 0 0 1
    outer loop
      vertex 10.037 11.1472 20
      vertex 16.5 16.5 20
      vertex 7.5 12.9904 20
    endloop
  endfacet
  facet normal 0 0 1
    outer loop
      vertex 12.1353 8.81678 20
      vertex 16.5 16.5 20
      vertex 10.037 11.1472 20
    endloop
  endfacet
  facet normal 0 0 1
    outer loop
      vertex 13.7032 -6.10105 20
      vertex 12.1353 -8.81678 20
      vertex 16.5 -16.5 20
    endloop
  endfacet
  facet normal 0 0 1
    outer loop
      vertex 13.7032 6.10105 20
      vertex 16.5 16.5 20
      vertex 12.1353 8.81678 20
    endloop
  endfacet
  facet normal 0 0 1
    outer loop
      vertex 14.6722 3.11867 20
      vertex 16.5 16.5 20
      vertex 13.7032 6.10105 20
    endloop
  endfacet
  facet normal 0 0 1
    outer loop
      vertex 15 0 20
      vertex 16.5 16.5 20
      vertex 14.6722 3.11867 20
    endloop
  endfacet
  facet normal 0 0 1
    outer loop
      vertex 14.6722 -3.11867 20
      vertex 13.7032 -6.10105 20
      vertex 16.5 -16.5 20
    endloop
  endfacet
  facet normal 0 0 1
    outer loop
      vertex 16.5 -16.5 20
      vertex 16.5 16.5 20
      vertex 15 0 20
    endloop
  endfacet
  facet normal 0 0 1
    outer loop
      vertex 12.1353 -8.81678 20
      vertex 10.037 -11.1472 20
      vertex 16.5 -16.5 20
    endloop
  endfacet
  facet normal 0 0 1
    outer loop
      vertex 4.63525 -14.2658 20
      vertex 16.5 -16.5 20
      vertex 7.5 -12.9904 20
    endloop
  endfacet
  facet normal 0 0 1
    outer loop
      vertex 1.56793 -14.9178 20
      vertex 16.5 -16.5 20
      vertex 4.63525 -14.2658 20
    endloop
  endfacet
  facet normal 0 0 1
    outer loop
      vertex -1.56793 -14.9178 20
      vertex -4.63525 -14.2658 20
      vertex -16.5 -16.5 20
    endloop
  endfacet
  facet normal 0 0 1
    outer loop
      vertex -16.5 -16.5 20
      vertex 16.5 -16.5 20
      vertex 1.56793 -14.9178 20
    endloop
  endfacet
  facet normal 0 0 1
    outer loop
      vertex -16.5 -16.5 20
      vertex -4.63525 -14.2658 20
      vertex -7.5 -12.9904 20
    endloop
  endfacet
  facet normal 0 0 1
    outer loop
      vertex -16.5 -16.5 20
      vertex -7.5 -12.9904 20
      vertex -10.037 -11.1472 20
    endloop
  endfacet
  facet normal 0 0 1
    outer loop
      vertex -16.5 -16.5 20
      vertex -10.037 -11.1472 20
      vertex -12.1353 -8.81678 20
    endloop
  endfacet
  facet normal 0 0 1
    outer loop
      vertex -16.5 -16.5 20
      vertex -12.1353 -8.81678 20
      vertex -13.7032 -6.10105 20
    endloop
  endfacet
  facet normal 0 0 1
    outer loop
      vertex -16.5 -16.5 20
      vertex -14.6722 -3.11867 20
      vertex -15 0 20
    endloop
  endfacet
  facet normal 0 0 1
    outer loop
      vertex -16.5 -16.5 20
      vertex -13.7032 -6.10105 20
      vertex -14.6722 -3.11867 20
    endloop
  endfacet
  facet normal 0 0 1
    outer loop
      vertex -12.1353 8.81678 20
      vertex -10.037 11.1472 20
      vertex -16.5 16.5 20
    endloop
  endfacet
  facet normal 0 0 1
    outer loop
      vertex 15 0 20
      vertex 14.6722 -3.11867 20
      vertex 16.5 -16.5 20
    endloop
  endfacet
  facet normal 0 0 1
    outer loop
      vertex 10.037 -11.1472 20
      vertex 7.5 -12.9904 20
      vertex 16.5 -16.5 20
    endloop
  endfacet
  facet normal 1 0 0
    outer loop
      vertex -16.5 16.5 20
      vertex -16.5 16.5 40
      vertex -16.5 -16.5 40
    endloop
  endfacet
  facet normal 1 0 0
    outer loop
      vertex -16.5 -16.5 20
      vertex -16.5 16.5 20
      vertex -16.5 -16.5 40
    endloop
  endfacet
  facet normal 0 1 0
    outer loop
      vertex 16.5 -16.5 40
      vertex 16.5 -16.5 20
      vertex -16.5 -16.5 40
    endloop
  endfacet
  facet normal 0 1 0
    outer loop
      vertex -16.5 -16.5 40
      vertex 16.5 -16.5 20
      vertex -16.5 -16.5 20
    endloop
  endfacet
  facet normal -1 0 0
    outer loop
      vertex 16.5 16.5 40
      vertex 16.5 16.5 20
      vertex 16.5 -16.5 40
    endloop
  endfacet
  facet normal -1 0 0
    outer loop
      vertex 16.5 -16.5 40
      vertex 16.5 16.5 20
      vertex 16.5 -16.5 20
    endloop
  endfacet
  facet normal 0 -1 0
    outer loop
      vertex 16.5 16.5 20
      vertex 16.5 16.5 40
      vertex -16.5 16.5 40
    endloop
  endfacet
  facet normal 0 -1 0
    outer loop
      vertex -16.5 16.5 20
      vertex 16.5 16.5 20
      vertex -16.5 16.5 40
    endloop
  endfacet
endsolid OpenSCAD_Model
